<?xml version="1.0" encoding="utf-8"?>
<!-- Generator: Adobe Illustrator 24.0.2, SVG Export Plug-In . SVG Version: 6.00 Build 0)  -->
<svg version="1.1" id="Слой_1" xmlns="http://www.w3.org/2000/svg" xmlns:xlink="http://www.w3.org/1999/xlink" x="0px" y="0px"
	 viewBox="0 0 126 34.9" style="enable-background:new 0 0 126 34.9;" xml:space="preserve">
<style type="text/css">
	.st0{fill:url(#SVGID_1_);}
	.st1{fill:url(#SVGID_2_);}
	.st2{fill:url(#SVGID_3_);fill-opacity:0.5;}
	.st3{fill:url(#SVGID_4_);}
	.st4{fill:url(#SVGID_5_);}
	.st5{fill:url(#SVGID_6_);fill-opacity:0.5;}
	.st6{fill:url(#SVGID_7_);}
	.st7{fill:url(#SVGID_8_);}
	.st8{fill:url(#SVGID_9_);fill-opacity:0.5;}
	.st9{fill:url(#SVGID_10_);}
	.st10{fill:url(#SVGID_11_);}
	.st11{fill:url(#SVGID_12_);fill-opacity:0.5;}
</style>
<title>play</title>
<linearGradient id="SVGID_1_" gradientUnits="userSpaceOnUse" x1="-191.3421" y1="4027.8701" x2="-188.7021" y2="4061.4702" gradientTransform="matrix(1 0 0 1 265 -4026.0601)">
	<stop  offset="0" style="stop-color:#FFC95E"/>
	<stop  offset="9.000000e-02" style="stop-color:#C48C2C"/>
	<stop  offset="0.16" style="stop-color:#9F660C"/>
	<stop  offset="0.19" style="stop-color:#915700"/>
	<stop  offset="0.22" style="stop-color:#955B03"/>
	<stop  offset="0.25" style="stop-color:#A0660D"/>
	<stop  offset="0.27" style="stop-color:#B37A1D"/>
	<stop  offset="0.3" style="stop-color:#CD9533"/>
	<stop  offset="0.32" style="stop-color:#EFB850"/>
	<stop  offset="0.33" style="stop-color:#FFC95E"/>
	<stop  offset="0.5" style="stop-color:#3B1200"/>
	<stop  offset="0.58" style="stop-color:#6A3E17"/>
	<stop  offset="0.77" style="stop-color:#E0AC4F"/>
	<stop  offset="0.81" style="stop-color:#FFC95E"/>
	<stop  offset="0.84" style="stop-color:#FBC55A"/>
	<stop  offset="0.88" style="stop-color:#EEB74F"/>
	<stop  offset="0.92" style="stop-color:#D9A13D"/>
	<stop  offset="0.96" style="stop-color:#BB8224"/>
	<stop  offset="1" style="stop-color:#915700"/>
</linearGradient>
<path class="st0" d="M75.4,0.3H87l5.7,34.5h-10l-1.1-7.4h-8.4L70,34.8H59.8L75.4,0.3z M76.2,20.3h4.5l-1-8.1L76.2,20.3z"/>
<linearGradient id="SVGID_2_" gradientUnits="userSpaceOnUse" x1="-188.8197" y1="4030.02" x2="-188.9797" y2="4056.55" gradientTransform="matrix(1 0 0 1 265 -4026.0601)">
	<stop  offset="0.27" style="stop-color:#FFFFFF"/>
	<stop  offset="0.5" style="stop-color:#FFEFCF"/>
	<stop  offset="0.72" style="stop-color:#FFE1A7"/>
	<stop  offset="0.89" style="stop-color:#FFD98E"/>
	<stop  offset="1" style="stop-color:#FFD685"/>
</linearGradient>
<path class="st1" d="M75.4,0.2h11L92,33.9h-9.2l-1.1-7.4h-9.1l-3.3,7.3H60L75.4,0.2z M75.2,20.2h5.6l-1.3-10.1L75.2,20.2z"/>
<linearGradient id="SVGID_3_" gradientUnits="userSpaceOnUse" x1="-188.3929" y1="4027.71" x2="-188.6029" y2="4060.52" gradientTransform="matrix(1 0 0 1 265 -4026.0601)">
	<stop  offset="0" style="stop-color:#FFF9EC"/>
	<stop  offset="2.000000e-02" style="stop-color:#FFF7E5"/>
	<stop  offset="0.12" style="stop-color:#FFECC6"/>
	<stop  offset="0.22" style="stop-color:#FFE4AF"/>
	<stop  offset="0.32" style="stop-color:#FFE0A2"/>
	<stop  offset="0.4" style="stop-color:#3B1200"/>
	<stop  offset="0.45" style="stop-color:#552700"/>
	<stop  offset="0.54" style="stop-color:#915700"/>
	<stop  offset="0.57" style="stop-color:#A36A10"/>
	<stop  offset="0.65" style="stop-color:#D59D3A"/>
	<stop  offset="0.71" style="stop-color:#F3BD54"/>
	<stop  offset="0.74" style="stop-color:#FFC95E"/>
	<stop  offset="0.78" style="stop-color:#FFCF6F"/>
	<stop  offset="0.88" style="stop-color:#FFDE9A"/>
	<stop  offset="0.95" style="stop-color:#FFE7B5"/>
	<stop  offset="1" style="stop-color:#FFEABF"/>
</linearGradient>
<path class="st2" d="M83.5,34l-1.1-7.4h-9.7L69.4,34H61L76,1.2h10.4L91.8,34H83.5z M81.6,21.2L80.1,9l-5.2,12.2H81.6z"/>
<linearGradient id="SVGID_4_" gradientUnits="userSpaceOnUse" x1="-223.352" y1="4027.1201" x2="-220.722" y2="4060.6401" gradientTransform="matrix(1 0 0 1 265 -4026.0601)">
	<stop  offset="0" style="stop-color:#FFC95E"/>
	<stop  offset="9.000000e-02" style="stop-color:#C48C2C"/>
	<stop  offset="0.16" style="stop-color:#9F660C"/>
	<stop  offset="0.19" style="stop-color:#915700"/>
	<stop  offset="0.22" style="stop-color:#955B03"/>
	<stop  offset="0.25" style="stop-color:#A0660D"/>
	<stop  offset="0.27" style="stop-color:#B37A1D"/>
	<stop  offset="0.3" style="stop-color:#CD9533"/>
	<stop  offset="0.32" style="stop-color:#EFB850"/>
	<stop  offset="0.33" style="stop-color:#FFC95E"/>
	<stop  offset="0.5" style="stop-color:#3B1200"/>
	<stop  offset="0.58" style="stop-color:#6A3E17"/>
	<stop  offset="0.77" style="stop-color:#E0AC4F"/>
	<stop  offset="0.81" style="stop-color:#FFC95E"/>
	<stop  offset="0.84" style="stop-color:#FBC55A"/>
	<stop  offset="0.88" style="stop-color:#EEB74F"/>
	<stop  offset="0.92" style="stop-color:#D9A13D"/>
	<stop  offset="0.96" style="stop-color:#BB8224"/>
	<stop  offset="1" style="stop-color:#915700"/>
</linearGradient>
<path class="st3" d="M37.1,0.2h9.8l-3.8,26h12.7l-1.2,8.4H32.1L37.1,0.2z"/>
<linearGradient id="SVGID_5_" gradientUnits="userSpaceOnUse" x1="-221.3317" y1="4029.8101" x2="-221.5017" y2="4056.27" gradientTransform="matrix(1 0 0 1 265 -4026.0601)">
	<stop  offset="0.27" style="stop-color:#FFFFFF"/>
	<stop  offset="0.5" style="stop-color:#FFEFCF"/>
	<stop  offset="0.72" style="stop-color:#FFE1A7"/>
	<stop  offset="0.89" style="stop-color:#FFD98E"/>
	<stop  offset="1" style="stop-color:#FFD685"/>
</linearGradient>
<path class="st4" d="M37.1,0.2H46l-3.8,26h12.7l-1.1,7.5H32.1L37.1,0.2z"/>
<linearGradient id="SVGID_6_" gradientUnits="userSpaceOnUse" x1="-220.9142" y1="4027.5" x2="-221.1242" y2="4060.2812" gradientTransform="matrix(1 0 0 1 265 -4026.0601)">
	<stop  offset="0" style="stop-color:#FFF9EC"/>
	<stop  offset="2.000000e-02" style="stop-color:#FFF7E5"/>
	<stop  offset="0.12" style="stop-color:#FFECC6"/>
	<stop  offset="0.22" style="stop-color:#FFE4AF"/>
	<stop  offset="0.32" style="stop-color:#FFE0A2"/>
	<stop  offset="0.4" style="stop-color:#3B1200"/>
	<stop  offset="0.45" style="stop-color:#552700"/>
	<stop  offset="0.54" style="stop-color:#915700"/>
	<stop  offset="0.57" style="stop-color:#A36A10"/>
	<stop  offset="0.65" style="stop-color:#D59D3A"/>
	<stop  offset="0.71" style="stop-color:#F3BD54"/>
	<stop  offset="0.74" style="stop-color:#FFC95E"/>
	<stop  offset="0.78" style="stop-color:#FFCF6F"/>
	<stop  offset="0.88" style="stop-color:#FFDE9A"/>
	<stop  offset="0.95" style="stop-color:#FFE7B5"/>
	<stop  offset="1" style="stop-color:#FFEABF"/>
</linearGradient>
<path class="st5" d="M54.8,27.1l-1,6.7H33l4.8-32.7h8.1l-3.8,26H54.8z"/>
<linearGradient id="SVGID_7_" gradientUnits="userSpaceOnUse" x1="-251.7974" y1="4027.0198" x2="-249.2474" y2="4059.5298" gradientTransform="matrix(1 0 0 1 265 -4026.0601)">
	<stop  offset="0" style="stop-color:#FFC95E"/>
	<stop  offset="9.000000e-02" style="stop-color:#C48C2C"/>
	<stop  offset="0.16" style="stop-color:#9F660C"/>
	<stop  offset="0.19" style="stop-color:#915700"/>
	<stop  offset="0.22" style="stop-color:#955B03"/>
	<stop  offset="0.25" style="stop-color:#A0660D"/>
	<stop  offset="0.27" style="stop-color:#B37A1D"/>
	<stop  offset="0.3" style="stop-color:#CD9533"/>
	<stop  offset="0.32" style="stop-color:#EFB850"/>
	<stop  offset="0.33" style="stop-color:#FFC95E"/>
	<stop  offset="0.5" style="stop-color:#3B1200"/>
	<stop  offset="0.58" style="stop-color:#6A3E17"/>
	<stop  offset="0.77" style="stop-color:#E0AC4F"/>
	<stop  offset="0.81" style="stop-color:#FFC95E"/>
	<stop  offset="0.84" style="stop-color:#FBC55A"/>
	<stop  offset="0.88" style="stop-color:#EEB74F"/>
	<stop  offset="0.92" style="stop-color:#D9A13D"/>
	<stop  offset="0.96" style="stop-color:#BB8224"/>
	<stop  offset="1" style="stop-color:#915700"/>
</linearGradient>
<path class="st6" d="M5.1,0.5h10.7c2.1,0,4.3,0.1,6.4,0.4c7.2,1.1,8.1,5,7.1,11.9c-1.4,9.8-4.9,12.3-16.8,12.1h-1.1l-1.5,10H0
	L5.1,0.5z M12.5,16.8h1.2c4.5,0.1,5.1-0.4,5.7-4.2c0.4-3,0-3.3-1.6-3.5c-1-0.1-1.9-0.2-2.8-0.2h-1.4L12.5,16.8z"/>
<linearGradient id="SVGID_8_" gradientUnits="userSpaceOnUse" x1="-250.413" y1="4030.01" x2="-250.583" y2="4056.48" gradientTransform="matrix(1 0 0 1 265 -4026.0601)">
	<stop  offset="0.27" style="stop-color:#FFFFFF"/>
	<stop  offset="0.5" style="stop-color:#FFEFCF"/>
	<stop  offset="0.72" style="stop-color:#FFE1A7"/>
	<stop  offset="0.89" style="stop-color:#FFD98E"/>
	<stop  offset="1" style="stop-color:#FFD685"/>
</linearGradient>
<path class="st7" d="M5.1,0.5h10.4c2.1,0,4.2,0.1,6.3,0.4c6.9,1,7.7,4.6,6.7,11.4C27,21.9,23.8,24.2,12,24h-1.5L9,34H0.1L5.1,0.5z
	 M11.6,16.8h1.7c4.7,0.1,5.5-0.6,6.1-4.6c0.5-3.1-0.1-3.7-2-4c-0.9-0.1-1.9-0.2-2.8-0.1h-1.8L11.6,16.8z"/>
<linearGradient id="SVGID_9_" gradientUnits="userSpaceOnUse" x1="-250.0136" y1="4027.71" x2="-250.2236" y2="4060.4299" gradientTransform="matrix(1 0 0 1 265 -4026.0601)">
	<stop  offset="0" style="stop-color:#FFF9EC"/>
	<stop  offset="2.000000e-02" style="stop-color:#FFF7E5"/>
	<stop  offset="0.12" style="stop-color:#FFECC6"/>
	<stop  offset="0.22" style="stop-color:#FFE4AF"/>
	<stop  offset="0.32" style="stop-color:#FFE0A2"/>
	<stop  offset="0.4" style="stop-color:#3B1200"/>
	<stop  offset="0.45" style="stop-color:#552700"/>
	<stop  offset="0.54" style="stop-color:#915700"/>
	<stop  offset="0.57" style="stop-color:#A36A10"/>
	<stop  offset="0.65" style="stop-color:#D59D3A"/>
	<stop  offset="0.71" style="stop-color:#F3BD54"/>
	<stop  offset="0.74" style="stop-color:#FFC95E"/>
	<stop  offset="0.78" style="stop-color:#FFCF6F"/>
	<stop  offset="0.88" style="stop-color:#FFDE9A"/>
	<stop  offset="0.95" style="stop-color:#FFE7B5"/>
	<stop  offset="1" style="stop-color:#FFEABF"/>
</linearGradient>
<path class="st8" d="M15.8,1.4c11.5,0,13.9,2.1,12.6,11.3c-1.4,9.5-4.5,11.6-16,11.4h-1.8l-1.5,10H1L5.8,1.4H15.8z M11.5,17.7h2.2
	c4.7,0,5.9-0.6,6.5-4.9c0.6-4-0.4-4.6-5.2-4.6h-2.1L11.5,17.7z"/>
<linearGradient id="SVGID_10_" gradientUnits="userSpaceOnUse" x1="-155.4937" y1="4026.2903" x2="-152.8637" y2="4059.7202" gradientTransform="matrix(1 0 0 1 265 -4026.0601)">
	<stop  offset="0" style="stop-color:#FFC95E"/>
	<stop  offset="9.000000e-02" style="stop-color:#C48C2C"/>
	<stop  offset="0.16" style="stop-color:#9F660C"/>
	<stop  offset="0.19" style="stop-color:#915700"/>
	<stop  offset="0.22" style="stop-color:#955B03"/>
	<stop  offset="0.25" style="stop-color:#A0660D"/>
	<stop  offset="0.27" style="stop-color:#B37A1D"/>
	<stop  offset="0.3" style="stop-color:#CD9533"/>
	<stop  offset="0.32" style="stop-color:#EFB850"/>
	<stop  offset="0.33" style="stop-color:#FFC95E"/>
	<stop  offset="0.5" style="stop-color:#3B1200"/>
	<stop  offset="0.58" style="stop-color:#6A3E17"/>
	<stop  offset="0.77" style="stop-color:#E0AC4F"/>
	<stop  offset="0.81" style="stop-color:#FFC95E"/>
	<stop  offset="0.84" style="stop-color:#FBC55A"/>
	<stop  offset="0.88" style="stop-color:#EEB74F"/>
	<stop  offset="0.92" style="stop-color:#D9A13D"/>
	<stop  offset="0.96" style="stop-color:#BB8224"/>
	<stop  offset="1" style="stop-color:#915700"/>
</linearGradient>
<path class="st9" d="M101.4,21.4L93,0.1h10.7l4,11.7l7.5-11.6H126l-14.8,21.5l-1.8,12.9h-9.8L101.4,21.4z"/>
<linearGradient id="SVGID_11_" gradientUnits="userSpaceOnUse" x1="-155.9251" y1="4029.97" x2="-156.0951" y2="4056.4302" gradientTransform="matrix(1 0 0 1 265 -4026.0601)">
	<stop  offset="0.27" style="stop-color:#FFFFFF"/>
	<stop  offset="0.5" style="stop-color:#FFEFCF"/>
	<stop  offset="0.72" style="stop-color:#FFE1A7"/>
	<stop  offset="0.89" style="stop-color:#FFD98E"/>
	<stop  offset="1" style="stop-color:#FFD685"/>
</linearGradient>
<path class="st10" d="M101.5,20.8L93.3,0h9.8l4.2,12.2L115.1,0h9.8l-14.4,21l-1.8,12.6h-9L101.5,20.8z"/>
<linearGradient id="SVGID_12_" gradientUnits="userSpaceOnUse" x1="-155.7037" y1="4027.6699" x2="-155.9037" y2="4060.3899" gradientTransform="matrix(1 0 0 1 265 -4026.0601)">
	<stop  offset="0" style="stop-color:#FFF9EC"/>
	<stop  offset="2.000000e-02" style="stop-color:#FFF7E5"/>
	<stop  offset="0.12" style="stop-color:#FFECC6"/>
	<stop  offset="0.22" style="stop-color:#FFE4AF"/>
	<stop  offset="0.32" style="stop-color:#FFE0A2"/>
	<stop  offset="0.4" style="stop-color:#3B1200"/>
	<stop  offset="0.45" style="stop-color:#552700"/>
	<stop  offset="0.54" style="stop-color:#915700"/>
	<stop  offset="0.57" style="stop-color:#A36A10"/>
	<stop  offset="0.65" style="stop-color:#D59D3A"/>
	<stop  offset="0.71" style="stop-color:#F3BD54"/>
	<stop  offset="0.74" style="stop-color:#FFC95E"/>
	<stop  offset="0.78" style="stop-color:#FFCF6F"/>
	<stop  offset="0.88" style="stop-color:#FFDE9A"/>
	<stop  offset="0.95" style="stop-color:#FFE7B5"/>
	<stop  offset="1" style="stop-color:#FFEABF"/>
</linearGradient>
<path class="st11" d="M108.5,33.7h-8.1l1.8-12.4L94.2,1h8.8l4.4,12.7L115.7,1h8.7l-14,20.3L108.5,33.7z"/>
</svg>
