<?xml version="1.0" encoding="utf-8"?>
<!-- Generator: Adobe Illustrator 24.0.2, SVG Export Plug-In . SVG Version: 6.00 Build 0)  -->
<svg version="1.1" id="Слой_1" xmlns="http://www.w3.org/2000/svg" xmlns:xlink="http://www.w3.org/1999/xlink" x="0px" y="0px"
	 viewBox="0 0 167 36.4" style="enable-background:new 0 0 167 36.4;" xml:space="preserve">
<style type="text/css">
	.st0{fill:url(#SVGID_1_);}
	.st1{fill:url(#SVGID_2_);}
	.st2{fill:url(#SVGID_3_);}
	.st3{fill:url(#SVGID_4_);}
	.st4{fill:url(#SVGID_5_);}
	.st5{fill:url(#SVGID_6_);}
	.st6{fill:url(#SVGID_7_);}
	.st7{fill:url(#SVGID_8_);}
	.st8{fill:url(#SVGID_9_);}
	.st9{fill:url(#SVGID_10_);}
	.st10{fill:url(#SVGID_11_);}
	.st11{fill:url(#SVGID_12_);}
	.st12{opacity:0.5;fill:url(#SVGID_13_);enable-background:new    ;}
	.st13{opacity:0.5;fill:url(#SVGID_14_);enable-background:new    ;}
	.st14{opacity:0.5;fill:url(#SVGID_15_);enable-background:new    ;}
	.st15{opacity:0.5;fill:url(#SVGID_16_);enable-background:new    ;}
	.st16{opacity:0.5;fill:url(#SVGID_17_);enable-background:new    ;}
	.st17{opacity:0.5;fill:url(#SVGID_18_);enable-background:new    ;}
</style>
<title>casino</title>
<linearGradient id="SVGID_1_" gradientUnits="userSpaceOnUse" x1="-252.3808" y1="4025.8601" x2="-248.9008" y2="4070.1702" gradientTransform="matrix(1 0 0 1 265 -4024.26)">
	<stop  offset="0" style="stop-color:#FFC95E"/>
	<stop  offset="9.000000e-02" style="stop-color:#C48C2C"/>
	<stop  offset="0.16" style="stop-color:#9F660C"/>
	<stop  offset="0.19" style="stop-color:#915700"/>
	<stop  offset="0.22" style="stop-color:#955B03"/>
	<stop  offset="0.25" style="stop-color:#A0660D"/>
	<stop  offset="0.27" style="stop-color:#B37A1D"/>
	<stop  offset="0.3" style="stop-color:#CD9533"/>
	<stop  offset="0.32" style="stop-color:#EFB850"/>
	<stop  offset="0.33" style="stop-color:#FFC95E"/>
	<stop  offset="0.5" style="stop-color:#3B1200"/>
	<stop  offset="0.58" style="stop-color:#6A3E17"/>
	<stop  offset="0.77" style="stop-color:#E0AC4F"/>
	<stop  offset="0.81" style="stop-color:#FFC95E"/>
	<stop  offset="0.84" style="stop-color:#FBC55A"/>
	<stop  offset="0.88" style="stop-color:#EEB74F"/>
	<stop  offset="0.92" style="stop-color:#D9A13D"/>
	<stop  offset="0.96" style="stop-color:#BB8224"/>
	<stop  offset="1" style="stop-color:#915700"/>
</linearGradient>
<path class="st0" d="M8.9,35.7c-4.3-0.6-6.8-2.2-8-5.1c-1.1-2.6-1.2-6.4-0.3-12.7C1.7,10.5,3.2,6.4,5.9,3.8s6.6-3.7,13.5-3.7
	c1.5,0,3,0.1,4.4,0.4c0.8,0.1,1.5,0.2,2.3,0.4l1,0.2l-3.5,8.2l-0.7-0.1c-0.3-0.1-0.6-0.1-1-0.2c-1.2-0.2-2.4-0.3-3.6-0.3
	c-2.7,0-4.2,0.5-5.3,1.8s-1.8,3.5-2.4,7.7c-1.1,7.3-0.2,8.8,2.8,9.2c0.7,0.1,1.3,0.1,2,0.1c1.5,0,3.1-0.2,4.6-0.5l0.9-0.2l1.4,8.3
	l-0.8,0.2c-2.3,0.5-4.6,0.8-6.9,0.8C12.7,36,10.8,35.9,8.9,35.7z"/>
<linearGradient id="SVGID_2_" gradientUnits="userSpaceOnUse" x1="-229.5064" y1="4024.0598" x2="-226.0164" y2="4068.3596" gradientTransform="matrix(1 0 0 1 265 -4024.26)">
	<stop  offset="0" style="stop-color:#FFC95E"/>
	<stop  offset="9.000000e-02" style="stop-color:#C48C2C"/>
	<stop  offset="0.16" style="stop-color:#9F660C"/>
	<stop  offset="0.19" style="stop-color:#915700"/>
	<stop  offset="0.22" style="stop-color:#955B03"/>
	<stop  offset="0.25" style="stop-color:#A0660D"/>
	<stop  offset="0.27" style="stop-color:#B37A1D"/>
	<stop  offset="0.3" style="stop-color:#CD9533"/>
	<stop  offset="0.32" style="stop-color:#EFB850"/>
	<stop  offset="0.33" style="stop-color:#FFC95E"/>
	<stop  offset="0.5" style="stop-color:#3B1200"/>
	<stop  offset="0.58" style="stop-color:#6A3E17"/>
	<stop  offset="0.77" style="stop-color:#E0AC4F"/>
	<stop  offset="0.81" style="stop-color:#FFC95E"/>
	<stop  offset="0.84" style="stop-color:#FBC55A"/>
	<stop  offset="0.88" style="stop-color:#EEB74F"/>
	<stop  offset="0.92" style="stop-color:#D9A13D"/>
	<stop  offset="0.96" style="stop-color:#BB8224"/>
	<stop  offset="1" style="stop-color:#915700"/>
</linearGradient>
<path class="st1" d="M37.4,0.6h11.8l5.8,35H44.8l-1.1-7.5h-8.5l-3.3,7.4H21.6L37.4,0.6z M38.2,20.9h4.5l-1-8.2L38.2,20.9z"/>
<linearGradient id="SVGID_3_" gradientUnits="userSpaceOnUse" x1="-196.6538" y1="4021.4802" x2="-193.1738" y2="4065.7803" gradientTransform="matrix(1 0 0 1 265 -4024.26)">
	<stop  offset="0" style="stop-color:#FFC95E"/>
	<stop  offset="9.000000e-02" style="stop-color:#C48C2C"/>
	<stop  offset="0.16" style="stop-color:#9F660C"/>
	<stop  offset="0.19" style="stop-color:#915700"/>
	<stop  offset="0.22" style="stop-color:#955B03"/>
	<stop  offset="0.25" style="stop-color:#A0660D"/>
	<stop  offset="0.27" style="stop-color:#B37A1D"/>
	<stop  offset="0.3" style="stop-color:#CD9533"/>
	<stop  offset="0.32" style="stop-color:#EFB850"/>
	<stop  offset="0.33" style="stop-color:#FFC95E"/>
	<stop  offset="0.5" style="stop-color:#3B1200"/>
	<stop  offset="0.58" style="stop-color:#6A3E17"/>
	<stop  offset="0.77" style="stop-color:#E0AC4F"/>
	<stop  offset="0.81" style="stop-color:#FFC95E"/>
	<stop  offset="0.84" style="stop-color:#FBC55A"/>
	<stop  offset="0.88" style="stop-color:#EEB74F"/>
	<stop  offset="0.92" style="stop-color:#D9A13D"/>
	<stop  offset="0.96" style="stop-color:#BB8224"/>
	<stop  offset="1" style="stop-color:#915700"/>
</linearGradient>
<path class="st2" d="M63.6,36c-5.6-0.8-8.3-3.6-8.7-9.1l-0.1-0.8l9.9-2.2l0.2,0.9c0.1,1.5,1.3,2.8,2.8,2.9c0.3,0,0.6,0.1,0.9,0.1
	c3.3,0,4.1-0.6,4.4-3c0.2-1.9-0.4-2.2-2-2.6L65.9,21c-6.5-1.7-8.6-4.5-7.7-10.6c0.6-4.1,1.9-6.6,4.2-8.2C64.7,0.6,67.8,0,73,0
	c1.2,0,2.4,0.1,3.6,0.3C82,1.1,84.7,3.7,85,8.6l0.1,0.7l-9.4,2.1l-0.2-0.9c-0.3-1.4-1.1-1.8-2.4-2c-0.4-0.1-0.8-0.1-1.2-0.1
	c-3.3,0-3.7,0.6-3.9,2.2s0,2.2,2,2.7l5.1,1.3c6.6,1.8,8.6,4.4,7.7,10.5c-0.6,4.4-1.9,7-4,8.7s-5.7,2.5-11,2.5
	C66.4,36.3,65,36.2,63.6,36z"/>
<linearGradient id="SVGID_4_" gradientUnits="userSpaceOnUse" x1="-174.9736" y1="4019.7695" x2="-171.4836" y2="4064.0693" gradientTransform="matrix(1 0 0 1 265 -4024.26)">
	<stop  offset="0" style="stop-color:#FFC95E"/>
	<stop  offset="9.000000e-02" style="stop-color:#C48C2C"/>
	<stop  offset="0.16" style="stop-color:#9F660C"/>
	<stop  offset="0.19" style="stop-color:#915700"/>
	<stop  offset="0.22" style="stop-color:#955B03"/>
	<stop  offset="0.25" style="stop-color:#A0660D"/>
	<stop  offset="0.27" style="stop-color:#B37A1D"/>
	<stop  offset="0.3" style="stop-color:#CD9533"/>
	<stop  offset="0.32" style="stop-color:#EFB850"/>
	<stop  offset="0.33" style="stop-color:#FFC95E"/>
	<stop  offset="0.5" style="stop-color:#3B1200"/>
	<stop  offset="0.58" style="stop-color:#6A3E17"/>
	<stop  offset="0.77" style="stop-color:#E0AC4F"/>
	<stop  offset="0.81" style="stop-color:#FFC95E"/>
	<stop  offset="0.84" style="stop-color:#FBC55A"/>
	<stop  offset="0.88" style="stop-color:#EEB74F"/>
	<stop  offset="0.92" style="stop-color:#D9A13D"/>
	<stop  offset="0.96" style="stop-color:#BB8224"/>
	<stop  offset="1" style="stop-color:#915700"/>
</linearGradient>
<path class="st3" d="M89.4,0.7h9.9l-5.1,34.9h-9.9L89.4,0.7z"/>
<linearGradient id="SVGID_5_" gradientUnits="userSpaceOnUse" x1="-150.0409" y1="4017.8101" x2="-146.5509" y2="4062.1101" gradientTransform="matrix(1 0 0 1 265 -4024.26)">
	<stop  offset="0" style="stop-color:#FFC95E"/>
	<stop  offset="9.000000e-02" style="stop-color:#C48C2C"/>
	<stop  offset="0.16" style="stop-color:#9F660C"/>
	<stop  offset="0.19" style="stop-color:#915700"/>
	<stop  offset="0.22" style="stop-color:#955B03"/>
	<stop  offset="0.25" style="stop-color:#A0660D"/>
	<stop  offset="0.27" style="stop-color:#B37A1D"/>
	<stop  offset="0.3" style="stop-color:#CD9533"/>
	<stop  offset="0.32" style="stop-color:#EFB850"/>
	<stop  offset="0.33" style="stop-color:#FFC95E"/>
	<stop  offset="0.5" style="stop-color:#3B1200"/>
	<stop  offset="0.58" style="stop-color:#6A3E17"/>
	<stop  offset="0.77" style="stop-color:#E0AC4F"/>
	<stop  offset="0.81" style="stop-color:#FFC95E"/>
	<stop  offset="0.84" style="stop-color:#FBC55A"/>
	<stop  offset="0.88" style="stop-color:#EEB74F"/>
	<stop  offset="0.92" style="stop-color:#D9A13D"/>
	<stop  offset="0.96" style="stop-color:#BB8224"/>
	<stop  offset="1" style="stop-color:#915700"/>
</linearGradient>
<path class="st4" d="M103.7,0.8h10.5l8,19.1l2.9-19.1h10L130,35.7h-10.2l-8.3-19.3l-2.8,19.3h-10L103.7,0.8z"/>
<linearGradient id="SVGID_6_" gradientUnits="userSpaceOnUse" x1="-116.0821" y1="4015.1301" x2="-112.5921" y2="4059.4402" gradientTransform="matrix(1 0 0 1 265 -4024.26)">
	<stop  offset="0" style="stop-color:#FFC95E"/>
	<stop  offset="9.000000e-02" style="stop-color:#C48C2C"/>
	<stop  offset="0.16" style="stop-color:#9F660C"/>
	<stop  offset="0.19" style="stop-color:#915700"/>
	<stop  offset="0.22" style="stop-color:#955B03"/>
	<stop  offset="0.25" style="stop-color:#A0660D"/>
	<stop  offset="0.27" style="stop-color:#B37A1D"/>
	<stop  offset="0.3" style="stop-color:#CD9533"/>
	<stop  offset="0.32" style="stop-color:#EFB850"/>
	<stop  offset="0.33" style="stop-color:#FFC95E"/>
	<stop  offset="0.5" style="stop-color:#3B1200"/>
	<stop  offset="0.58" style="stop-color:#6A3E17"/>
	<stop  offset="0.77" style="stop-color:#E0AC4F"/>
	<stop  offset="0.81" style="stop-color:#FFC95E"/>
	<stop  offset="0.84" style="stop-color:#FBC55A"/>
	<stop  offset="0.88" style="stop-color:#EEB74F"/>
	<stop  offset="0.92" style="stop-color:#D9A13D"/>
	<stop  offset="0.96" style="stop-color:#BB8224"/>
	<stop  offset="1" style="stop-color:#915700"/>
</linearGradient>
<path class="st5" d="M143.9,36.1c-4.2-0.6-6.7-2.3-7.9-5.3c-1.1-2.8-1.2-6.6-0.3-13c1.1-7.3,2.6-11.4,5.1-14S147.2,0,153.5,0
	c1.6,0,3.2,0.1,4.8,0.3c8.8,1.3,9.6,7.2,8.1,17.8c-1.1,7.3-2.6,11.6-5.1,14.3s-6.5,4-12.7,4C147,36.5,145.5,36.4,143.9,36.1z
	 M154.2,8.7c-0.5-0.1-1.1-0.1-1.6-0.1c-4.3,0-5.6,1.2-6.8,9.6c-1.1,7.8-0.4,9.3,2.2,9.7c0.5,0.1,1,0.1,1.5,0.1c4.2,0,5.6-1.3,6.9-10
	C157.5,10.5,156.8,9.1,154.2,8.7z"/>
<linearGradient id="SVGID_7_" gradientUnits="userSpaceOnUse" x1="-251.6801" y1="4027.4299" x2="-251.8502" y2="4055.4099" gradientTransform="matrix(1 0 0 1 265 -4024.26)">
	<stop  offset="0.27" style="stop-color:#FFFFFF"/>
	<stop  offset="0.5" style="stop-color:#FFEFCF"/>
	<stop  offset="0.72" style="stop-color:#FFE1A7"/>
	<stop  offset="0.89" style="stop-color:#FFD98E"/>
	<stop  offset="1" style="stop-color:#FFD685"/>
</linearGradient>
<path class="st6" d="M8.7,34.7c-4.1-0.6-6.5-2.1-7.6-4.9C0,27.2-0.1,23.5,0.9,17.4C2,10.1,3.5,6.1,6,3.6S12.4,0,19.2,0
	c1.4,0,2.9,0.1,4.3,0.3c0.8,0.1,1.5,0.2,2.3,0.4l0.5,0.1l-3.2,7.3L22.7,8c-0.3-0.1-0.6-0.1-1-0.2c-1.2-0.2-2.5-0.3-3.7-0.3
	c-5.3,0-6.9,1.9-8.1,9.8c-1,7.1-0.4,9.2,3.2,9.7c0.7,0.1,1.4,0.1,2.1,0.1c1.6,0,3.2-0.2,4.7-0.5l0.4-0.1l1.2,7.4L21.1,34
	c-2.3,0.5-4.6,0.8-6.9,0.8C12.4,35.1,10.5,35,8.7,34.7z"/>
<linearGradient id="SVGID_8_" gradientUnits="userSpaceOnUse" x1="-226.9488" y1="4027.5898" x2="-227.1288" y2="4055.5698" gradientTransform="matrix(1 0 0 1 265 -4024.26)">
	<stop  offset="0.27" style="stop-color:#FFFFFF"/>
	<stop  offset="0.5" style="stop-color:#FFEFCF"/>
	<stop  offset="0.72" style="stop-color:#FFE1A7"/>
	<stop  offset="0.89" style="stop-color:#FFD98E"/>
	<stop  offset="1" style="stop-color:#FFD685"/>
</linearGradient>
<path class="st7" d="M37.3,0.5h11.1L54,34.6h-9.3l-1.1-7.5h-9.2l-3.3,7.5h-9.4L37.3,0.5z M37.2,20.8h5.6l-1.3-10.2L37.2,20.8z"/>
<linearGradient id="SVGID_9_" gradientUnits="userSpaceOnUse" x1="-195.3014" y1="4027.79" x2="-195.4814" y2="4055.77" gradientTransform="matrix(1 0 0 1 265 -4024.26)">
	<stop  offset="0.27" style="stop-color:#FFFFFF"/>
	<stop  offset="0.5" style="stop-color:#FFEFCF"/>
	<stop  offset="0.72" style="stop-color:#FFE1A7"/>
	<stop  offset="0.89" style="stop-color:#FFD98E"/>
	<stop  offset="1" style="stop-color:#FFD685"/>
</linearGradient>
<path class="st8" d="M63.3,35.1c-5.4-0.8-7.9-3.4-8.3-8.7V26l9.1-2l0.1,0.5c0.1,1.7,1.5,3.1,3.2,3.3c0.3,0,0.6,0.1,0.9,0.1
	c3.1,0,4.5-0.5,4.8-3.4c0.3-2.1-0.5-2.7-2.4-3.1l-5.1-1.2c-6.3-1.6-8.2-4.3-7.4-10.1c1.1-7.6,4.6-10,14.4-10c1.2,0,2.4,0.1,3.6,0.2
	c5.2,0.8,7.7,3.3,8,7.9v0.4l-8.6,2l-0.1-0.4c-0.2-1.3-1.3-2.3-2.7-2.4c-0.4-0.1-0.9-0.1-1.3-0.1c-3.2-0.1-4,0.5-4.4,2.6
	s0.3,2.6,2.3,3.2l5.1,1.3c6.4,1.7,8.2,4.1,7.4,10c-1.1,8.3-4.5,10.8-14.5,10.8C66,35.4,64.6,35.3,63.3,35.1z"/>
<linearGradient id="SVGID_10_" gradientUnits="userSpaceOnUse" x1="-173.4497" y1="4027.9302" x2="-173.6297" y2="4055.9102" gradientTransform="matrix(1 0 0 1 265 -4024.26)">
	<stop  offset="0.27" style="stop-color:#FFFFFF"/>
	<stop  offset="0.5" style="stop-color:#FFEFCF"/>
	<stop  offset="0.72" style="stop-color:#FFE1A7"/>
	<stop  offset="0.89" style="stop-color:#FFD98E"/>
	<stop  offset="1" style="stop-color:#FFD685"/>
</linearGradient>
<path class="st9" d="M89.4,0.7h9.1l-5,34h-9.1L89.4,0.7z"/>
<linearGradient id="SVGID_11_" gradientUnits="userSpaceOnUse" x1="-148.5108" y1="4028.0898" x2="-148.6908" y2="4056.0698" gradientTransform="matrix(1 0 0 1 265 -4024.26)">
	<stop  offset="0.27" style="stop-color:#FFFFFF"/>
	<stop  offset="0.5" style="stop-color:#FFEFCF"/>
	<stop  offset="0.72" style="stop-color:#FFE1A7"/>
	<stop  offset="0.89" style="stop-color:#FFD98E"/>
	<stop  offset="1" style="stop-color:#FFD685"/>
</linearGradient>
<path class="st10" d="M103.7,0.7h9.8L122,21l3-20.3h9.1l-5,34h-9.5l-8.8-20.4l-3,20.4h-9.1L103.7,0.7z"/>
<linearGradient id="SVGID_12_" gradientUnits="userSpaceOnUse" x1="-114.2659" y1="4028.3101" x2="-114.4359" y2="4056.28" gradientTransform="matrix(1 0 0 1 265 -4024.26)">
	<stop  offset="0.27" style="stop-color:#FFFFFF"/>
	<stop  offset="0.5" style="stop-color:#FFEFCF"/>
	<stop  offset="0.72" style="stop-color:#FFE1A7"/>
	<stop  offset="0.89" style="stop-color:#FFD98E"/>
	<stop  offset="1" style="stop-color:#FFD685"/>
</linearGradient>
<path class="st11" d="M143.6,35.2c-4-0.6-6.4-2.2-7.6-5s-1.2-6.5-0.2-12.7c1.1-7.2,2.5-11.2,5-13.7s6.3-3.7,12.4-3.7
	c1.6,0,3.1,0.1,4.7,0.3c4,0.6,6.3,2.1,7.4,4.9c1.1,2.6,1.2,6.3,0.3,12.4c-1.1,7.2-2.6,11.4-5.1,14s-6.3,3.8-12.4,3.8
	C146.6,35.5,145.1,35.4,143.6,35.2z M153.9,7.8c-0.6-0.1-1.1-0.1-1.7-0.1c-4.8,0-6.1,1.7-7.3,9.9c-1.1,7.6-0.6,9.7,2.6,10.2
	c0.5,0.1,1.1,0.1,1.6,0.1c4.7,0,6.1-1.9,7.3-10.4C157.5,10.2,157,8.2,153.9,7.8z"/>
<linearGradient id="SVGID_13_" gradientUnits="userSpaceOnUse" x1="-251.5225" y1="4024.97" x2="-251.7425" y2="4059.5898" gradientTransform="matrix(1 0 0 1 265 -4024.26)">
	<stop  offset="0" style="stop-color:#FFF9EC"/>
	<stop  offset="2.000000e-02" style="stop-color:#FFF7E5"/>
	<stop  offset="0.12" style="stop-color:#FFECC6"/>
	<stop  offset="0.22" style="stop-color:#FFE4AF"/>
	<stop  offset="0.32" style="stop-color:#FFE0A2"/>
	<stop  offset="0.4" style="stop-color:#3B1200"/>
	<stop  offset="0.45" style="stop-color:#552700"/>
	<stop  offset="0.54" style="stop-color:#915700"/>
	<stop  offset="0.57" style="stop-color:#A36A10"/>
	<stop  offset="0.65" style="stop-color:#D59D3A"/>
	<stop  offset="0.71" style="stop-color:#F3BD54"/>
	<stop  offset="0.74" style="stop-color:#FFC95E"/>
	<stop  offset="0.78" style="stop-color:#FFCF6F"/>
	<stop  offset="0.88" style="stop-color:#FFDE9A"/>
	<stop  offset="0.95" style="stop-color:#FFE7B5"/>
	<stop  offset="1" style="stop-color:#FFEABF"/>
</linearGradient>
<path class="st12" d="M21.3,34.3c-2.2,0.5-4.5,0.8-6.8,0.8c-12.6,0-15-3.6-13-17.1S6.9,1,19.4,1c2.2,0,4.4,0.3,6.5,0.8l-2.8,6.5
	c-1.6-0.3-3.2-0.5-4.8-0.5c-5.7,0-7.4,2.2-8.5,10.2s-0.2,10.3,5.6,10.3c1.6,0,3.2-0.2,4.8-0.5L21.3,34.3z"/>
<linearGradient id="SVGID_14_" gradientUnits="userSpaceOnUse" x1="-226.3307" y1="4025.1299" x2="-226.5507" y2="4059.75" gradientTransform="matrix(1 0 0 1 265 -4024.26)">
	<stop  offset="0" style="stop-color:#FFF9EC"/>
	<stop  offset="2.000000e-02" style="stop-color:#FFF7E5"/>
	<stop  offset="0.12" style="stop-color:#FFECC6"/>
	<stop  offset="0.22" style="stop-color:#FFE4AF"/>
	<stop  offset="0.32" style="stop-color:#FFE0A2"/>
	<stop  offset="0.4" style="stop-color:#3B1200"/>
	<stop  offset="0.45" style="stop-color:#552700"/>
	<stop  offset="0.54" style="stop-color:#915700"/>
	<stop  offset="0.57" style="stop-color:#A36A10"/>
	<stop  offset="0.65" style="stop-color:#D59D3A"/>
	<stop  offset="0.71" style="stop-color:#F3BD54"/>
	<stop  offset="0.74" style="stop-color:#FFC95E"/>
	<stop  offset="0.78" style="stop-color:#FFCF6F"/>
	<stop  offset="0.88" style="stop-color:#FFDE9A"/>
	<stop  offset="0.95" style="stop-color:#FFE7B5"/>
	<stop  offset="1" style="stop-color:#FFEABF"/>
</linearGradient>
<path class="st13" d="M45.5,34.7l-1.1-7.5h-9.8l-3.3,7.4h-8.4L38,1.4h10.5L54,34.6L45.5,34.7z M43.7,21.7L42.2,9.4L37,21.7H43.7z"/>
<linearGradient id="SVGID_15_" gradientUnits="userSpaceOnUse" x1="-194.9837" y1="4025.3301" x2="-195.2038" y2="4059.9636" gradientTransform="matrix(1 0 0 1 265 -4024.26)">
	<stop  offset="0" style="stop-color:#FFF9EC"/>
	<stop  offset="2.000000e-02" style="stop-color:#FFF7E5"/>
	<stop  offset="0.12" style="stop-color:#FFECC6"/>
	<stop  offset="0.22" style="stop-color:#FFE4AF"/>
	<stop  offset="0.32" style="stop-color:#FFE0A2"/>
	<stop  offset="0.4" style="stop-color:#3B1200"/>
	<stop  offset="0.45" style="stop-color:#552700"/>
	<stop  offset="0.54" style="stop-color:#915700"/>
	<stop  offset="0.57" style="stop-color:#A36A10"/>
	<stop  offset="0.65" style="stop-color:#D59D3A"/>
	<stop  offset="0.71" style="stop-color:#F3BD54"/>
	<stop  offset="0.74" style="stop-color:#FFC95E"/>
	<stop  offset="0.78" style="stop-color:#FFCF6F"/>
	<stop  offset="0.88" style="stop-color:#FFDE9A"/>
	<stop  offset="0.95" style="stop-color:#FFE7B5"/>
	<stop  offset="1" style="stop-color:#FFEABF"/>
</linearGradient>
<path class="st14" d="M66,20.1c-6.2-1.6-7.9-4.1-7.1-9.6c1.1-7.4,4.4-9.7,14-9.6C80.8,1,83.7,3.7,84.1,8.7l-7.8,1.8
	c-0.4-2-1.7-2.8-4.4-2.8c-3.3,0-4.4,0.5-4.8,2.9c-0.3,2.2,0.2,3,2.6,3.6l5.1,1.3c6.3,1.7,7.8,4,7,9.5c-1.1,7.7-4,10.5-14.2,10.5
	c-8.8,0-11.4-3-11.9-8.6l8.2-1.8c0.4,2.3,1.7,3.6,4.5,3.7c3.3,0,4.9-0.6,5.3-3.8c0.3-2.4-0.8-3.1-2.7-3.6L66,20.1z"/>
<linearGradient id="SVGID_16_" gradientUnits="userSpaceOnUse" x1="-173.0824" y1="4025.47" x2="-173.3024" y2="4060.0898" gradientTransform="matrix(1 0 0 1 265 -4024.26)">
	<stop  offset="0" style="stop-color:#FFF9EC"/>
	<stop  offset="2.000000e-02" style="stop-color:#FFF7E5"/>
	<stop  offset="0.12" style="stop-color:#FFECC6"/>
	<stop  offset="0.22" style="stop-color:#FFE4AF"/>
	<stop  offset="0.32" style="stop-color:#FFE0A2"/>
	<stop  offset="0.4" style="stop-color:#3B1200"/>
	<stop  offset="0.45" style="stop-color:#552700"/>
	<stop  offset="0.54" style="stop-color:#915700"/>
	<stop  offset="0.57" style="stop-color:#A36A10"/>
	<stop  offset="0.65" style="stop-color:#D59D3A"/>
	<stop  offset="0.71" style="stop-color:#F3BD54"/>
	<stop  offset="0.74" style="stop-color:#FFC95E"/>
	<stop  offset="0.78" style="stop-color:#FFCF6F"/>
	<stop  offset="0.88" style="stop-color:#FFDE9A"/>
	<stop  offset="0.95" style="stop-color:#FFE7B5"/>
	<stop  offset="1" style="stop-color:#FFEABF"/>
</linearGradient>
<path class="st15" d="M85.3,34.7l4.9-33.1h8.1l-4.9,33.1H85.3z"/>
<linearGradient id="SVGID_17_" gradientUnits="userSpaceOnUse" x1="-148.1824" y1="4025.6299" x2="-148.4024" y2="4060.25" gradientTransform="matrix(1 0 0 1 265 -4024.26)">
	<stop  offset="0" style="stop-color:#FFF9EC"/>
	<stop  offset="2.000000e-02" style="stop-color:#FFF7E5"/>
	<stop  offset="0.12" style="stop-color:#FFECC6"/>
	<stop  offset="0.22" style="stop-color:#FFE4AF"/>
	<stop  offset="0.32" style="stop-color:#FFE0A2"/>
	<stop  offset="0.4" style="stop-color:#3B1200"/>
	<stop  offset="0.45" style="stop-color:#552700"/>
	<stop  offset="0.54" style="stop-color:#915700"/>
	<stop  offset="0.57" style="stop-color:#A36A10"/>
	<stop  offset="0.65" style="stop-color:#D59D3A"/>
	<stop  offset="0.71" style="stop-color:#F3BD54"/>
	<stop  offset="0.74" style="stop-color:#FFC95E"/>
	<stop  offset="0.78" style="stop-color:#FFCF6F"/>
	<stop  offset="0.88" style="stop-color:#FFDE9A"/>
	<stop  offset="0.95" style="stop-color:#FFE7B5"/>
	<stop  offset="1" style="stop-color:#FFEABF"/>
</linearGradient>
<path class="st16" d="M120.2,34.8l-9.3-21.6l-3.2,21.6h-8.2l4.9-33.1h9.2l9,21.5l3.1-21.4h8.2l-4.8,33.1L120.2,34.8z"/>
<linearGradient id="SVGID_18_" gradientUnits="userSpaceOnUse" x1="-113.7541" y1="4025.8501" x2="-113.9741" y2="4060.4822" gradientTransform="matrix(1 0 0 1 265 -4024.26)">
	<stop  offset="0" style="stop-color:#FFF9EC"/>
	<stop  offset="2.000000e-02" style="stop-color:#FFF7E5"/>
	<stop  offset="0.12" style="stop-color:#FFECC6"/>
	<stop  offset="0.22" style="stop-color:#FFE4AF"/>
	<stop  offset="0.32" style="stop-color:#FFE0A2"/>
	<stop  offset="0.4" style="stop-color:#3B1200"/>
	<stop  offset="0.45" style="stop-color:#552700"/>
	<stop  offset="0.54" style="stop-color:#915700"/>
	<stop  offset="0.57" style="stop-color:#A36A10"/>
	<stop  offset="0.65" style="stop-color:#D59D3A"/>
	<stop  offset="0.71" style="stop-color:#F3BD54"/>
	<stop  offset="0.74" style="stop-color:#FFC95E"/>
	<stop  offset="0.78" style="stop-color:#FFCF6F"/>
	<stop  offset="0.88" style="stop-color:#FFDE9A"/>
	<stop  offset="0.95" style="stop-color:#FFE7B5"/>
	<stop  offset="1" style="stop-color:#FFEABF"/>
</linearGradient>
<path class="st17" d="M165.6,18.1c-2,13.4-5.5,17.5-17,17.5s-13.9-4.1-11.9-17.6c2-13.2,5.5-17.1,17-17S167.5,4.8,165.6,18.1z
	 M144.9,18.1c-1.2,8.4-0.6,10.8,4.6,10.8s6.5-2.4,7.8-10.8c1.2-8.1,0.5-10.3-4.7-10.3S146.1,9.9,144.9,18.1L144.9,18.1z"/>
</svg>
