<svg xmlns="http://www.w3.org/2000/svg" width="108" height="108" style="fill: #d9d9d9; transform: scale(1, 1); margin-left: 0px; margin-top: 0px; vertical-align: middle;"><path fill-rule="evenodd" d="M68.844 0l6.526 6.526c-2.687 2.687-2.687 7.166 0 9.853s7.038 2.687 9.853 0l6.526 6.526c-2.687 2.687-2.687 7.038 0 9.853 2.687 2.687 7.166 2.687 9.853 0l6.526 6.526-13.308 13.18-5.886-5.886-3.967 3.967 5.886 5.886L39.284 108l-6.526-6.526c2.687-2.687 2.687-7.166 0-9.853s-7.166-2.687-9.853 0l-6.526-6.526c2.687-2.687 2.687-7.166 0-9.853s-7.038-2.687-9.853 0L0 68.844l51.57-51.57 6.014 5.758 3.967-3.967-5.886-5.886L68.844 0zm-2.047 24.44l5.886 5.886-3.967 3.967-5.886-5.886 3.967-3.967zM77.8 35.446l5.886 5.886L79.72 45.3l-5.886-5.886 3.967-3.967z"></path></svg>