<svg width="20" height="20" viewBox="0 0 20 20" fill="none" xmlns="http://www.w3.org/2000/svg">
<path d="M10.0364 19.9841C9.77132 19.9841 9.50885 19.9841 9.24378 19.9841C9.2022 19.9841 9.1892 19.9762 9.1918 19.9312C9.23858 19.4553 9.22818 18.9819 9.20739 18.506C9.1892 18.0696 9.14762 17.636 9.06966 17.2076C8.93712 16.483 8.73962 15.7744 8.48234 15.0815C8.07954 13.9974 7.526 12.9978 6.81914 12.0855C6.44752 11.6042 6.03952 11.1573 5.60293 10.7395C4.89607 10.0652 4.11384 9.49934 3.25625 9.03923C2.43505 8.60027 1.58266 8.24593 0.680891 8.02645C0.571743 8.00001 0.462596 7.97621 0.353448 7.95241C0.317066 7.94448 0.304072 7.93654 0.311868 7.88894C0.376837 7.58485 0.43401 7.2781 0.51717 6.97665C0.709477 6.27326 0.977149 5.59895 1.33058 4.96167C1.58786 4.49362 1.86852 4.04144 2.19596 3.62099C2.55719 3.15559 2.9522 2.7272 3.39399 2.34113C3.83318 1.95506 4.30095 1.61394 4.80251 1.31513C5.69128 0.788905 6.63463 0.410765 7.64035 0.196574C8.07954 0.104022 8.52652 0.045847 8.9761 0.0167594C9.49586 -0.0149727 10.0156 0.00618202 10.5354 0.0167594C10.5743 0.0167594 10.5821 0.0326254 10.5795 0.0670017C10.5743 0.167486 10.5743 0.270616 10.5691 0.3711C10.5535 0.704287 10.5587 1.03747 10.5691 1.36801C10.5821 1.75409 10.6211 2.13752 10.6731 2.5183C10.7459 3.04188 10.855 3.55752 11.0005 4.06524C11.2188 4.83209 11.5255 5.55929 11.8945 6.26268C12.2531 6.94756 12.6715 7.59014 13.1575 8.18775C13.6824 8.83297 14.275 9.41208 14.9272 9.92244C15.6913 10.5227 16.5151 11.0225 17.3935 11.4297C18.0172 11.7179 18.6668 11.9321 19.3295 12.104C19.4699 12.141 19.4673 12.141 19.4413 12.2812C19.275 13.1776 18.9813 14.0317 18.5707 14.8409C18.2407 15.4861 17.8378 16.0811 17.3753 16.6364C16.7386 17.398 16.0031 18.0432 15.1689 18.5668C14.275 19.13 13.3186 19.5399 12.2921 19.7726C11.8451 19.8731 11.3903 19.9392 10.933 19.9736C10.6341 19.9947 10.3353 20 10.0364 20C10.0364 19.9947 10.0364 19.9894 10.0364 19.9841Z" fill="white"/>
<path d="M0 10.4062C0.350831 10.4988 0.688669 10.6019 1.02131 10.7289C1.95166 11.0806 2.79106 11.5909 3.55249 12.2335C4.1606 12.7465 4.68295 13.3415 5.14293 13.9946C5.70166 14.7906 6.11746 15.6605 6.39553 16.5966C6.54625 17.1043 6.6502 17.62 6.70998 18.1436C6.74896 18.482 6.76455 18.8205 6.77235 19.159C6.77494 19.2542 6.77494 19.3494 6.74896 19.4419C6.72297 19.5318 6.70218 19.5398 6.61642 19.5081C5.85499 19.2251 5.14033 18.8496 4.46985 18.3869C4.06445 18.1066 3.68243 17.7972 3.31861 17.464C2.85603 17.0382 2.43763 16.5728 2.06081 16.0678C1.72297 15.6156 1.42671 15.1396 1.16684 14.6372C0.797817 13.9259 0.509355 13.1828 0.309251 12.4054C0.181913 11.9003 0.0883575 11.3873 0.0363825 10.869C0.02079 10.7156 0.0129938 10.5623 0 10.4062Z" fill="white"/>
<path d="M20.0001 9.5995C19.2802 9.41176 18.5968 9.14997 17.9471 8.79298C17.3727 8.47831 16.8426 8.10017 16.3488 7.66914C15.6238 7.03714 15.0157 6.30466 14.5219 5.47699C14.0697 4.71542 13.7293 3.90361 13.5084 3.04156C13.3785 2.53649 13.2927 2.02349 13.2563 1.50256C13.2355 1.22226 13.2251 0.939312 13.2329 0.656369C13.2329 0.637858 13.2355 0.616704 13.2381 0.598193C13.2615 0.471265 13.2849 0.458044 13.4019 0.502997C13.997 0.727766 14.5661 1.00807 15.1092 1.3439C15.6498 1.67973 16.1591 2.06051 16.6321 2.48625C16.9699 2.79035 17.287 3.12089 17.5806 3.47258C18.3551 4.40339 18.9502 5.44261 19.3868 6.57703C19.6259 7.19845 19.787 7.84102 19.8883 8.49946C19.9429 8.8538 19.9741 9.21079 20.0001 9.56777C20.0001 9.57835 20.0001 9.58893 20.0001 9.5995Z" fill="white"/>
</svg>
