<svg id="Layer_1" data-name="Layer 1" xmlns="http://www.w3.org/2000/svg" viewBox="0 0 14.97 10.93"><defs><style>.cls-1{fill:#2ce5dd;}</style></defs><title>Artboard 1</title><path class="cls-1" d="M7.36,8.65H3.66a.25.25,0,0,0-.26.26V10.5a.25.25,0,0,0,.26.26h3.7a.25.25,0,0,0,.26-.26V8.91a.25.25,0,0,0-.26-.26Z"/><path class="cls-1" d="M9.21,3.36H10.8V10.5a.24.24,0,0,0,0,.19.33.33,0,0,0,.22.07H12.7c.08,0,.1,0,.14-.07a.25.25,0,0,0,.07-.19V3.36H14.5a.25.25,0,0,0,.25-.17.25.25,0,0,0-.06-.29L12,.26a.3.3,0,0,0-.19-.07.28.28,0,0,0-.19.07L9,2.9a.31.31,0,0,0-.08.2.25.25,0,0,0,.26.26Z"/><path class="cls-1" d="M.3,2.23a.26.26,0,0,0,.19.07H7.36A.25.25,0,0,0,7.63,2V.45A.25.25,0,0,0,7.36.19H.49A.25.25,0,0,0,.23.45V2A.26.26,0,0,0,.3,2.23Z"/><path class="cls-1" d="M7.36,4.42H2.08a.25.25,0,0,0-.26.26V6.27a.25.25,0,0,0,.26.26H7.36a.25.25,0,0,0,.26-.26V4.68a.25.25,0,0,0-.26-.26Z"/></svg>