<?xml version="1.0" standalone="no"?>
<!DOCTYPE svg PUBLIC "-//W3C//DTD SVG 1.1//EN" "http://www.w3.org/Graphics/SVG/1.1/DTD/svg11.dtd" >
<svg xmlns="http://www.w3.org/2000/svg">
<metadata>
This is a custom SVG webfont generated by Font Squirrel.
Foundry     : Rob Andrews  RDCo based on the Berthold original
</metadata>
<defs>
<font id="webfontrrTzpoyH" horiz-adv-x="2134" >
<font-face units-per-em="4096" ascent="3490" descent="-606" />
<missing-glyph horiz-adv-x="1196" />
<glyph unicode=" "  horiz-adv-x="1196" />
<glyph unicode="&#x09;" horiz-adv-x="1196" />
<glyph unicode="&#xa0;" horiz-adv-x="1196" />
<glyph unicode="!" horiz-adv-x="1110" d="M725 2867q77 0 121 -35q43 -34 43 -129q0 -90 -6 -204q-3 -61 -6.5 -117.5l-6.5 -108.5q-5 -90 -14 -205l-12 -143l-86 -987q-8 -70 -68 -115t-137 -45t-137 45t-68 115l-86 987l-12 143q-9 115 -14 205l-6.5 108.5t-6.5 117.5q-6 114 -6 204q0 95 43 129q44 35 121 35 h344zM377 0q-77 0 -121 35q-43 34 -43 129v307q0 95 43 129q44 35 121 35h332q76 0 120 -35q43 -34 43 -129v-307q0 -95 -43 -129q-44 -35 -120 -35h-332z" />
<glyph unicode="&#x22;" horiz-adv-x="1789" d="M647 2888q77 0 121 -35q43 -34 43 -129v-246q-5 -50 -27 -174t-108 -387q-22 -68 -58 -113q-38 -47 -114 -47q-78 0 -117 47q-37 44 -59 113q-87 266 -107 387q-18 105 -24 174v246q0 95 43 129q44 35 120 35h287zM1479 2888q76 0 120 -35q43 -34 43 -129v-246 q-6 -61 -26 -174q-21 -118 -109 -387q-22 -70 -57 -113q-38 -47 -115 -47t-116 47q-39 46 -60 113q-84 259 -106 387q-20 118 -25 174v246q0 95 43 129q44 35 121 35h287z" />
<glyph unicode="$" horiz-adv-x="1789" d="M717 -41q-129 7 -244 25q-112 18 -170 36q-72 24 -119 64q-45 39 -45 133v365q0 74 37 108q38 35 94 35q19 0 62 -8q70 -20 172 -37q96 -16 229 -16q103 0 180 43q78 43 78 141q0 120 -65 203q-63 80 -162 159q-92 73 -209 156q-112 79 -209 193q-96 113 -162 268 q-65 154 -65 381q0 254 149 436q150 183 449 240v180q0 78 37 121t127 43h73q95 0 129 -43q35 -44 35 -121v-160q169 -12 287 -45q77 -22 119 -57q45 -38 45 -131v-295q0 -74 -33 -109t-90 -35q-13 0 -62 9q-56 16 -124 32q-55 13 -130 13q-142 0 -221 -41q-78 -41 -78 -148 q0 -91 66 -158t162 -135l209 -147q111 -78 209 -195q94 -111 161 -272q66 -158 66 -383q0 -143 -45 -268t-123 -230q-76 -103 -184 -180q-105 -76 -234 -121v-213q0 -77 -35 -121q-34 -43 -129 -43h-73q-90 0 -127 43t-37 121v164z" />
<glyph unicode="%" horiz-adv-x="3411" d="M1241 0q-127 0 -127 94q0 25 12 70l365 1225l137 458l123 408l92 303l45 145q24 94 80 129t133 35h70q127 0 127 -94q0 -29 -12 -70l-373 -1224l-139 -459l-125 -410l-93 -305q-34 -110 -45 -141q-24 -95 -79 -129q-56 -35 -134 -35h-57zM725 1376q115 0 162 131 q47 132 47 402q0 269 -47 401q-47 131 -162 131t-162 -131q-47 -132 -47 -401q0 -270 47 -402q47 -131 162 -131zM725 950q-333 0 -492 246t-159 713q0 466 159 712t492 246t492 -246t159 -712q0 -467 -159 -713t-492 -246zM2687 426q115 0 162 131q47 132 47 401 q0 270 -47 402q-47 131 -162 131t-162 -131q-47 -132 -47 -402q0 -269 47 -401q47 -131 162 -131zM2687 0q-333 0 -492 246t-159 712q0 467 159 713t492 246q332 0 491 -246q160 -248 160 -713q0 -464 -160 -712q-159 -246 -491 -246z" />
<glyph unicode="&#x26;" horiz-adv-x="2473" d="M1212 1909q24 0 56 14q35 15 67 43q33 28 56 70q22 40 22 94q0 225 -192 225q-181 0 -181 -217q0 -31 19 -74q17 -39 47 -75q31 -37 57 -58q28 -22 49 -22zM1077 541q98 0 142 41q43 40 43 69q0 45 -17 70q-5 8 -15.5 23t-21.5 34l-225 328q-45 61 -74 72q-27 10 -45 10 q-66 0 -112 -90q-47 -91 -47 -230q0 -126 90 -227q90 -100 282 -100zM1040 -41q-221 0 -401 66q-179 66 -307 180t-197 274q-69 159 -69 344q0 248 104 441q105 195 301 309q57 33 107 80q49 46 49 67q0 19 -23 70t-59 94q-55 69 -84 166q-31 104 -31 227q0 169 66 287 q67 120 176 197q110 78 254 112q146 35 299 35q336 0 522 -190t186 -527q0 -110 -30 -206q-29 -94 -82 -179q-49 -79 -117 -147q-67 -67 -131 -115q-46 -34 -62 -63t-16 -51q0 -41 41 -111l139 -221q11 -19 25 -33q12 -12 37 -12q30 0 47 26q18 27 18 117q0 42 -6 76t-6 84 q0 32 29 53t102 21h311q77 0 121 -35q43 -34 43 -129q0 -59 -16 -133q-15 -71 -41 -156q-21 -69 -60 -156q-36 -80 -71 -129q-38 -57 -60 -84q-22 -26 -22 -55q0 -34 10 -51q8 -15 35 -51l143 -209q20 -31 31 -60q10 -26 10 -43q0 -82 -37 -110q-38 -29 -114 -29h-365 q-46 0 -67 20q-21 19 -39 46q-57 90 -123 90q-31 0 -82 -31q-58 -35 -121 -68q-69 -36 -162 -67t-205 -31z" />
<glyph unicode="'" horiz-adv-x="851" d="M659 2888q77 0 121 -35q43 -34 43 -129v-246q-6 -61 -26 -174q-21 -118 -109 -387q-22 -70 -57 -113q-38 -47 -115 -47q-78 0 -117 47q-37 44 -59 113q-87 266 -107 387q-18 105 -24 174v246q0 95 43 129q44 35 121 35h286z" />
<glyph unicode="(" horiz-adv-x="1196" d="M147 1327q0 343 64 639q63 292 174 500t258 325t315 117q77 0 121 -35q43 -34 43 -129v-250q0 -95 -26 -133q-28 -40 -88 -84q-89 -69 -134 -204q-47 -140 -69 -289q-23 -155 -29 -281q-6 -131 -6 -176t6 -176q6 -126 29 -281q22 -147 69 -288q46 -137 134 -205 q60 -44 88 -84q26 -38 26 -133v-250q0 -95 -43 -129q-44 -35 -121 -35q-167 0 -315 115q-147 114 -258 323q-111 208 -174 500q-64 296 -64 643z" />
<glyph unicode=")" horiz-adv-x="1196" d="M1057 1327q0 -347 -64 -643q-63 -292 -174 -500q-111 -209 -258 -323q-148 -115 -315 -115q-77 0 -121 35q-43 34 -43 129v250q0 94 27 133q28 40 88 84q87 67 133 205q47 141 69 288q23 155 29 281q6 131 6 176t-6 176q-6 126 -29 281q-22 149 -69 289q-45 136 -133 204 q-60 44 -88 84q-27 39 -27 133v250q0 95 43 129q44 35 121 35q168 0 315 -117t258 -325t174 -500q64 -296 64 -639z" />
<glyph unicode="*" horiz-adv-x="1363" d="M881 2576l184 62q35 8 49 8q34 0 57 -16q25 -17 37 -62q4 -27 17 -57q4 -11 18 -53q13 -36 19 -58q8 -22 8 -53q0 -36 -23 -57q-22 -20 -55 -37l-184 -62l110 -151q29 -46 29 -78q0 -44 -53 -82l-50 -33q-32 -26 -45 -35q-5 -4 -49 -34q-45 -33 -78 -33q-40 0 -81 53 l-115 156l-111 -152q-41 -53 -90 -53q-35 0 -69 29l-50 32l-45 33q-31 22 -49 37q-53 38 -53 86q0 36 24 74l115 155l-180 58q-82 33 -82 98q0 27 8 49q5 25 17 54q4 11 18 53q11 29 18 61q28 82 95 82q14 0 49 -8l184 -62v193q0 53 25 84t90 31h176q65 0 90 -31t25 -84 v-197z" />
<glyph unicode="," horiz-adv-x="851" d="M319 -496q-63 0 -92 19q-26 17 -26 71q0 5 2 35q1 20 10 39l82 205q16 36 16 70q0 33 -16 45q-17 12 -33 12q-77 0 -121 35q-43 34 -43 129v307q0 95 43 129q44 35 121 35h332q77 0 121 -35q43 -34 43 -129v-328q-5 -51 -19 -90q-19 -50 -30 -73l-144 -316 q-28 -61 -73 -110q-45 -50 -123 -50h-50z" />
<glyph unicode="-" horiz-adv-x="1196" d="M283 762q-77 0 -121 35q-43 34 -43 129v250q0 95 43 129t121 34h622q78 0 121 -34t43 -129v-250q0 -95 -43 -129q-44 -35 -121 -35h-622z" />
<glyph unicode="." horiz-adv-x="851" d="M262 0q-77 0 -121 35q-43 34 -43 129v307q0 95 43 129q44 35 121 35h332q77 0 121 -35q43 -34 43 -129v-307q0 -95 -43 -129q-44 -35 -121 -35h-332z" />
<glyph unicode="/" horiz-adv-x="1536" d="M197 0q-127 0 -127 94q0 25 12 70l364 1225l138 458l123 408l92 303l45 145q24 94 80 129t133 35h274q127 0 127 -94q0 -29 -12 -70l-373 -1224l-139 -459l-125 -410l-92 -305q-34 -110 -45 -141q-24 -94 -80 -129t-133 -35h-262z" />
<glyph unicode="0" horiz-adv-x="2220" d="M1094 614q175 0 247 203t72 617t-72 616q-72 203 -247 203q-176 0 -248 -203q-72 -202 -72 -616t72 -617t248 -203zM1094 -41q-509 0 -756 379q-248 380 -248 1096q0 715 248 1095q247 379 756 379q508 0 755 -379q248 -380 248 -1095q0 -716 -248 -1096 q-247 -379 -755 -379z" />
<glyph unicode="1" horiz-adv-x="2220" d="M958 2007q0 86 -53 86q-31 0 -71 -29l-80 -57l-127 -90q-53 -41 -103 -41q-66 0 -127 82l-114 168q-41 62 -41 102q0 66 82 123l634 455q41 30 78 47q31 14 86 14h332q77 0 121 -35q43 -34 43 -129v-2539q0 -95 -43 -129q-44 -35 -121 -35h-332q-77 0 -121 35 q-43 34 -43 129v1843z" />
<glyph unicode="2" d="M102 381q52 47 166 135q117 90 262 213q146 123 301 268q156 145 285 297q127 149 211 305q82 152 82 289q0 108 -31 189q-29 76 -82 127q-49 48 -116 69q-66 21 -131 21q-69 0 -134 -17t-114 -59q-53 -45 -82 -115q-31 -74 -31 -178q0 -77 -35 -121q-34 -43 -129 -43 h-311q-95 0 -129 43q-35 44 -35 121q0 262 90 451q89 187 234 305q144 117 321 172t355 55q194 0 372 -55q183 -56 320 -176q138 -120 223 -314q84 -192 84 -462q0 -169 -72 -338q-74 -174 -178 -328q-112 -165 -233 -295q-123 -132 -242 -235q-3 -3 -27 -23 q-18 -15 -18 -31q0 -24 49 -24h528q77 0 121 -35q43 -34 43 -129v-299q0 -95 -43 -129q-44 -35 -121 -35h-1679q-77 0 -121 35q-43 34 -43 129v33q0 32 23 90q22 57 67 94z" />
<glyph unicode="3" d="M1008 -41q-192 0 -338 33q-147 33 -258 88q-115 57 -199 123q-90 71 -156 137q-32 32 -37 63q-4 27 -4 64q0 65 58 123l192 196q54 54 107 54q45 0 82 -37q84 -87 207 -158q124 -72 317 -72q63 0 139 17q75 17 131 55q59 40 97 105q38 64 38 163t-51 160q-51 62 -127 96 q-78 35 -162 50q-77 14 -155 22q-75 7 -123 39q-45 30 -45 125v160q0 95 43 129q45 36 121 43q74 7 151 26q70 17 131 54q58 35 95 81q36 45 36 117q0 135 -90 207t-225 72q-193 0 -303 -76t-188 -178q-37 -37 -82 -37q-54 0 -107 53l-197 201q-57 57 -57 123q0 53 41 127 q21 33 94 100q72 66 193 135q119 68 276 117q156 49 351 49q184 0 352 -51t297 -147q127 -95 205 -238q75 -138 75 -326q0 -171 -63 -288q-63 -116 -133 -179l-84 -71q-39 -34 -39 -56q0 -20 49 -41q52 -22 102 -65q254 -197 254 -594q0 -434 -270 -664q-269 -229 -741 -229 z" />
<glyph unicode="4" d="M1556 2867q77 0 121 -35q43 -34 43 -129v-1396q5 -58 39 -95q33 -36 105 -36h41q76 0 120 -35q43 -34 43 -129v-185q0 -94 -43 -149t-120 -55h-41q-71 0 -105 -37q-35 -38 -39 -94v-328q0 -95 -43 -129q-44 -35 -121 -35h-290q-77 0 -121 35q-43 34 -43 129v328 q-4 56 -39 94q-34 37 -105 37h-745q-78 0 -121 55t-43 149v62q0 101 53 184l1020 1634q48 80 97 121q47 39 137 39h200zM1118 1733q0 69 -33 69q-20 0 -41 -12q-18 -10 -40 -57l-226 -418q-2 -4 -12 -27q-8 -19 -8 -43q0 -37 22 -53t80 -16h152q65 0 86 34q20 33 20 93v430z " />
<glyph unicode="5" d="M975 2015q261 0 450 -71q194 -73 322 -201q129 -129 192 -303q64 -177 64 -379q0 -247 -72 -449t-207 -348t-327 -225q-193 -80 -434 -80q-193 0 -334 33q-144 34 -248 88t-188 123q-83 67 -152 137q-32 32 -37 63q-4 27 -4 64q0 66 57 123l193 196q54 54 106 54 q45 0 82 -37q84 -87 197 -166q115 -80 307 -80q78 0 156 33q76 32 137 90q58 55 96 139q37 81 37 180q0 197 -123 320t-344 123q-123 0 -199 -6q-49 -4 -129 -13l-90 -10q-33 -4 -82 -4q-76 0 -120 35q-43 34 -43 129v1130q0 95 43 129q44 35 120 35h1237q77 0 121 -35 q43 -34 43 -129v-245q0 -177 -164 -177h-639q-69 0 -106 -24t-37 -86v-53q0 -78 35 -90q37 -13 84 -13z" />
<glyph unicode="6" horiz-adv-x="2220" d="M827 1757q0 -28 37 -28q15 0 58 20q48 22 106 45q62 24 135 45t144 21q151 0 303 -45t270 -156q119 -111 195 -295q75 -181 75 -463q0 -248 -86 -428q-86 -179 -225 -293q-143 -117 -313 -168q-176 -53 -350 -53q-276 0 -476 94q-201 95 -331 266q-133 176 -195 414 q-63 241 -63 537q0 302 63 598q63 294 209 526q147 233 385 373q240 141 592 141q151 0 252 -14q116 -16 186 -35q77 -22 119 -57q45 -38 45 -131v-254q0 -75 -33 -109q-33 -35 -90 -35q-72 0 -166 23q-89 22 -243 22q-162 0 -273 -55q-114 -56 -186 -137q-76 -85 -109 -180 q-35 -100 -35 -189zM1151 1278q-69 0 -131 -21q-64 -22 -111 -49q-50 -29 -78 -61t-28 -53q0 -246 80 -383q80 -138 284 -138q147 0 254 72t107 256q0 123 -33 197t-88 114q-58 42 -123 54q-68 12 -133 12z" />
<glyph unicode="7" horiz-adv-x="2048" d="M1118 160q-16 -94 -74 -127q-57 -33 -135 -33h-356q-76 0 -121 31q-43 30 -43 125q0 36 33 155q39 140 82 273q59 182 108 311q57 149 113 276l381 848q4 6 12 33q8 26 8 53q0 59 -43 93t-108 34h-770q-77 0 -121 35q-43 34 -43 129v307q0 95 43 129q44 35 121 35h1691 q77 0 121 -35q43 -34 43 -129q0 -39 -16 -84l-37 -104l-115 -264l-163 -369l-187 -432q-103 -245 -182 -457q-93 -248 -150 -442q-64 -217 -92 -391z" />
<glyph unicode="8" d="M1069 -41q-471 0 -737 215t-266 649q0 243 100 394q100 150 227 249q55 47 96 64q43 18 43 39t-49 45t-90 65q-45 41 -86 86q-42 46 -71 105q-34 68 -50 137q-18 78 -18 188q0 170 65 299q67 133 185 224q119 92 284 141t367 49t367 -49t284 -141q118 -91 185 -224 q65 -129 65 -299q0 -110 -18 -188q-17 -72 -49 -137q-28 -56 -72 -105q-41 -45 -86 -86q-41 -41 -90 -65t-49 -45t43 -39q41 -17 96 -64q127 -99 227 -249q101 -152 101 -394q0 -433 -267 -649q-266 -215 -737 -215zM1069 1855q18 0 64 19q41 17 86 51q43 32 73 84 q31 53 31 121q0 126 -72 176q-71 49 -182 49t-182 -49q-72 -50 -72 -176q0 -70 33 -121q33 -52 76 -84q44 -33 84 -51q43 -19 61 -19zM1069 516q61 0 131 19q66 18 119 59q55 42 84 102q31 64 31 148q0 96 -48 170q-47 72 -110 119t-123 69q-61 23 -84 23q-31 0 -94 -23 q-61 -22 -121 -69q-57 -45 -104 -119q-45 -72 -45 -170q0 -87 30 -150q29 -61 84 -102q52 -38 117 -57q66 -19 133 -19z" />
<glyph unicode="9" horiz-adv-x="2220" d="M1389 1069q0 29 -37 29q-12 0 -45 -21q-34 -22 -88 -45q-55 -24 -132 -45q-73 -20 -178 -20q-151 0 -303 45q-153 45 -270 155q-119 111 -195 295q-75 181 -75 463q0 248 86 434q85 184 225 307t313 183q171 59 350 59q276 0 476 -94q201 -95 331 -266q133 -176 195 -414 q63 -242 63 -537q0 -303 -63 -598q-63 -294 -209 -526q-147 -233 -385 -373q-240 -141 -592 -141q-151 0 -252 14q-116 16 -186 35q-75 21 -119 58q-45 38 -45 131v254q0 73 33 108t90 35q72 0 166 -23q89 -22 243 -22q159 0 273 47q113 46 186 123q75 78 109 168 q35 93 35 182zM1065 1548q66 0 129 21q66 22 113 49q48 28 77 61q29 34 29 54q0 246 -82 403q-83 158 -282 158q-147 0 -254 -92t-107 -277q0 -123 33 -196q34 -76 88 -115q57 -41 121 -53q72 -13 135 -13z" />
<glyph unicode=":" horiz-adv-x="1024" d="M328 1376q-77 0 -121 35q-43 34 -43 129v307q0 95 43 129q44 35 121 35h331q77 0 121 -35q43 -34 43 -129v-307q0 -95 -43 -129q-44 -35 -121 -35h-331zM328 0q-77 0 -121 35q-43 34 -43 129v307q0 95 43 129q44 35 121 35h331q77 0 121 -35q43 -34 43 -129v-307 q0 -95 -43 -129q-44 -35 -121 -35h-331z" />
<glyph unicode=";" horiz-adv-x="1024" d="M385 -496q-63 0 -92 19q-27 18 -27 71q0 5 2 35q1 17 11 39l81 205q17 39 17 70q0 33 -17 45q-16 12 -32 12q-77 0 -121 35q-43 34 -43 129v307q0 95 43 129q44 35 121 35h331q77 0 121 -35q43 -34 43 -129v-328q-5 -55 -18 -90q-16 -42 -31 -73l-143 -316 q-27 -58 -74 -110q-45 -50 -123 -50h-49zM328 1376q-77 0 -121 35q-43 34 -43 129v307q0 95 43 129q44 35 121 35h331q77 0 121 -35q43 -34 43 -129v-307q0 -95 -43 -129q-44 -35 -121 -35h-331z" />
<glyph unicode="?" horiz-adv-x="1449" d="M537 938q-33 119 -45 217q-13 107 -13 176q0 86 19 187q16 83 43 186q25 90 43 162t18 116q0 94 -45 168t-139 74q-32 0 -70 -18q-40 -19 -78 -19q-56 0 -94 35q-37 34 -37 109v299q0 94 45 133t119 63q89 27 166 43q93 19 240 19q111 0 221 -31q105 -29 186 -94 q81 -64 127 -162q47 -100 47 -234q0 -147 -24 -249q-24 -101 -64 -189q-39 -85 -84 -168q-46 -85 -84 -192q-39 -112 -63 -260q-25 -156 -25 -371q0 -70 -63 -115t-142 -45t-131 45q-51 44 -73 115zM565 0q-77 0 -121 35q-43 34 -43 129v307q0 95 43 129q44 35 121 35h332 q77 0 121 -35q43 -34 43 -129v-307q0 -95 -43 -129q-44 -35 -121 -35h-332z" />
<glyph unicode="A" horiz-adv-x="2387" d="M1286 1942q-7 49 -39 102q-30 49 -84 49t-84 -49q-32 -53 -39 -102l-135 -717q0 -7 -2 -13t-2 -12q0 -58 43 -92q44 -35 109 -35h221q64 0 108 35q43 34 43 92q0 6 -2 12t-2 13zM1585 336q-16 82 -47 117q-30 34 -100 34h-549q-71 0 -101 -34q-31 -35 -47 -117l-32 -176 q-53 -160 -209 -160h-348q-86 0 -119 37t-33 102q0 53 20 133l33 134l504 2301q21 94 76 127t133 33h795q77 0 133 -33q54 -32 75 -127l504 -2301l33 -134q21 -84 21 -133q0 -65 -33 -102t-119 -37h-348q-156 0 -209 160z" />
<glyph unicode="B" horiz-adv-x="2473" d="M1372 2867q184 0 346 -51q161 -51 283 -147q120 -95 190 -238t70 -326q0 -335 -180 -503q-43 -43 -90 -66q-49 -24 -49 -45t43 -39t96 -63q127 -99 190 -226q64 -130 64 -340q0 -428 -267 -626q-266 -197 -737 -197h-1012q-76 0 -120 35q-43 34 -43 129v2539q0 95 43 129 q44 35 120 35h1053zM1245 1774q135 0 234 57q98 56 98 192t-96 193t-232 57h-250q-70 0 -104 -37q-35 -38 -39 -94v-217q0 -70 37 -110q38 -41 106 -41h246zM1651 893q0 99 -39 156q-40 59 -96 88q-58 30 -132 41q-70 10 -139 10h-246q-68 0 -106 -41q-37 -40 -37 -111v-286 q0 -71 37 -111q38 -41 106 -41h246q61 0 139 8q72 7 132 39q57 30 96 90t39 158z" />
<glyph unicode="C" horiz-adv-x="1789" d="M1561 655q77 0 120 -34t43 -129v-369q0 -95 -43 -129q-44 -35 -120 -35q-307 0 -576 96q-268 96 -467 283t-313 463q-115 278 -115 633q0 354 115 632q114 276 313 463t467 283q269 96 576 96q76 0 120 -35q43 -34 43 -129v-368q0 -95 -43 -129q-44 -35 -120 -35 q-156 0 -297 -45q-143 -46 -250 -139q-108 -94 -174 -242q-66 -147 -66 -352q0 -206 66 -353q66 -146 174 -241t250 -140q141 -45 297 -45z" />
<glyph unicode="D" horiz-adv-x="2732" d="M1286 2867q254 0 496 -90t432 -268q189 -177 307 -449q117 -270 117 -626q0 -357 -117 -627q-118 -272 -307 -449q-190 -178 -432 -268t-496 -90h-967q-76 0 -120 35q-43 34 -43 129v2539q0 95 43 129q44 35 120 35h967zM999 2228q-70 0 -104 -37q-35 -38 -39 -94v-1306 q0 -71 37 -111q38 -41 106 -41h287q121 0 244 47q121 46 215 145t151 248q58 153 58 355q0 201 -58 354q-57 149 -151 248t-215 145q-123 47 -244 47h-287z" />
<glyph unicode="E" horiz-adv-x="2048" d="M319 0q-76 0 -120 35q-43 34 -43 129v2539q0 95 43 129q44 35 120 35h1430q77 0 121 -35q43 -34 43 -129v-266q0 -95 -43 -129q-44 -35 -121 -35h-750q-70 0 -104 -37q-35 -38 -39 -94v-217q0 -70 37 -110q38 -41 106 -41h746q77 0 121 -35q43 -34 43 -129v-258 q0 -95 -43 -129q-44 -35 -121 -35h-746q-68 0 -106 -41q-37 -40 -37 -111v-286q0 -71 37 -111q38 -41 106 -41h832q164 0 164 -176v-258q0 -95 -43 -129q-44 -35 -121 -35h-1512z" />
<glyph unicode="F" horiz-adv-x="1875" d="M999 1188q-143 0 -143 -164v-860q0 -95 -43 -129q-44 -35 -121 -35h-373q-76 0 -120 35q-43 34 -43 129v2539q0 95 43 129q44 35 120 35h1389q77 0 121 -35q43 -34 43 -129v-266q0 -95 -43 -129q-44 -35 -121 -35h-709q-70 0 -104 -37q-35 -38 -39 -94v-217 q0 -70 37 -110q38 -41 106 -41h598q77 0 121 -35q43 -34 43 -129v-258q0 -95 -43 -129q-44 -35 -121 -35h-598z" />
<glyph unicode="G" horiz-adv-x="2732" d="M1765 2294q-172 0 -358 -25q-180 -24 -320 -100q-142 -77 -227 -213q-86 -137 -86 -359q0 -247 94 -426q95 -181 244 -294q151 -115 330 -170q182 -56 352 -56q66 0 100 39q36 40 43 109v303q-12 143 -143 143h-33q-77 0 -121 35q-43 34 -43 129v258q0 95 43 129 q44 35 121 35h631q77 0 121 -35q43 -34 43 -129v-1466q0 -95 -43 -135q-46 -42 -121 -54q-46 -8 -108 -14q-51 -4 -146 -10q-28 -2 -84 -4.5l-80 -3.5q-95 -5 -164 -5q-301 0 -610 95q-308 95 -553 292q-243 196 -401 504q-156 304 -156 731q0 387 143 639q145 255 371 404 t512 209q280 59 567 59q71 0 162 -6q105 -7 183 -16l167 -21q80 -11 115 -22q75 -21 119 -58q45 -37 45 -131v-303q0 -73 -33 -108t-90 -35q-18 0 -61 8q-45 14 -109 25q-77 13 -151 24q-108 16 -154 21q-78 8 -111 8z" />
<glyph unicode="H" horiz-adv-x="2732" d="M2028 0q-77 0 -121 35q-43 34 -43 129v823q0 71 -37 111q-38 41 -107 41h-721q-70 0 -104 -37q-35 -38 -39 -94v-844q0 -95 -43 -129q-44 -35 -121 -35h-373q-76 0 -120 35q-43 34 -43 129v2539q0 95 43 129q44 35 120 35h373q77 0 121 -35q43 -34 43 -129v-741 q0 -131 143 -131h721q132 0 144 131v741q0 95 43 129q44 35 121 35h372q77 0 121 -35q43 -34 43 -129v-2539q0 -95 -43 -129q-44 -35 -121 -35h-372z" />
<glyph unicode="I" horiz-adv-x="1024" d="M319 0q-76 0 -120 35q-43 34 -43 129v2539q0 95 43 129q44 35 120 35h373q77 0 121 -35q43 -34 43 -129v-2539q0 -95 -43 -129q-44 -35 -121 -35h-373z" />
<glyph unicode="J" horiz-adv-x="1449" d="M1266 909q0 -260 -43 -432q-43 -173 -140 -280q-96 -107 -254 -152q-157 -45 -387 -45h-278q-77 0 -121 35q-43 34 -43 129v340q0 94 23 129t100 35h127q100 0 160 32q62 33 96 88q35 57 47 132q12 76 12 161v1622q0 95 43 129q44 35 121 35h373q77 0 121 -35 q43 -34 43 -129v-1794z" />
<glyph unicode="K" horiz-adv-x="2387" d="M2204 381q16 -32 34 -62l46 -75q19 -32 38 -78q17 -40 17 -64q0 -61 -35 -82q-33 -20 -117 -20h-446q-78 0 -135 45q-59 46 -111 115l-414 811q-52 106 -131 106q-25 0 -57 -26q-33 -27 -33 -80v-807q0 -95 -43 -129q-44 -35 -121 -35h-372q-77 0 -121 35q-43 34 -43 129 v2539q0 95 43 129q44 35 121 35h372q77 0 121 -35q43 -34 43 -129v-663q21 -107 78 -107q33 0 63 33q36 39 64 74l479 667q52 69 111 115q57 45 135 45h446q87 0 119 -26q33 -27 33 -93q0 -24 -21 -61q-20 -36 -49 -74l-55 -71l-43 -56l-532 -688q-46 -54 -70 -106 q-25 -55 -25 -107q0 -57 15 -98q21 -57 34 -82z" />
<glyph unicode="L" horiz-adv-x="1875" d="M319 0q-76 0 -120 35q-43 34 -43 129v2539q0 95 43 129q44 35 120 35h373q77 0 121 -35q43 -34 43 -129v-1884q0 -70 37 -110q38 -41 106 -41h668q164 0 164 -176v-328q0 -95 -43 -129q-44 -35 -121 -35h-1348z" />
<glyph unicode="M" horiz-adv-x="3072" d="M831 164q0 -95 -43 -129q-44 -35 -120 -35h-349q-76 0 -120 35q-43 34 -43 129v2539q0 95 43 129q44 35 120 35h308q103 0 149 -45q44 -43 96 -115l582 -868q33 -45 47 -59q15 -15 35 -15q19 0 35 13q13 10 47 57l582 872q52 72 96 115q46 45 149 45h308q76 0 120 -35 q43 -34 43 -129v-2539q0 -95 -43 -129q-44 -35 -120 -35h-349q-76 0 -120 35q-43 34 -43 129v1208q0 46 -21 64t-41 18t-35 -18q-1 -2 -47 -64l-385 -508q-55 -67 -92 -102q-34 -33 -84 -33t-84 33q-37 35 -92 102l-385 508q-46 62 -47 64q-15 18 -35 18t-41 -18t-21 -64 v-1208z" />
<glyph unicode="N" horiz-adv-x="2646" d="M1827 2703q0 95 43 129q44 35 121 35h348q77 0 121 -35q43 -34 43 -129v-2539q0 -95 -43 -129q-44 -35 -121 -35h-348q-108 0 -152 43q-44 42 -94 117l-782 1237l-48 63q-16 19 -34 19q-50 0 -50 -82v-1233q0 -95 -43 -129q-44 -35 -120 -35h-349q-76 0 -120 35 q-43 34 -43 129v2539q0 95 43 129q44 35 120 35h349q107 0 151 -43q44 -42 94 -117l783 -1237l47 -63q15 -18 35 -18q49 0 49 81v1233z" />
<glyph unicode="O" horiz-adv-x="2899" d="M2793 1434q0 -359 -116 -633q-118 -279 -307 -463q-192 -187 -433 -283t-495 -96t-496 96q-240 95 -432 283q-189 184 -307 463q-117 276 -117 633q0 356 117 632q118 279 307 463q192 188 432 283q242 96 496 96t495 -96t433 -283q189 -184 307 -463q116 -274 116 -632z M2109 1434q0 205 -63 352q-63 148 -162 242t-215 139q-117 45 -227 45q-111 0 -228 -45q-116 -45 -215 -139q-97 -93 -161 -242t-64 -352q0 -204 64 -353q63 -148 161 -241q101 -96 215 -140q117 -45 228 -45q110 0 227 45q114 44 215 140q99 95 162 241q63 147 63 353z" />
<glyph unicode="P" horiz-adv-x="2473" d="M1434 770q-49 0 -119 2t-103 2q-32 0 -100 2t-113 2q-143 0 -143 -164v-450q0 -95 -43 -129q-44 -35 -121 -35h-373q-76 0 -120 35q-43 34 -43 129v2539q0 95 45 125q48 32 118 39l207 12q217 13 275 15q85 4 282 10q121 4 228 4q279 0 491 -88q214 -89 357 -235 t217 -344q73 -195 73 -414q0 -218 -69 -410q-69 -191 -203 -336q-132 -143 -322 -227q-189 -84 -421 -84zM1782 1847q0 124 -37 211q-38 91 -98 146q-61 57 -140 84q-75 26 -155 26h-353q-70 0 -104 -37q-35 -38 -39 -94v-659q0 -71 37 -111q38 -41 106 -41h353q76 0 155 29 q78 28 140 86q60 55 98 147q37 89 37 213z" />
<glyph unicode="Q" horiz-adv-x="2899" d="M2068 119q-133 -72 -284 -115q-158 -45 -342 -45q-254 0 -496 96q-240 95 -432 283q-189 184 -307 463q-117 276 -117 633q0 356 117 632q118 279 307 463q192 188 432 283q242 96 496 96t495 -96t433 -283q189 -184 307 -463q116 -274 116 -632q0 -220 -43 -402 q-45 -189 -120 -340q-10 -10 -11 -16q-2 -9 -10 -17q33 -4 84 -4h88q50 0 80 -34q31 -36 31 -105v-311q0 -94 -25 -125q-24 -30 -94 -51q-46 -11 -102 -19q-66 -10 -119 -10q-147 0 -221 53q-70 50 -107 82q-40 33 -57 33q-22 0 -45 -16q-16 -11 -54 -33zM1622 778 q-33 33 -33 82q0 38 21 66l82 102q21 29 47 39t51 10q58 0 115 -57q41 -41 69 -41q22 0 33 20q55 86 78 193q24 111 24 242q0 205 -63 352q-63 148 -162 242t-215 139q-117 45 -227 45q-111 0 -228 -45q-116 -45 -215 -139q-97 -93 -161 -242t-64 -352q0 -204 64 -353 q63 -148 161 -241q101 -96 215 -140q117 -45 228 -45q124 0 246 54z" />
<glyph unicode="R" horiz-adv-x="2301" d="M999 1294q126 0 230 64q103 64 172 155q68 90 108 201q39 108 39 195q0 202 -121 293q-122 92 -305 92h-123q-70 0 -104 -37q-35 -38 -39 -94v-717q0 -71 37 -111q38 -41 106 -41zM999 651q-143 0 -143 -164v-323q0 -95 -43 -129q-44 -35 -121 -35h-373q-76 0 -120 35 q-43 34 -43 129v2539q0 95 45 125q48 32 118 39q78 5 177 12q186 14 202 15q73 4 209 10q93 4 195 4q323 0 543 -80q217 -79 352 -217q132 -135 188 -319q56 -185 56 -383q0 -162 -43 -295q-44 -135 -105 -240q-59 -100 -131 -182q-64 -73 -123 -123q-32 -28 -43 -57 q-10 -27 -10 -49q0 -24 31 -58q27 -30 75 -65t101 -58q58 -25 100 -32q64 -12 94 -43q29 -31 29 -105v-414q0 -94 -45 -141t-119 -47q-169 0 -291 49q-124 50 -213 121q-87 70 -155 156l-127 155q-60 70 -123 121q-61 49 -144 49z" />
<glyph unicode="S" horiz-adv-x="1789" d="M119 2208q0 149 53 278q51 125 160 221q108 96 266 148q161 53 369 53q151 0 252 -14q116 -16 186 -35q77 -22 119 -57q45 -38 45 -131v-295q0 -74 -33 -109t-90 -35q-13 0 -62 9q-56 16 -124 32q-55 13 -130 13q-142 0 -221 -41q-78 -41 -78 -148q0 -91 66 -158 t162 -135l209 -147q111 -78 209 -195q94 -111 161 -272q66 -158 66 -383q0 -185 -72 -338q-74 -156 -194 -268q-125 -116 -285 -178q-165 -64 -346 -64q-171 0 -299 18q-121 17 -205 43q-72 24 -119 64q-45 39 -45 133v365q0 74 37 108q38 35 94 35q19 0 62 -8 q70 -20 172 -37q96 -16 229 -16q103 0 180 43q78 43 78 141q0 120 -65 203q-63 80 -162 159q-92 73 -209 156q-112 79 -209 193q-96 113 -162 268q-65 154 -65 381z" />
<glyph unicode="T" horiz-adv-x="2048" d="M1389 164q0 -95 -43 -129q-44 -35 -121 -35h-373q-77 0 -121 35q-43 34 -43 129v1950q-7 52 -43 86q-33 32 -100 32h-365q-77 0 -121 35q-43 34 -43 129v307q0 95 43 129q44 35 121 35h1688q77 0 121 -35q43 -34 43 -129v-307q0 -95 -43 -129q-44 -35 -121 -35h-336 q-71 0 -105 -37q-33 -36 -38 -94v-1937z" />
<glyph unicode="U" horiz-adv-x="2732" d="M1872 2703q0 95 43 129q44 35 121 35h372q77 0 121 -35q43 -34 43 -129v-1441q0 -408 -94 -660q-94 -253 -256 -397t-383 -195t-475 -51t-473 51q-220 51 -383 195q-165 146 -256 397q-92 255 -92 660v1441q0 95 43 129q44 35 121 35h372q77 0 121 -35q43 -34 43 -129 v-1474q0 -194 37 -311q38 -121 104 -187q68 -68 160 -92q95 -25 203 -25t203 25q91 24 159 92t107 187q39 118 39 311v1474z" />
<glyph unicode="V" horiz-adv-x="2220" d="M823 0q-77 0 -133 33q-55 33 -76 127l-544 2302l-33 133q-21 84 -21 133q0 64 33 102q33 37 119 37h348q156 0 209 -160l332 -1572q21 -107 61 -107q41 0 62 107l331 1572q53 160 209 160h348q86 0 119 -37q33 -38 33 -102q0 -53 -20 -133l-33 -133l-545 -2302 q-21 -94 -76 -127q-56 -33 -133 -33h-590z" />
<glyph unicode="W" horiz-adv-x="3325" d="M2241 918q8 0 20 16q13 18 25 70l356 1703q53 160 209 160h323q86 0 119 -37q33 -38 33 -102q0 -49 -21 -133l-32 -133l-545 -2302q-21 -94 -76 -127q-56 -33 -133 -33h-549q-78 0 -133 33t-76 127l-106 450q-24 111 -66 111q-32 0 -61 -115l-103 -446q-21 -95 -75 -127 q-56 -33 -133 -33h-426q-79 0 -134 33q-54 32 -75 127l-545 2302l-33 133q-20 80 -20 133q0 66 32 102q33 37 119 37h348q156 0 209 -160l365 -1703q24 -111 65 -111q33 0 62 115l151 622q18 87 21 103q8 48 8 73q0 37 -14 86q-16 55 -23 99l-110 471l-33 133 q-21 84 -21 133q0 64 33 102q33 37 119 37h307q156 0 209 -160l364 -1703q12 -52 25 -70q12 -16 21 -16z" />
<glyph unicode="X" horiz-adv-x="2387" d="M2228 389q10 -17 39 -61l53 -84q27 -44 45 -84q19 -43 19 -66q0 -64 -31 -80q-28 -14 -117 -14h-401q-155 0 -246 160l-303 577q-10 19 -37 66q-11 20 -45 20t-45 -20q-27 -47 -37 -66l-303 -577q-91 -160 -246 -160h-401q-89 0 -117 14q-30 15 -30 80q0 26 18 66t45 84 l53 84q29 44 39 61l565 938q17 29 27 57q10 27 10 66t-10 70t-27 53l-557 905q-11 20 -41 62t-55 83q-21 34 -47 84q-20 39 -20 66q0 65 30 80q28 14 117 14h434q155 0 246 -160l270 -475q2 -4 37 -65q12 -21 45 -21t45 21q35 61 37 65l270 475q91 160 246 160h434 q89 0 117 -14q31 -15 31 -80q0 -25 -21 -66q-26 -50 -47 -84q-25 -41 -55 -83t-41 -62l-557 -905q-17 -22 -27 -53t-10 -70t10 -66q10 -28 27 -57z" />
<glyph unicode="Y" horiz-adv-x="2473" d="M893 901q0 35 -19 90q-19 56 -45 109q-31 64 -55 108q-20 37 -49 99l-602 1204q-23 38 -31 53q-36 65 -37 68q-19 36 -30 67q-13 36 -13 58q0 65 29 88q28 22 115 22h462q156 0 209 -160l332 -745q45 -107 86 -107t86 107l332 745q53 160 209 160h463q86 0 114 -22 q29 -23 29 -88q0 -25 -12 -58q-9 -25 -31 -67q-1 -3 -37 -68q-8 -15 -31 -53l-602 -1204q-25 -53 -51 -99q-30 -52 -57 -108q-26 -53 -45 -109q-19 -55 -19 -90v-737q0 -95 -43 -129q-44 -35 -120 -35h-373q-77 0 -121 35q-43 34 -43 129v737z" />
<glyph unicode="Z" horiz-adv-x="2220" d="M1978 2867q77 0 121 -35q43 -34 43 -129q0 -39 -10 -88q-11 -51 -43 -100l-1020 -1692q-19 -31 -27 -45q-18 -33 -18 -57q7 -48 49 -53h905q77 0 121 -35q43 -34 43 -129v-340q0 -95 -43 -129q-44 -35 -121 -35h-1802q-77 0 -121 35q-43 34 -43 129v33q0 30 11 82 q10 49 43 98l1028 1700q11 18 26 45q19 35 19 57q-7 48 -49 53h-803q-77 0 -121 35q-43 34 -43 129v307q0 95 43 129q44 35 121 35h1691z" />
<glyph unicode="[" horiz-adv-x="1282" d="M918 2372q-78 0 -113 -27t-35 -121v-1806q0 -94 35 -121t113 -27h81q78 0 121 -34t43 -130v-208q0 -95 -43 -129q-44 -35 -121 -35h-647q-77 0 -121 35q-43 34 -43 129v2846q0 95 43 129q44 35 121 35h647q77 0 121 -35q43 -34 43 -129v-209q0 -95 -43 -129t-121 -34h-81 z" />
<glyph unicode="]" horiz-adv-x="1282" d="M270 2372q-77 0 -120 34q-44 35 -44 129v209q0 94 44 129t120 35h648q76 0 120 -35q43 -34 43 -129v-2846q0 -95 -43 -129q-44 -35 -120 -35h-648q-76 0 -120 35t-44 129v208q0 95 44 130q43 34 120 34h82q78 0 113 27t35 121v1806q0 94 -35 121t-113 27h-82z" />
<glyph unicode="_" horiz-adv-x="2048" d="M205 -590q-77 0 -121 35q-43 34 -43 129v86q0 95 43 129q44 35 121 35h1638q77 0 121 -35q43 -34 43 -129v-86q0 -95 -43 -129q-44 -35 -121 -35h-1638z" />
<glyph unicode="`" horiz-adv-x="1196" d="M618 2232q-76 0 -120 52q-42 49 -76 108l-160 262q-33 52 -33 103q0 45 43 67q44 23 101 23h332q77 0 116 -33q40 -34 68 -123l86 -295q9 -19 10 -39q2 -30 2 -35q0 -54 -26 -71q-29 -19 -93 -19h-250z" />
<glyph unicode="a" horiz-adv-x="2048" d="M991 471q135 0 217 55t82 142q0 86 -82 141t-217 55t-217 -55t-82 -141q0 -87 82 -142t217 -55zM877 1327q127 0 217 -12t139 -12q28 0 55 18t27 59q0 136 -385 136q-140 0 -281 -31q-133 -29 -256 -76q-36 -16 -74 -16q-49 0 -79 34q-31 36 -31 105v270q0 94 47 129 q49 36 117 60q142 49 305 73q169 25 313 25q187 0 361 -31q168 -30 290 -112q124 -83 193 -228q70 -148 70 -375v-1179q0 -95 -43 -129q-44 -35 -121 -35h-324q-41 0 -57 12q-17 12 -29 41q-12 33 -45 33q-26 0 -55 -20q-26 -18 -82 -43q-49 -22 -133 -43q-82 -21 -205 -21 q-105 0 -236 29q-128 28 -241 108t-191 215q-77 133 -77 353q0 145 59 266q60 123 166 211q105 87 256 137q148 49 330 49z" />
<glyph unicode="b" horiz-adv-x="2301" d="M139 2703q0 95 43 129q44 35 121 35h332q77 0 121 -35q43 -34 43 -129v-659q0 -62 65 -62q30 0 76 19l80 35q53 20 129 37q70 16 158 16q209 0 381 -78q170 -77 294 -219t191 -336q68 -196 68 -432t-74 -432q-73 -195 -201 -336t-297 -219t-362 -78q-140 0 -224 27 q-85 27 -137 57q-54 31 -80 57q-27 27 -51 27q-49 0 -65 -45q-21 -50 -54 -66q-32 -16 -98 -16h-295q-77 0 -121 35q-43 34 -43 129v2539zM1192 1475q-66 0 -141 -25q-68 -23 -131 -78q-59 -52 -99 -139q-39 -85 -39 -209t39 -209q40 -87 99 -139q63 -55 131 -78 q75 -25 141 -25q62 0 139 25q70 23 133 78q59 52 99 139q39 85 39 209t-39 209q-40 87 -99 139q-63 55 -133 78q-77 25 -139 25z" />
<glyph unicode="c" horiz-adv-x="1449" d="M1171 573q78 0 121 -34t43 -129v-287q0 -95 -43 -129q-44 -35 -121 -35q-222 0 -421 61q-201 61 -353 191q-150 127 -239 332q-88 201 -88 481q0 278 90 481q91 204 241 332q152 129 355 191q201 61 424 61q77 0 123 -35q45 -34 45 -129v-287q0 -95 -43 -129t-121 -34 q-195 0 -336 -103q-139 -102 -139 -348q0 -123 47 -209q47 -87 116 -139q71 -54 150 -78q83 -25 149 -25z" />
<glyph unicode="d" horiz-adv-x="2387" d="M2245 164q0 -95 -43 -129q-44 -35 -121 -35h-295q-66 0 -98 16q-33 16 -54 66q-16 45 -65 45q-25 0 -58 -27q-35 -28 -92 -57q-61 -30 -151 -57q-92 -27 -232 -27q-200 0 -379 78t-309 219q-131 142 -209 336q-78 195 -78 432q0 236 74 432q73 194 203 336 q129 141 309 219t389 78q89 0 178 -16q97 -18 150 -37l80 -35q46 -19 76 -19q65 0 65 62v659q0 95 43 129q44 35 121 35h332q77 0 121 -35q43 -34 43 -129v-2539zM1151 1475q-66 0 -147 -25q-76 -23 -146 -78q-67 -52 -113 -139q-45 -85 -45 -209t45 -209q46 -87 113 -139 q70 -55 146 -78q81 -25 147 -25q62 0 145 25q78 24 148 78q66 51 112 139q46 87 46 209t-46 209q-46 88 -112 139q-70 54 -148 78q-83 25 -145 25z" />
<glyph unicode="e" d="M1831 639q21 7 39 12q16 4 35 4q50 0 80 -34q30 -35 30 -105v-270q0 -94 -47 -129q-49 -36 -117 -60q-142 -49 -307 -73q-170 -25 -373 -25q-233 0 -434 57q-198 56 -348 183q-148 125 -233 319q-86 196 -86 473q0 304 82 514q82 211 223 340q143 130 330 187 q189 57 397 57q450 0 690 -281q240 -280 240 -796q0 -176 -177 -176h-991q-68 0 -96 -25q-27 -24 -27 -78q0 -69 129 -135t359 -66q172 0 330 31q149 29 272 76zM1069 1577q-144 0 -238 -61t-94 -148q0 -31 25 -61q24 -29 86 -29h434q111 0 111 90q0 86 -90 148 q-89 61 -234 61z" />
<glyph unicode="f" horiz-adv-x="1196" d="M795 2179q0 -57 30 -84t72 -27h131q78 0 121 -34t43 -129v-263q0 -95 -43 -129t-121 -34h-115q-49 -7 -49 -62v-1249q0 -95 -43 -129q-44 -35 -121 -35h-331q-77 0 -121 35q-43 34 -43 129v1257q-8 54 -62 54q-78 0 -106 34q-29 35 -29 129v263q0 89 29 127q27 36 106 36 q37 0 37 41q0 53 -6 113t-6 145q0 174 43 279q43 106 121 166t186 78t244 18h278q77 0 121 -35q43 -34 43 -129v-299q0 -95 -43 -129q-44 -35 -121 -35h-143q-42 0 -72 -24t-30 -78z" />
<glyph unicode="g" d="M1032 877q180 0 264 100q84 101 84 223t-84 223t-264 101t-264 -101t-84 -223t84 -223q84 -100 264 -100zM975 356q-424 0 -666 217q-243 217 -243 631q0 238 69 406q68 165 189 274q118 106 282 156q162 49 352 49q100 0 170 -16q75 -17 123 -37q57 -23 84 -37 q34 -17 58 -17q33 0 45 33q13 30 28 41q16 12 58 12h299q78 0 121 -34t43 -129v-1348q0 -197 -27 -369q-27 -173 -121 -301q-93 -127 -278 -204q-183 -76 -500 -76q-231 0 -420 31q-179 29 -326 83q-69 28 -116 62q-47 33 -47 127v303q0 143 106 143q42 0 78 -20 q121 -62 262 -111q153 -53 393 -53q181 0 287 66t106 135q0 61 -57 61q-25 0 -47 -12q-26 -14 -59 -27q-32 -13 -95 -26q-62 -13 -151 -13z" />
<glyph unicode="h" d="M799 164q0 -95 -43 -129q-44 -35 -121 -35h-332q-77 0 -121 35q-43 34 -43 129v2539q0 95 43 129q44 35 121 35h332q77 0 121 -35q43 -34 43 -129v-688q0 -33 20 -43t45 -10q27 0 54 20q28 21 77 43q47 21 129 43q80 21 203 21q121 0 244 -41q120 -40 217 -137 q96 -96 156 -248q59 -149 59 -373v-1126q0 -95 -43 -129q-44 -35 -121 -35h-332q-77 0 -121 35q-43 34 -43 129v901q0 110 -18 182t-53 113q-34 40 -82 57t-109 17q-46 0 -98 -19q-49 -18 -90 -65t-68 -131q-26 -81 -26 -215v-840z" />
<glyph unicode="i" horiz-adv-x="937" d="M303 0q-77 0 -121 35q-43 34 -43 129v1741q0 95 43 129t121 34h332q78 0 121 -34t43 -129v-1741q0 -95 -43 -129q-44 -35 -121 -35h-332zM303 2253q-77 0 -121 35q-43 34 -43 129v266q0 95 43 129q44 35 121 35h332q77 0 121 -35q43 -34 43 -129v-266q0 -95 -43 -129 q-44 -35 -121 -35h-332z" />
<glyph unicode="j" horiz-adv-x="1024" d="M242 1905q7 94 47 129q38 34 117 34h331q78 0 121 -34t43 -129v-1454q0 -214 -31 -355q-30 -138 -96 -217q-66 -80 -170 -108q-107 -29 -248 -29h-192q-77 0 -121 35q-43 34 -43 129v299q0 94 23 129t100 35t98 39t21 120v1377zM406 2253q-77 0 -121 35q-43 34 -43 129 v266q0 95 43 129q44 35 121 35h331q77 0 121 -35q43 -34 43 -129v-266q0 -95 -43 -129q-44 -35 -121 -35h-331z" />
<glyph unicode="k" horiz-adv-x="1961" d="M1458 0q-78 0 -121 39t-88 121l-82 168q-46 96 -94 178q-49 84 -96 141q-47 58 -88 58q-90 0 -90 -95v-446q0 -95 -43 -129q-44 -35 -121 -35h-332q-77 0 -121 35q-43 34 -43 129v2539q0 95 43 129q44 35 121 35h332q77 0 121 -35q43 -34 43 -129v-1134q0 -94 90 -94 q40 0 78 41q35 38 71 102q39 69 60 137q26 82 41 150q21 96 53 129q33 34 111 34h331q78 0 121 -34t43 -129q0 -61 -26 -146q-27 -89 -66 -180t-84 -180q-48 -94 -82 -142q-33 -51 -59 -102q-23 -46 -23 -74q0 -33 29 -86q31 -57 61 -98l45 -66l84 -126l101 -162l100 -166 q51 -85 76 -141q28 -62 28 -89q0 -82 -36 -114q-38 -33 -115 -33h-373z" />
<glyph unicode="l" horiz-adv-x="937" d="M303 0q-77 0 -121 35q-43 34 -43 129v2539q0 95 43 129q44 35 121 35h332q77 0 121 -35q43 -34 43 -129v-2539q0 -95 -43 -129q-44 -35 -121 -35h-332z" />
<glyph unicode="m" horiz-adv-x="3072" d="M1704 1917q24 -37 57 -37q24 0 58 25q112 86 227 135q116 49 321 49q122 0 224 -41q100 -40 174 -137q73 -96 114 -248q41 -153 41 -373v-1126q0 -95 -43 -129q-44 -35 -120 -35h-332q-77 0 -121 35q-43 34 -43 129v901q0 116 -14 180q-16 72 -41 107q-27 37 -64 49 q-38 12 -82 12q-43 0 -78 -14q-36 -14 -63 -60q-26 -43 -43 -125q-16 -77 -16 -210v-840q0 -95 -43 -129q-44 -35 -121 -35h-332q-77 0 -121 35q-43 34 -43 129v901q0 116 -14 180q-16 72 -41 107q-27 37 -64 49t-82 12q-42 0 -77 -14q-37 -15 -64 -60q-26 -43 -43 -125 q-16 -77 -16 -210v-840q0 -95 -43 -129q-44 -35 -121 -35h-332q-77 0 -121 35q-43 34 -43 129v1741q0 95 43 129t121 34h315q68 0 99 -20q32 -20 53 -82q16 -45 66 -45q25 0 49 27q23 26 71 57q46 30 129 57t222 27q122 0 225 -35t172 -137z" />
<glyph unicode="n" d="M799 164q0 -95 -43 -129q-44 -35 -121 -35h-332q-77 0 -121 35q-43 34 -43 129v1741q0 95 43 129t121 34h315q68 0 99 -20q32 -20 53 -82q16 -45 66 -45q24 0 51 27q26 26 80 57q52 30 137 57q84 27 223 27q121 0 244 -41q120 -40 217 -137q96 -96 156 -248 q59 -149 59 -373v-1126q0 -95 -43 -129q-44 -35 -121 -35h-332q-77 0 -121 35q-43 34 -43 129v901q0 110 -18 182t-53 113q-34 40 -82 57t-109 17q-46 0 -98 -19q-49 -18 -90 -65t-68 -131q-26 -81 -26 -215v-840z" />
<glyph unicode="o" horiz-adv-x="2301" d="M1151 1475q-65 0 -145 -25q-73 -23 -144 -78q-65 -51 -110 -139q-43 -85 -43 -209t43 -209q45 -88 110 -139q71 -55 144 -78q80 -25 145 -25q62 0 143 25q76 23 146 78q65 51 110 139q43 85 43 209t-43 209q-45 88 -110 139q-70 55 -146 78q-81 25 -143 25zM1151 -41 q-178 0 -367 61q-190 61 -350 191t-262 332q-102 203 -102 481t102 481q102 202 262 332t350 191q189 61 367 61t367 -61q190 -61 350 -191t262 -332q102 -203 102 -481t-102 -481q-102 -202 -262 -332t-350 -191q-189 -61 -367 -61z" />
<glyph unicode="p" horiz-adv-x="2387" d="M139 1905q0 95 43 129t121 34h295q66 0 104 -16q40 -17 60 -65q8 -24 24 -45t45 -21q25 0 58 27q34 28 88 57q57 31 143 57q88 27 228 27q192 0 368 -78q178 -79 312 -219q136 -142 215 -336t79 -432t-73 -432t-203 -336q-129 -141 -309 -219t-389 -78q-90 0 -179 16 q-95 17 -149 37l-80 35q-46 19 -76 19q-65 0 -65 -62v-270q0 -95 -43 -129q-44 -35 -121 -35h-332q-77 0 -121 35q-43 34 -43 129v2171zM1233 573q62 0 145 25q78 24 148 78q66 51 112 139q45 85 45 209t-45 209q-46 88 -112 139q-70 54 -148 78q-83 25 -145 25 q-67 0 -148 -25q-74 -23 -145 -78q-67 -52 -113 -139q-45 -85 -45 -209t45 -209q46 -87 113 -139q71 -55 145 -78q81 -25 148 -25z" />
<glyph unicode="q" horiz-adv-x="2387" d="M2249 -266q0 -95 -43 -129q-44 -35 -121 -35h-332q-77 0 -121 35q-43 34 -43 129v270q0 62 -65 62q-30 0 -76 -19l-80 -35q-54 -20 -147 -37q-87 -16 -177 -16q-209 0 -389 78q-181 78 -311 219q-132 143 -205 336q-73 194 -73 432t79 432t215 336q135 141 314 219 q178 78 370 78q140 0 228 -27q86 -26 143 -57t86 -57q30 -27 55 -27q30 0 46 21t24 45q20 48 60 65q38 16 104 16h295q78 0 121 -34t43 -129v-2171zM1159 573q63 0 146 25q76 23 145 78q65 52 111 139q45 85 45 209t-45 209q-46 87 -111 139q-69 55 -145 78q-83 25 -146 25 q-66 0 -147 -25q-76 -23 -148 -78q-68 -52 -114 -139q-45 -85 -45 -209t45 -209q46 -87 114 -139q72 -55 148 -78q81 -25 147 -25z" />
<glyph unicode="r" horiz-adv-x="1363" d="M1184 1335q-82 0 -148 -20q-70 -21 -123 -74q-54 -54 -84 -139q-30 -86 -30 -217v-721q0 -95 -43 -129q-44 -35 -121 -35h-332q-77 0 -121 35q-43 34 -43 129v1741q0 95 43 129t121 34h295q78 0 121 -34t43 -117q0 -45 41 -45q24 0 51 33q21 26 68 71q40 38 104 72 q63 33 158 33q77 0 121 -35q43 -34 43 -129v-418q0 -95 -43 -129q-44 -35 -121 -35z" />
<glyph unicode="s" horiz-adv-x="1622" d="M102 1528q0 151 56 258q56 108 153 174q100 68 230 98q135 31 282 31q151 0 252 -14q118 -16 187 -35q74 -21 118 -58q45 -38 45 -131v-237q0 -76 -32 -109q-33 -35 -90 -35q-13 0 -62 9q-67 19 -123 26q-50 6 -127 6q-151 0 -151 -69q0 -41 53 -74q46 -29 133 -70 q99 -47 174 -86q97 -51 174 -125q82 -79 133 -184q54 -111 54 -264q0 -183 -62 -313q-61 -129 -172 -211q-109 -81 -262 -119q-149 -37 -336 -37q-171 0 -299 18q-121 17 -205 43q-72 24 -119 64q-45 39 -45 133v283q0 74 37 108q38 35 95 35q18 0 61 -8q70 -20 172 -37 q96 -16 229 -16q103 0 146 30t43 80q0 65 -56 109q-55 43 -137 82l-178 86q-93 45 -178 116q-79 66 -137 177q-56 107 -56 266z" />
<glyph unicode="t" horiz-adv-x="1110" d="M16 1905q0 93 25 129q24 34 70 34h20q34 5 41 54v262q0 95 43 129q44 35 121 35h332q76 0 116 -35t47 -129v-254q0 -54 50 -62h49q78 0 121 -34t43 -129v-267q0 -95 -43 -129t-121 -34h-49q-43 -5 -50 -54v-635q0 -81 21 -120t98 -39q78 0 101 -35q22 -34 22 -129v-299 q0 -95 -43 -129q-44 -35 -121 -35h-192q-141 0 -248 29q-104 28 -170 108q-66 79 -96 217q-31 141 -31 355v712q-7 49 -41 54h-20q-46 0 -70 34q-25 36 -25 129v267z" />
<glyph unicode="u" d="M1335 1905q0 95 43 129t121 34h332q78 0 121 -34t43 -129v-1741q0 -95 -43 -129q-44 -35 -121 -35h-315q-68 0 -99 20q-32 20 -53 82q-16 45 -66 45q-25 0 -51 -26q-29 -29 -80 -58q-52 -30 -137 -57q-81 -26 -223 -26q-124 0 -244 40q-119 40 -217 138q-96 96 -156 248 q-59 149 -59 372v1127q0 95 43 129t121 34h332q78 0 121 -34t43 -129v-901q0 -111 18 -183q18 -70 53 -112q35 -41 82 -58q45 -16 109 -16q49 0 98 18q48 17 90 66q41 47 68 131q26 81 26 215v840z" />
<glyph unicode="v" horiz-adv-x="1789" d="M893 975q5 -29 25 -29q23 0 28 29l189 934q53 159 208 159h295q79 0 115 -32q37 -33 37 -115q0 -77 -18 -143q-15 -55 -35 -115l-426 -1503q-45 -82 -88 -121t-121 -39h-385q-77 0 -121 39q-43 39 -88 121l-455 1503q-20 60 -35 115q-18 66 -18 143q0 82 37 115 q36 32 115 32h327q157 0 209 -159z" />
<glyph unicode="w" horiz-adv-x="2723" d="M1032 1233q21 73 21 127q0 30 -6 70q-3 20 -15 73l-90 291q-33 106 -33 135q0 82 41 111q40 28 119 28h307q80 0 133 -36q55 -37 76 -123l180 -893q5 -29 25 -29q24 0 29 29l254 893q49 159 208 159h287q79 0 117 -32q39 -33 39 -115q0 -65 -12 -102l-8 -22l-7.5 -21.5 t-5.5 -14.5l-532 -1601q-33 -91 -82 -125q-50 -35 -127 -35h-287q-78 0 -131 35q-54 36 -78 125l-106 381q-7 28 -29 28q-18 0 -25 -28l-90 -381q-21 -94 -76 -127q-56 -33 -133 -33h-241q-77 0 -129 35q-51 35 -80 125l-508 1601q-13 37 -23 82q-10 47 -10 86q0 82 41 111 q40 28 119 28h287q80 0 133 -36q54 -36 75 -123l263 -893q5 -29 24 -29q24 0 29 29z" />
<glyph unicode="x" horiz-adv-x="1961" d="M590 1106q0 22 -19 57q-15 27 -26 45l-406 647q-32 48 -43 76q-10 26 -10 60q0 19 14 47q15 30 93 30h438q79 0 119 -43q44 -47 86 -116l147 -254l7 -12t5 -9q5 -8 13 -8q11 0 28 29l140 254q41 78 86 119q44 40 122 40h431q77 0 92 -30q14 -28 14 -47q0 -34 -10 -60 q-11 -28 -43 -76l-434 -692q-19 -31 -27 -45q-18 -33 -18 -57t18 -57q12 -22 27 -46l446 -745q32 -48 43 -76q10 -26 10 -59q0 -19 -14 -47q-15 -31 -92 -31h-467q-79 0 -119 43q-43 46 -86 121l-164 282q-17 29 -24 29q-17 0 -29 -29l-152 -286q-41 -78 -86 -119 q-46 -41 -122 -41h-447q-77 0 -92 31q-14 28 -14 47q0 33 10 59q11 28 43 76l467 791q11 18 26 45q19 35 19 57z" />
<glyph unicode="y" horiz-adv-x="1875" d="M1413 520q-61 -183 -127 -327q-67 -146 -149 -244q-85 -101 -193 -154q-109 -53 -252 -53h-364q-77 0 -121 35q-43 34 -43 129v299q0 93 45 137q44 43 123 43q40 0 104 -8t109 -8q41 0 67 10q27 11 27 39q0 26 -4 41q-5 18 -25 61l-549 1241q-11 22 -22 68q-10 41 -10 80 q0 159 164 159h315q156 0 209 -159l250 -770q5 -29 24 -29q24 0 29 29l192 770q52 159 209 159h267q79 0 122 -36q45 -38 45 -119q0 -49 -6 -82q-6 -32 -18 -70z" />
<glyph unicode="z" horiz-adv-x="1622" d="M1384 2068q78 0 121 -34t43 -129v-90q0 -35 -10 -82q-11 -51 -43 -99l-500 -848q-11 -18 -26 -45q-19 -35 -19 -57q7 -48 49 -53h418q77 0 121 -35q43 -34 43 -129v-303q0 -95 -43 -129q-44 -35 -121 -35h-1179q-77 0 -121 35q-43 34 -43 129v90q0 35 10 82q10 49 43 98 l500 848q11 18 26 45q19 35 19 57q-7 49 -49 54h-340q-77 0 -121 35q-43 34 -43 129v303q0 95 43 129t121 34h1101z" />
<glyph unicode="{" horiz-adv-x="1449" d="M33 1401q0 95 43 129q44 35 121 35q167 0 217 147q49 146 49 442q0 231 43 375q44 146 129 230q84 82 217 116q130 33 311 33h111q77 0 121 -35q43 -34 43 -129v-127q0 -95 -43 -129t-121 -34h-82q-98 0 -141 -72q-43 -71 -43 -228q0 -218 -23 -362q-22 -140 -72 -229 t-131 -133q-83 -45 -196 -78q-11 -3 -31 -11q-14 -6 -14 -14t14 -14q12 -5 31 -10q113 -33 196 -78q81 -44 131 -131q49 -85 72 -228q23 -144 23 -362q0 -157 43 -228t141 -71h82q77 0 121 -35q43 -34 43 -129v-127q0 -95 -43 -129q-44 -35 -121 -35h-111q-181 0 -311 33 q-132 33 -217 117q-86 84 -129 229q-43 144 -43 375q0 296 -49 440q-50 146 -217 146q-78 0 -121 34t-43 129v148z" />
<glyph unicode="}" horiz-adv-x="1449" d="M1417 1257q0 -95 -43 -129t-121 -34q-167 0 -217 -148q-49 -146 -49 -442q0 -231 -43 -375q-43 -145 -129 -229q-85 -84 -217 -117q-130 -33 -311 -33h-111q-77 0 -121 35q-43 34 -43 129v127q0 95 43 129q44 35 121 35h82q98 0 141 71t43 228q0 218 23 362 q23 142 72 230t129 133t198 78q19 5 31 10q14 6 14 14q0 9 -14 15q-12 5 -31 10q-118 33 -198 78q-79 45 -129 131q-49 85 -72 227q-23 144 -23 362q0 157 -43 228q-43 72 -141 72h-82q-78 0 -121 34t-43 129v127q0 95 43 129q44 35 121 35h111q181 0 311 -33 q133 -34 217 -116q85 -84 129 -230q43 -144 43 -375q0 -296 49 -440q49 -145 217 -145q77 0 121 -35q43 -34 43 -129v-148z" />
<glyph unicode="&#xa1;" horiz-adv-x="1110" d="M377 0q-77 0 -121 35q-43 34 -43 129q0 91 6 205l12 225q3 50 15 205l12 143l86 987q8 70 68 115t137 45t137 -45t68 -115l86 -987l12 -143q9 -115 14 -205l6.5 -108t6.5 -117q6 -114 6 -205q0 -95 -43 -129q-44 -35 -121 -35h-344zM725 2867q77 0 121 -35 q43 -34 43 -129v-307q0 -95 -43 -129q-44 -35 -121 -35h-332q-77 0 -121 35q-43 34 -43 129v307q0 95 43 129q44 35 121 35h332z" />
<glyph unicode="&#xa2;" horiz-adv-x="1449" d="M717 29q-282 99 -465 342q-182 242 -182 653q0 407 182 647q184 242 465 344v250q0 78 37 121t127 43h73q95 0 129 -43q35 -44 35 -121v-176h62q77 0 123 -35q45 -34 45 -129v-287q0 -95 -43 -129t-121 -34q-195 0 -336 -103q-139 -102 -139 -348q0 -123 47 -209 q47 -87 116 -139q71 -54 150 -78q83 -25 149 -25q78 0 121 -34t43 -129v-287q0 -95 -43 -129q-44 -35 -121 -35h-53v-164q0 -77 -35 -121q-34 -43 -129 -43h-73q-90 0 -127 43t-37 121v234z" />
<glyph unicode="&#xa3;" horiz-adv-x="2043" d="M209 1278q-77 0 -121 35q-43 34 -43 129v155q0 90 43 127t121 37h115q-26 108 -41 207q-17 108 -17 215q0 202 70 344q68 138 203 223q133 84 327 121q192 37 445 37q93 0 200 -24q110 -25 185 -45q66 -21 123 -60t57 -117q0 -26 -4 -41l-70 -319q-28 -143 -135 -143 q-18 0 -61 8q-73 21 -146 33q-72 12 -149 12q-196 0 -289 -70q-92 -69 -92 -164q0 -45 8 -104q7 -50 20 -113h451q77 0 121 -35q43 -34 43 -129v-155q0 -95 -43 -129q-44 -35 -121 -35h-336q10 -76 14 -111q7 -61 7 -106q0 -124 -21 -193q-21 -70 -43 -112q-23 -45 -43 -66 t-20 -51q0 -17 12 -35t61 -18h787q164 0 164 -176v-246q0 -95 -43 -129q-44 -35 -121 -35h-1634q-77 0 -121 35q-43 34 -43 129v201q0 93 45 131q42 35 119 65q180 74 231 184q51 111 51 230q0 77 -8 155q-5 52 -21 148h-237z" />
<glyph unicode="&#xa5;" horiz-adv-x="2473" d="M295 1442q-77 0 -121 35q-43 34 -43 129v73q0 90 43 127t121 37h156l-332 668q-23 38 -31 53q-36 65 -37 68q-22 42 -31 67q-12 33 -12 58q0 65 29 88q28 22 115 22h462q156 0 209 -160l332 -745q45 -107 86 -107t86 107l332 745q53 160 209 160h463q86 0 114 -22 q29 -23 29 -88q0 -25 -12 -58q-9 -25 -31 -67q-1 -3 -37 -68q-8 -15 -31 -53l-335 -668h155q77 0 121 -35q43 -34 43 -129v-73q0 -95 -43 -129q-44 -35 -121 -35h-356l-66 -135q-14 -22 -41 -74q-25 -49 -45 -82h508q77 0 121 -35q43 -34 43 -129v-74q0 -95 -43 -129 t-121 -34h-594v-586q0 -95 -43 -129q-44 -35 -121 -35h-372q-77 0 -121 35q-43 34 -43 129v586h-594q-78 0 -121 34t-43 129v74q0 90 43 127t121 37h508l-43 82q-20 36 -39 74l-70 135h-356z" />
<glyph unicode="&#xa8;" horiz-adv-x="1196" d="M8 2253q-77 0 -121 35q-43 34 -43 129v266q0 95 43 129q44 35 121 35h332q77 0 121 -35q43 -34 43 -129v-266q0 -95 -43 -129q-44 -35 -121 -35h-332zM885 2253q-77 0 -121 35q-43 34 -43 129v266q0 95 43 129q44 35 121 35h332q76 0 120 -35q43 -34 43 -129v-266 q0 -95 -43 -129q-44 -35 -120 -35h-332z" />
<glyph unicode="&#xa9;" horiz-adv-x="3411" d="M3166 1450q0 -305 -112 -569q-113 -266 -310 -465q-199 -201 -463 -314q-265 -114 -577 -114q-284 0 -547 106t-465 299q-198 189 -321 461q-121 267 -121 592q0 310 117 579t317 463q199 193 465 305q264 111 559 111q316 0 582 -117q265 -117 460 -315 q194 -197 306 -463q110 -262 110 -559zM1708 119q285 0 524 104q242 105 420 285q179 181 281 422q102 242 102 516q0 272 -100 512q-99 239 -277 424q-174 181 -417 287q-239 104 -525 104q-285 0 -526 -104q-245 -106 -424 -285q-181 -181 -283 -422q-102 -242 -102 -516 q0 -281 104 -522q105 -244 285 -422q181 -179 422 -281q242 -102 516 -102zM1184 1434q0 -182 61 -295q64 -118 160 -185q99 -69 223 -96t252 -27q16 0 76 7q19 2 106 14l107 16q41 6 76 17q12 5 22 6q14 2 23 2q36 0 61 -25t25 -77v-213q0 -67 -33 -91q-35 -25 -82 -41 q-36 -9 -82 -16q-60 -9 -117 -14q-39 -4 -127 -10q-70 -5 -112 -5q-200 0 -400 56q-201 56 -358 178q-160 124 -260 319q-100 196 -100 480q0 283 100 479q100 195 260 319q157 122 358 178q200 56 400 56q56 0 112 -4q46 -3 127 -11q57 -5 117 -14q46 -7 82 -16 q47 -16 82 -41q33 -24 33 -90v-213q0 -53 -25 -78t-61 -25q-9 0 -23 2q-10 1 -22 6q-35 11 -76 17l-107 16l-50 7.5t-56 7.5q-51 6 -76 6q-125 0 -252 -29q-124 -28 -223 -96q-98 -67 -160 -185q-61 -116 -61 -292z" />
<glyph unicode="&#xaa;" horiz-adv-x="1449" d="M705 1876q90 0 141 33t51 90t-51 92q-52 35 -141 35q-86 0 -138 -35q-51 -35 -51 -92t51 -90t138 -33zM635 2421q81 0 137 -6q65 -7 88 -7q20 0 37 11q16 10 16 39q0 86 -245 86q-91 0 -181 -19q-85 -18 -163 -51q-18 -8 -50 -8q-69 0 -69 86v176q0 57 31 80q30 22 75 39 q86 31 195 47q98 14 199 14q123 0 231 -18q105 -18 186 -72q77 -52 123 -145q45 -91 45 -240v-754q0 -62 -26 -84t-76 -22h-209q-41 0 -53 33q-11 20 -29 20q-16 0 -37 -12q-25 -14 -53 -27t-86 -26q-57 -13 -131 -13q-61 0 -148 19q-82 18 -155 67q-73 50 -123 138 q-49 88 -49 227q0 185 143 303q145 119 377 119z" />
<glyph unicode="&#xab;" horiz-adv-x="1449" d="M471 1069q0 -24 23 -41q22 -16 51 -33l24 -16q44 -31 60 -51q18 -22 18 -72v-397q0 -46 -22 -56q-21 -10 -35 -10q-23 0 -45 17q-11 9 -66 49l-323 274q-49 45 -66 86q-16 39 -16 103v295q0 63 16 102q17 41 66 86l323 274l66 50q20 16 45 16q14 0 35 -10q22 -10 22 -56 v-397q0 -50 -18 -72q-16 -20 -60 -51l-24 -16q-17 -15 -49 -35q-25 -16 -25 -39zM1167 1069q0 -24 23 -41q22 -16 51 -33l25 -16q42 -29 59 -51q18 -22 18 -72v-397q0 -46 -22 -56q-21 -10 -35 -10q-23 0 -45 17l-65 49l-324 274q-49 45 -66 86q-16 39 -16 103v295 q0 63 16 102q17 41 66 86l324 274l65 50q20 16 45 16q14 0 35 -10q22 -10 22 -56v-397q0 -50 -18 -72q-17 -22 -59 -51l-25 -16q-17 -15 -49 -35q-25 -16 -25 -39z" />
<glyph unicode="&#xad;" horiz-adv-x="1196" d="M283 762q-77 0 -121 35q-43 34 -43 129v250q0 95 43 129t121 34h622q78 0 121 -34t43 -129v-250q0 -95 -43 -129q-44 -35 -121 -35h-622z" />
<glyph unicode="&#xae;" horiz-adv-x="3411" d="M3166 1450q0 -305 -112 -569q-113 -266 -310 -465q-200 -201 -465 -314q-269 -114 -579 -114q-284 0 -545 106t-463 299q-198 189 -321 461q-121 267 -121 592q0 316 117 582q117 265 315 460q195 193 463 305q264 111 559 111q316 0 584 -117q266 -116 462 -315 q194 -197 306 -463q110 -262 110 -559zM1704 119q285 0 526 104q244 105 422 285q179 181 281 422q102 242 102 520q0 271 -100 510q-100 238 -279 422q-177 181 -420 287q-239 104 -524 104t-524 -104q-242 -105 -422 -285q-181 -181 -283 -422q-102 -242 -102 -516 q0 -281 104 -522q105 -244 285 -422q181 -179 420 -281q240 -102 514 -102zM1593 1356q91 0 160 45q70 46 119 108q48 61 76 140q26 74 26 137q0 140 -84 203t-211 63h-86q-95 0 -102 -90v-500q0 -106 102 -106zM1593 905q-102 0 -102 -114v-230q0 -62 -29 -86 q-28 -24 -86 -24h-262q-54 0 -84 24q-31 25 -31 86v1778q0 65 33 88t82 27q15 1 56.5 4.5l66.5 5.5q48 4 143 10q73 4 148 6q98 2 135 2q226 0 379 -57t248 -152q94 -94 133 -221q39 -128 39 -266q0 -111 -31 -209q-29 -93 -74 -168q-47 -79 -92 -127q-57 -61 -86 -86 q-25 -22 -31 -39q-6 -18 -6 -35t21 -41q22 -25 53 -45q35 -22 70 -39q37 -18 69 -22q44 -7 66 -31q20 -21 20 -76v-286q0 -131 -114 -131q-181 0 -285 71q-103 70 -176 156l-129 156q-56 71 -144 71z" />
<glyph unicode="&#xaf;" horiz-adv-x="1196" d="M217 2277q-77 0 -121 35q-43 34 -43 129v53q0 95 43 129q44 35 121 35h766q77 0 121 -35q43 -34 43 -129v-53q0 -95 -43 -129q-44 -35 -121 -35h-766z" />
<glyph unicode="&#x2c9;" horiz-adv-x="1196" d="M217 2277q-77 0 -121 35q-43 34 -43 129v53q0 95 43 129q44 35 121 35h766q77 0 121 -35q43 -34 43 -129v-53q0 -95 -43 -129q-44 -35 -121 -35h-766z" />
<glyph unicode="&#xb2;" horiz-adv-x="1449" d="M98 1245l109 88l170 137q95 78 196 172q106 99 187 195q86 103 137 199q53 100 53 188q0 143 -73 203q-72 59 -164 59q-87 0 -160 -49q-74 -50 -74 -188q0 -54 -22 -80q-23 -27 -84 -27h-201q-62 0 -84 27q-22 26 -22 80q0 174 59 293q59 120 151 198t207 113 q116 35 230 35q128 0 243 -37q118 -38 207 -115q90 -78 146 -203q55 -123 55 -301q0 -106 -45 -217q-44 -109 -117 -215q-72 -105 -153 -192q-80 -85 -156 -154q-9 -8 -19 -16q-10 -7 -10 -17q0 -16 33 -16h340q106 0 106 -107v-196q0 -107 -106 -107h-1090q-106 0 -106 107 v20q0 24 14 60q15 40 43 63z" />
<glyph unicode="&#xb3;" horiz-adv-x="1449" d="M692 971q-125 0 -219 22q-93 22 -170 58t-129 77q-51 40 -100 89q-20 23 -25 45q-4 19 -4 41q0 40 37 77l127 127q37 37 70 37q29 0 53 -24q55 -60 135 -105q83 -47 205 -47q48 0 92 10q48 11 84 37q37 27 61 70q25 45 25 104q0 66 -33 105t-82 61q-50 23 -104 33 q-44 8 -101 14q-48 7 -79 29t-31 78v106q0 58 28 82q29 25 78 29q103 8 187 51t84 129q0 90 -60 135t-145 45q-126 0 -199 -47q-69 -45 -121 -117q-24 -24 -53 -24q-33 0 -70 37l-127 131q-36 32 -36 78q0 37 24 82q11 22 62 67q48 42 125 86q76 43 180 76q105 33 227 33 q119 0 227 -33q110 -34 193 -96t135 -156q51 -91 51 -211q0 -110 -43 -186q-44 -77 -88 -117l-53 -47q-25 -23 -25 -35q0 -17 33 -29q32 -12 66 -41q164 -128 164 -385q0 -282 -174 -432q-173 -149 -482 -149z" />
<glyph unicode="&#xb4;" horiz-adv-x="1196" d="M340 2232q-64 0 -92 19q-27 18 -27 71q0 5 2 35q1 20 10 39l86 295q28 89 68 123q39 33 117 33h332q56 0 100 -23q43 -22 43 -67q0 -51 -33 -103l-160 -262q-36 -62 -75 -108q-44 -52 -121 -52h-250z" />
<glyph unicode="&#xb5;" d="M1061 -20q-51 0 -86 8q-23 5 -53 16q-10 4 -35 16q-18 9 -31 9q-65 0 -65 -62v-233q0 -95 -43 -129q-44 -35 -121 -35h-332q-77 0 -121 35q-43 34 -43 129v2171q0 95 43 129t121 34h332q78 0 121 -34t43 -129v-901q0 -111 18 -183q18 -70 53 -112q35 -41 82 -58 q45 -16 109 -16q49 0 98 18q48 17 90 66q41 47 68 131q26 81 26 215v840q0 95 43 129t121 34h332q78 0 121 -34t43 -129v-1741q0 -95 -43 -129q-44 -35 -121 -35h-315q-68 0 -99 20q-32 20 -53 82q-16 45 -66 45q-25 0 -41 -26q-21 -34 -40 -58q-23 -29 -62 -57 q-36 -26 -94 -26z" />
<glyph unicode="&#x3bc;" d="M1061 -20q-51 0 -86 8q-23 5 -53 16q-10 4 -35 16q-18 9 -31 9q-65 0 -65 -62v-233q0 -95 -43 -129q-44 -35 -121 -35h-332q-77 0 -121 35q-43 34 -43 129v2171q0 95 43 129t121 34h332q78 0 121 -34t43 -129v-901q0 -111 18 -183q18 -70 53 -112q35 -41 82 -58 q45 -16 109 -16q49 0 98 18q48 17 90 66q41 47 68 131q26 81 26 215v840q0 95 43 129t121 34h332q78 0 121 -34t43 -129v-1741q0 -95 -43 -129q-44 -35 -121 -35h-315q-68 0 -99 20q-32 20 -53 82q-16 45 -66 45q-25 0 -41 -26q-21 -34 -40 -58q-23 -29 -62 -57 q-36 -26 -94 -26z" />
<glyph unicode="&#xb7;" horiz-adv-x="851" d="M258 729q-77 0 -121 35q-43 34 -43 129v307q0 95 43 129q44 35 121 35h332q77 0 121 -35q43 -34 43 -129v-307q0 -95 -43 -129q-44 -35 -121 -35h-332z" />
<glyph unicode="&#x2219;" horiz-adv-x="851" d="M258 729q-77 0 -121 35q-43 34 -43 129v307q0 95 43 129q44 35 121 35h332q77 0 121 -35q43 -34 43 -129v-307q0 -95 -43 -129q-44 -35 -121 -35h-332z" />
<glyph unicode="&#xb8;" horiz-adv-x="1196" d="M889 -356q0 -94 -74 -160q-73 -66 -209 -66q-41 0 -102 7q-58 7 -115 26q-44 12 -61 43t-17 76v111q0 94 103 94q57 0 78 28q20 27 20 95q0 56 -23 96q-22 38 -22 72q0 44 27 65t104 21q39 0 88 -11q47 -11 47 -75q0 -35 -4 -82t-4 -82q0 -36 25 -52q1 -1 22 -13.5 t33 -20.5q31 -22 57 -58q27 -38 27 -114z" />
<glyph unicode="&#xb9;" horiz-adv-x="1449" d="M639 2310q0 57 -37 57q-21 0 -47 -16q-29 -18 -51 -37l-82 -61q-34 -29 -66 -29q-45 0 -86 53l-73 111q-25 39 -25 66q0 40 53 81l414 295q30 22 49 29q22 8 57 8h213q50 0 78 -22q29 -23 29 -84v-1651q0 -106 -107 -106h-213q-106 0 -106 106v1200z" />
<glyph unicode="&#xba;" horiz-adv-x="1536" d="M770 2515q-46 0 -94 -16t-90 -50q-43 -35 -70 -88q-29 -56 -29 -133t29 -133q27 -53 70 -88q39 -32 90 -49q48 -16 94 -16q43 0 92 16q53 17 92 49q43 35 70 88q29 56 29 133t-29 133q-27 53 -70 88q-41 34 -92 50q-49 16 -92 16zM770 1548q-115 0 -238 39 q-122 39 -223 123q-100 84 -166 211q-65 126 -65 307q0 178 65 305q66 130 166 213q101 84 223 123q123 39 238 39q114 0 236 -39q121 -39 223 -123t168 -213q65 -127 65 -305q0 -181 -65 -307q-66 -127 -168 -211t-223 -123q-122 -39 -236 -39z" />
<glyph unicode="&#xbb;" horiz-adv-x="1449" d="M987 1069q0 25 -22 41q-19 14 -52 33l-24 16q-44 31 -60 51q-18 22 -18 72v397q0 45 23 56q21 10 34 10q25 0 45 -16l66 -50l324 -274q48 -43 65 -86q16 -39 16 -102v-295q0 -64 -16 -103q-17 -43 -65 -86l-324 -274q-55 -40 -66 -49q-22 -17 -45 -17q-13 0 -34 10 q-23 11 -23 56v397q0 50 18 72q16 20 60 51l24 16q15 13 50 35q24 15 24 39zM291 1069q0 24 -23 41q-22 16 -51 33l-24 16q-44 31 -60 51q-18 22 -18 72v397q0 46 22 56q21 10 35 10q25 0 45 -16l66 -50l323 -274q49 -45 66 -86q16 -39 16 -102v-295q0 -64 -16 -103 q-17 -41 -66 -86l-323 -274q-55 -40 -66 -49q-22 -17 -45 -17q-14 0 -35 10q-22 10 -22 56v397q0 50 18 72q16 20 60 51l24 16q17 15 49 35q25 16 25 39z" />
<glyph unicode="&#xbf;" horiz-adv-x="1449" d="M893 1929q33 -119 45 -217q12 -99 12 -176q0 -90 -18 -186q-16 -87 -43 -187q-35 -130 -43 -164q-19 -78 -19 -114q0 -95 45 -168q45 -74 140 -74q29 0 69 19q37 18 78 18q56 0 94 -35q37 -34 37 -108v-299q0 -95 -45 -134t-119 -63q-91 -28 -165 -43q-89 -18 -240 -18 q-115 0 -221 30t-187 94t-127 162q-47 100 -47 234q0 144 25 250q24 103 63 188q39 86 84 168q46 85 84 192q41 116 64 261q24 150 24 370q0 69 64 115q63 45 141 45t131 -45t74 -115zM864 2867q77 0 121 -35q43 -34 43 -129v-307q0 -95 -43 -129q-44 -35 -121 -35h-332 q-76 0 -120 35q-43 34 -43 129v307q0 95 43 129q44 35 120 35h332z" />
<glyph unicode="&#xc0;" horiz-adv-x="2387" d="M1286 1942q-7 49 -39 102q-30 49 -84 49t-84 -49q-32 -53 -39 -102l-135 -717q0 -7 -2 -13t-2 -12q0 -58 43 -92q44 -35 109 -35h221q64 0 108 35q43 34 43 92q0 6 -2 12t-2 13zM1585 336q-16 82 -47 117q-30 34 -100 34h-549q-71 0 -101 -34q-31 -35 -47 -117l-32 -176 q-53 -160 -209 -160h-348q-86 0 -119 37t-33 102q0 53 20 133l33 134l504 2301q21 94 76 127t133 33h795q77 0 133 -33q54 -32 75 -127l504 -2301l33 -134q21 -84 21 -133q0 -65 -33 -102t-119 -37h-348q-156 0 -209 160zM1061 3064q-77 0 -121 51q-40 47 -76 109l-159 262 q-33 52 -33 102q0 46 43 68t100 22h332q78 0 117 -33t67 -122l86 -295q9 -19 10 -39q0 -7 1.5 -19t1.5 -16q0 -54 -27 -72t-92 -18h-250z" />
<glyph unicode="&#xc1;" horiz-adv-x="2387" d="M1286 1942q-7 49 -39 102q-30 49 -84 49t-84 -49q-32 -53 -39 -102l-135 -717q0 -7 -2 -13t-2 -12q0 -58 43 -92q44 -35 109 -35h221q64 0 108 35q43 34 43 92q0 6 -2 12t-2 13zM1585 336q-16 82 -47 117q-30 34 -100 34h-549q-71 0 -101 -34q-31 -35 -47 -117l-32 -176 q-53 -160 -209 -160h-348q-86 0 -119 37t-33 102q0 53 20 133l33 134l504 2301q21 94 76 127t133 33h795q77 0 133 -33q54 -32 75 -127l504 -2301l33 -134q21 -84 21 -133q0 -65 -33 -102t-119 -37h-348q-156 0 -209 160zM1008 3064q-66 0 -93 18q-26 17 -26 72q0 5 2 35 q1 20 10 39l86 295q28 88 68 122q39 33 116 33h332q58 0 101 -22t43 -68q0 -50 -33 -102l-160 -262q-36 -62 -76 -109q-44 -51 -121 -51h-249z" />
<glyph unicode="&#xc2;" horiz-adv-x="2387" d="M1118 3215q-61 0 -78 -41l-16 -24q-31 -44 -51 -60q-23 -18 -72 -18h-274q-45 0 -56 23q-10 21 -10 34q0 23 17 45q9 11 49 66l250 324q53 69 90 96q36 26 98 26h180q62 0 98 -26q40 -29 91 -96l249 -324l50 -66q16 -20 16 -45q0 -13 -10 -34q-11 -23 -56 -23h-348 q-49 0 -71 18t-52 60l-16 24q-17 41 -78 41zM1286 1942q-7 49 -39 102q-30 49 -84 49t-84 -49q-32 -53 -39 -102l-135 -717q0 -7 -2 -13t-2 -12q0 -58 43 -92q44 -35 109 -35h221q64 0 108 35q43 34 43 92q0 6 -2 12t-2 13zM1585 336q-16 82 -47 117q-30 34 -100 34h-549 q-71 0 -101 -34q-31 -35 -47 -117l-32 -176q-53 -160 -209 -160h-348q-86 0 -119 37t-33 102q0 53 20 133l33 134l504 2301q21 94 76 127t133 33h795q77 0 133 -33q54 -32 75 -127l504 -2301l33 -134q21 -84 21 -133q0 -65 -33 -102t-119 -37h-348q-156 0 -209 160z" />
<glyph unicode="&#xc3;" horiz-adv-x="2387" d="M1286 1942q-7 49 -39 102q-30 49 -84 49t-84 -49q-32 -53 -39 -102l-135 -717q0 -7 -2 -13t-2 -12q0 -58 43 -92q44 -35 109 -35h221q64 0 108 35q43 34 43 92q0 6 -2 12t-2 13zM1585 336q-16 82 -47 117q-30 34 -100 34h-549q-71 0 -101 -34q-31 -35 -47 -117l-32 -176 q-53 -160 -209 -160h-348q-86 0 -119 37t-33 102q0 53 20 133l33 134l504 2301q21 94 76 127t133 33h795q77 0 133 -33q54 -32 75 -127l504 -2301l33 -134q21 -84 21 -133q0 -65 -33 -102t-119 -37h-348q-156 0 -209 160zM926 3232q-49 0 -66 -41l-12 -25q-21 -33 -47 -43 t-76 -10h-82q-45 0 -72 29q-26 27 -26 65q0 230 82 334t225 104q74 0 149 -22q61 -18 150 -47l139 -47q67 -23 115 -23t65 41l13 25q21 33 47 43t76 10h82q44 0 61 -29q16 -28 16 -65q0 -230 -82 -334q-83 -105 -225 -105q-72 0 -147 23q-71 22 -142 47l-131 47 q-64 23 -112 23z" />
<glyph unicode="&#xc4;" horiz-adv-x="2387" d="M1286 1942q-7 49 -39 102q-30 49 -84 49t-84 -49q-32 -53 -39 -102l-135 -717q0 -7 -2 -13t-2 -12q0 -58 43 -92q44 -35 109 -35h221q64 0 108 35q43 34 43 92q0 6 -2 12t-2 13zM1585 336q-16 82 -47 117q-30 34 -100 34h-549q-71 0 -101 -34q-31 -35 -47 -117l-32 -176 q-53 -160 -209 -160h-348q-86 0 -119 37t-33 102q0 53 20 133l33 134l504 2301q21 94 76 127t133 33h795q77 0 133 -33q54 -32 75 -127l504 -2301l33 -134q21 -84 21 -133q0 -65 -33 -102t-119 -37h-348q-156 0 -209 160zM524 3084q-77 0 -121 35q-43 34 -43 129v266 q0 95 43 129q44 35 121 35h332q77 0 121 -35q43 -34 43 -129v-266q0 -95 -43 -129q-44 -35 -121 -35h-332zM1401 3084q-77 0 -121 35q-43 34 -43 129v266q0 95 43 129q44 35 121 35h332q76 0 120 -35q43 -34 43 -129v-266q0 -95 -43 -129q-44 -35 -120 -35h-332z" />
<glyph unicode="&#xc5;" horiz-adv-x="2387" d="M1286 1942q-7 49 -39 102q-30 49 -84 49t-84 -49q-32 -53 -39 -102l-135 -717q0 -7 -2 -13t-2 -12q0 -58 43 -92q44 -35 109 -35h221q64 0 108 35q43 34 43 92q0 6 -2 12t-2 13zM1585 336q-16 82 -47 117q-30 34 -100 34h-549q-71 0 -101 -34q-31 -35 -47 -117l-32 -176 q-53 -160 -209 -160h-348q-86 0 -119 37t-33 102q0 53 20 133l33 134l504 2301q21 94 76 127t133 33h795q77 0 133 -33q54 -32 75 -127l504 -2301l33 -134q21 -84 21 -133q0 -65 -33 -102t-119 -37h-348q-156 0 -209 160zM766 3338q0 76 31 150q29 70 84 125q54 54 123 84 t151 30q78 0 150 -30q70 -29 125 -84q53 -53 83 -125q31 -74 31 -150q0 -80 -31 -151t-83 -123q-55 -55 -125 -84q-74 -31 -150 -31q-80 0 -151 31q-69 30 -123 84t-84 123q-31 71 -31 151zM999 3338q0 -69 43 -112t113 -43q71 0 115 43q45 44 45 112q0 70 -45 115t-115 45 q-69 0 -113 -45q-43 -44 -43 -115z" />
<glyph unicode="&#xc6;" horiz-adv-x="3497" d="M1741 0q-77 0 -121 35q-43 34 -43 129v172q0 151 -139 151h-492q-131 0 -180 -151l-57 -176q-53 -160 -209 -160h-348q-86 0 -119 37t-33 102q0 53 20 133l33 134l750 2301q21 94 76 127t133 33h2158q77 0 121 -35q43 -34 43 -129v-266q0 -95 -43 -129q-44 -35 -121 -35 h-749q-71 0 -105 -37q-35 -38 -39 -94v-217q0 -70 37 -110q38 -41 107 -41h745q77 0 121 -35q43 -34 43 -129v-258q0 -95 -43 -129q-44 -35 -121 -35h-745q-69 0 -107 -41q-37 -40 -37 -111v-286q0 -71 37 -111q38 -41 107 -41h831q164 0 164 -176v-258q0 -95 -43 -129 q-44 -35 -121 -35h-1511zM1577 1942q0 64 -47 108q-46 43 -105 43q-57 0 -98 -51t-57 -100l-230 -717q-4 -7 -4 -25q0 -127 140 -127h249q65 0 109 35q43 34 43 92v742z" />
<glyph unicode="&#xc7;" horiz-adv-x="1789" d="M1294 -20q-20 0 -28 -25q-9 -29 -9 -53q0 -36 25 -52q1 -1 22 -13.5t33 -20.5q33 -23 58 -58q26 -36 26 -114q0 -94 -73 -160q-74 -66 -209 -66q-42 0 -103 7q-57 7 -114 26q-45 12 -62 43q-16 29 -16 76v111q0 94 102 94q57 0 78 28q20 27 20 95q0 64 -14 100 q-15 38 -59 59q-195 73 -359 199q-160 123 -278 297q-117 173 -180 393q-64 224 -64 488q0 354 115 632q114 276 313 463t467 283q269 96 576 96q76 0 120 -35q43 -34 43 -129v-368q0 -95 -43 -129q-44 -35 -120 -35q-156 0 -297 -45q-143 -46 -250 -139q-108 -94 -174 -242 q-66 -147 -66 -352q0 -206 66 -353q66 -146 174 -241t250 -140q141 -45 297 -45q77 0 120 -34t43 -129v-369q0 -95 -43 -129q-44 -35 -120 -35q-49 0 -115 2q-40 1 -98 10z" />
<glyph unicode="&#xc8;" horiz-adv-x="2048" d="M319 0q-76 0 -120 35q-43 34 -43 129v2539q0 95 43 129q44 35 120 35h1430q77 0 121 -35q43 -34 43 -129v-266q0 -95 -43 -129q-44 -35 -121 -35h-750q-70 0 -104 -37q-35 -38 -39 -94v-217q0 -70 37 -110q38 -41 106 -41h746q77 0 121 -35q43 -34 43 -129v-258 q0 -95 -43 -129q-44 -35 -121 -35h-746q-68 0 -106 -41q-37 -40 -37 -111v-286q0 -71 37 -111q38 -41 106 -41h832q164 0 164 -176v-258q0 -95 -43 -129q-44 -35 -121 -35h-1512zM999 3064q-77 0 -120 51q-40 47 -76 109l-160 262q-33 52 -33 102q0 46 43 68t101 22h331 q78 0 117 -33q40 -34 68 -122l86 -295q9 -19 10 -39q2 -30 2 -35q0 -54 -27 -72t-92 -18h-250z" />
<glyph unicode="&#xc9;" horiz-adv-x="2048" d="M319 0q-76 0 -120 35q-43 34 -43 129v2539q0 95 43 129q44 35 120 35h1430q77 0 121 -35q43 -34 43 -129v-266q0 -95 -43 -129q-44 -35 -121 -35h-750q-70 0 -104 -37q-35 -38 -39 -94v-217q0 -70 37 -110q38 -41 106 -41h746q77 0 121 -35q43 -34 43 -129v-258 q0 -95 -43 -129q-44 -35 -121 -35h-746q-68 0 -106 -41q-37 -40 -37 -111v-286q0 -71 37 -111q38 -41 106 -41h832q164 0 164 -176v-258q0 -95 -43 -129q-44 -35 -121 -35h-1512zM877 3064q-66 0 -93 18q-26 17 -26 72q0 5 2 35q1 20 10 39l86 295q28 88 68 122 q39 33 116 33h332q58 0 101 -22t43 -68q0 -50 -33 -102l-160 -262q-36 -62 -76 -109q-43 -51 -121 -51h-249z" />
<glyph unicode="&#xca;" horiz-adv-x="2048" d="M1008 3215q-61 0 -78 -41l-17 -24q-31 -44 -51 -60q-22 -18 -71 -18h-275q-44 0 -55 23q-10 21 -10 34q0 25 16 45q9 11 49 66l250 324q52 69 90 96q36 26 98 26h181q62 0 98 -26q37 -27 90 -96l250 -324q40 -55 49 -66q16 -20 16 -45q0 -13 -10 -34q-11 -23 -55 -23 h-348q-49 0 -72 18q-20 16 -51 60l-17 24q-17 41 -77 41zM319 0q-76 0 -120 35q-43 34 -43 129v2539q0 95 43 129q44 35 120 35h1430q77 0 121 -35q43 -34 43 -129v-266q0 -95 -43 -129q-44 -35 -121 -35h-750q-70 0 -104 -37q-35 -38 -39 -94v-217q0 -70 37 -110 q38 -41 106 -41h746q77 0 121 -35q43 -34 43 -129v-258q0 -95 -43 -129q-44 -35 -121 -35h-746q-68 0 -106 -41q-37 -40 -37 -111v-286q0 -71 37 -111q38 -41 106 -41h832q164 0 164 -176v-258q0 -95 -43 -129q-44 -35 -121 -35h-1512z" />
<glyph unicode="&#xcb;" horiz-adv-x="2048" d="M319 0q-76 0 -120 35q-43 34 -43 129v2539q0 95 43 129q44 35 120 35h1430q77 0 121 -35q43 -34 43 -129v-266q0 -95 -43 -129q-44 -35 -121 -35h-750q-70 0 -104 -37q-35 -38 -39 -94v-217q0 -70 37 -110q38 -41 106 -41h746q77 0 121 -35q43 -34 43 -129v-258 q0 -95 -43 -129q-44 -35 -121 -35h-746q-68 0 -106 -41q-37 -40 -37 -111v-286q0 -71 37 -111q38 -41 106 -41h832q164 0 164 -176v-258q0 -95 -43 -129q-44 -35 -121 -35h-1512zM426 3084q-77 0 -121 35q-43 34 -43 129v266q0 95 43 129q44 35 121 35h332q77 0 121 -35 q43 -34 43 -129v-266q0 -95 -43 -129q-44 -35 -121 -35h-332zM1303 3084q-77 0 -121 35q-43 34 -43 129v266q0 95 43 129q44 35 121 35h331q77 0 121 -35q43 -34 43 -129v-266q0 -95 -43 -129q-44 -35 -121 -35h-331z" />
<glyph unicode="&#xcc;" horiz-adv-x="1024" d="M319 0q-76 0 -120 35q-43 34 -43 129v2539q0 95 43 129q44 35 120 35h373q77 0 121 -35q43 -34 43 -129v-2539q0 -95 -43 -129q-44 -35 -121 -35h-373zM446 3064q-76 0 -120 51q-40 47 -76 109l-160 262q-33 52 -33 102q0 46 43 68t101 22h331q78 0 117 -33 q40 -34 68 -122l86 -295q9 -19 10 -39q2 -30 2 -35q0 -54 -27 -72t-92 -18h-250z" />
<glyph unicode="&#xcd;" horiz-adv-x="1024" d="M319 0q-76 0 -120 35q-43 34 -43 129v2539q0 95 43 129q44 35 120 35h373q77 0 121 -35q43 -34 43 -129v-2539q0 -95 -43 -129q-44 -35 -121 -35h-373zM352 3064q-65 0 -92 18t-27 72q0 4 1.5 16t1.5 19q1 20 10 39l86 295q28 89 67 122t117 33h332q57 0 100 -22t43 -68 q0 -50 -33 -102l-159 -262q-36 -62 -76 -109q-43 -51 -121 -51h-250z" />
<glyph unicode="&#xce;" horiz-adv-x="1024" d="M319 0q-76 0 -120 35q-43 34 -43 129v2539q0 95 43 129q44 35 120 35h373q77 0 121 -35q43 -34 43 -129v-2539q0 -95 -43 -129q-44 -35 -121 -35h-373zM492 3215q-61 0 -78 -41l-17 -24q-31 -44 -51 -60q-22 -18 -72 -18h-274q-44 0 -55 23q-11 24 -11 34q0 23 17 45 q9 11 49 66l250 324q52 69 90 96q36 26 98 26h180q63 0 99 -26q37 -27 90 -96l250 -324q40 -55 49 -66q16 -20 16 -45q0 -13 -10 -34q-11 -23 -55 -23h-348q-49 0 -72 18q-20 16 -51 60l-17 24q-17 41 -77 41z" />
<glyph unicode="&#xcf;" horiz-adv-x="1024" d="M319 0q-76 0 -120 35q-43 34 -43 129v2539q0 95 43 129q44 35 120 35h373q77 0 121 -35q43 -34 43 -129v-2539q0 -95 -43 -129q-44 -35 -121 -35h-373zM-78 3084q-77 0 -121 35q-43 34 -43 129v266q0 95 43 129q44 35 121 35h332q77 0 121 -35q43 -34 43 -129v-266 q0 -95 -43 -129q-44 -35 -121 -35h-332zM799 3084q-77 0 -121 35q-43 34 -43 129v266q0 95 43 129q44 35 121 35h331q77 0 121 -35q43 -34 43 -129v-266q0 -95 -43 -129q-44 -35 -121 -35h-331z" />
<glyph unicode="&#xd0;" horiz-adv-x="2732" d="M156 1192q0 78 -70 78q-82 0 -82 82v258q0 82 82 82q70 0 70 77v934q0 95 43 129q44 35 120 35h967q254 0 496 -90t432 -268q189 -177 307 -449q117 -270 117 -626q0 -357 -117 -627q-118 -272 -307 -449q-190 -178 -432 -268t-496 -90h-967q-76 0 -120 35 q-43 34 -43 129v1028zM856 1769q0 -77 70 -77h368q82 0 82 -82v-258q0 -82 -82 -82h-368q-70 0 -70 -78v-401q0 -71 37 -111q38 -41 106 -41h287q121 0 244 47q121 46 215 145t151 248q58 153 58 355q0 201 -58 354q-57 149 -151 248t-215 145q-123 47 -244 47h-287 q-70 0 -104 -37q-35 -38 -39 -94v-328z" />
<glyph unicode="&#xd1;" horiz-adv-x="2646" d="M1106 3232q-49 0 -66 -41l-12 -25q-21 -33 -47 -43t-76 -10h-82q-44 0 -71 29q-27 28 -27 65q0 230 82 334t225 104q75 0 150 -22q51 -15 149 -47l139 -47q67 -23 115 -23q49 0 66 41l12 25q21 33 47 43t76 10h82q44 0 61 -29t17 -65q0 -230 -82 -334q-82 -105 -226 -105 q-72 0 -147 23q-63 19 -141 47l-131 47q-64 23 -113 23zM1827 2703q0 95 43 129q44 35 121 35h348q77 0 121 -35q43 -34 43 -129v-2539q0 -95 -43 -129q-44 -35 -121 -35h-348q-108 0 -152 43q-44 42 -94 117l-782 1237l-48 63q-16 19 -34 19q-50 0 -50 -82v-1233 q0 -95 -43 -129q-44 -35 -120 -35h-349q-76 0 -120 35q-43 34 -43 129v2539q0 95 43 129q44 35 120 35h349q107 0 151 -43q44 -42 94 -117l783 -1237l47 -63q15 -18 35 -18q49 0 49 81v1233z" />
<glyph unicode="&#xd2;" horiz-adv-x="2899" d="M2793 1434q0 -359 -116 -633q-118 -279 -307 -463q-192 -187 -433 -283t-495 -96t-496 96q-240 95 -432 283q-189 184 -307 463q-117 276 -117 633q0 356 117 632q118 279 307 463q192 188 432 283q242 96 496 96t495 -96t433 -283q189 -184 307 -463q116 -274 116 -632z M2109 1434q0 205 -63 352q-63 148 -162 242t-215 139q-117 45 -227 45q-111 0 -228 -45q-116 -45 -215 -139q-97 -93 -161 -242t-64 -352q0 -204 64 -353q63 -148 161 -241q101 -96 215 -140q117 -45 228 -45q110 0 227 45q114 44 215 140q99 95 162 241q63 147 63 353z M1286 3064q-78 0 -121 51q-37 43 -75 109l-160 262q-33 52 -33 102q0 46 43 68t100 22h332q78 0 117 -33t67 -122l86 -295q10 -22 11 -39q2 -30 2 -35q0 -54 -27 -72t-92 -18h-250z" />
<glyph unicode="&#xd3;" horiz-adv-x="2899" d="M2793 1434q0 -359 -116 -633q-118 -279 -307 -463q-192 -187 -433 -283t-495 -96t-496 96q-240 95 -432 283q-189 184 -307 463q-117 276 -117 633q0 356 117 632q118 279 307 463q192 188 432 283q242 96 496 96t495 -96t433 -283q189 -184 307 -463q116 -274 116 -632z M2109 1434q0 205 -63 352q-63 148 -162 242t-215 139q-117 45 -227 45q-111 0 -228 -45q-116 -45 -215 -139q-97 -93 -161 -242t-64 -352q0 -204 64 -353q63 -148 161 -241q101 -96 215 -140q117 -45 228 -45q110 0 227 45q114 44 215 140q99 95 162 241q63 147 63 353z M1303 3064q-66 0 -93 18q-26 17 -26 72q0 5 2 35q1 20 10 39l86 295q28 88 68 122q39 33 116 33h332q57 0 100 -22q44 -23 44 -68q0 -50 -33 -102l-160 -262q-36 -62 -76 -109q-43 -51 -121 -51h-249z" />
<glyph unicode="&#xd4;" horiz-adv-x="2899" d="M2793 1434q0 -359 -116 -633q-118 -279 -307 -463q-192 -187 -433 -283t-495 -96t-496 96q-240 95 -432 283q-189 184 -307 463q-117 276 -117 633q0 356 117 632q118 279 307 463q192 188 432 283q242 96 496 96t495 -96t433 -283q189 -184 307 -463q116 -274 116 -632z M2109 1434q0 205 -63 352q-63 148 -162 242t-215 139q-117 45 -227 45q-111 0 -228 -45q-116 -45 -215 -139q-97 -93 -161 -242t-64 -352q0 -204 64 -353q63 -148 161 -241q101 -96 215 -140q117 -45 228 -45q110 0 227 45q114 44 215 140q99 95 162 241q63 147 63 353z M1413 3215q-61 0 -78 -41l-16 -24q-31 -44 -51 -60q-22 -18 -72 -18h-274q-45 0 -56 23q-10 21 -10 34q0 25 16 45l50 66l249 324q51 67 91 96q36 26 98 26h180q62 0 98 -26q40 -29 91 -96l249 -324l50 -66q16 -20 16 -45q0 -13 -10 -34q-11 -23 -56 -23h-348q-48 0 -71 18 q-22 18 -52 60l-16 24q-17 41 -78 41z" />
<glyph unicode="&#xd5;" horiz-adv-x="2899" d="M2793 1434q0 358 -116 632q-118 279 -307 463q-192 187 -433 283t-495 96t-496 -96q-240 -95 -432 -283q-189 -184 -307 -463q-117 -276 -117 -632q0 -357 117 -633q118 -279 307 -463q192 -188 432 -283q242 -96 496 -96t495 96t433 283q189 184 307 463 q116 274 116 633zM2109 1434q0 -206 -63 -353q-63 -146 -162 -241q-101 -96 -215 -140q-117 -45 -227 -45q-111 0 -228 45q-114 44 -215 140q-98 93 -161 241q-64 149 -64 353q0 203 64 352t161 242q99 94 215 139q117 45 228 45q110 0 227 -45q116 -45 215 -139t162 -242 q63 -147 63 -352zM1229 3232q-49 0 -66 -41l-12 -25q-21 -33 -47 -43t-76 -10h-82q-45 0 -72 29q-26 27 -26 65q0 230 82 334t225 104q75 0 150 -22q51 -15 149 -47l139 -47q67 -23 115 -23q49 0 66 41l12 25q21 33 47 43t76 10h82q44 0 61 -29q16 -28 16 -65 q0 -231 -81 -334q-83 -105 -226 -105q-72 0 -147 23q-63 19 -141 47l-132 47q-64 23 -112 23z" />
<glyph unicode="&#xd6;" horiz-adv-x="2899" d="M2793 1434q0 -359 -116 -633q-118 -279 -307 -463q-192 -187 -433 -283t-495 -96t-496 96q-240 95 -432 283q-189 184 -307 463q-117 276 -117 633q0 356 117 632q118 279 307 463q192 188 432 283q242 96 496 96t495 -96t433 -283q189 -184 307 -463q116 -274 116 -632z M2109 1434q0 205 -63 352q-63 148 -162 242t-215 139q-117 45 -227 45q-111 0 -228 -45q-116 -45 -215 -139q-97 -93 -161 -242t-64 -352q0 -204 64 -353q63 -148 161 -241q101 -96 215 -140q117 -45 228 -45q110 0 227 45q114 44 215 140q99 95 162 241q63 147 63 353z M864 3084q-77 0 -121 35q-43 34 -43 129v266q0 95 43 129q44 35 121 35h332q77 0 121 -35q43 -34 43 -129v-266q0 -95 -43 -129q-44 -35 -121 -35h-332zM1741 3084q-77 0 -121 35q-43 34 -43 129v266q0 95 43 129q44 35 121 35h332q76 0 120 -35q43 -34 43 -129v-266 q0 -95 -43 -129q-44 -35 -120 -35h-332z" />
<glyph unicode="&#xd8;" horiz-adv-x="2899" d="M532 -20q-29 -41 -61 -41q-30 0 -53 20l-94 70q-41 29 -41 61q0 26 20 53l172 230q-175 189 -280 452q-105 264 -105 609q0 356 117 632q118 279 307 463q192 188 432 283q242 96 496 96q200 0 389 -59q192 -60 360 -174l164 217q29 41 62 41q29 0 53 -21l94 -69 q41 -29 41 -62q0 -26 -20 -53l-177 -238q177 -191 281 -452t104 -604q0 -359 -116 -633q-118 -279 -307 -463q-192 -187 -433 -283t-495 -96q-200 0 -391 57q-188 56 -363 172zM774 1434q0 -158 37 -275q38 -121 94 -209l869 1164q-81 49 -166 73q-88 25 -166 25 q-111 0 -228 -45q-116 -45 -215 -139q-97 -93 -161 -242t-64 -352zM2109 1434q0 156 -36 270q-37 118 -95 209l-868 -1163q83 -50 166 -72q86 -23 166 -23q110 0 227 45q114 44 215 140q99 95 162 241q63 147 63 353z" />
<glyph unicode="&#xd9;" horiz-adv-x="2732" d="M1872 2703q0 95 43 129q44 35 121 35h372q77 0 121 -35q43 -34 43 -129v-1441q0 -408 -94 -660q-94 -253 -256 -397t-383 -195t-475 -51t-473 51q-220 51 -383 195q-165 146 -256 397q-92 255 -92 660v1441q0 95 43 129q44 35 121 35h372q77 0 121 -35q43 -34 43 -129 v-1474q0 -194 37 -311q38 -121 104 -187q68 -68 160 -92q95 -25 203 -25t203 25q91 24 159 92t107 187q39 118 39 311v1474zM1286 3064q-78 0 -121 51q-37 43 -75 109l-160 262q-33 52 -33 102q0 46 43 68t100 22h332q78 0 117 -33t67 -122l86 -295q10 -22 11 -39 q2 -30 2 -35q0 -54 -27 -72t-92 -18h-250z" />
<glyph unicode="&#xda;" horiz-adv-x="2732" d="M1872 2703q0 95 43 129q44 35 121 35h372q77 0 121 -35q43 -34 43 -129v-1441q0 -408 -94 -660q-94 -253 -256 -397t-383 -195t-475 -51t-473 51q-220 51 -383 195q-165 146 -256 397q-92 255 -92 660v1441q0 95 43 129q44 35 121 35h372q77 0 121 -35q43 -34 43 -129 v-1474q0 -194 37 -311q38 -121 104 -187q68 -68 160 -92q95 -25 203 -25t203 25q91 24 159 92t107 187q39 118 39 311v1474zM1217 3064q-66 0 -93 18q-26 17 -26 72q0 5 2 35q1 20 10 39l86 295q28 88 68 122q39 33 116 33h332q57 0 100 -22t43 -68q0 -51 -32 -102 l-160 -262q-36 -62 -76 -109q-43 -51 -121 -51h-249z" />
<glyph unicode="&#xdb;" horiz-adv-x="2732" d="M1872 2703q0 95 43 129q44 35 121 35h372q77 0 121 -35q43 -34 43 -129v-1441q0 -408 -94 -660q-94 -253 -256 -397t-383 -195t-475 -51t-473 51q-220 51 -383 195q-165 146 -256 397q-92 255 -92 660v1441q0 95 43 129q44 35 121 35h372q77 0 121 -35q43 -34 43 -129 v-1474q0 -194 37 -311q38 -121 104 -187q68 -68 160 -92q95 -25 203 -25t203 25q91 24 159 92t107 187q39 118 39 311v1474zM1352 3215q-61 0 -78 -41l-17 -24q-31 -44 -51 -60q-22 -18 -71 -18h-275q-44 0 -55 23q-10 21 -10 34q0 25 16 45q9 11 49 66l250 324q52 69 90 96 q36 26 98 26h181q62 0 98 -26q37 -27 90 -96l250 -324q40 -55 49 -66q16 -20 16 -45q0 -13 -10 -34q-11 -23 -55 -23h-348q-49 0 -72 18q-20 16 -51 60l-16 24q-17 41 -78 41z" />
<glyph unicode="&#xdc;" horiz-adv-x="2732" d="M782 3084q-76 0 -120 35t-44 129v266q0 94 44 129t120 35h332q77 0 121 -35q43 -34 43 -129v-266q0 -95 -43 -129q-44 -35 -121 -35h-332zM1659 3084q-77 0 -121 35q-43 34 -43 129v266q0 95 43 129q44 35 121 35h332q76 0 120 -35q43 -34 43 -129v-266q0 -95 -43 -129 q-44 -35 -120 -35h-332zM1872 2703q0 95 43 129q44 35 121 35h372q77 0 121 -35q43 -34 43 -129v-1441q0 -408 -94 -660q-94 -253 -256 -397t-383 -195t-475 -51t-473 51q-220 51 -383 195q-165 146 -256 397q-92 255 -92 660v1441q0 95 43 129q44 35 121 35h372 q77 0 121 -35q43 -34 43 -129v-1474q0 -194 37 -311q38 -121 104 -187q68 -68 160 -92q95 -25 203 -25t203 25q91 24 159 92t107 187q39 118 39 311v1474z" />
<glyph unicode="&#xdd;" horiz-adv-x="2473" d="M893 901q0 35 -19 90q-19 56 -45 109q-31 64 -55 108q-20 37 -49 99l-602 1204q-23 38 -31 53q-36 65 -37 68q-19 36 -30 67q-13 36 -13 58q0 65 29 88q28 22 115 22h462q156 0 209 -160l332 -745q45 -107 86 -107t86 107l332 745q53 160 209 160h463q86 0 114 -22 q29 -23 29 -88q0 -25 -12 -58q-9 -25 -31 -67q-1 -3 -37 -68q-8 -15 -31 -53l-602 -1204q-25 -53 -51 -99q-30 -52 -57 -108q-26 -53 -45 -109q-19 -55 -19 -90v-737q0 -95 -43 -129q-44 -35 -120 -35h-373q-77 0 -121 35q-43 34 -43 129v737zM1085 3064q-65 0 -92 18 q-26 17 -26 72q0 5 2 35q1 20 10 39l86 295q28 88 68 122q39 33 116 33h332q57 0 100 -22t43 -68q0 -51 -32 -102l-160 -262q-36 -62 -76 -109q-44 -51 -121 -51h-250z" />
<glyph unicode="&#xde;" horiz-adv-x="2473" d="M156 2703q0 95 43 129q44 35 120 35h373q77 0 121 -35q43 -34 43 -129v-118q0 -164 143 -164q45 0 113 2t100 2q33 0 103 2t119 2q231 0 421 -74q188 -73 322 -207q135 -135 203 -315q69 -183 69 -399q0 -217 -69 -400q-68 -180 -203 -315q-134 -134 -322 -207 q-190 -74 -421 -74q-49 0 -119 2t-103 2q-32 0 -100 2t-113 2q-143 0 -143 -163v-119q0 -95 -43 -129q-44 -35 -121 -35h-373q-76 0 -120 35q-43 34 -43 129v2539zM856 1192q0 -71 37 -111q38 -41 106 -41h353q77 0 155 21q80 22 138 65q59 44 98 121t39 187q0 107 -37 182 q-38 78 -98 123q-60 46 -140 67q-78 21 -155 21h-353q-68 0 -106 -41q-37 -40 -37 -111v-483z" />
<glyph unicode="&#xdf;" horiz-adv-x="2048" d="M139 2163q0 209 66 350q66 140 180 229q113 88 270 127q156 39 336 39q215 0 361 -61q145 -61 237 -154q89 -91 129 -201q39 -108 39 -206q0 -105 -26 -170q-25 -64 -58 -119q-41 -69 -55 -96q-25 -47 -25 -107q0 -61 62 -141q46 -60 137 -195q74 -110 137 -278 q62 -165 62 -398q0 -156 -33 -303q-34 -149 -115 -262q-83 -114 -217 -186q-135 -72 -340 -72q-174 0 -242 61q-69 62 -69 156v324q0 74 37 108q38 35 94 35q18 0 61 -8q50 0 84 22q36 23 54 58q19 36 26 69q8 37 8 60q0 99 -61 211q-66 120 -137 225t-137 217 q-62 106 -62 191q0 80 31 127q27 41 69 81q43 41 70 86q31 51 31 144q0 109 -58 143q-57 33 -114 33q-78 0 -125 -64t-47 -157v-1917q0 -95 -43 -129q-44 -35 -121 -35h-332q-77 0 -121 35q-43 34 -43 129v1999z" />
<glyph unicode="&#xe0;" horiz-adv-x="2048" d="M991 471q135 0 217 55t82 142q0 86 -82 141t-217 55t-217 -55t-82 -141q0 -87 82 -142t217 -55zM877 1327q127 0 217 -12t139 -12q28 0 55 18t27 59q0 136 -385 136q-140 0 -281 -31q-133 -29 -256 -76q-36 -16 -74 -16q-49 0 -79 34q-31 36 -31 105v270q0 94 47 129 q49 36 117 60q142 49 305 73q169 25 313 25q187 0 361 -31q168 -30 290 -112q124 -83 193 -228q70 -148 70 -375v-1179q0 -95 -43 -129q-44 -35 -121 -35h-324q-41 0 -57 12q-17 12 -29 41q-12 33 -45 33q-26 0 -55 -20q-26 -18 -82 -43q-49 -22 -133 -43q-82 -21 -205 -21 q-105 0 -236 29q-128 28 -241 108t-191 215q-77 133 -77 353q0 145 59 266q60 123 166 211q105 87 256 137q148 49 330 49zM946 2232q-77 0 -121 52q-39 46 -75 108l-160 262q-33 52 -33 103q0 45 43 67q44 23 100 23h332q78 0 117 -33q40 -34 68 -123l86 -295q9 -19 10 -39 q2 -30 2 -35q0 -53 -27 -71q-28 -19 -92 -19h-250z" />
<glyph unicode="&#xe1;" horiz-adv-x="2048" d="M991 471q135 0 217 55t82 142q0 86 -82 141t-217 55t-217 -55t-82 -141q0 -87 82 -142t217 -55zM877 1327q127 0 217 -12t139 -12q28 0 55 18t27 59q0 136 -385 136q-140 0 -281 -31q-133 -29 -256 -76q-36 -16 -74 -16q-49 0 -79 34q-31 36 -31 105v270q0 94 47 129 q49 36 117 60q142 49 305 73q169 25 313 25q187 0 361 -31q168 -30 290 -112q124 -83 193 -228q70 -148 70 -375v-1179q0 -95 -43 -129q-44 -35 -121 -35h-324q-41 0 -57 12q-17 12 -29 41q-12 33 -45 33q-26 0 -55 -20q-26 -18 -82 -43q-49 -22 -133 -43q-82 -21 -205 -21 q-105 0 -236 29q-128 28 -241 108t-191 215q-77 133 -77 353q0 145 59 266q60 123 166 211q105 87 256 137q148 49 330 49zM881 2232q-65 0 -93 19q-26 17 -26 71q0 5 2 35q1 20 10 39l86 295q28 89 68 123q39 33 116 33h332q57 0 101 -23q43 -22 43 -67q0 -51 -33 -103 l-160 -262q-34 -59 -76 -108q-44 -52 -121 -52h-249z" />
<glyph unicode="&#xe2;" horiz-adv-x="2048" d="M991 471q135 0 217 55t82 142q0 86 -82 141t-217 55t-217 -55t-82 -141q0 -87 82 -142t217 -55zM877 1327q127 0 217 -12t139 -12q28 0 55 18t27 59q0 136 -385 136q-140 0 -281 -31q-133 -29 -256 -76q-36 -16 -74 -16q-49 0 -79 34q-31 36 -31 105v270q0 94 47 129 q49 36 117 60q142 49 305 73q169 25 313 25q187 0 361 -31q168 -30 290 -112q124 -83 193 -228q70 -148 70 -375v-1179q0 -95 -43 -129q-44 -35 -121 -35h-324q-41 0 -57 12q-17 12 -29 41q-12 33 -45 33q-26 0 -55 -20q-26 -18 -82 -43q-49 -22 -133 -43q-82 -21 -205 -21 q-105 0 -236 29q-128 28 -241 108t-191 215q-77 133 -77 353q0 145 59 266q60 123 166 211q105 87 256 137q148 49 330 49zM1008 2376q-61 0 -78 -41l-17 -25q-29 -42 -51 -59q-24 -19 -71 -19h-275q-44 0 -55 23q-10 21 -10 35q0 25 16 45l49 65l250 324q52 69 90 96t98 27 h181q61 0 98 -27t90 -96l250 -324l49 -65q16 -20 16 -45q0 -14 -10 -35q-11 -23 -55 -23h-348q-48 0 -72 19q-22 17 -51 59l-17 25q-17 41 -77 41z" />
<glyph unicode="&#xe3;" horiz-adv-x="2048" d="M991 471q135 0 217 55t82 142q0 86 -82 141t-217 55t-217 -55t-82 -141q0 -87 82 -142t217 -55zM877 1327q127 0 217 -12t139 -12q28 0 55 18t27 59q0 136 -385 136q-140 0 -281 -31q-133 -29 -256 -76q-36 -16 -74 -16q-49 0 -79 34q-31 36 -31 105v270q0 94 47 129 q49 36 117 60q142 49 305 73q169 25 313 25q187 0 361 -31q168 -30 290 -112q124 -83 193 -228q70 -148 70 -375v-1179q0 -95 -43 -129q-44 -35 -121 -35h-324q-41 0 -57 12q-17 12 -29 41q-12 33 -45 33q-26 0 -55 -20q-26 -18 -82 -43q-49 -22 -133 -43q-82 -21 -205 -21 q-105 0 -236 29q-128 28 -241 108t-191 215q-77 133 -77 353q0 145 59 266q60 123 166 211q105 87 256 137q148 49 330 49zM803 2400q-49 0 -66 -41l-12 -24q-21 -33 -47 -43q-28 -11 -76 -11h-82q-44 0 -71 29q-27 28 -27 66q0 230 82 334t225 104q72 0 150 -23 q51 -15 149 -47l139 -47q65 -22 115 -22q49 0 66 41l12 24q21 33 47 43t76 10h82q45 0 61 -28t16 -66q0 -231 -81 -334q-82 -104 -226 -104q-72 0 -147 23q-63 19 -141 47l-132 47q-62 22 -112 22z" />
<glyph unicode="&#xe4;" horiz-adv-x="2048" d="M991 471q135 0 217 55t82 142q0 86 -82 141t-217 55t-217 -55t-82 -141q0 -87 82 -142t217 -55zM877 1327q127 0 217 -12t139 -12q28 0 55 18t27 59q0 136 -385 136q-140 0 -281 -31q-133 -29 -256 -76q-36 -16 -74 -16q-49 0 -79 34q-31 36 -31 105v270q0 94 47 129 q49 36 117 60q142 49 305 73q169 25 313 25q187 0 361 -31q168 -30 290 -112q124 -83 193 -228q70 -148 70 -375v-1179q0 -95 -43 -129q-44 -35 -121 -35h-324q-41 0 -57 12q-17 12 -29 41q-12 33 -45 33q-26 0 -55 -20q-26 -18 -82 -43q-49 -22 -133 -43q-82 -21 -205 -21 q-105 0 -236 29q-128 28 -241 108t-191 215q-77 133 -77 353q0 145 59 266q60 123 166 211q105 87 256 137q148 49 330 49zM406 2253q-77 0 -121 35q-43 34 -43 129v266q0 95 43 129q44 35 121 35h331q77 0 121 -35q43 -34 43 -129v-266q0 -95 -43 -129q-44 -35 -121 -35 h-331zM1282 2253q-77 0 -121 35q-43 34 -43 129v266q0 95 43 129q44 35 121 35h332q77 0 121 -35q43 -34 43 -129v-266q0 -95 -43 -129q-44 -35 -121 -35h-332z" />
<glyph unicode="&#xe5;" horiz-adv-x="2048" d="M991 471q135 0 217 55t82 142q0 86 -82 141t-217 55t-217 -55t-82 -141q0 -87 82 -142t217 -55zM877 1327q127 0 217 -12t139 -12q28 0 55 18t27 59q0 136 -385 136q-140 0 -281 -31q-133 -29 -256 -76q-36 -16 -74 -16q-49 0 -79 34q-31 36 -31 105v270q0 94 47 129 q49 36 117 60q142 49 305 73q169 25 313 25q187 0 361 -31q168 -30 290 -112q124 -83 193 -228q70 -148 70 -375v-1179q0 -95 -43 -129q-44 -35 -121 -35h-324q-41 0 -57 12q-17 12 -29 41q-12 33 -45 33q-26 0 -55 -20q-26 -18 -82 -43q-49 -22 -133 -43q-82 -21 -205 -21 q-105 0 -236 29q-128 28 -241 108t-191 215q-77 133 -77 353q0 145 59 266q60 123 166 211q105 87 256 137q148 49 330 49zM610 2572q0 76 31 150q29 70 84 125q54 54 123 84t151 30q78 0 150 -30q70 -29 125 -84t84 -125q31 -74 31 -150q0 -80 -31 -151q-30 -69 -84 -123 q-55 -55 -125 -84q-74 -31 -150 -31q-80 0 -151 31q-69 30 -123 84t-84 123q-31 71 -31 151zM844 2572q0 -69 43 -112t112 -43q71 0 115 43q45 44 45 112q0 70 -45 115t-115 45q-69 0 -112 -45q-43 -44 -43 -115z" />
<glyph unicode="&#xe6;" horiz-adv-x="3325" d="M991 471q135 0 217 55t82 142q0 86 -82 141t-217 55t-217 -55t-82 -141q0 -87 82 -142t217 -55zM1716 139q-4 2 -8 5.5l-9 8t-9 7.5q-15 12 -35 12q-25 0 -58 -33t-116 -73q-85 -41 -242 -74t-428 -33q-105 0 -236 29q-128 28 -241 108t-191 215q-77 133 -77 353 q0 145 59 266q60 123 166 211q105 87 256 137q148 49 330 49q127 0 217 -12t139 -12q28 0 55 18t27 59q0 136 -385 136q-140 0 -281 -31q-133 -29 -256 -76q-36 -16 -74 -16q-49 0 -79 34q-31 36 -31 105v270q0 94 47 129q49 36 117 60q142 49 305 73q169 25 313 25 q194 0 385 -31q183 -30 279 -100q11 -8 28 -25q12 -12 29 -12q23 0 57 25q111 85 230 114q121 29 282 29q451 0 693 -281q241 -280 241 -796q0 -176 -176 -176h-991q-68 0 -96 -25q-27 -24 -27 -78q0 -69 129 -135t359 -66q171 0 329 31q151 30 273 76q21 7 39 12q16 4 34 4 q50 0 80 -34q31 -36 31 -105v-270q0 -94 -47 -129q-49 -36 -117 -60q-143 -49 -309 -73q-173 -25 -375 -25q-143 0 -250 21q-108 21 -184 49q-75 27 -127 59q-51 31 -74 51zM2253 1577q-144 0 -238 -61t-94 -148q0 -31 25 -61q24 -29 86 -29h434q110 0 110 90q0 86 -90 148 q-89 61 -233 61z" />
<glyph unicode="&#xe7;" horiz-adv-x="1449" d="M1217 -356q0 -94 -74 -160q-73 -66 -209 -66q-42 0 -103 7q-57 7 -114 26q-45 12 -62 43q-16 29 -16 76v111q0 94 102 94q57 0 78 28q21 29 21 95q0 40 -11 71q-11 32 -43 39q-155 40 -286 123q-135 85 -228 209q-97 129 -149 297q-53 171 -53 387q0 278 90 481 q91 204 241 332q152 129 355 191q201 61 424 61q77 0 123 -35q45 -34 45 -129v-287q0 -95 -43 -129t-121 -34q-195 0 -336 -103q-139 -102 -139 -348q0 -123 47 -209q47 -87 116 -139q71 -54 150 -78q83 -25 149 -25q78 0 121 -34t43 -129v-287q0 -95 -43 -129 q-44 -35 -121 -35q-15 0 -51 2t-39 2q-20 0 -24 -20q-4 -19 -4 -41q0 -37 24 -52q3 -2 23.5 -14t32.5 -20q31 -22 57 -58q27 -38 27 -114z" />
<glyph unicode="&#xe8;" d="M1831 639q21 7 39 12q16 4 35 4q50 0 80 -34q30 -35 30 -105v-270q0 -94 -47 -129q-49 -36 -117 -60q-142 -49 -307 -73q-170 -25 -373 -25q-233 0 -434 57q-198 56 -348 183q-148 125 -233 319q-86 196 -86 473q0 304 82 514q82 211 223 340q143 130 330 187 q189 57 397 57q450 0 690 -281q240 -280 240 -796q0 -176 -177 -176h-991q-68 0 -96 -25q-27 -24 -27 -78q0 -69 129 -135t359 -66q172 0 330 31q149 29 272 76zM1069 1577q-144 0 -238 -61t-94 -148q0 -31 25 -61q24 -29 86 -29h434q111 0 111 90q0 86 -90 148 q-89 61 -234 61zM1008 2232q-77 0 -121 52q-42 49 -76 108l-160 262q-33 52 -33 103q0 44 44 67t100 23h332q77 0 116 -33q40 -34 68 -123l86 -295q9 -19 10 -39q2 -30 2 -35q0 -54 -26 -71q-28 -19 -93 -19h-249z" />
<glyph unicode="&#xe9;" d="M1831 639q21 7 39 12q16 4 35 4q50 0 80 -34q30 -35 30 -105v-270q0 -94 -47 -129q-49 -36 -117 -60q-142 -49 -307 -73q-170 -25 -373 -25q-233 0 -434 57q-198 56 -348 183q-148 125 -233 319q-86 196 -86 473q0 304 82 514q82 211 223 340q143 130 330 187 q189 57 397 57q450 0 690 -281q240 -280 240 -796q0 -176 -177 -176h-991q-68 0 -96 -25q-27 -24 -27 -78q0 -69 129 -135t359 -66q172 0 330 31q149 29 272 76zM1069 1577q-144 0 -238 -61t-94 -148q0 -31 25 -61q24 -29 86 -29h434q111 0 111 90q0 86 -90 148 q-89 61 -234 61zM942 2232q-64 0 -92 19q-27 18 -27 71q0 5 2 35q1 17 11 39l86 295q29 91 67 123q39 33 117 33h332q56 0 100 -23q43 -22 43 -67q0 -51 -33 -103l-159 -262q-34 -59 -76 -108q-44 -52 -121 -52h-250z" />
<glyph unicode="&#xea;" d="M1831 639q21 7 39 12q16 4 35 4q50 0 80 -34q30 -35 30 -105v-270q0 -94 -47 -129q-49 -36 -117 -60q-142 -49 -307 -73q-170 -25 -373 -25q-233 0 -434 57q-198 56 -348 183q-148 125 -233 319q-86 196 -86 473q0 304 82 514q82 211 223 340q143 130 330 187 q189 57 397 57q450 0 690 -281q240 -280 240 -796q0 -176 -177 -176h-991q-68 0 -96 -25q-27 -24 -27 -78q0 -69 129 -135t359 -66q172 0 330 31q149 29 272 76zM1069 1577q-144 0 -238 -61t-94 -148q0 -31 25 -61q24 -29 86 -29h434q111 0 111 90q0 86 -90 148 q-89 61 -234 61zM1049 2376q-61 0 -78 -41l-17 -25q-29 -42 -51 -59q-24 -19 -72 -19h-274q-44 0 -55 23q-10 21 -10 35q0 25 16 45l49 65l250 324q53 69 90 96t98 27h181q60 0 98 -27t90 -96l250 -324l49 -65q16 -20 16 -45q0 -14 -10 -35q-11 -23 -55 -23h-348 q-48 0 -72 19q-22 17 -51 59l-17 25q-17 41 -77 41z" />
<glyph unicode="&#xeb;" d="M1831 639q21 7 39 12q16 4 35 4q50 0 80 -34q30 -35 30 -105v-270q0 -94 -47 -129q-49 -36 -117 -60q-142 -49 -307 -73q-170 -25 -373 -25q-233 0 -434 57q-198 56 -348 183q-148 125 -233 319q-86 196 -86 473q0 304 82 514q82 211 223 340q143 130 330 187 q189 57 397 57q450 0 690 -281q240 -280 240 -796q0 -176 -177 -176h-991q-68 0 -96 -25q-27 -24 -27 -78q0 -69 129 -135t359 -66q172 0 330 31q149 29 272 76zM1069 1577q-144 0 -238 -61t-94 -148q0 -31 25 -61q24 -29 86 -29h434q111 0 111 90q0 86 -90 148 q-89 61 -234 61zM459 2253q-77 0 -121 35q-43 34 -43 129v266q0 95 43 129q44 35 121 35h332q76 0 120 -35q43 -34 43 -129v-266q0 -95 -43 -129q-44 -35 -120 -35h-332zM1335 2253q-77 0 -121 35q-43 34 -43 129v266q0 95 43 129q44 35 121 35h332q77 0 121 -35 q43 -34 43 -129v-266q0 -95 -43 -129q-44 -35 -121 -35h-332z" />
<glyph unicode="&#xec;" horiz-adv-x="937" d="M303 0q-77 0 -121 35q-43 34 -43 129v1741q0 95 43 129t121 34h332q78 0 121 -34t43 -129v-1741q0 -95 -43 -129q-44 -35 -121 -35h-332zM389 2232q-77 0 -121 52q-39 46 -75 108l-160 262q-33 52 -33 103q0 45 43 67q44 23 100 23h332q78 0 117 -33q38 -32 67 -123 l86 -295q10 -22 11 -39q2 -30 2 -35q0 -53 -27 -71q-29 -19 -92 -19h-250z" />
<glyph unicode="&#xed;" horiz-adv-x="937" d="M303 0q-77 0 -121 35q-43 34 -43 129v1741q0 95 43 129t121 34h332q78 0 121 -34t43 -129v-1741q0 -95 -43 -129q-44 -35 -121 -35h-332zM299 2232q-63 0 -92 19q-27 18 -27 71q0 5 2 35q1 17 11 39l86 295q29 91 67 123q39 33 117 33h332q56 0 100 -23q43 -22 43 -67 q0 -51 -33 -103l-160 -262q-36 -62 -75 -108q-44 -52 -121 -52h-250z" />
<glyph unicode="&#xee;" horiz-adv-x="937" d="M303 0q-77 0 -121 35q-43 34 -43 129v1741q0 95 43 129t121 34h332q78 0 121 -34t43 -129v-1741q0 -95 -43 -129q-44 -35 -121 -35h-332zM455 2376q-61 0 -78 -41l-17 -25q-29 -42 -51 -59q-24 -19 -71 -19h-275q-44 0 -55 23q-10 21 -10 35q0 25 16 45l49 65l250 324 q53 69 90 96t98 27h181q60 0 98 -27t90 -96l250 -324l49 -65q16 -20 16 -45q0 -14 -10 -35q-11 -23 -55 -23h-348q-48 0 -72 19q-22 17 -51 59l-17 25q-17 41 -77 41z" />
<glyph unicode="&#xef;" horiz-adv-x="937" d="M303 0q-77 0 -121 35q-43 34 -43 129v1741q0 95 43 129t121 34h332q78 0 121 -34t43 -129v-1741q0 -95 -43 -129q-44 -35 -121 -35h-332zM-135 2253q-77 0 -121 35q-43 34 -43 129v266q0 95 43 129q44 35 121 35h332q76 0 120 -35q43 -34 43 -129v-266q0 -95 -43 -129 q-44 -35 -120 -35h-332zM741 2253q-76 0 -120 35q-43 34 -43 129v266q0 95 43 129q44 35 120 35h332q77 0 121 -35q43 -34 43 -129v-266q0 -95 -43 -129q-44 -35 -121 -35h-332z" />
<glyph unicode="&#xf0;" horiz-adv-x="2301" d="M791 2224q-77 0 -121 35q-43 34 -43 129v53q0 95 43 129q44 35 121 35h65q-30 22 -59 61q-31 42 -31 82q0 58 35 91q33 32 108 32h439q94 0 147 -45q62 -53 107 -102l94 -119h270q77 0 121 -35q43 -34 43 -129v-53q0 -95 -43 -129q-44 -35 -121 -35h-37 q120 -229 211 -530q92 -306 92 -670q0 -278 -102 -481q-102 -202 -262 -332t-350 -191q-189 -61 -367 -61t-367 61q-190 61 -350 191t-262 332q-102 203 -102 481t80 477q81 202 206 324q127 124 285 184q155 59 309 59q141 0 207 -28q69 -29 92 -29q37 0 37 29q0 9 -4 20 q-8 20 -8 21q-24 38 -39 69q-13 27 -43 74h-401zM1151 1475q-65 0 -145 -25q-73 -23 -144 -78q-65 -51 -110 -139q-43 -85 -43 -209t43 -209q45 -88 110 -139q71 -55 144 -78q80 -25 145 -25q62 0 143 25q76 23 146 78q65 51 110 139q43 85 43 209t-43 209q-45 88 -110 139 q-70 55 -146 78q-81 25 -143 25z" />
<glyph unicode="&#xf1;" d="M799 1004q0 134 26 215q27 84 68 131t90 65q52 19 98 19q61 0 109 -17t82 -57q35 -41 53 -113t18 -182v-901q0 -95 43 -129q44 -35 121 -35h332q77 0 121 35q43 34 43 129v1126q0 224 -59 373q-60 152 -156 248q-97 97 -217 137q-123 41 -244 41q-139 0 -223 -27 q-85 -27 -137 -57q-54 -31 -80 -57q-27 -27 -51 -27q-50 0 -66 45q-21 62 -53 82q-31 20 -99 20h-315q-78 0 -121 -34t-43 -129v-1741q0 -95 43 -129q44 -35 121 -35h332q77 0 121 35q43 34 43 129v840zM844 2400q-49 0 -66 -41l-12 -24q-21 -33 -47 -43q-28 -11 -76 -11 h-82q-45 0 -72 29q-26 27 -26 66q0 230 82 334t225 104q72 0 150 -23q51 -15 149 -47l139 -47q65 -22 115 -22q49 0 66 41l12 24q21 33 47 43t76 10h82q45 0 61 -28t16 -66q0 -231 -81 -334q-82 -104 -226 -104q-72 0 -147 23q-71 22 -142 47l-131 47q-62 22 -112 22z" />
<glyph unicode="&#xf2;" horiz-adv-x="2301" d="M1151 1475q-65 0 -145 -25q-73 -23 -144 -78q-65 -51 -110 -139q-43 -85 -43 -209t43 -209q45 -88 110 -139q71 -55 144 -78q80 -25 145 -25q62 0 143 25q76 23 146 78q65 51 110 139q43 85 43 209t-43 209q-45 88 -110 139q-70 55 -146 78q-81 25 -143 25zM1151 -41 q-178 0 -367 61q-190 61 -350 191t-262 332q-102 203 -102 481t102 481q102 202 262 332t350 191q189 61 367 61t367 -61q190 -61 350 -191t262 -332q102 -203 102 -481t-102 -481q-102 -202 -262 -332t-350 -191q-189 -61 -367 -61zM1053 2232q-77 0 -121 52 q-42 49 -76 108l-160 262q-32 51 -32 103q0 45 43 67q44 23 100 23h332q77 0 116 -33q40 -34 68 -123l86 -295q9 -19 10 -39q2 -30 2 -35q0 -54 -26 -71q-29 -19 -92 -19h-250z" />
<glyph unicode="&#xf3;" horiz-adv-x="2301" d="M1151 1475q-65 0 -145 -25q-73 -23 -144 -78q-65 -51 -110 -139q-43 -85 -43 -209t43 -209q45 -88 110 -139q71 -55 144 -78q80 -25 145 -25q62 0 143 25q76 23 146 78q65 51 110 139q43 85 43 209t-43 209q-45 88 -110 139q-70 55 -146 78q-81 25 -143 25zM1151 -41 q-178 0 -367 61q-190 61 -350 191t-262 332q-102 203 -102 481t102 481q102 202 262 332t350 191q189 61 367 61t367 -61q190 -61 350 -191t262 -332q102 -203 102 -481t-102 -481q-102 -202 -262 -332t-350 -191q-189 -61 -367 -61zM1032 2232q-64 0 -92 19q-27 18 -27 71 q0 5 2 35q1 17 11 39l86 295q29 91 67 123q39 33 117 33h332q56 0 100 -23q43 -22 43 -67q0 -51 -33 -103l-159 -262q-34 -59 -76 -108q-44 -52 -121 -52h-250z" />
<glyph unicode="&#xf4;" horiz-adv-x="2301" d="M1151 1475q-65 0 -145 -25q-73 -23 -144 -78q-65 -51 -110 -139q-43 -85 -43 -209t43 -209q45 -88 110 -139q71 -55 144 -78q80 -25 145 -25q62 0 143 25q76 23 146 78q65 51 110 139q43 85 43 209t-43 209q-45 88 -110 139q-70 55 -146 78q-81 25 -143 25zM1151 -41 q-178 0 -367 61q-190 61 -350 191t-262 332q-102 203 -102 481t102 481q102 202 262 332t350 191q189 61 367 61t367 -61q190 -61 350 -191t262 -332q102 -203 102 -481t-102 -481q-102 -202 -262 -332t-350 -191q-189 -61 -367 -61zM1171 2376q-60 0 -77 -41l-17 -25 q-29 -42 -51 -59q-24 -19 -72 -19h-274q-44 0 -55 23q-11 24 -11 35q0 23 17 45l49 65l250 324q52 69 90 96t98 27h180q62 0 99 -27t90 -96l250 -324l49 -65q16 -20 16 -45q0 -14 -10 -35q-11 -23 -55 -23h-348q-48 0 -72 19q-22 17 -51 59l-17 25q-17 41 -78 41z" />
<glyph unicode="&#xf5;" horiz-adv-x="2301" d="M1151 1475q62 0 143 -25q76 -23 146 -78q65 -51 110 -139q43 -85 43 -209t-43 -209q-45 -88 -110 -139q-70 -55 -146 -78q-81 -25 -143 -25q-65 0 -145 25q-73 23 -144 78q-65 51 -110 139q-43 85 -43 209t43 209q45 88 110 139q71 55 144 78q80 25 145 25zM1151 -41 q178 0 367 61q190 61 350 191t262 332q102 203 102 481t-102 481q-102 202 -262 332t-350 191q-189 61 -367 61t-367 -61q-190 -61 -350 -191t-262 -332q-102 -203 -102 -481t102 -481q102 -202 262 -332t350 -191q189 -61 367 -61zM926 2400q-49 0 -66 -41l-12 -24 q-21 -33 -47 -43q-28 -11 -76 -11h-82q-45 0 -72 29q-26 27 -26 66q0 230 82 334t225 104q71 0 149 -23q61 -18 150 -47l139 -47q65 -22 115 -22q48 0 65 41l13 24q21 33 47 43t76 10h82q45 0 61 -28t16 -66q0 -230 -82 -334t-225 -104q-72 0 -147 23q-71 22 -142 47 l-131 47q-62 22 -112 22z" />
<glyph unicode="&#xf6;" horiz-adv-x="2301" d="M1151 1475q-65 0 -145 -25q-73 -23 -144 -78q-65 -51 -110 -139q-43 -85 -43 -209t43 -209q45 -88 110 -139q71 -55 144 -78q80 -25 145 -25q62 0 143 25q76 23 146 78q65 51 110 139q43 85 43 209t-43 209q-45 88 -110 139q-70 55 -146 78q-81 25 -143 25zM1151 -41 q-178 0 -367 61q-190 61 -350 191t-262 332q-102 203 -102 481t102 481q102 202 262 332t350 191q189 61 367 61t367 -61q190 -61 350 -191t262 -332q102 -203 102 -481t-102 -481q-102 -202 -262 -332t-350 -191q-189 -61 -367 -61zM553 2253q-77 0 -121 35q-43 34 -43 129 v266q0 95 43 129q44 35 121 35h332q77 0 121 -35q43 -34 43 -129v-266q0 -95 -43 -129q-44 -35 -121 -35h-332zM1430 2253q-77 0 -121 35q-43 34 -43 129v266q0 95 43 129q44 35 121 35h331q77 0 121 -35q43 -34 43 -129v-266q0 -95 -43 -129q-44 -35 -121 -35h-331z" />
<glyph unicode="&#xf8;" horiz-adv-x="2301" d="M1151 -41q-119 0 -254 31q-127 29 -254 88l-106 -144q-28 -40 -62 -40q-30 0 -53 20l-94 70q-41 29 -41 61q0 26 20 53l99 135q-147 131 -242 326q-94 194 -94 465q0 278 102 481q102 202 262 332t350 191q189 61 367 61q128 0 270 -35q140 -35 271 -104l118 159 q29 41 62 41q30 0 53 -20l94 -70q41 -29 41 -61q0 -26 -20 -53l-119 -160q138 -129 225 -318q86 -187 86 -444q0 -278 -102 -481q-102 -202 -262 -332t-350 -191q-189 -61 -367 -61zM1151 1475q-65 0 -145 -25q-73 -23 -144 -78q-65 -51 -110 -139q-43 -85 -43 -209 q0 -92 22 -158t60 -116l520 696q-38 15 -82 22q-47 7 -78 7zM1593 1024q0 75 -16 133q-16 59 -45 109l-504 -676q54 -17 123 -17q62 0 143 25q76 23 146 78q65 51 110 139q43 85 43 209z" />
<glyph unicode="&#xf9;" d="M1335 1905q0 95 43 129t121 34h332q78 0 121 -34t43 -129v-1741q0 -95 -43 -129q-44 -35 -121 -35h-315q-68 0 -99 20q-32 20 -53 82q-16 45 -66 45q-25 0 -51 -26q-29 -29 -80 -58q-52 -30 -137 -57q-81 -26 -223 -26q-124 0 -244 40q-119 40 -217 138q-96 96 -156 248 q-59 149 -59 372v1127q0 95 43 129t121 34h332q78 0 121 -34t43 -129v-901q0 -111 18 -183q18 -70 53 -112q35 -41 82 -58q45 -16 109 -16q49 0 98 18q48 17 90 66q41 47 68 131q26 81 26 215v840zM987 2232q-77 0 -121 52q-39 46 -75 108l-160 262q-33 52 -33 103 q0 45 43 67q44 23 100 23h332q78 0 117 -33q38 -32 67 -123l86 -295q10 -22 11 -39q2 -30 2 -35q0 -53 -27 -71q-29 -19 -92 -19h-250z" />
<glyph unicode="&#xfa;" d="M1335 1905q0 95 43 129t121 34h332q78 0 121 -34t43 -129v-1741q0 -95 -43 -129q-44 -35 -121 -35h-315q-68 0 -99 20q-32 20 -53 82q-16 45 -66 45q-25 0 -51 -26q-29 -29 -80 -58q-52 -30 -137 -57q-81 -26 -223 -26q-124 0 -244 40q-119 40 -217 138q-96 96 -156 248 q-59 149 -59 372v1127q0 95 43 129t121 34h332q78 0 121 -34t43 -129v-901q0 -111 18 -183q18 -70 53 -112q35 -41 82 -58q45 -16 109 -16q49 0 98 18q48 17 90 66q41 47 68 131q26 81 26 215v840zM942 2232q-64 0 -92 19q-27 18 -27 71q0 5 2 35q1 17 11 39l86 295 q29 91 67 123q39 33 117 33h332q56 0 100 -23q43 -22 43 -67q0 -51 -33 -103l-159 -262q-34 -59 -76 -108q-44 -52 -121 -52h-250z" />
<glyph unicode="&#xfb;" d="M1335 1905q0 95 43 129t121 34h332q78 0 121 -34t43 -129v-1741q0 -95 -43 -129q-44 -35 -121 -35h-315q-68 0 -99 20q-32 20 -53 82q-16 45 -66 45q-25 0 -51 -26q-29 -29 -80 -58q-52 -30 -137 -57q-81 -26 -223 -26q-124 0 -244 40q-119 40 -217 138q-96 96 -156 248 q-59 149 -59 372v1127q0 95 43 129t121 34h332q78 0 121 -34t43 -129v-901q0 -111 18 -183q18 -70 53 -112q35 -41 82 -58q45 -16 109 -16q49 0 98 18q48 17 90 66q41 47 68 131q26 81 26 215v840zM1049 2376q-61 0 -78 -41l-17 -25q-29 -42 -51 -59q-24 -19 -72 -19h-274 q-44 0 -55 23q-10 21 -10 35q0 25 16 45l49 65l250 324q53 69 90 96t98 27h181q60 0 98 -27t90 -96l250 -324l49 -65q16 -20 16 -45q0 -14 -10 -35q-11 -23 -55 -23h-348q-48 0 -72 19q-22 17 -51 59l-17 25q-17 41 -77 41z" />
<glyph unicode="&#xfc;" d="M1335 1905q0 95 43 129t121 34h332q78 0 121 -34t43 -129v-1741q0 -95 -43 -129q-44 -35 -121 -35h-315q-68 0 -99 20q-32 20 -53 82q-16 45 -66 45q-25 0 -51 -26q-29 -29 -80 -58q-52 -30 -137 -57q-81 -26 -223 -26q-124 0 -244 40q-119 40 -217 138q-96 96 -156 248 q-59 149 -59 372v1127q0 95 43 129t121 34h332q78 0 121 -34t43 -129v-901q0 -111 18 -183q18 -70 53 -112q35 -41 82 -58q45 -16 109 -16q49 0 98 18q48 17 90 66q41 47 68 131q26 81 26 215v840zM451 2253q-77 0 -121 35q-43 34 -43 129v266q0 95 43 129q44 35 121 35h331 q77 0 121 -35q43 -34 43 -129v-266q0 -95 -43 -129q-44 -35 -121 -35h-331zM1327 2253q-77 0 -121 35q-43 34 -43 129v266q0 95 43 129q44 35 121 35h332q77 0 121 -35q43 -34 43 -129v-266q0 -95 -43 -129q-44 -35 -121 -35h-332z" />
<glyph unicode="&#xfd;" horiz-adv-x="1875" d="M1413 520q-61 -183 -127 -327q-67 -146 -149 -244q-85 -101 -193 -154q-109 -53 -252 -53h-364q-77 0 -121 35q-43 34 -43 129v299q0 93 45 137q44 43 123 43q40 0 104 -8t109 -8q41 0 67 10q27 11 27 39q0 26 -4 41q-5 18 -25 61l-549 1241q-11 22 -22 68q-10 41 -10 80 q0 159 164 159h315q156 0 209 -159l250 -770q5 -29 24 -29q24 0 29 29l192 770q52 159 209 159h267q79 0 122 -36q45 -38 45 -119q0 -49 -6 -82q-6 -32 -18 -70zM799 2232q-63 0 -92 19q-27 18 -27 71q0 5 2 35q1 20 10 39l86 295q28 89 68 123q39 33 117 33h331 q57 0 101 -23q43 -22 43 -67q0 -51 -33 -103l-160 -262q-34 -59 -76 -108q-44 -52 -120 -52h-250z" />
<glyph unicode="&#xfe;" horiz-adv-x="2387" d="M799 2044q0 -62 65 -62q30 0 76 19l80 35q54 20 149 37q89 16 179 16q209 0 389 -78t309 -219q130 -142 203 -336t73 -432t-73 -432t-203 -336q-129 -141 -309 -219t-389 -78q-90 0 -179 16q-95 17 -149 37l-80 35q-46 19 -76 19q-65 0 -65 -62v-270q0 -95 -43 -129 q-44 -35 -121 -35h-332q-77 0 -121 35q-43 34 -43 129v2969q0 95 43 129q44 35 121 35h332q77 0 121 -35q43 -34 43 -129v-659zM782 1024q0 -124 45 -209q46 -87 113 -139q71 -55 145 -78q81 -25 148 -25q62 0 145 25q78 24 148 78q66 51 112 139q45 85 45 209t-45 209 q-46 88 -112 139q-70 54 -148 78q-83 25 -145 25q-67 0 -148 -25q-74 -23 -145 -78q-67 -52 -113 -139q-45 -85 -45 -209z" />
<glyph unicode="&#xff;" horiz-adv-x="1875" d="M1413 520q-61 -183 -127 -327q-67 -146 -149 -244q-85 -101 -193 -154q-109 -53 -252 -53h-364q-77 0 -121 35q-43 34 -43 129v299q0 93 45 137q44 43 123 43q40 0 104 -8t109 -8q41 0 67 10q27 11 27 39q0 26 -4 41q-5 18 -25 61l-549 1241q-11 22 -22 68q-10 41 -10 80 q0 159 164 159h315q156 0 209 -159l250 -770q5 -29 24 -29q24 0 29 29l192 770q52 159 209 159h267q79 0 122 -36q45 -38 45 -119q0 -49 -6 -82q-6 -32 -18 -70zM373 2253q-77 0 -121 35q-43 34 -43 129v266q0 95 43 129q44 35 121 35h332q76 0 120 -35q43 -34 43 -129v-266 q0 -95 -43 -129q-44 -35 -120 -35h-332zM1249 2253q-77 0 -121 35q-43 34 -43 129v266q0 95 43 129q44 35 121 35h332q77 0 121 -35q43 -34 43 -129v-266q0 -95 -43 -129q-44 -35 -121 -35h-332z" />
<glyph unicode="&#x152;" horiz-adv-x="3842" d="M2335 0q-83 0 -189 -6q-2 0 -227 -14q-239 -15 -244 -15q-123 -6 -233 -6q-254 0 -496 96q-240 95 -432 283q-189 184 -307 463q-117 276 -117 633q0 356 117 632q118 279 307 463q192 188 432 283q242 96 496 96q257 0 487 -20q241 -21 406 -21h1188q76 0 120 -35 q43 -34 43 -129v-266q0 -95 -43 -129q-44 -35 -120 -35h-750q-70 0 -104 -37q-35 -38 -39 -94v-217q0 -71 36 -110q38 -41 107 -41h745q77 0 121 -35q43 -34 43 -129v-258q0 -95 -43 -129q-44 -35 -121 -35h-745q-69 0 -107 -41q-36 -39 -36 -111v-286q0 -72 36 -111 q38 -41 107 -41h831q164 0 164 -176v-258q0 -95 -43 -129q-44 -35 -121 -35h-1269zM1442 655q72 0 160 17q85 16 157 69q70 51 121 156q49 101 49 270v570q0 169 -49 264q-50 97 -121 143q-74 48 -157 58q-81 10 -160 10q-111 0 -228 -45q-116 -45 -215 -139 q-97 -93 -161 -242t-64 -352q0 -204 64 -353q63 -148 161 -241q101 -96 215 -140q117 -45 228 -45z" />
<glyph unicode="&#x153;" horiz-adv-x="3584" d="M2535 1577q-143 0 -237 -61t-94 -148q0 -32 24 -61t86 -29h434q111 0 111 90q0 86 -90 148q-89 61 -234 61zM1151 1475q-65 0 -145 -25q-73 -23 -144 -78q-65 -51 -110 -139q-43 -85 -43 -209t43 -209q45 -88 110 -139q71 -55 144 -78q80 -25 145 -25q62 0 143 25 q76 23 146 78q65 51 110 139q43 85 43 209t-43 209q-45 88 -110 139q-70 55 -146 78q-81 25 -143 25zM1806 168q-146 -108 -321 -158q-179 -51 -334 -51q-178 0 -367 61q-190 61 -350 191t-262 332q-102 203 -102 481t102 481q102 202 262 332t350 191q189 61 367 61 q78 0 158 -10q81 -10 168 -35q80 -23 163 -62q81 -38 146 -90q18 -13 29 -24q13 -13 28 -13q24 0 58 25q153 119 325 164q174 45 338 45q450 0 692 -281t242 -796q0 -176 -176 -176h-991q-69 0 -97 -25q-26 -23 -26 -78q0 -69 129 -135t358 -66q172 0 330 31q149 29 272 76 q21 7 39 12q16 4 35 4q50 0 80 -34q31 -36 31 -105v-270q0 -93 -48 -129q-50 -37 -116 -60q-143 -49 -309 -73q-173 -25 -375 -25q-139 0 -262 25q-118 24 -207 57q-91 34 -150 70q-69 42 -86 57q-5 3 -26 20q-16 13 -35 13t-35 -13q-18 -14 -27 -20z" />
<glyph unicode="&#x178;" horiz-adv-x="2473" d="M893 901q0 35 -19 90q-19 56 -45 109q-31 64 -55 108q-20 37 -49 99l-602 1204q-23 38 -31 53q-36 65 -37 68q-19 36 -30 67q-13 36 -13 58q0 65 29 88q28 22 115 22h462q156 0 209 -160l332 -745q45 -107 86 -107t86 107l332 745q53 160 209 160h463q86 0 114 -22 q29 -23 29 -88q0 -25 -12 -58q-9 -25 -31 -67q-1 -3 -37 -68q-8 -15 -31 -53l-602 -1204q-25 -53 -51 -99q-30 -52 -57 -108q-26 -53 -45 -109q-19 -55 -19 -90v-737q0 -95 -43 -129q-44 -35 -120 -35h-373q-77 0 -121 35q-43 34 -43 129v737zM647 3084q-77 0 -121 35 q-43 34 -43 129v266q0 95 43 129q44 35 121 35h332q77 0 121 -35q43 -34 43 -129v-266q0 -95 -43 -129q-44 -35 -121 -35h-332zM1524 3084q-77 0 -121 35q-43 34 -43 129v266q0 95 43 129q44 35 121 35h331q77 0 121 -35q43 -34 43 -129v-266q0 -95 -43 -129 q-44 -35 -121 -35h-331z" />
<glyph unicode="&#x2c6;" horiz-adv-x="1196" d="M561 2376q-61 0 -78 -41l-16 -25q-29 -42 -51 -59q-24 -19 -72 -19h-274q-45 0 -56 23q-10 21 -10 35q0 25 16 45l50 65l249 324q51 67 91 96q38 27 98 27h180q60 0 98 -27q40 -29 91 -96l249 -324l50 -65q16 -20 16 -45q0 -14 -10 -35q-11 -23 -56 -23h-348 q-47 0 -71 19t-52 59l-16 25q-17 41 -78 41z" />
<glyph unicode="&#x2dc;" horiz-adv-x="1196" d="M369 2400q-49 0 -66 -41l-12 -24q-21 -33 -47 -43q-28 -11 -76 -11h-82q-45 0 -72 29q-26 27 -26 66q0 230 82 334t225 104q71 0 149 -23q61 -18 150 -47l139 -47q65 -22 115 -22q48 0 65 41l13 24q21 33 47 43t76 10h81q46 0 62 -28t16 -66q0 -230 -82 -334t-225 -104 q-72 0 -147 23q-71 22 -142 47l-131 47q-62 22 -112 22z" />
<glyph unicode="&#x2000;" horiz-adv-x="1863" />
<glyph unicode="&#x2001;" horiz-adv-x="3727" />
<glyph unicode="&#x2002;" horiz-adv-x="1863" />
<glyph unicode="&#x2003;" horiz-adv-x="3727" />
<glyph unicode="&#x2004;" horiz-adv-x="1241" />
<glyph unicode="&#x2005;" horiz-adv-x="929" />
<glyph unicode="&#x2006;" horiz-adv-x="618" />
<glyph unicode="&#x2007;" horiz-adv-x="618" />
<glyph unicode="&#x2008;" horiz-adv-x="462" />
<glyph unicode="&#x2009;" horiz-adv-x="745" />
<glyph unicode="&#x200a;" horiz-adv-x="204" />
<glyph unicode="&#x2010;" horiz-adv-x="1196" d="M283 762q-77 0 -121 35q-43 34 -43 129v250q0 95 43 129t121 34h622q78 0 121 -34t43 -129v-250q0 -95 -43 -129q-44 -35 -121 -35h-622z" />
<glyph unicode="&#x2011;" horiz-adv-x="1196" d="M283 762q-77 0 -121 35q-43 34 -43 129v250q0 95 43 129t121 34h622q78 0 121 -34t43 -129v-250q0 -95 -43 -129q-44 -35 -121 -35h-622z" />
<glyph unicode="&#x2013;" d="M283 762q-77 0 -121 35q-43 34 -43 129v250q0 95 43 129t121 34h1560q78 0 121 -34t43 -129v-250q0 -95 -43 -129q-44 -35 -121 -35h-1560z" />
<glyph unicode="&#x2014;" horiz-adv-x="2473" d="M283 762q-77 0 -121 35q-43 34 -43 129v250q0 95 43 129t121 34h1904q78 0 121 -34t43 -129v-250q0 -95 -43 -129q-44 -35 -121 -35h-1904z" />
<glyph unicode="&#x2018;" horiz-adv-x="851" d="M537 2888q63 0 92 -19q26 -17 26 -71q0 -5 -2 -35q-1 -20 -10 -39l-82 -205q-16 -36 -16 -70q0 -33 16 -45q17 -12 33 -12q77 0 121 -35q43 -34 43 -129v-307q0 -95 -43 -129q-44 -35 -121 -35h-332q-77 0 -121 35q-43 34 -43 129v328q5 51 19 90q20 54 30 74l144 315 q28 60 74 111q45 49 122 49h50z" />
<glyph unicode="&#x2019;" horiz-adv-x="851" d="M299 1757q-63 0 -92 19q-27 18 -27 71q0 5 2 35q1 17 11 39l81 205q17 39 17 69q0 34 -17 46q-16 12 -32 12q-77 0 -121 35q-43 34 -43 129v307q0 95 43 129q44 35 121 35h331q77 0 121 -35q43 -34 43 -129v-328q-5 -55 -18 -90q-17 -46 -31 -74l-143 -315 q-28 -60 -74 -111q-45 -49 -123 -49h-49z" />
<glyph unicode="&#x201a;" horiz-adv-x="851" d="M319 -496q-63 0 -92 19q-26 17 -26 71q0 5 2 35q1 20 10 39l82 205q16 36 16 70q0 33 -16 45q-17 12 -33 12q-77 0 -121 35q-43 34 -43 129v307q0 95 43 129q44 35 121 35h332q77 0 121 -35q43 -34 43 -129v-328q-5 -51 -19 -90q-19 -50 -30 -73l-144 -316 q-28 -61 -73 -110q-45 -50 -123 -50h-50z" />
<glyph unicode="&#x201c;" horiz-adv-x="1789" d="M1401 2888q63 0 92 -19q27 -18 27 -71q0 -5 -2 -35q-1 -17 -11 -39l-82 -205q-16 -36 -16 -70q0 -33 16 -45q17 -12 33 -12q77 0 121 -35q43 -34 43 -129v-307q0 -95 -43 -129q-44 -35 -121 -35h-332q-76 0 -120 35q-43 34 -43 129v328q5 55 18 90q17 46 31 74l143 315 q28 60 74 111q45 49 123 49h49zM606 2888q64 0 92 -19q27 -18 27 -71q0 -5 -2 -35q-1 -20 -10 -39l-82 -205q-17 -39 -17 -70q0 -33 17 -45t33 -12q76 0 120 -35q43 -34 43 -129v-307q0 -95 -43 -129q-44 -35 -120 -35h-332q-77 0 -121 35q-43 34 -43 129v328q5 55 18 90 q17 46 31 74l143 315q28 60 74 111q45 49 123 49h49z" />
<glyph unicode="&#x201d;" horiz-adv-x="1789" d="M369 1757q-65 0 -93 19q-26 17 -26 71q0 5 2 35q1 20 10 39l82 205q16 36 16 69q0 34 -16 46t-33 12q-77 0 -121 35q-43 34 -43 129v307q0 95 43 129q44 35 121 35h332q77 0 121 -35q43 -34 43 -129v-328q-5 -51 -19 -90q-20 -54 -30 -74l-144 -315q-29 -63 -73 -111 q-45 -49 -123 -49h-49zM1163 1757q-63 0 -92 19q-27 18 -27 71q0 4 1.5 16t1.5 19q1 20 10 39l82 205q16 36 16 69q0 34 -16 46q-17 12 -33 12q-77 0 -121 35q-43 34 -43 129v307q0 95 43 129q44 35 121 35h332q77 0 121 -35q43 -34 43 -129v-328q-5 -51 -19 -90 q-17 -46 -31 -74l-143 -315q-28 -60 -74 -111q-45 -49 -123 -49h-49z" />
<glyph unicode="&#x201e;" horiz-adv-x="1789" d="M369 -496q-65 0 -93 19q-26 17 -26 71q0 5 2 35q1 20 10 39l82 205q16 36 16 70q0 33 -16 45t-33 12q-77 0 -121 35q-43 34 -43 129v307q0 95 43 129q44 35 121 35h332q77 0 121 -35q43 -34 43 -129v-328q-5 -51 -19 -90q-19 -50 -30 -73l-144 -316q-28 -61 -73 -110 q-45 -50 -123 -50h-49zM1163 -496q-63 0 -92 19q-27 18 -27 71q0 4 1.5 16t1.5 19q1 20 10 39l82 205q16 36 16 70q0 33 -16 45q-17 12 -33 12q-77 0 -121 35q-43 34 -43 129v307q0 95 43 129q44 35 121 35h332q77 0 121 -35q43 -34 43 -129v-328q-5 -51 -19 -90 q-16 -42 -31 -73l-143 -316q-27 -58 -74 -110q-45 -50 -123 -50h-49z" />
<glyph unicode="&#x2022;" horiz-adv-x="1363" d="M692 2081q125 0 236 -43q114 -44 198 -125q89 -86 140 -201q53 -120 53 -270q0 -131 -45 -248q-46 -119 -127 -203q-82 -85 -197 -135q-113 -49 -254 -49q-152 0 -272 55q-119 54 -203 146q-82 89 -127 204q-45 114 -45 230q0 128 49 244q48 114 135 204q86 89 203 140 t256 51z" />
<glyph unicode="&#x2026;" horiz-adv-x="4096" d="M516 0q-77 0 -121 35q-43 34 -43 129v307q0 95 43 129q44 35 121 35h332q77 0 121 -35q43 -34 43 -129v-307q0 -95 -43 -129q-44 -35 -121 -35h-332zM1884 0q-77 0 -121 35q-43 34 -43 129v307q0 95 43 129q44 35 121 35h332q77 0 121 -35q43 -34 43 -129v-307 q0 -95 -43 -129q-44 -35 -121 -35h-332zM3248 0q-77 0 -121 35q-43 34 -43 129v307q0 95 43 129q44 35 121 35h332q77 0 121 -35q43 -34 43 -129v-307q0 -95 -43 -129q-44 -35 -121 -35h-332z" />
<glyph unicode="&#x202f;" horiz-adv-x="745" />
<glyph unicode="&#x2039;" horiz-adv-x="765" d="M471 1069q0 -24 23 -41q22 -16 51 -33l24 -16q44 -31 60 -51q18 -22 18 -72v-397q0 -46 -22 -56q-21 -10 -35 -10q-23 0 -45 17q-11 9 -66 49l-323 274q-49 45 -66 86q-16 39 -16 103v295q0 63 16 102q17 41 66 86l323 274l66 50q20 16 45 16q14 0 35 -10q22 -10 22 -56 v-397q0 -50 -18 -72q-16 -20 -60 -51l-24 -16q-17 -15 -49 -35q-25 -16 -25 -39z" />
<glyph unicode="&#x203a;" horiz-adv-x="765" d="M291 1069q0 24 -23 41q-22 16 -51 33l-24 16q-44 31 -60 51q-18 22 -18 72v397q0 46 22 56q21 10 35 10q25 0 45 -16l66 -50l323 -274q49 -45 66 -86q16 -39 16 -102v-295q0 -64 -16 -103q-17 -41 -66 -86l-323 -274q-55 -40 -66 -49q-22 -17 -45 -17q-14 0 -35 10 q-22 10 -22 56v397q0 50 18 72q16 20 60 51l24 16q17 15 49 35q25 16 25 39z" />
<glyph unicode="&#x205f;" horiz-adv-x="929" />
<glyph unicode="&#x20ac;" horiz-adv-x="2220" d="M287 1524h-41q-77 0 -121 35q-43 34 -43 129v73q0 90 43 127t121 37h86q95 483 389 733q295 250 799 250q94 0 200 -24q110 -25 185 -45q66 -21 123 -60t57 -117q0 -26 -4 -41l-70 -319q-28 -143 -135 -143q-18 0 -61 8q-73 21 -146 33q-72 12 -149 12q-377 0 -484 -287 h566q76 0 120 -35q43 -34 43 -129v-73q0 -95 -43 -129q-44 -35 -120 -35h-631v-189h631q76 0 120 -35q43 -34 43 -129v-73q0 -95 -43 -129q-44 -35 -120 -35h-562q56 -143 172 -211q115 -68 308 -68q71 0 170 13q98 13 165 32q49 9 62 9q57 0 90 -35q33 -34 33 -109v-368 q0 -93 -45 -131q-44 -37 -119 -58q-68 -18 -170 -35q-85 -14 -186 -14q-499 0 -797 248q-296 247 -391 727h-86q-77 0 -121 35q-43 34 -43 129v73q0 90 43 127t121 37h41v99v90z" />
<glyph unicode="&#x2122;" horiz-adv-x="2818" d="M1720 1516q0 -82 -82 -82h-176q-82 0 -82 82v1269q0 82 82 82h156q51 0 74 -22q26 -25 49 -60l291 -434q24 -37 41 -37q9 0 16 6q8 7 25 31l290 434q23 36 47 60q22 22 76 22h152q82 0 82 -82v-1269q0 -82 -82 -82h-172q-82 0 -82 82v602q0 41 -33 41q-8 0 -14 -11 q-4 -7 -27 -30l-192 -254q-25 -29 -45 -49q-17 -17 -41 -17t-43 17q-27 25 -48 49l-192 254q-21 27 -23 30q-6 11 -18 11q-29 0 -29 -41v-602zM831 2482q0 66 70 66h291q82 0 82 82v155q0 82 -82 82h-1090q-82 0 -82 -82v-155q0 -82 82 -82h308q61 0 69 -58v-974 q0 -82 82 -82h189q81 0 81 82v966z" />
</font>
</defs>
</svg>
