<?xml version="1.0" encoding="UTF-8"?>
<svg width="16px" height="16px" viewBox="0 0 16 16" version="1.1" xmlns="http://www.w3.org/2000/svg" xmlns:xlink="http://www.w3.org/1999/xlink">
    <!-- Generator: Sketch 61.2 (89653) - https://sketch.com -->
    <title>icons/large/bonus-icon</title>
    <desc>Created with Sketch.</desc>
    <g id="icons/large/bonus-icon" stroke="none" stroke-width="1" fill="none" fill-rule="evenodd">
        <rect id="Rectangle" fill="#2797E6" x="0" y="0" width="16" height="16" rx="4"></rect>
        <path d="M6.96875001,7.92727273 C6.96875001,8.69090909 8.28125002,9.30909091 9.96875001,9.30909091 C11.65625,9.30909091 13,8.69090909 13,7.92727273 C13,7.16363636 11.6250001,6.54545455 9.96875001,6.54545455 C8.31250001,6.54545455 6.96875001,7.16363636 6.96875001,7.92727273 Z M9.96875002,9.96363636 C8.31250001,9.96363636 6.93750001,9.34545455 6.93750001,8.58181818 L6.93750001,9.23636364 C6.93750001,10 8.28125002,10.6181818 9.96875002,10.6181818 C11.65625,10.6181818 13,10 13,9.23636364 L13,8.58181818 C13,9.34545455 11.65625,9.96363636 9.96875002,9.96363636 Z M9.96875002,11.3454545 C8.31250001,11.3454545 6.93750001,10.7272727 6.93750001,9.96363636 L6.93750001,10.6181818 C6.93750001,11.3818182 8.28125002,12 9.96875002,12 C11.65625,12 13,11.3818182 13,10.6181818 L13,9.96363636 C13,10.7272727 11.65625,11.3454545 9.96875002,11.3454545 Z M6.0625,6.8 C7.71875001,6.8 9.09375002,6.18181818 9.09375002,5.41818182 C9.09375002,4.65454545 7.71875001,4 6.0625,4 C4.40625,4 3.03125,4.61818182 3.03125,5.38181818 C3.03125,6.14545455 4.375,6.8 6.0625,6.8 Z M6.0625,7.96363636 C6.24015704,7.96966164 6.41792527,7.95749355 6.59375001,7.92727273 C6.63354023,7.66471977 6.74279079,7.42317673 6.90625001,7.23636364 C6.62636569,7.2786694 6.34468642,7.30294883 6.0625,7.30909091 C4.375,7.30909091 3.03125,6.69090909 3.03125,5.89090909 L3.03125,6.54545455 C3.03125,7.34545455 4.375,7.96363636 6.0625,7.96363636 Z M6.0625,9.30909091 C6.24015704,9.31511619 6.41792527,9.30294809 6.59375001,9.27272727 L6.59375001,8.61818182 C6.43750001,8.61818182 6.25,8.65454545 6.0625,8.65454545 C4.375,8.61818182 3.03125,8 3.03125,7.23636364 L3.03125,7.89090909 C3.03125,8.65454545 4.375,9.30909091 6.0625,9.30909091 Z M6.56250001,10.0727273 L6.56250001,9.92727273 C6.40625001,9.92727273 6.21875001,9.96363636 6.03125001,9.96363636 C4.375,9.96363636 3,9.34545455 3,8.58181818 L3,9.23636364 C3,10 4.34375,10.6181818 6.03125001,10.6181818 C6.20890705,10.6242071 6.38667527,10.612039 6.56250001,10.5818182 L6.56250001,10.0727273 Z" id="path-1" fill="#FFFFFF"></path>
    </g>
</svg>