<?xml version="1.0" encoding="utf-8"?>
<!-- Generator: Adobe Illustrator 19.0.1, SVG Export Plug-In . SVG Version: 6.00 Build 0)  -->
<svg version="1.1" id="Layer_1" xmlns="http://www.w3.org/2000/svg" xmlns:xlink="http://www.w3.org/1999/xlink" x="0px" y="0px"
	 width="12px" height="12px" viewBox="0 0 12 12" enable-background="new 0 0 12 12" xml:space="preserve">
<path fill-rule="evenodd" clip-rule="evenodd" fill="#999999" d="M9.8,0H2.2C1,0,0,1,0,2.2v7.6C0,11,1,12,2.2,12h7.6
	C11,12,12,11,12,9.8V2.2C12,1,11,0,9.8,0z M9.1,8.3L8.3,9.1L6,6.8L3.7,9.1L2.9,8.3L5.2,6L2.9,3.7l0.8-0.8L6,5.2l2.3-2.3l0.8,0.8
	L6.8,6L9.1,8.3z"/>
</svg>
