<?xml version="1.0" encoding="utf-8"?>
<svg version="1.1" xmlns="http://www.w3.org/2000/svg" xmlns:xlink="http://www.w3.org/1999/xlink" x="0px" y="0px"
	 width="12px" height="12px" viewBox="-464 266 12 12" enable-background="new -464 266 12 12" xml:space="preserve">
<g id="Settings">
	<g>
		<path fill="#303030" d="M-452,271.4c0-0.2-0.2-0.3-0.4-0.3c-0.6,0-1-0.3-1.2-0.8c-0.2-0.5-0.1-1.1,0.3-1.5c0.1-0.1,0.2-0.3,0-0.4
			c-0.3-0.4-0.6-0.7-1-1c-0.1-0.1-0.3-0.1-0.4,0c-0.4,0.4-1,0.6-1.5,0.3c-0.5-0.2-0.8-0.8-0.8-1.3c0-0.2-0.1-0.3-0.3-0.4
			c-0.4,0-0.9,0-1.4,0c-0.2,0-0.3,0.2-0.3,0.4c0,0.6-0.3,1.1-0.8,1.3c-0.5,0.2-1.1,0-1.5-0.3c-0.1-0.1-0.3-0.2-0.4,0
			c-0.4,0.3-0.7,0.6-1,1c-0.1,0.1-0.1,0.3,0,0.4c0.4,0.4,0.6,1,0.3,1.5c-0.2,0.5-0.7,0.8-1.3,0.8c-0.2,0-0.3,0.1-0.4,0.3
			c0,0.4,0,0.9,0,1.4c0,0.2,0.2,0.3,0.4,0.3c0.5,0,1,0.3,1.2,0.8s0.1,1.1-0.3,1.5c-0.1,0.1-0.2,0.3,0,0.4c0.3,0.4,0.6,0.7,1,1
			c0.1,0.1,0.3,0.1,0.4,0c0.4-0.4,1-0.6,1.5-0.3c0.5,0.2,0.8,0.8,0.8,1.3c0,0.2,0.1,0.3,0.3,0.4c0.2,0,0.4,0,0.7,0
			c0.2,0,0.4,0,0.6,0c0.2,0,0.3-0.2,0.3-0.4c0-0.6,0.3-1.1,0.8-1.3c0.5-0.2,1.1,0,1.5,0.3c0.1,0.1,0.3,0.2,0.4,0
			c0.4-0.3,0.7-0.6,1-1c0.1-0.1,0.1-0.3,0-0.4c-0.4-0.4-0.6-1-0.3-1.5c0.2-0.5,0.7-0.8,1.2-0.8h0.1c0.2,0,0.3-0.1,0.4-0.3
			C-452,272.3-452,271.8-452,271.4z M-458,274c-1.1,0-2-0.9-2-2c0-1.1,0.9-2,2-2c1.1,0,2,0.9,2,2C-456,273.2-456.9,274-458,274z"/>
	</g>
</g>
</svg>
