<svg width="25" height="25" viewBox="0 0 25 25" fill="none" xmlns="http://www.w3.org/2000/svg">
<path d="M11.4552 0.786743C14.4343 0.786743 16.8639 3.17474 16.8639 6.11473V11.8627H9.53837C9.01337 11.8627 8.59825 12.2707 8.59825 12.7867C8.59825 13.2907 9.01337 13.7107 9.53837 13.7107H16.8639V19.4467C16.8639 22.3867 14.4343 24.7867 11.4308 24.7867H5.48488C2.49361 24.7867 0.0639648 22.3987 0.0639648 19.4587V6.12673C0.0639648 3.17474 2.50582 0.786743 5.49709 0.786743H11.4552ZM19.9122 8.64697C20.2722 8.27497 20.8602 8.27497 21.2202 8.63497L24.7242 12.127C24.9042 12.307 25.0002 12.535 25.0002 12.787C25.0002 13.027 24.9042 13.267 24.7242 13.435L21.2202 16.927C21.0402 17.107 20.8002 17.203 20.5722 17.203C20.3322 17.203 20.0922 17.107 19.9122 16.927C19.5522 16.567 19.5522 15.979 19.9122 15.619L21.8322 13.711H16.8642V11.863H21.8322L19.9122 9.95497C19.5522 9.59497 19.5522 9.00697 19.9122 8.64697Z" fill="#F5F5F5"/>
</svg>
