<svg width="29" height="29" viewBox="0 0 29 29" fill="none" xmlns="http://www.w3.org/2000/svg">
<g clip-path="url(#clip0_74_12)">
<path d="M9.174 19.4384V11.5654H7.35345V9.54762H11.6851V19.4384H9.174Z" fill="#fff"/>
<path d="M21.1243 12.1015C21.1243 12.9623 20.6588 13.7239 19.8825 14.1472C20.9687 14.5988 21.6461 15.5439 21.6461 16.6446C21.6461 18.4225 20.0658 19.5514 17.597 19.5514C15.1281 19.5514 13.5473 18.4366 13.5473 16.6872C13.5473 15.5581 14.2812 14.5988 15.4238 14.1472C14.5915 13.6817 14.0554 12.8916 14.0554 12.0308C14.0554 10.4505 15.438 9.4487 17.5828 9.4487C19.7275 9.4487 21.1243 10.4786 21.1243 12.1015ZM15.9177 16.4331C15.9177 17.2654 16.5106 17.7313 17.5971 17.7313C18.6835 17.7313 19.2901 17.2796 19.2901 16.4331C19.2901 15.5866 18.6834 15.1491 17.5971 15.1491C16.5107 15.1491 15.9177 15.6146 15.9177 16.4331ZM16.1718 12.2422C16.1718 12.948 16.6798 13.3429 17.597 13.3429C18.5142 13.3429 19.0217 12.9481 19.0217 12.2422C19.0217 11.5364 18.5141 11.0995 17.597 11.0995C16.6799 11.0995 16.1718 11.509 16.1718 12.2422Z" fill="#fff"/>
<path d="M25.8253 10.6642C26.2429 11.8965 26.4548 13.1856 26.4548 14.5003C26.4548 21.0919 21.092 26.4549 14.4997 26.4549C7.90745 26.4549 2.54519 21.0918 2.54519 14.5002C2.54519 7.90851 7.90798 2.54519 14.4997 2.54519C15.8147 2.54519 17.1034 2.75706 18.3358 3.17472V0.514104C17.0914 0.173044 15.8057 0 14.4997 0C6.50483 0 0 6.50483 0 14.5002C0 22.4955 6.50483 28.9999 14.4997 28.9999C22.4946 28.9999 28.9999 22.4951 28.9999 14.5002C28.9999 13.1942 28.8269 11.9089 28.4858 10.6641H25.8252L25.8253 10.6642Z" fill="#fff"/>
<path d="M25.102 3.88985V1.10957H23.1027V3.88985H20.3389V5.88908H23.1027V8.66926H25.102V5.88908H27.8821V3.88985H25.102Z" fill="#fff"/>
</g>
<defs>
<clipPath id="clip0_74_12">
<rect width="29" height="29" fill="white"/>
</clipPath>
</defs>
</svg>
