<?xml version="1.0" encoding="utf-8"?>
<!-- Generator: Adobe Illustrator 19.0.1, SVG Export Plug-In . SVG Version: 6.00 Build 0)  -->
<svg version="1.1" id="Your_Icon" xmlns="http://www.w3.org/2000/svg" xmlns:xlink="http://www.w3.org/1999/xlink" x="0px" y="0px"
	 width="12px" height="12px" viewBox="-208.3 375.6 12 12" enable-background="new -208.3 375.6 12 12" xml:space="preserve">
<path fill="#CCCCCC" d="M-196.5,386.6l-3.3-3.2c0.7-0.8,1.1-1.8,1.1-3c0-2.6-2.2-4.8-4.8-4.8c-2.7,0-4.8,2.1-4.8,4.8
	s2.2,4.8,4.8,4.8c1.1,0,2.1-0.4,2.9-1l3.3,3.2c0.1,0.1,0.3,0.2,0.4,0.2c0.2,0,0.3-0.1,0.4-0.2C-196.3,387.2-196.3,386.8-196.5,386.6
	z M-207.1,380.4c0-2,1.6-3.6,3.6-3.6c2,0,3.6,1.6,3.6,3.6c0,2-1.6,3.6-3.6,3.6C-205.5,384-207.1,382.4-207.1,380.4z"/>
</svg>
