<svg xmlns="http://www.w3.org/2000/svg" width="30" height="30" viewBox="0 0 30 30">
    <g fill="none" fill-rule="nonzero">
        <path fill="#B8B8B8" d="M15 21.758c-.61 0-1.108.48-1.15 1.088h-.004v5.984c0 .647.516 1.17 1.154 1.17.638 0 1.154-.523 1.154-1.17v-5.984h-.004A1.16 1.16 0 0 0 15 21.758zm7.921 4.556l-2.983-5.045-.004.001a1.183 1.183 0 0 0-1.55-.348c-.532.301-.73.95-.464 1.484l-.003.001.04.068v.003c.002 0 .002 0 .002.002l2.94 4.97v.003c.323.544 1.036.73 1.595.417a1.126 1.126 0 0 0 .427-1.556zM2.548 9.1l4.972 2.94.004.002.002.002.068.041v-.004c.54.268 1.195.062 1.485-.466a1.183 1.183 0 0 0-.349-1.549c.002 0 .002-.002.003-.002L3.687 7.08a1.124 1.124 0 0 0-1.556.426 1.182 1.182 0 0 0 .417 1.593V9.1z"/>
        <path fill="#171717" d="M27.453 20.9l-5.045-2.984-.002.004a1.125 1.125 0 0 0-1.484.464c-.3.53-.149 1.2.349 1.55l-.003.003.068.04.003.001c.001 0 .001.002.003.002l4.97 2.94h.001a1.124 1.124 0 0 0 1.556-.427 1.183 1.183 0 0 0-.416-1.593z"/>
        <path fill="#B8B8B8" d="M7.072 16.154h.082v-.004A1.16 1.16 0 0 0 8.242 15c0-.608-.48-1.108-1.088-1.15v-.004H1.17C.524 13.846 0 14.364 0 15c0 .637.524 1.154 1.17 1.154h5.902zm1.589 3.824l.002-.002.068-.039-.001-.003c.49-.339.649-1.015.349-1.55a1.127 1.127 0 0 0-1.486-.464v-.004l-5.045 2.983a1.183 1.183 0 0 0-.417 1.594c.314.56 1.01.749 1.556.428L8.66 19.98s0-.002.002-.002h-.001z"/>
        <path fill="#4F4F4F" d="M21.268 10.063s0 .002.003.002a1.184 1.184 0 0 0-.35 1.55c.302.534.952.73 1.485.465l.002.004.067-.04.002-.003.003-.002 4.97-2.938s.002 0 .003-.002c.544-.321.73-1.034.417-1.593a1.125 1.125 0 0 0-1.557-.426l-5.045 2.983z"/>
        <path fill="#B8B8B8" d="M11.615 20.922c-.53-.3-1.2-.15-1.55.348l-.003-.001-2.983 5.045c-.321.544-.13 1.24.427 1.556.557.315 1.263.13 1.594-.417v-.002l2.94-4.97c0-.003 0-.003.002-.003v-.003l.04-.067c0-.002-.001-.002-.002-.002a1.123 1.123 0 0 0-.465-1.484z"/>
        <path fill="#949494" d="M15 0c-.638 0-1.154.525-1.154 1.172v5.984h.004A1.16 1.16 0 0 0 15 8.242c.61 0 1.109-.479 1.15-1.086h.004V1.172C16.154.525 15.637 0 15 0z"/>
        <path fill="#B8B8B8" d="M7.08 3.69l2.94 4.97h.001s0 .003.002.003l.039.069.004-.002a1.183 1.183 0 0 0 1.549.348c.533-.301.732-.952.465-1.485h.003L9.1 2.548a1.18 1.18 0 0 0-1.594-.417 1.125 1.125 0 0 0-.427 1.556l.002.002-.001.001z"/>
        <path fill="#2A2A2A" d="M28.83 13.846h-5.986l.001.004A1.161 1.161 0 0 0 21.758 15c0 .61.48 1.11 1.087 1.15v.004h5.985c.646 0 1.17-.516 1.17-1.154 0-.636-.523-1.154-1.17-1.154z"/>
        <path fill="#747474" d="M18.385 9.078c.534.3 1.21.143 1.55-.348 0 0 0 .002.003.002l.04-.07v-.001c.002 0 .003-.002.003-.002l2.939-4.972h.001a1.125 1.125 0 0 0-.427-1.556 1.18 1.18 0 0 0-1.594.417l-2.983 5.045s.002 0 .003.002a1.125 1.125 0 0 0 .465 1.483z"/>
    </g>
</svg>
