<?xml version="1.0" encoding="utf-8"?><!DOCTYPE svg PUBLIC "-//W3C//DTD SVG 1.1//EN" "http://www.w3.org/Graphics/SVG/1.1/DTD/svg11.dtd"><svg xmlns="http://www.w3.org/2000/svg" xmlns:xlink="http://www.w3.org/1999/xlink"><symbol viewBox="0 0 100 100" id="icons-chevron" xmlns="http://www.w3.org/2000/svg"><path d="M68.496.028L18.44 50.083l48.81 50.055 12.514-12.514-36.296-37.541 37.543-37.542L68.496.028z"/></symbol><symbol viewBox="0 0 100 100" id="sports-american-football" xmlns="http://www.w3.org/2000/svg"><path d="M93.75 0H75c-3.82 0-7.58.289-11.248.842l27.91 27.917a3.325 3.325 0 0 1-2.355 5.683c-.853 0-1.709-.32-2.358-.968L55.934 2.456C29.835 9.289 9.289 29.835 2.45 55.934l31.009 31.015a3.327 3.327 0 0 1 0 4.714 3.331 3.331 0 0 1-2.355.977c-.847 0-1.703-.33-2.356-.977L.882 63.787C.339 67.452 0 71.191 0 75v18.75L6.25 100H25c41.418 0 75-33.582 75-75V6.25L93.75 0zM51.66 71.243a3.33 3.33 0 0 1-4.713 0L28.982 53.269a3.324 3.324 0 0 1 0-4.713 3.33 3.33 0 0 1 4.712 0L51.66 66.524a3.33 3.33 0 0 1 0 4.719zm11.11-11.11a3.336 3.336 0 0 1-2.357.977c-.854 0-1.697-.33-2.355-.977l-17.97-17.968a3.341 3.341 0 0 1 0-4.718c1.3-1.3 3.412-1.3 4.715 0L62.77 55.42a3.328 3.328 0 0 1 0 4.713zm11.107-11.11a3.281 3.281 0 0 1-2.358.977 3.343 3.343 0 0 1-2.354-.977l-17.97-17.967a3.354 3.354 0 0 1 0-4.718 3.34 3.34 0 0 1 4.713 0l17.969 17.976a3.318 3.318 0 0 1 0 4.709z"/></symbol><symbol viewBox="0 0 100 100" id="sports-australian-rules" xmlns="http://www.w3.org/2000/svg"><path d="M52.068 36.703L37.109 51.65v3.906l5.529 5.518h3.906l14.947-14.942v-3.909l-5.518-5.521h-3.905zM93.75 0H75.006C33.582 0 0 33.582 0 75v18.75L6.25 100H25c41.424 0 75-33.582 75-75V6.25L93.75 0zM12.761 92.371l-4.712-4.716 18.904-18.908 4.712 4.719-18.904 18.905zm55.403-43.482L49.305 67.742h-9.426l-9.425-9.43v-9.424l18.852-18.859h9.438l9.427 9.424v9.436h-.007zm6.818-18.745l-4.716-4.717L89.172 6.53l4.713 4.71-18.903 18.904z"/></symbol><symbol viewBox="0 0 100 100" id="sports-baseball" xmlns="http://www.w3.org/2000/svg"><path d="M96.436 45.432L80.688 61.179l6.117 6.104a3.34 3.34 0 0 1 0 4.725 3.343 3.343 0 0 1-2.363.971 3.334 3.334 0 0 1-2.355-.971l-6.109-6.117L65.559 76.31H34.436L24.018 65.89l-6.109 6.117c-.652.646-1.502.971-2.355.971s-1.703-.324-2.357-.971a3.34 3.34 0 0 1 0-4.725l6.112-6.104L3.567 45.432A46.255 46.255 0 0 0 3.332 50c0 25.77 20.894 46.668 46.668 46.668 25.77 0 46.668-20.898 46.668-46.668 0-1.544-.086-3.064-.232-4.568zM50 6.25c24.121 0 43.75 19.629 43.75 43.75S74.121 93.75 50 93.75 6.25 74.121 6.25 50 25.879 6.25 50 6.25M50 0C22.388 0 0 22.385 0 50c0 27.613 22.388 50 50 50 27.613 0 50-22.387 50-50 0-27.615-22.387-50-50-50zm28.292 31.091l9.837-9.843 4.717 4.715-9.841 9.843-4.713-4.715zm-2.925 16.333c.454-3.003 1.818-5.792 4.016-7.982l.46-.477-4.711-4.712-.477.474A20.935 20.935 0 0 0 68.6 47.421h6.767v.003zm0 4.443h-6.764c.5 4.813 2.6 9.254 6.055 12.707l1.318 1.31 4.716-4.711-1.31-1.31a14.238 14.238 0 0 1-4.015-7.996zM17.271 36.083l-7.893-7.897 4.715-4.712 7.892 7.897-4.714 4.712zm7.361 11.341h6.774a20.949 20.949 0 0 0-6.065-12.694l-.207-.207-4.714 4.712.204.207c2.19 2.19 3.553 4.97 4.008 7.982zm0 4.443a14.273 14.273 0 0 1-4.015 8.002l-1.312 1.31 4.712 4.716 1.312-1.312a20.862 20.862 0 0 0 6.064-12.702h-6.761v-.014z"/></symbol><symbol viewBox="0 0 100 100" id="sports-basketball" xmlns="http://www.w3.org/2000/svg"><path d="M53.344 46.653h15.43a20.977 20.977 0 0 1 5.969-11.981l15.085-15.086C81.302 8.436 68.223.982 53.344 0v46.653zm22.202 0h24.448c-.512-7.741-2.746-15.004-6.383-21.392L79.469 39.4a14.437 14.437 0 0 0-3.923 7.253zM25.253 34.672a20.995 20.995 0 0 1 5.971 11.981h15.428V0C31.78.982 18.694 8.436 10.168 19.586l15.085 15.086zm-.806 11.981a14.372 14.372 0 0 0-3.918-7.253L6.382 25.259C2.75 31.654.511 38.912 0 46.653h24.447zm51.311 6.689c.645 2.447 1.873 4.717 3.711 6.559l7.457 7.443a3.337 3.337 0 0 1 0 4.731 3.354 3.354 0 0 1-2.373.981 3.351 3.351 0 0 1-2.354-.981l-7.457-7.448a20.974 20.974 0 0 1-5.87-11.285H53.35v46.655c25.028-1.66 44.996-21.623 46.65-46.655H75.758zm-29.106 0H31.126a21.024 21.024 0 0 1-5.871 11.285l-7.459 7.448c-.646.646-1.5.981-2.355.981a3.385 3.385 0 0 1-2.374-.981 3.346 3.346 0 0 1 0-4.731l7.459-7.443c1.838-1.842 3.059-4.107 3.712-6.562H0C1.656 78.368 21.624 98.342 46.652 100V53.342z"/></symbol><symbol viewBox="0 0 100 100" id="sports-boxing" xmlns="http://www.w3.org/2000/svg"><path fill="#1E1E1E" d="M84.594 26.47L67.297 9.1c-6.106-6.133-16.004-6.133-22.094 0-5.056 5.071-5.859 12.699-2.55 18.676h-.073l7.438 7.471a3.167 3.167 0 0 1 0 4.475 3.14 3.14 0 0 1-4.45 0L27.526 21.603C11.664 25.998 0 40.527 0 57.848 0 78.632 16.797 95.5 37.5 95.5h20.117v-.069c7.141-.257 13.77-2.488 19.348-6.206H100V26.47H84.594zm6.054 47.068c0 1.737-1.414 3.158-3.148 3.158s-3.148-1.421-3.148-3.158V42.16c0-1.743 1.414-3.164 3.148-3.164s3.148 1.42 3.148 3.164v31.378z"/></symbol><symbol viewBox="0 0 100 100" id="sports-cricket" xmlns="http://www.w3.org/2000/svg"><path d="M50 0c-6.511 0-12.727 1.288-18.427 3.553L88.58 60.559a3.343 3.343 0 0 1 0 4.716 3.34 3.34 0 0 1-2.361.977c-.85 0-1.7-.324-2.355-.977L25.206 6.618a49.917 49.917 0 0 0-8.091 5.785l62.952 62.951a3.326 3.326 0 0 1 0 4.713 3.307 3.307 0 0 1-2.355.977 3.304 3.304 0 0 1-2.357-.977L12.402 17.111a49.66 49.66 0 0 0-5.773 8.088L65.28 83.863a3.322 3.322 0 0 1 0 4.717 3.292 3.292 0 0 1-2.355.971c-.855 0-1.7-.33-2.369-.971L3.564 31.564C1.288 37.273 0 43.489 0 50c0 27.613 22.388 50 50 50 27.613 0 50-22.387 50-50 0-27.615-22.387-50-50-50z"/></symbol><symbol viewBox="0 0 100 100" id="sports-cycling" xmlns="http://www.w3.org/2000/svg"><path d="M57.903 0c-1.071 0-2.117.082-3.161.157V0H1v18.885l15.597 15.492H1V100H58.834l15.388-15.094H89.52V56.434l1.865-1.844.005-.012v.012L99 47.059v-6.435C99 18.188 80.602 0 57.903 0zM23.13 65.734l-.099-.109h.099v.109zm6.32-25.11h22.867L29.45 63.227V40.624zm53.745 38.032H71.623L53.775 96.151 29.483 72.033l29.089-28.749 9.947 9.84h-7.455v9.766l12.012 11.883 8.671-8.568 1.444 1.422v11.029h.004zm3.729-28.473l-3.001 2.942-.728.718v4.946L64.819 40.624h12.447l9.669 9.559h-.011z"/></symbol><symbol viewBox="0 0 100 100" id="sports-darts" xmlns="http://www.w3.org/2000/svg"><path d="M100 3.5v46.501L81.25 68.6V55.642l1.281-1.271 1.844-1.798V3.5H100zM75 61.842V96.5h-6.25V68.042l6.25-6.2zM78.125 3.5v46.501L59.375 68.6V55.642l1.281-1.271 1.843-1.798V3.5h15.626zm-25 58.342V96.5h-6.249V68.042l6.249-6.2zM56.25 3.5v46.501L37.5 68.6V28.3H18.75v40.3L0 50.001V3.5h18.75l9.374 9.301L37.5 3.5h18.75zM25 34.502h6.25V96.5H25V34.502z"/></symbol><symbol viewBox="0 0 100 100" id="sports-football" xmlns="http://www.w3.org/2000/svg"><path d="M85.352 14.647c-19.525-19.529-51.182-19.529-70.709 0-19.523 19.526-19.523 51.184 0 70.709 19.533 19.524 51.184 19.524 70.709 0 19.531-19.53 19.531-51.183 0-70.709zm5.02 52.161l-8.53.472c-2.068-4.809-4.122-9.68-6.187-14.6l4.782-18.021c3.044-1.132 6.062-2.239 9.067-3.333 5.268 11.176 5.582 24.117.868 35.482zm-38.264 7.353l-16.483 2.397a458.359 458.359 0 0 1-11.206-11.192l2.616-17.871c4.897-.92 9.87-1.904 14.91-2.942l13.349 13.345a881.248 881.248 0 0 0-3.186 16.263zm5.423-18.448l-13.39-13.386a882.55 882.55 0 0 0 2.99-14.139l17.753-6.409a512.019 512.019 0 0 1 12.439 12.442l-4.868 18.342c-4.9.99-9.883 2.044-14.924 3.15zm11.087-45.246a2413.437 2413.437 0 0 1-3.067 7.745l-17.685 6.383.021-.109c-5.153-2.161-10.266-4.305-15.297-6.475l.461-8.317c11.38-4.768 24.356-4.49 35.567.773zm-49.557 8.6a43.588 43.588 0 0 1 10.773-7.884l-.351 6.312A7271.254 7271.254 0 0 1 18.88 27.858l-6.943.655c1.905-3.378 4.251-6.572 7.124-9.446zm-8.794 12.74l6.267-.592c2.421 5.546 4.802 11.214 7.203 16.91l.043-.008-2.32 15.843c-3.78 1.401-7.53 2.78-11.245 4.127a43.903 43.903 0 0 1 .052-36.28zM31.942 89.8a1609.73 1609.73 0 0 1 4.003-10.125l17.992-2.619c4.946 2.082 9.872 4.162 14.697 6.268l-.608 6.49a43.898 43.898 0 0 1-36.084-.014zm48.992-8.862c-2.924 2.924-6.178 5.309-9.621 7.229l.675-7.183c3.452-3.536 6.904-7.066 10.365-10.607l6.532-.361a43.483 43.483 0 0 1-7.951 10.922z"/></symbol><symbol viewBox="0 0 100 100" id="sports-gaelic-games" xmlns="http://www.w3.org/2000/svg"><path d="M100 87.774a49.672 49.672 0 0 0-10.406-27.075c.025-.559.043-1.113.043-1.684 0-11.626-5.078-22.094-13.127-29.331l.012-.013a39.444 39.444 0 0 0-8.187-5.653 50.06 50.06 0 0 0-18.329-22.51H50l-.006-.008a49.978 49.978 0 0 0-18.329 22.519c-12.642 6.596-21.283 19.785-21.303 34.948v.063c0 .309.005.619.011.936 0 .107.006.211.013.329 0 .132.005.266.011.405A49.703 49.703 0 0 0 0 87.774h.006a50.536 50.536 0 0 0 21.901 5.024c2.325 0 4.608-.16 6.843-.464A39.5 39.5 0 0 0 50.003 98.5c7.655 0 14.979-2.153 21.288-6.162 2.215.301 4.498.456 6.803.456 7.539 0 15.11-1.734 21.906-5.02h-.012.012zM22.144 69.106a29.749 29.749 0 0 1-1.367-5.183 36.736 36.736 0 0 1 1.874-1.849 40.177 40.177 0 0 1 7.275-5.368c2.289 7.896 6.488 14.985 12.056 20.752a39.935 39.935 0 0 1-10.85 4.305 29.527 29.527 0 0 1-8.988-12.657zm17.515-37.755A29.759 29.759 0 0 1 50 29.502c1.76 0 3.479.148 5.145.45 1.344.23 2.668.557 3.955.973.044.011.092.021.131.037.293.104.572.192.84.299.039.012.067.017.092.03.062.02.115.043.18.06a39.978 39.978 0 0 1 1.688 11.503 50.687 50.687 0 0 0-12.035-1.453c-4.103 0-8.138.5-12.039 1.453a40.185 40.185 0 0 1 1.702-11.503zM50 71.383c-5.139-5.025-8.936-11.41-10.779-18.56A40.424 40.424 0 0 1 50 51.365c3.68 0 7.3.498 10.779 1.458-1.843 7.15-5.64 13.534-10.779 18.56zm22.521 6.808c-.066.078-.128.146-.189.215a27.367 27.367 0 0 1-1.385 1.48c-.488.494-1.002.973-1.526 1.428-.05.05-.098.086-.142.119-.129.126-.271.229-.396.344a40.248 40.248 0 0 1-10.865-4.312c5.574-5.772 9.765-12.861 12.057-20.752a40.136 40.136 0 0 1 7.275 5.362 44.426 44.426 0 0 1 1.89 1.867 29.266 29.266 0 0 1-6.719 14.249zm-.609-31.783c.006-.115.006-.237.018-.359.012-.187.031-.387.045-.581h-.014c.051-.864.072-1.729.072-2.605 0-1.25-.051-2.494-.143-3.729a29.45 29.45 0 0 1 6.367 10.941 52.001 52.001 0 0 0-6.345-3.667zM86.438 74.58a38.833 38.833 0 0 1 2.43 6.79 40.111 40.111 0 0 1-7.129 1.3 38.879 38.879 0 0 0 4.699-8.09zM50 19.534c-1.585 0-3.157.101-4.7.292a38.935 38.935 0 0 1 4.7-5.514 39.471 39.471 0 0 1 4.7 5.511 38.613 38.613 0 0 0-4.7-.289zM28.088 46.408a50.465 50.465 0 0 0-6.335 3.667 29.609 29.609 0 0 1 6.362-10.937 48.98 48.98 0 0 0-.027 7.27zM13.562 74.557a40.393 40.393 0 0 0 4.717 8.119 40.583 40.583 0 0 1-7.146-1.303 39.574 39.574 0 0 1 2.429-6.816zm36.432 9.646l.797.539.005-.012a49.453 49.453 0 0 0 5.574 3.127c-2.073.453-4.2.677-6.37.677-2.186 0-4.309-.238-6.371-.677a49.486 49.486 0 0 0 6.365-3.654z"/></symbol><symbol viewBox="0 0 100 100" id="sports-generic-icon" xmlns="http://www.w3.org/2000/svg"><path d="M30.711 28.124l-15.087 15.09v13.57L25 66.159V37.5h50v28.659l9.375-9.375v-13.57l-15.091-15.09H30.711zm.539 15.626h37.5v28.125h-37.5V43.75zM75 15.624H25l-25 25V75l25 25h50l25-25V40.624l-25-25zm15.625 43.751l-18.75 18.75H28.124l-18.75-18.75V40.626l18.75-18.75h43.751l18.75 18.75v18.749zM25 12.5V0l6.25 6.25L25 12.5zm15.624 0V0l6.253 6.25-6.253 6.25zm15.626 0V0l6.25 6.25-6.25 6.25zm15.625 0V0l6.25 6.25-6.25 6.25z"/></symbol><symbol viewBox="0 0 100 100" id="sports-golf" xmlns="http://www.w3.org/2000/svg"><path d="M50 0C22.388 0 0 22.385 0 50s22.388 50 50 50c27.615 0 50-22.385 50-50S77.615 0 50 0zM25 86.664c-2.759 0-5-2.24-5-5 0-2.761 2.242-5.002 5-5.002s4.998 2.241 4.998 5.002c0 2.766-2.239 5-4.998 5zm16.667 0a5.005 5.005 0 0 1-4.998-5 5.008 5.008 0 0 1 4.998-5.002 5 5 0 1 1 0 10.002zm16.665 0a5 5 0 1 1 0-10.002 5 5 0 0 1 4.998 5.002 5 5 0 0 1-4.998 5zm16.668 0a5 5 0 0 1 0-10.002 5.004 5.004 0 0 1 4.998 5.002c0 2.766-2.239 5-4.998 5zm11.664-21.661a5.003 5.003 0 0 1-5 4.999 5.003 5.003 0 0 1-5.002-4.999c0-.597.12-1.147.305-1.67H69.69c.183.525.312 1.084.312 1.67a5.005 5.005 0 0 1-5.01 4.999A4.995 4.995 0 0 1 60 65.003c0-.597.115-1.147.306-1.67h-7.291a4.8 4.8 0 0 1 .309 1.67 5.002 5.002 0 0 1-10.002 0c0-.597.124-1.147.306-1.67H36.35c.183.525.306 1.084.306 1.67a5.005 5.005 0 0 1-5.005 4.999 4.995 4.995 0 0 1-4.992-4.999c0-.597.124-1.147.306-1.67h-7.289c.194.525.312 1.073.312 1.67a5.003 5.003 0 0 1-10.005 0c0-.597.126-1.147.306-1.67H8.852a42.4 42.4 0 0 1-1.651-6.803c.36.075.731.126 1.129.126a4.996 4.996 0 1 0 0-9.993c-.524 0-1.033.096-1.506.255.774-11.062 5.683-20.958 13.221-28.185.215 2.562 2.338 4.597 4.956 4.597a5.003 5.003 0 0 0 4.998-5.006c0-2.214-1.459-4.077-3.454-4.735C33.307 9.23 41.347 6.665 50 6.665c8.646 0 16.693 2.565 23.462 6.941-2.001.653-3.46 2.509-3.46 4.729A5.006 5.006 0 0 0 75 23.338c2.621 0 4.745-2.026 4.957-4.594 7.537 7.221 12.443 17.126 13.219 28.18-.477-.148-.982-.256-1.508-.256a5.006 5.006 0 0 0-5.004 5.002 4.998 4.998 0 0 0 6.133 4.86 43.245 43.245 0 0 1-1.66 6.803h-4.785a4.78 4.78 0 0 1 .312 1.67zM41.667 13.336a5.002 5.002 0 1 1 0 10.005 5.003 5.003 0 0 1 0-10.005zm16.665 0a5.002 5.002 0 1 1 0 10.005 5.003 5.003 0 0 1 0-10.005zM48.33 29.998a5.002 5.002 0 1 1 0 10.006 5.002 5.002 0 0 1 0-10.006zm-33.327 0a5.002 5.002 0 1 1 0 10.006 5.002 5.002 0 0 1 0-10.006zm16.662 0a5.002 5.002 0 1 1 0 10.006 5.002 5.002 0 0 1 0-10.006zm33.327 0A5.002 5.002 0 1 1 59.988 35a5.003 5.003 0 0 1 5.004-5.002zm16.672 0a5.002 5.002 0 1 1 .002 10.004 5.002 5.002 0 0 1-.002-10.004zm-39.997 16.67a4.997 4.997 0 1 1 0 9.994 4.998 4.998 0 1 1 0-9.994zm-16.667 0a4.997 4.997 0 1 1 0 9.994 4.997 4.997 0 1 1 0-9.994zm33.332 0a4.997 4.997 0 0 1 0 9.994 4.998 4.998 0 1 1 0-9.994zm16.668 0a4.997 4.997 0 1 1 0 9.994 4.998 4.998 0 1 1 0-9.994z"/></symbol><symbol viewBox="0 0 100 100" id="sports-greyhound-racing" xmlns="http://www.w3.org/2000/svg"><path d="M96.875 31.2V15.534H68.753L56.253 3H28.124l-9.374 9.399v-.512h-5.006L2.806 22.854v7.833h13.323L5.736 41.106C2.17 45.436 0 50.984 0 57.051c0 .797.05 1.578.121 2.352H0v9.4h.215A25.212 25.212 0 0 0 0 71.936C0 85.777 11.194 97 25 97s25-11.223 25-25.064a25.7 25.7 0 0 0-.211-3.133H50V50h28.125l18.75-18.8zM53.123 18.666h-12.5l6.253-6.267h6.25l6.25 6.267h-6.253zm26.076 37.602H56.25V97H75V78.2h-9.377L75 68.8h6.25V97H100V77.122L79.199 56.268z"/></symbol><symbol viewBox="0 0 100 100" id="sports-handball" xmlns="http://www.w3.org/2000/svg"><circle fill="none" cx="50" cy="50" r="50"/><circle fill="none" cx="50" cy="50" r="50"/><path d="M9.439 23l-.957-.876c4.564-6.848 10.85-12.335 18.151-16.225l.367.194v7.812L17.249 23h-7.81zm36.655 10L37 42.762v7.812L46.094 60h7.811L63 50.573v-7.812L53.905 33h-7.811zM91 23v.33l.824-1.041c-4.572-6.847-11.062-12.5-18.346-16.392L73 6.091v7.812L82.761 23H91zm6 43.986v-.006c-1 2.25-1.814 4.414-2.928 6.5l.04.055a50.186 50.186 0 0 1-16.405 18.078l-.05-.049a49.878 49.878 0 0 1-10.875 5.494 8.898 8.898 0 0 1-.39.127 53.059 53.059 0 0 1-4.555 1.35c-.305.074-.609.155-.92.227a51.878 51.878 0 0 1-4.29.75c-.388.052-.781.121-1.178.172A50.21 50.21 0 0 1 50 100c-1.843 0-3.656-.121-5.455-.321-.388-.046-.78-.115-1.17-.173a47.606 47.606 0 0 1-4.296-.752c-.3-.063-.609-.145-.915-.23a47.556 47.556 0 0 1-4.556-1.344c-.132-.035-.268-.069-.402-.133a49.81 49.81 0 0 1-10.856-5.476l-.042.042A50.187 50.187 0 0 1 5.904 73.535l.043-.044a49.672 49.672 0 0 1-2.917-6.517l-.005.006C1.108 61.67.008 55.97.008 50c0-7.776 1.826-15.104 4.984-21.673L6.672 30h13.332L33 16.665V3.329l-.104-.312C38.205 1.103 44.109 0 50.082 0c5.967 0 11.751 1.103 17.061 3.02L67 3.332v13.335L79.996 30h13.333l1.679-1.673c3.167 6.569 5 13.896 5 21.673 0 5.969-1.008 11.67-3.008 16.986zm-64 9.686L20.004 63H8.863c.75 3 1.692 5 2.8 7h5.577L27 79.432v7.02c2 1.355 4 2.543 6 3.524V76.672zm37-23.34V40.003L56.663 27H43.336L30 40.003v13.329L43.336 67h13.327L70 53.332zm3 33.121v-7.021L82.761 70h5.576c1.106-2 2.048-4 2.798-7H79.993L67 76.672v13.307c2-.982 4-2.169 6-3.526z"/></symbol><symbol viewBox="0 0 100 100" id="sports-horse-racing" xmlns="http://www.w3.org/2000/svg"><path d="M79.946 66.745L100 46.776l-6.313-6.285-20.094 19.992 6.353 6.262zM31.283 9.376h-9.371l-6.244 6.253v9.376l12.489-12.5 3.126-3.129zm-15.615 15.63H6.3l-6.25 6.25v9.374l12.494-12.5 3.124-3.124zm11.891-2.521L.05 50.012h55.016L27.559 22.485zM0 56.21v32.396L11.389 100l43.678-43.762L0 56.21zm37.523-43.704l-5.919 5.93 7.929 7.932L59.507 6.371l-.114-.121h-9.375L43.773 0H31.817l9.101 9.115-.271.261-3.124 3.13zm26.402-1.715L43.947 30.795l25.251 25.271 19.979-19.993-25.252-25.282zm1.712 20.465h-9.372l9.372-9.376v9.376z"/></symbol><symbol viewBox="0 0 100 100" id="sports-ice-hockey" xmlns="http://www.w3.org/2000/svg"><path d="M46.876 18.75h9.376V25h-9.376v-6.25zM93.75 34.376V0h-9.375l-6.25 6.25v6.25l3.122 3.124v6.25H65.625V6.25L59.375 0H46.876v31.25h9.376v6.25h-9.376l-2.479 2.479 5.672 5.66-4.425 4.419-5.666-5.66-2.478 2.478v9.376h-6.25v-9.376H25v9.376h-6.25v-9.376H9.374L0 56.25v12.5l9.376 9.375L0 87.5v6.25L6.25 100h87.5l6.25-6.25V87.5l-9.375-9.375L100 68.75V40.624l-6.25-6.248zM28.124 87.5l9.376-9.375h25l9.375 9.375H28.124z"/></symbol><symbol viewBox="0 0 100 100" id="sports-mixed-martial-arts" xmlns="http://www.w3.org/2000/svg"><path d="M62.348 79.948l-24.772-.028-17.493-17.506.029-24.724 17.535-17.465 24.779.033 17.485 17.506-.031 24.724-17.532 17.46zM39.512 75.27l20.914.031 14.807-14.744.023-20.874-14.767-14.778-20.916-.027-14.808 14.744-.026 20.875L39.512 75.27zM50 42.49c4.205 0 7.614 3.403 7.614 7.602 0 4.197-3.409 7.601-7.614 7.601s-7.614-3.403-7.614-7.601c0-4.199 3.409-7.602 7.614-7.602zM37.376 14.124l25.233.03L68.572 0H31.417l5.959 14.124zM15.517 33.646l17.636-17.563-5.835-13.87L1.456 27.961l14.061 5.685zm-1.546 28.928L14 38.046.044 32.405 0 68.389l13.971-5.815zm58.8-60.56l-5.917 14.04L84.455 33.66l14.057-5.684L72.771 2.014zM86.029 38.03l-.034 24.533 13.959 5.808.046-35.986-13.971 5.645zM84.18 66.835L67.004 83.939l5.902 13.802 25.215-25.106-13.941-5.8zM32.985 83.962L15.854 66.823 1.926 72.62 27.08 97.787l5.905-13.825zm29.869 2.093l-25.688-.028-5.957 13.928 37.604.045-5.959-13.945z"/></symbol><symbol viewBox="0 0 100 100" id="sports-motor-sport" xmlns="http://www.w3.org/2000/svg"><path d="M50 0C22.388 0 0 22.385 0 50c0 27.613 22.388 50 50 50 27.613 0 50-22.387 50-50 0-27.615-22.387-50-50-50zm0 86.664c-20.253 0-36.664-16.412-36.664-36.664S29.747 13.336 50 13.336c20.255 0 36.664 16.412 36.664 36.664S70.255 86.664 50 86.664zM59.995 50c0-1.17-.229-2.282-.608-3.332h20.419a29.846 29.846 0 0 0-6.383-15.379L58.996 45.715a9.964 9.964 0 0 0-4.714-4.712L68.71 26.568a29.832 29.832 0 0 0-15.381-6.376v20.42c-1.049-.376-2.157-.609-3.329-.609s-2.28.244-3.332.612v-20.42a29.837 29.837 0 0 0-15.379 6.374l14.426 14.435a9.965 9.965 0 0 0-4.712 4.712L26.568 31.289a29.879 29.879 0 0 0-6.376 15.379h20.423c-.379 1.05-.612 2.162-.612 3.332s.244 2.282.612 3.332H20.192a29.908 29.908 0 0 0 6.376 15.379l14.435-14.426a9.969 9.969 0 0 0 4.712 4.712L31.289 73.426a29.854 29.854 0 0 0 15.379 6.383V59.388c1.052.377 2.16.609 3.332.609s2.28-.232 3.332-.612v20.421a29.782 29.782 0 0 0 15.378-6.383L54.285 58.994a9.96 9.96 0 0 0 4.711-4.711l14.43 14.425a29.85 29.85 0 0 0 6.383-15.379H59.387A9.738 9.738 0 0 0 59.995 50z"/></symbol><symbol viewBox="0 0 100 100" id="sports-politics" xmlns="http://www.w3.org/2000/svg"><path d="M95.361 89.404v-6.709H4.639v6.709H0V98.5h100v-9.096h-4.639zM4.639 22.331L50 1.5l45.361 20.831v11.257H4.639V22.331zm73.595 19.652h10.145v32.813H78.234V41.983zm-16.653 0h10.145v32.813H61.581V41.983zm-16.661 0h10.158v32.813H44.92V41.983zm-16.637 0h10.143v32.813H28.283V41.983zm-16.65 0h10.143v32.813H11.633V41.983z"/></symbol><symbol viewBox="0 0 100 100" id="sports-pool" xmlns="http://www.w3.org/2000/svg"><path d="M50 0C22.388 0 0 22.385 0 50c0 27.613 22.388 50 50 50 27.613 0 50-22.387 50-50 0-27.615-22.387-50-50-50zm0 72.128c-12.224 0-22.138-9.897-22.138-22.128 0-12.224 9.908-22.135 22.138-22.135 12.219 0 22.128 9.911 22.128 22.135 0 12.23-9.909 22.128-22.128 22.128zM88.348 55.09h-.018a3.351 3.351 0 0 1-3.323-3.357c.052-9.847-3.751-19.094-10.702-26.05-6.83-6.823-15.912-10.626-25.587-10.706a3.333 3.333 0 0 1 .023-6.664h.027c11.432.084 22.18 4.578 30.248 12.661 8.215 8.214 12.712 19.153 12.66 30.796 0 1.837-1.49 3.32-3.328 3.32zm-46.563-3.51c.665-1.201 1.653-2.119 2.953-2.73-1.289-.853-2.124-1.776-2.512-2.768-.391-.997-.576-1.929-.576-2.803 0-1.926.721-3.57 2.185-4.932 1.453-1.353 3.513-2.042 6.165-2.042 2.654 0 4.711.684 6.164 2.042 1.453 1.362 2.186 3.003 2.186 4.932 0 .875-.192 1.801-.577 2.803-.385 1-1.218 1.855-2.499 2.588 1.318.732 2.295 1.697 2.953 2.91.666 1.215 1.005 2.559 1.005 4.047 0 2.234-.839 4.139-2.487 5.713-1.654 1.56-3.976 2.344-6.927 2.344-2.979 0-5.223-.784-6.75-2.344-1.527-1.574-2.295-3.481-2.295-5.713-.003-1.488.336-2.832 1.012-4.047zm5.42 6.744c.684.706 1.625 1.074 2.812 1.074 1.192 0 2.131-.354 2.815-1.074.672-.725 1.017-1.732 1.017-3.039 0-1.361-.345-2.39-1.034-3.088-.694-.695-1.633-1.049-2.797-1.049s-2.1.348-2.788 1.049c-.695.709-1.038 1.732-1.038 3.088-.001 1.307.34 2.32 1.013 3.039zm.331-12.082c.597.612 1.42.912 2.47.912 1.062 0 1.89-.306 2.473-.912.58-.612.876-1.4.876-2.371 0-1.047-.296-1.867-.876-2.458-.589-.586-1.411-.897-2.473-.897-1.047 0-1.873.306-2.47.897-.595.592-.895 1.412-.895 2.458.005.97.3 1.759.895 2.371z"/></symbol><symbol viewBox="0 0 100 100" id="sports-rugby-league" xmlns="http://www.w3.org/2000/svg"><path d="M93.75 0H75C33.582 0 0 33.582 0 75v18.75L6.25 100H25c41.418 0 75-33.582 75-75V6.25L93.75 0zM28.332 90.005h-12.92L10 84.582V71.668c0-8.668 2.472-17.395 6.665-25.533v37.2h37.147c-8.168 4.211-16.898 6.67-25.48 6.67zm34.443-47.84L42.58 62.354a3.328 3.328 0 0 1-2.357.968 3.336 3.336 0 0 1-2.355-.968 3.346 3.346 0 0 1 0-4.713l20.186-20.197a3.344 3.344 0 0 1 4.719 0 3.345 3.345 0 0 1 .002 4.721zm27.706-26.036v11.666c0 8.672-2.481 17.408-6.675 25.537V16.129H46.674c8.157-4.205 16.889-6.658 25.471-6.658H85.047l5.42 5.409.014 1.249z"/></symbol><symbol viewBox="0 0 100 100" id="sports-rugby-union" xmlns="http://www.w3.org/2000/svg"><path d="M93.75 0H75C33.582 0 0 33.582 0 75v18.75L6.25 100H25c41.424 0 75-33.582 75-75V6.25L93.75 0zM28.332 90.005h-12.92L10 84.582V71.668c0-8.668 2.472-17.395 6.665-25.533v37.2h37.147c-8.168 4.211-16.898 6.67-25.48 6.67zm34.443-47.84L42.58 62.354a3.328 3.328 0 0 1-2.357.968 3.336 3.336 0 0 1-2.355-.968 3.346 3.346 0 0 1 0-4.713l20.195-20.197a3.337 3.337 0 0 1 4.713 0 3.348 3.348 0 0 1-.001 4.721zm27.706-26.036v11.666c0 8.672-2.476 17.408-6.669 25.537V16.129H46.674c8.157-4.205 16.889-6.658 25.471-6.658h12.914l5.408 5.409.014 1.249z"/></symbol><symbol viewBox="0 0 100 100" id="sports-snooker" xmlns="http://www.w3.org/2000/svg"><path fill="#1E1E1E" d="M50 0C22.388 0 0 22.385 0 50c0 27.613 22.388 50 50 50 27.613 0 50-22.387 50-50 0-27.615-22.387-50-50-50zm38.348 55.09h-.012a3.324 3.324 0 0 1-3.314-3.357c.049-9.847-3.76-19.094-10.705-26.05-6.836-6.823-15.924-10.626-25.592-10.706a3.32 3.32 0 0 1-3.304-3.355 3.331 3.331 0 0 1 3.333-3.309h.026c11.435.084 22.18 4.578 30.248 12.661 8.217 8.214 12.706 19.153 12.654 30.796a3.33 3.33 0 0 1-3.334 3.32z"/></symbol><symbol viewBox="0 0 100 100" id="sports-special-bets" xmlns="http://www.w3.org/2000/svg"><path fill="#1E1E1E" d="M77.088 98.494a6.094 6.094 0 0 1-3.008-.791l-24.085-13.65-24.089 13.65a6.082 6.082 0 0 1-6.627-.395c-1.944-1.427-2.888-3.884-2.418-6.265l5.369-27.44L1.974 44.607C.21 42.957-.44 40.41.301 38.096a6.186 6.186 0 0 1 5.133-4.271l27.405-3.307 11.57-25.393c1.005-2.208 3.19-3.626 5.592-3.626 2.393 0 4.575 1.416 5.587 3.629l11.573 25.393 27.406 3.307c2.387.289 4.389 1.949 5.136 4.271a6.338 6.338 0 0 1-1.672 6.511L77.774 63.604 83.14 91.05a6.3 6.3 0 0 1-2.419 6.262 6.185 6.185 0 0 1-3.633 1.182zM49.995 70.661c1.039 0 2.07.262 3.001.787l15.454 8.763-3.452-17.601a6.327 6.327 0 0 1 1.867-5.797L79.86 44.628l-17.583-2.123a6.175 6.175 0 0 1-4.869-3.579l-7.413-16.291-7.42 16.294a6.174 6.174 0 0 1-4.866 3.578L20.125 44.63l12.997 12.188a6.3 6.3 0 0 1 1.855 5.797L31.533 80.21l15.456-8.757a6.082 6.082 0 0 1 3.006-.792z"/></symbol><symbol viewBox="0 0 100 100" id="sports-table-tennis" xmlns="http://www.w3.org/2000/svg"><path d="M21.438 75C15.564 80.294 6.167 86.765 6.167 86.765v7.353L12.041 100h7.048s6.754-9.412 12.335-15.295l20.262 3.53-33.478-34.116L21.438 75zm66.374-56.471c-15.86-15.882-41.997-15.882-58.149 0-7.342 7.353-11.454 17.647-11.748 27.648l42.877 42.647c9.983-.296 19.97-4.412 27.604-11.765 15.568-16.765 15.568-42.647-.584-58.53zM10.867 0c6.001 0 10.865 4.873 10.865 10.883s-4.864 10.882-10.865 10.882C4.865 21.765 0 16.893 0 10.883S4.865 0 10.867 0z"/></symbol><symbol viewBox="0 0 100 100" id="sports-tennis" xmlns="http://www.w3.org/2000/svg"><path d="M93.463 25.354L79.377 39.441a14.336 14.336 0 0 0-4.23 10.205 14.33 14.33 0 0 0 4.23 10.217l7.428 7.434c1.302 1.292 1.302 3.406 0 4.716a3.344 3.344 0 0 1-2.366.96 3.368 3.368 0 0 1-2.355-.96l-7.428-7.428a20.996 20.996 0 0 1-6.178-14.936c0-5.641 2.197-10.938 6.178-14.928l15.039-15.039C80.566 7.738 66.205 0 50 0S19.432 7.738 10.303 19.688l15.039 15.039a20.984 20.984 0 0 1 6.178 14.928c0 5.639-2.2 10.938-6.178 14.93l-7.428 7.422a3.31 3.31 0 0 1-2.355.971c-.85 0-1.704-.324-2.363-.971a3.355 3.355 0 0 1 0-4.716l7.431-7.428a14.355 14.355 0 0 0 4.229-10.211c0-3.859-1.506-7.482-4.232-10.211L6.536 25.354C2.397 32.629 0 41.027 0 50c0 27.613 22.388 50 50 50 27.613 0 50-22.387 50-50 0-8.973-2.396-17.371-6.537-24.646z"/></symbol><symbol viewBox="0 0 100 100" id="sports-volleyball" xmlns="http://www.w3.org/2000/svg"><path d="M98.01 36.121c-.026-.074-.037-.136-.055-.189-3.045-10.393-9.372-19.34-17.782-25.732a1.974 1.974 0 0 1-.164-.129 49.725 49.725 0 0 0-3.331-2.299c0-.006-.012-.012-.012-.012a49.979 49.979 0 0 0-13.339-5.91c-.012 0-.034-.006-.052-.006A48.784 48.784 0 0 0 56.698.5c-.012 0-.023-.006-.04-.006C54.48.2 52.258 0 50 0s-4.479.2-6.665.494c-.014 0-.026 0-.037.006-2.245.3-4.442.75-6.586 1.344-.011 0-.031.006-.05.006a49.62 49.62 0 0 0-16.705 8.248 1.06 1.06 0 0 1-.124.082C10.535 17.235 3.758 27.453 1.179 39.265v.005c-.168.771-.294 1.55-.424 2.338A44.437 44.437 0 0 0 .5 43.267a51.55 51.55 0 0 0-.3 2.668C.101 47.277 0 48.621 0 50c0 27.613 22.388 50 50 50 27.613 0 50-22.387 50-50 0-4.824-.721-9.474-1.99-13.879zm-7.061-.189h-7.617V22.314a43.164 43.164 0 0 1 7.617 13.618zM76.672 15.894v26.054L64.246 54.383c-.293.281-.608.477-.916.732V8.776a43.206 43.206 0 0 1 13.342 7.118zM50 6.665c2.274 0 4.492.232 6.664.567V58.64c-1.379.368-2.786.614-4.211.614v.012h-5.791v-.012c-1.119 0-2.242-.132-3.342-.355V7.232c2.189-.335 4.405-.567 6.68-.567zM23.33 42.588V15.894c3.961-3.102 8.453-5.538 13.34-7.117v47.06c-.612-.453-1.232-.904-1.791-1.453l-8.453-8.447h.244l-3.34-3.349zm-6.663-20.274v16.951H8.062a43.357 43.357 0 0 1 8.605-16.951zm76.485 31.348L69.784 77.039h-39.59L6.848 53.69c-.098-1.211-.183-2.444-.183-3.69 0-1.379.085-2.736.208-4.064h10.131L30.17 59.094a23.262 23.262 0 0 0 16.498 6.836h6.664v-.046c5.664-.21 11.279-2.459 15.619-6.793l16.498-16.502h7.209c.408 2.417.678 4.883.678 7.412 0 1.237-.086 2.452-.184 3.661z"/></symbol><symbol viewBox="0 0 100 100" id="sports-winter-olympics" xmlns="http://www.w3.org/2000/svg"><path d="M50.836 36.723L24.608 0H0l27.518 38.8a31.055 31.055 0 0 1 14.21-3.438c3.173 0 6.224.479 9.108 1.361zM42.182 14.93l.919 1.27 11.883 16.625L76.471 0H51.936l-9.754 14.93zM41.739 100c-7.715 0-14.98-3.064-20.441-8.634-5.472-5.566-8.483-12.942-8.483-20.792 0-16.231 12.98-29.424 28.925-29.424 15.944 0 28.912 13.192 28.912 29.424C70.651 86.805 57.684 100 41.739 100zm0-51.015c-11.704 0-21.216 9.695-21.216 21.597 0 11.9 9.512 21.582 21.216 21.582 11.696 0 21.209-9.693 21.209-21.582 0-11.902-9.512-21.597-21.209-21.597zm0 7.925c-7.403 0-13.436 6.13-13.436 13.667 0 7.536 6.03 13.666 13.436 13.666 7.402 0 13.425-6.13 13.425-13.666-.003-7.537-6.028-13.667-13.425-13.667z"/></symbol></svg>