<?xml version="1.0" encoding="utf-8"?><svg xmlns="http://www.w3.org/2000/svg" xmlns:xlink="http://www.w3.org/1999/xlink"><symbol viewBox="0 0 20 12" id="country-flags-ae" xmlns="http://www.w3.org/2000/svg"><path fill="#bc0030" d="M0 0h5.8v12H0z"/><path fill="#3f9b13" d="M5.8 0H20v4H5.8z"/><path fill="#fff" d="M5.8 4H20v4H5.8z"/><path d="M5.8 8H20v4H5.8z"/></symbol><symbol viewBox="0 0 20 12" id="country-flags-ar" xmlns="http://www.w3.org/2000/svg"><path fill="#fff" d="M0 4h20v4H0z"/><path fill="#80a7d8" d="M0 0h20v4H0zM0 8h20v4H0z"/><path d="M9.92 6L10 7.64 10.08 6h-.16z" fill="#f1bd51"/><path d="M10 7.67L9.92 6 10 7.64 10.08 6 10 7.64z" fill="#7a361d"/><path fill="#7a361d" d="M9.96 6L10 7.12 10.04 6h-.08z"/><path d="M9.85 6.53c-.09.21 0 .37-.11.55a.74.74 0 000 .41 1.19 1.19 0 01-.05.13s.09 0 .11-.13a.83.83 0 01.03-.39c.11-.22 0-.32.13-.52z" fill="#f1bd51"/><path d="M9.67 7.63a.15.15 0 000-.09.52.52 0 000-.08.54.54 0 010-.33.59.59 0 00.05-.26.72.72 0 01.05-.29.7.7 0 00-.05.29.62.62 0 01-.05.27.55.55 0 000 .33.41.41 0 010 .08.16.16 0 010 .1.15.15 0 00.1-.13.34.34 0 000-.1.51.51 0 01.07-.29.64.64 0 00.06-.3.52.52 0 01.1-.25.65.65 0 00-.06.25.64.64 0 01-.07.27.5.5 0 00-.07.29.37.37 0 010 .11.18.18 0 01-.1.14z" fill="#7a361d"/><path d="M9.88 6.58a3.16 3.16 0 01-.09.51 2.46 2.46 0 00.13-.5z" fill="#7a361d"/><path d="M10.08 6L10 4.36 9.92 6h.16z" fill="#f1bd51"/><path d="M10.08 6L10 4.36 9.93 6V4.36L10.08 6z" fill="#7a361d"/><path fill="#7a361d" d="M10.04 6L10 4.88 9.96 6h.08z"/><path d="M10.15 5.47c.09-.21 0-.37.1-.55a.75.75 0 000-.41 1.22 1.22 0 01.05-.12s-.08 0-.11.13a.82.82 0 01-.07.39c-.11.22 0 .32-.13.52z" fill="#f1bd51"/><path d="M10.16 5.47a.7.7 0 00.05-.28.6.6 0 01.05-.27.54.54 0 000-.33.57.57 0 010-.08.16.16 0 010-.1.14.14 0 00-.1.13.34.34 0 000 .1.51.51 0 01-.07.29.61.61 0 00-.07.26.54.54 0 01-.07.25.67.67 0 00.06-.25.64.64 0 01.07-.27.51.51 0 00.07-.29.3.3 0 010-.1.18.18 0 01.1-.14.15.15 0 000 .09.46.46 0 000 .08.55.55 0 010 .33.59.59 0 00-.05.27.74.74 0 01-.05.29z" fill="#7a361d"/><path d="M10.13 5.42a3.1 3.1 0 01.09-.52 2.52 2.52 0 00-.13.5z" fill="#7a361d"/><path d="M10 5.92L8.41 6l1.59.08v-.16z" fill="#f1bd51"/><path d="M10 6.08L8.41 6v-.05L10 5.91 8.41 6l1.59.08z" fill="#7a361d"/><path fill="#7a361d" d="M10 5.96L8.91 6l1.09.04v-.08z"/><path d="M9.49 5.84c-.2-.09-.36 0-.54-.11a.68.68 0 00-.4 0 1.22 1.22 0 01-.12-.06s0 .09.13.11a.77.77 0 01.38.07c.21.11.31 0 .5.14z" fill="#f1bd51"/><path d="M9.44 6a.62.62 0 00-.25-.1.6.6 0 01-.26-.07.46.46 0 00-.28-.07h-.1a.17.17 0 01-.13-.1.14.14 0 00.09 0h.12a.51.51 0 01.32 0 .54.54 0 00.26.05.67.67 0 01.28.05.66.66 0 00-.28.04.57.57 0 01-.26-.05.5.5 0 00-.32 0h-.08a.15.15 0 01-.09 0 .14.14 0 00.12.11h.1a.47.47 0 01.28.07.58.58 0 00.26.07.5.5 0 01.22 0z" fill="#7a361d"/><path d="M9.44 5.87a2.94 2.94 0 01-.5-.09 2.33 2.33 0 00.48.13z" fill="#7a361d"/><path d="M10 6.08L11.59 6 10 5.92v.16z" fill="#f1bd51"/><path d="M10 6.09L11.59 6 10 5.92l1.59.08v.05L10 6.09z" fill="#7a361d"/><path fill="#7a361d" d="M10 6.04L11.09 6 10 5.96v.08z"/><path d="M10.51 6.15c.2.09.36 0 .54.11a.68.68 0 00.4 0 1.12 1.12 0 01.12.06s0-.09-.13-.12a.77.77 0 01-.38-.07c-.21-.11-.31 0-.5-.14z" fill="#f1bd51"/><path d="M11.57 6.37a.14.14 0 00-.09 0h-.11a.51.51 0 01-.32 0 .55.55 0 00-.26-.05.66.66 0 01-.28-.05.66.66 0 00.28.05.56.56 0 01.26.05.5.5 0 00.32 0h.08a.15.15 0 01.09 0 .14.14 0 00-.12-.11h-.1a.47.47 0 01-.28-.07.59.59 0 00-.26-.07.5.5 0 01-.22-.12.62.62 0 00.25.06.59.59 0 01.26.07.46.46 0 00.28.07h.1a.17.17 0 01.13.1z" fill="#7a361d"/><path d="M10.57 6.13a3 3 0 01.5.09 2.28 2.28 0 00-.48-.13z" fill="#7a361d"/><path d="M9.94 5.94l-1.08 1.2 1.17-1.11z" fill="#f1bd51"/><path d="M8.87 7.19l1.08-1.2-1.08 1.16 1.17-1.11-1.15 1.14z" fill="#7a361d"/><path fill="#7a361d" d="M9.97 5.97l-.74.82.8-.76-.06-.06z"/><path d="M9.53 6.26c-.21.08-.27.26-.45.32a.71.71 0 00-.31.26 1 1 0 01-.12 0h.17a.79.79 0 01.32-.23c.23-.08.23-.21.45-.27z" fill="#f1bd51"/><path d="M8.7 6.92a.14.14 0 00.09 0l.05-.06a.52.52 0 01.26-.2.56.56 0 00.22-.15.69.69 0 01.23-.17.67.67 0 00-.23.16.58.58 0 01-.22.15.51.51 0 00-.26.2l-.05.06a.15.15 0 01-.1 0 .14.14 0 00.16 0l.07-.07a.48.48 0 01.25-.16.59.59 0 00.23-.14.51.51 0 01.22-.13.61.61 0 00-.21.14.61.61 0 01-.23.14.47.47 0 00-.24.16l-.08.07a.25.25 0 01-.12 0z" fill="#7a361d"/><path d="M9.51 6.32a2.94 2.94 0 01-.42.3 2.4 2.4 0 00.43-.26z" fill="#7a361d"/><path d="M10.06 6.06l1.08-1.2-1.2 1.08z" fill="#f1bd51"/><path d="M10.06 6.06l1.08-1.2-1.19 1.09 1.16-1.12-1.08 1.2z" fill="#7a361d"/><path fill="#7a361d" d="M10.03 6.03l.74-.82-.8.76.06.06z"/><path d="M10.47 5.74c.21-.08.27-.26.45-.32a.7.7 0 00.31-.26 1 1 0 01.12 0h-.17a.78.78 0 01-.32.23c-.23.08-.24.21-.45.27z" fill="#f1bd51"/><path d="M10.47 5.74a.67.67 0 00.23-.16.57.57 0 01.22-.15.51.51 0 00.26-.2l.05-.06a.15.15 0 01.1 0 .14.14 0 00-.16 0l-.07.07a.49.49 0 01-.25.16.61.61 0 00-.23.14.5.5 0 01-.22.13.63.63 0 00.21-.14.59.59 0 01.23-.14.47.47 0 00.24-.16l.08-.07a.17.17 0 01.16 0 .14.14 0 00-.09 0l-.05.06a.52.52 0 01-.26.2.56.56 0 00-.22.15.64.64 0 01-.23.17z" fill="#7a361d"/><path d="M10.49 5.68a3 3 0 01.42-.3 2.36 2.36 0 00-.43.26z" fill="#7a361d"/><path d="M10.06 5.94L8.89 4.83l1.08 1.2z" fill="#f1bd51"/><path d="M9.95 6.05L8.86 4.86l1.17 1.11-1.14-1.14 1.08 1.2z" fill="#7a361d"/><path fill="#7a361d" d="M10.03 5.97l-.8-.76.74.82.06-.06z"/><path d="M9.74 5.52c-.07-.22-.25-.28-.3-.52a.72.72 0 00-.25-.32 1.33 1.33 0 010-.13v.17a.81.81 0 01.22.33c.07.24.2.24.26.46z" fill="#f1bd51"/><path d="M9.63 5.57a.64.64 0 00-.13-.23.62.62 0 01-.14-.24.48.48 0 00-.15-.25l-.07-.07a.18.18 0 010-.17.15.15 0 000 .09l.1.08a.53.53 0 01.2.27.58.58 0 00.15.23.72.72 0 01.16.24.7.7 0 00-.16-.24.6.6 0 01-.16-.28.52.52 0 00-.19-.26l-.06-.01a.16.16 0 010-.1.15.15 0 000 .16.35.35 0 00.07.08.5.5 0 01.15.26.61.61 0 00.13.23.53.53 0 01.13.23z" fill="#7a361d"/><path d="M9.69 5.5a3.24 3.24 0 01-.29-.43 2.55 2.55 0 00.25.44z" fill="#7a361d"/><path d="M9.94 6.06l1.17 1.11-1.08-1.2z" fill="#f1bd51"/><path d="M11.13 7.18L9.94 6.06l1.17 1.11-1.08-1.2 1.09 1.19z" fill="#7a361d"/><path fill="#7a361d" d="M9.97 6.03l.8.76-.74-.82-.06.06z"/><path d="M10.26 6.48c.08.21.25.27.31.47a.71.71 0 00.25.32 1.11 1.11 0 010 .13v-.17a.81.81 0 01-.22-.33c-.07-.24-.2-.24-.26-.46z" fill="#f1bd51"/><path d="M10.86 7.4a.15.15 0 000-.1l-.06-.05a.52.52 0 01-.24-.25.59.59 0 00-.15-.23.72.72 0 01-.16-.24.7.7 0 00.16.24.58.58 0 01.15.23.53.53 0 00.19.26l.06.05a.17.17 0 010 .1.15.15 0 000-.16l-.07-.08a.5.5 0 01-.15-.26.61.61 0 00-.14-.23.51.51 0 01-.13-.23.62.62 0 00.13.22.62.62 0 01.14.24.51.51 0 00.15.25l.07.08a.18.18 0 010 .17z" fill="#7a361d"/><path d="M10.31 6.5a3 3 0 01.29.43 2.37 2.37 0 00-.25-.44z" fill="#7a361d"/><path d="M9.93 6l-.56 1.5.7-1.5z" fill="#f1bd51"/><path d="M9.39 7.55L9.92 6l-.54 1.51.69-1.51-.66 1.52z" fill="#7a361d"/><path fill="#7a361d" d="M9.96 5.98l-.38 1.06.46-1.03-.08-.03z"/><path d="M9.67 6.43c-.16.15-.15.34-.3.47a.73.73 0 00-.19.36 1.2 1.2 0 01-.1.09s.09 0 .15-.08a.82.82 0 01.21-.33c.18-.16.14-.29.31-.43z" fill="#f1bd51"/><path d="M9.1 7.37a.15.15 0 00.07-.07.41.41 0 000-.08.53.53 0 01.19-.32.58.58 0 00.15-.23.72.72 0 01.16-.25.72.72 0 00-.15.24.59.59 0 01-.15.23.53.53 0 00-.16.28.47.47 0 010 .08.15.15 0 01-.08.07.14.14 0 00.14-.08.34.34 0 000-.09.51.51 0 01.17-.24.61.61 0 00.16-.19.52.52 0 01.15-.21.64.64 0 00-.15.21.62.62 0 01-.16.28.5.5 0 00-.17.24.34.34 0 010 .09.18.18 0 01-.13.09z" fill="#7a361d"/><path d="M9.67 6.49a2.91 2.91 0 01-.28.44 2.4 2.4 0 00.3-.41z" fill="#7a361d"/><path d="M10.07 6l.56-1.5-.7 1.5z" fill="#f1bd51"/><path d="M10.08 6l.55-1.54L9.93 6l.65-1.49-.5 1.49z" fill="#7a361d"/><path fill="#7a361d" d="M10.04 6.01l.38-1.05-.46 1.02.08.03z"/><path d="M10.34 5.57c.16-.15.15-.34.3-.47a.74.74 0 00.19-.36 1.11 1.11 0 01.1-.09s-.09 0-.15.07a.84.84 0 01-.21.33c-.18.16-.14.29-.31.42z" fill="#f1bd51"/><path d="M10.34 5.57a.7.7 0 00.15-.24.6.6 0 01.15-.23.53.53 0 00.16-.28v-.08a.15.15 0 01.08-.07.14.14 0 00-.14.08.36.36 0 000 .09.5.5 0 01-.17.24.62.62 0 00-.16.22.52.52 0 01-.16.21.63.63 0 00.15-.21.62.62 0 01.16-.3.5.5 0 00.17-.24.34.34 0 010-.09.17.17 0 01.14-.09.15.15 0 00-.07.07.37.37 0 000 .08.53.53 0 01-.17.29.59.59 0 00-.15.23.71.71 0 01-.16.25z" fill="#7a361d"/><path d="M10.33 5.51a3 3 0 01.28-.44 2.42 2.42 0 00-.3.41z" fill="#7a361d"/><path d="M10 5.92l-1.46-.57 1.46.73z" fill="#f1bd51"/><path d="M10 6.07L8.52 5.4l1.48.52-1.46-.56 1.46.71z" fill="#7a361d"/><path fill="#7a361d" d="M10.02 5.96l-1.03-.39.99.47.04-.08z"/><path d="M9.58 5.65c-.15-.16-.33-.15-.45-.31a.68.68 0 00-.35-.2 1 1 0 01-.1-.14s0 .09.07.16a.78.78 0 01.32.22c.16.19.28.14.41.32z" fill="#f1bd51"/><path d="M9.5 5.74a.64.64 0 00-.21-.15.6.6 0 01-.22-.17.48.48 0 00-.23-.17h-.09a.18.18 0 01-.09-.14V5a.14.14 0 00.07.07h.07a.51.51 0 01.28.17.57.57 0 00.22.15.68.68 0 01.24.16.68.68 0 00-.19-.05.57.57 0 01-.22-.15.5.5 0 00-.28-.17h-.07a.16.16 0 01-.08-.11.15.15 0 00.07.15h.09a.48.48 0 01.24.18.59.59 0 00.21.16.5.5 0 01.2.16z" fill="#7a361d"/><path d="M9.53 5.66a2.81 2.81 0 01-.43-.29 2.39 2.39 0 00.4.31z" fill="#7a361d"/><path d="M10 6.08l1.49.57L10 5.92z" fill="#f1bd51"/><path d="M11.48 6.65L10 6.08l1.49.57L10 5.93l1.48.67z" fill="#7a361d"/><path fill="#7a361d" d="M9.98 6.04l1.03.39-.99-.47-.04.08z"/><path d="M10.42 6.35c.15.17.33.16.46.31a.69.69 0 00.35.2c.07 0 .07.11.09.1s0-.09-.07-.16a.79.79 0 01-.32-.22c-.16-.19-.28-.14-.41-.32z" fill="#f1bd51"/><path d="M11.31 7a.15.15 0 00-.07-.08h-.07a.51.51 0 01-.28-.17.57.57 0 00-.22-.15.68.68 0 01-.24-.16.67.67 0 00.24.16.58.58 0 01.22.15.51.51 0 00.28.17h.07a.16.16 0 01.07.08.14.14 0 00-.07-.15h-.09a.48.48 0 01-.24-.18.59.59 0 00-.21-.16.51.51 0 01-.2-.16.65.65 0 00.21.15.59.59 0 01.21.17.48.48 0 00.23.17h.09a.18.18 0 01.09.14V7z" fill="#7a361d"/><path d="M10.47 6.34a2.87 2.87 0 01.43.28 2.42 2.42 0 00-.4-.31z" fill="#7a361d"/><path d="M10 5.92l-1.45.68L10 6.08z" fill="#f1bd51"/><path d="M8.52 6.65L10 5.92l-1.45.68L10 6.07l-1.49.58z" fill="#7a361d"/><path fill="#7a361d" d="M9.98 5.96l-.99.47 1.03-.39-.04-.08z"/><path d="M9.47 6.06c-.22 0-.34.13-.54.11a.69.69 0 00-.38.12 1 1 0 01-.13 0s0 .07.16.06A.77.77 0 019 6.26c.24 0 .3-.1.51-.07v-.13z" fill="#f1bd51"/><path d="M8.53 6.35a.15.15 0 01-.12 0 .14.14 0 00.1 0h.07a.51.51 0 01.32-.08.53.53 0 00.26-.05.66.66 0 01.28-.06.68.68 0 00-.27.06.58.58 0 01-.26.05.51.51 0 00-.31.08h-.07a.15.15 0 01-.1 0 .14.14 0 00.15 0h.09a.47.47 0 01.29 0 .57.57 0 00.26 0 .49.49 0 01.25 0 .57.57 0 00-.25 0 .6.6 0 01-.27 0 .47.47 0 00-.28 0h-.1z" fill="#7a361d"/><path d="M9.43 6.1a2.79 2.79 0 01-.5.11 2.27 2.27 0 00.49-.07z" fill="#7a361d"/><path d="M10 6.08l1.45-.68-1.45.52z" fill="#f1bd51"/><path d="M10 6.08l1.45-.68-1.45.53 1.49-.58-1.49.73z" fill="#7a361d"/><path fill="#7a361d" d="M10.02 6.04l.99-.47-1.03.39.04.08z"/><path d="M10.53 5.94c.22 0 .34-.13.54-.11a.68.68 0 00.38-.12 1.24 1.24 0 01.13 0s0-.07-.16-.06a.76.76 0 01-.38.08c-.24 0-.3.1-.51.07v.14z" fill="#f1bd51"/><path d="M10.55 5.95a.68.68 0 00.27-.06.56.56 0 01.26-.05.5.5 0 00.31-.08h.07a.16.16 0 01.1 0 .14.14 0 00-.15-.05h-.09a.47.47 0 01-.29 0 .58.58 0 00-.26 0 .49.49 0 01-.25 0 .61.61 0 00.25 0 .6.6 0 01.27 0 .47.47 0 00.28 0h.1a.17.17 0 01.16 0 .14.14 0 00-.1 0h-.07a.51.51 0 01-.32.08.54.54 0 00-.26.05.66.66 0 01-.26.06z" fill="#7a361d"/><path d="M10.57 5.9a2.9 2.9 0 01.5-.11 2.36 2.36 0 00-.49.07z" fill="#7a361d"/><path d="M10.07 6l-.66-1.52L9.93 6z" fill="#f1bd51"/><path d="M9.93 6l-.56-1.5.71 1.5-.69-1.54L9.93 6z" fill="#7a361d"/><path fill="#7a361d" d="M10.04 5.98l-.46-1.02.38 1.05.08-.03z"/><path d="M9.94 5.45c.06-.22-.13-.35-.11-.55a.73.73 0 00-.11-.4v-.14c0-.01-.07.05-.05.16a.83.83 0 01.08.39c0 .25.1.3.07.53h.12z" fill="#f1bd51"/><path d="M9.95 5.45a.71.71 0 00-.06-.28.6.6 0 01-.06-.27.53.53 0 00-.08-.32v-.07a.16.16 0 010-.11.15.15 0 000 .16.31.31 0 000 .1.52.52 0 010 .3.62.62 0 000 .27.55.55 0 010 .26.65.65 0 000-.26.64.64 0 010-.27.5.5 0 000-.29.35.35 0 010-.1.18.18 0 010-.16.16.16 0 000 .1v.07a.54.54 0 01.08.33.59.59 0 00.05.27.71.71 0 01.06.29z" fill="#7a361d"/><path d="M9.9 5.41a3 3 0 01-.11-.51 2.51 2.51 0 00.07.51z" fill="#7a361d"/><path d="M9.93 6l.66 1.49L10.07 6z" fill="#f1bd51"/><path d="M10.62 7.55L9.92 6l.66 1.49L10.07 6l.56 1.5z" fill="#7a361d"/><path fill="#7a361d" d="M9.96 6.01l.46 1.03-.38-1.06-.08.03z"/><path d="M10.06 6.55c0 .23.13.35.11.55a.74.74 0 00.11.4 1 1 0 010 .14s.07-.05.06-.16a.83.83 0 01-.08-.39c0-.25-.1-.3-.07-.53h-.13z" fill="#f1bd51"/><path d="M10.28 7.64a.15.15 0 000-.1v-.07a.54.54 0 01-.08-.33.59.59 0 00-.05-.26.71.71 0 01-.06-.29.68.68 0 00.06.28.6.6 0 01.05.27.54.54 0 00.08.32v.07a.16.16 0 010 .11.15.15 0 000-.16.29.29 0 000-.1.51.51 0 010-.3.63.63 0 000-.27.53.53 0 010-.26.66.66 0 000 .26.66.66 0 010 .27.5.5 0 000 .29.35.35 0 010 .1.18.18 0 010 .16z" fill="#7a361d"/><path d="M10.1 6.58a3.19 3.19 0 01.11.51 2.53 2.53 0 00-.07-.51z" fill="#7a361d"/><path d="M10 5.33a.67.67 0 11-.65.67.66.66 0 01.65-.67z" fill="#f1bd51"/><path d="M10 6.67a.67.67 0 11.65-.67.66.66 0 01-.65.67zm0-1.33a.66.66 0 10.64.66.65.65 0 00-.64-.66z" fill="#7a361d"/><path d="M10.41 5.86a.25.25 0 00-.34 0 .22.22 0 000 .27.36.36 0 010-.29.24.24 0 01.37.05z" fill="#7a361d"/><path d="M10.23 5.83a.13.13 0 00-.11 0h.06a.12.12 0 01.09 0 .28.28 0 01.15.07.16.16 0 00-.15-.09z" fill="#7a361d"/><path d="M10.34 5.91a.15.15 0 00-.23 0 .11.11 0 01.18 0zM10.22 5.86h-.09zM10.11 5.92a.2.2 0 00.23 0 .13.13 0 01-.18 0z" fill="#7a361d"/><path d="M10.35 5.94a.19.19 0 01-.22 0h.06a.24.24 0 00.2 0zM10.11 6.09a.07.07 0 01-.06 0 .1.1 0 00.06 0h.06a.05.05 0 000-.07zM10.17 6.31a.23.23 0 00-.11-.08.11.11 0 01.08 0l.08.05zM10.15 6.31a.26.26 0 00-.15 0 .31.31 0 01.15 0z" fill="#7a361d"/><path d="M10.17 6.31a.64.64 0 00-.16.06.89.89 0 00.16-.07zM10.09 6.47a.09.09 0 10-.18 0A.09.09 0 0110 6.4a.09.09 0 01.07.07zM9.59 5.86a.25.25 0 01.34 0 .22.22 0 010 .27.36.36 0 000-.29.24.24 0 00-.37.05z" fill="#7a361d"/><path d="M9.77 5.83a.13.13 0 01.11 0h-.06a.12.12 0 00-.09 0 .28.28 0 00-.15.07.16.16 0 01.15-.09z" fill="#7a361d"/><path d="M9.66 5.91a.15.15 0 01.23 0 .11.11 0 00-.18 0zM9.78 5.86h0zM9.89 5.92a.19.19 0 01-.23 0 .13.13 0 00.18 0z" fill="#7a361d"/><path d="M9.65 5.94a.19.19 0 00.22 0L9.85 6a.25.25 0 01-.2 0zM9.89 6.09a.07.07 0 00.07 0 .1.1 0 01-.06 0h-.06v-.07zM9.84 6.31a.23.23 0 01.11-.08H10a.12.12 0 00-.09 0l-.08.05zM9.85 6.31a.26.26 0 01.15 0 .31.31 0 00-.15 0z" fill="#7a361d"/><path d="M9.84 6.31a.66.66 0 01.17.06.9.9 0 01-.17-.07zM9.91 6.47a.09.09 0 11.18 0A.09.09 0 0010 6.4a.09.09 0 00-.07.07z" fill="#7a361d"/></symbol><symbol viewBox="0 0 20 12" id="country-flags-au" xmlns="http://www.w3.org/2000/svg"><path fill="#180087" d="M0 0h20v12H0z"/><path fill="#fff" d="M5.3 7.4l.3.9.9-.3-.5.9.8.4-.9.2.1.9-.7-.7-.7.7.1-.9-1-.2.9-.4L4 8l1 .3.3-.9zM15.8 9.1l.1.5.5-.2-.3.4.5.2-.5.1v.5l-.3-.4-.3.4.1-.5-.6-.1.5-.2-.3-.4.4.2.2-.5zM13.1 4.8l.2.4.4-.1-.2.5.4.2h-.5l.1.5-.4-.4-.3.4.1-.5h-.5l.4-.2-.3-.5.5.1.1-.4zM15.8 1.9l.1.4.5-.1-.3.4.5.2h-.5v.6l-.3-.4-.3.4.1-.6H15l.5-.2-.3-.4.4.1.2-.4zM18.1 4.1l.2.5.4-.2-.3.4.5.2-.5.1v.5l-.3-.4-.3.4.1-.5-.5-.1.4-.2-.3-.4.5.2.1-.5zM16.9 6.3l.1.2.3.1-.3.2.1.2-.2-.1-.3.1.1-.2-.3-.2.3-.1.2-.2zM4.4 0v1.8H0v1.8h4.4v1.8h1.7V3.6h4.4V1.8H6.1V0H4.4z"/><path fill="#fff" d="M0 0v.6l9.3 4.8h1.2v-.6L1.2 0H0z"/><path fill="#fff" d="M9.3 0L0 4.8v.6h1.2L10.5.6V0H9.3z"/><path fill="#ea0020" d="M4.7 0v2.2H0v1h4.7v2.2h1.1V3.2h4.7v-1H5.8V0H4.7z"/><path d="M0 0v.4l2.7 1.4h.8zm9.8 0L6.2 1.8H7L10.5 0h-.7zM3.5 3.6L0 5.4h.8l3.5-1.8h-.8zm3.5 0l3.5 1.8V5L7.9 3.6H7z" fill="#ea0020"/></symbol><symbol viewBox="0 0 20 12" id="country-flags-br" xmlns="http://www.w3.org/2000/svg"><path fill="#3c9242" d="M0 0h20v12H0z"/><path fill="#edc226" d="M3.08 6L10 10.54 16.92 6 10 1.46 3.08 6z"/><path d="M12.92 6a2.92 2.92 0 11-5.84 0 2.92 2.92 0 115.83 0" fill="#2d146e"/><path d="M8.33 4.71a7 7 0 00-1 .07 3.2 3.2 0 00-.16.46 6.53 6.53 0 015.61 1.66 3.07 3.07 0 00.1-.47 6.94 6.94 0 00-4.55-1.72" fill="#fff"/><path d="M7.51 5.12A.14.14 0 007.62 5a.13.13 0 00-.14-.13.14.14 0 00-.11.13.13.13 0 00.14.13m0-.05A.08.08 0 007.57 5a.08.08 0 00-.08-.08.09.09 0 000 .18M7.74 5.1h.05V5h.11a.09.09 0 000-.18h-.18zm0-.16h.11-.08z" fill="#3c9242" fill-rule="evenodd"/><path d="M8 5.08s0-.13-.09-.08h-.08c.09 0 .09.08.1.12" fill="#3c9242"/><path d="M8.09 5.07h.13a.12.12 0 00.12-.12.12.12 0 00-.12-.12h-.13zM8.14 5h.08a.08.08 0 00.07-.08.08.08 0 00-.08-.08h-.07z" fill="#3c9242" fill-rule="evenodd"/><path fill="#3c9242" d="M8.44 5.07l.25.01.01-.05-.21-.01v-.07h.16l.01-.05H8.5v-.06l.19.01v-.06h-.24l-.01.28zM8.8 5.09h.04l.02-.19.04.19.04.01.08-.19-.02.2h.04l.03-.29H9l-.07.19-.04-.2-.07-.01-.02.29zM9.37 5.15l.21.04.01-.05-.16-.03.01-.06.13.02v-.05L9.45 5v-.04l.16.02.01-.05-.21-.03-.04.25z"/><path d="M9.9 5.26h.05v-.1h.11a.09.09 0 00.11-.06.09.09 0 00-.04-.1H10zm.1-.14h.1L10 5zM10.24 5.35v-.1h.11a.09.09 0 00.11-.06.09.09 0 00-.06-.11h-.15zm.1-.14h.1-.1z" fill="#3c9242" fill-rule="evenodd"/><path d="M10.47 5.43v-.14h-.07c.08 0 .06.11 0 .15" fill="#3c9242"/><path d="M10.69 5.51a.13.13 0 00.17-.09.14.14 0 00-.07-.18.13.13 0 00-.17.09.14.14 0 00.07.18m0 0a.08.08 0 00.1-.06.08.08 0 000-.11.08.08 0 00-.1.06.08.08 0 000 .11M11 5.65a.13.13 0 00.17-.08.14.14 0 00-.06-.18.13.13 0 00-.17.08.14.14 0 00.06.18m0 0a.08.08 0 00.1-.05.08.08 0 000-.11.08.08 0 00-.1.05.09.09 0 000 .11" fill="#3c9242" fill-rule="evenodd"/><path fill="#3c9242" d="M11.09 5.52l.1.05-.02.03-.09-.04.01-.04z"/><path fill="#3c9242" d="M11.15 5.55l.04.02-.06.13-.03-.02.05-.13z"/><path d="M11.23 5.74v-.09l.1.05a.09.09 0 00.12 0 .09.09 0 000-.12l-.14-.07zm.12-.12h.1-.1z" fill="#3c9242" fill-rule="evenodd"/><path d="M11.44 5.85s.06-.12 0-.14h-.07c.08 0 0 .12 0 .16M11.54 5.91l.22.12.03-.04-.18-.11.03-.06.14.08.02-.04-.13-.08.02-.05.17.09.03-.04-.21-.12-.14.25zM11.95 6v.07c0 .02.06 0 .07 0S11.9 6 12 5.92s.13 0 .16 0a.09.09 0 010 .13L12.1 6v-.07c0-.02 0 0-.06 0s.15.11.09.2-.11 0-.15 0-.1-.09-.06-.14zM12.25 6.25v.07c0 .02.06 0 .07 0s-.14-.13-.08-.21.13 0 .16 0a.09.09 0 010 .13v-.07c0-.02 0 0-.06 0s.14.12.08.2-.11 0-.15 0-.09-.09-.05-.15z" fill="#3c9242"/><path d="M12.53 6.58a.13.13 0 00.18 0 .14.14 0 000-.19.13.13 0 00-.18 0 .14.14 0 000 .19m0 0a.08.08 0 00.11 0 .08.08 0 000-.12.08.08 0 00-.11 0 .08.08 0 000 .12" fill="#3c9242" fill-rule="evenodd"/><path fill="#fff" d="M7.62 5.33l-.04.13.06.01-.02-.14z"/><path fill="#fff" d="M7.62 5.33l.04.13-.06.01.02-.14z"/><path fill="#fff" d="M7.74 5.42h-.13v.07l.13-.07z"/><path fill="#fff" d="M7.74 5.42l-.1.08-.04-.05.14-.03z"/><path fill="#fff" d="M7.5 5.42l.1.08.04-.05-.14-.03z"/><path fill="#fff" d="M7.5 5.42h.13v.07l-.13-.07z"/><path fill="#fff" d="M7.69 5.57l-.04-.13-.06.02.1.11z"/><path fill="#fff" d="M7.69 5.57l-.1-.08.04-.05.06.13z"/><path fill="#fff" d="M7.55 5.57l.1-.08-.04-.05-.06.13z"/><path fill="#fff" d="M7.55 5.57l.03-.13.06.02-.09.11zM7.88 6.59l-.04.13.06.02-.02-.15z"/><path fill="#fff" d="M7.88 6.59l.04.13-.06.02.02-.15z"/><path fill="#fff" d="M8 6.68h-.13v.07L8 6.68z"/><path fill="#fff" d="M8 6.68l-.11.08-.03-.05.14-.03z"/><path fill="#fff" d="M7.76 6.68l.1.08.04-.05-.14-.03z"/><path fill="#fff" d="M7.76 6.68h.12v.07l-.12-.07z"/><path fill="#fff" d="M7.95 6.83l-.04-.13-.06.02.1.11z"/><path fill="#fff" d="M7.95 6.83l-.1-.08.04-.05.06.13z"/><path fill="#fff" d="M7.8 6.83l.11-.08-.04-.05-.07.13z"/><path fill="#fff" d="M7.8 6.83l.04-.13.06.02-.1.11zM7.52 6.91l-.03.08.04.01-.01-.09z"/><path fill="#fff" d="M7.52 6.91l.03.08-.04.01.01-.09z"/><path fill="#fff" d="M7.6 6.96h-.08v.05l.08-.05z"/><path fill="#fff" d="M7.6 6.96l-.07.06-.02-.04.09-.02z"/><path fill="#fff" d="M7.44 6.96l.07.06.02-.04-.09-.02z"/><path fill="#fff" d="M7.44 6.96h.08v.05l-.08-.05z"/><path fill="#fff" d="M7.57 7.06l-.03-.08-.04.01.07.07z"/><path fill="#fff" d="M7.57 7.06l-.07-.05.03-.03.04.08z"/><path fill="#fff" d="M7.47 7.06l.07-.05-.03-.03-.04.08z"/><path fill="#fff" d="M7.47 7.06l.03-.08.04.01-.07.07zM8.16 6.48l-.02.06h.03l-.01-.06z"/><path fill="#fff" d="M8.16 6.48l.02.06h-.03l.01-.06z"/><path fill="#fff" d="M8.22 6.52h-.06v.03l.06-.03z"/><path fill="#fff" d="M8.22 6.52l-.05.04-.02-.03.07-.01z"/><path fill="#fff" d="M8.11 6.52l.04.04.02-.03-.06-.01z"/><path fill="#fff" d="M8.11 6.52h.05v.03l-.05-.03z"/><path fill="#fff" d="M8.2 6.59l-.02-.06-.03.01.05.05z"/><path fill="#fff" d="M8.2 6.59l-.05-.04.02-.02.03.06z"/><path fill="#fff" d="M8.13 6.59l.05-.04-.02-.02-.03.06z"/><path fill="#fff" d="M8.13 6.59l.02-.06.03.01-.05.05zM8.48 6.91l-.03.1.05.02-.02-.12z"/><path fill="#fff" d="M8.48 6.91l.04.1-.05.02.01-.12z"/><path fill="#fff" d="M8.58 6.99h-.1v.05l.1-.05z"/><path fill="#fff" d="M8.58 6.99l-.08.06-.03-.04.11-.02z"/><path fill="#fff" d="M8.38 6.99l.09.06.03-.04-.12-.02z"/><path fill="#fff" d="M8.38 6.99h.11v.05l-.11-.05z"/><path fill="#fff" d="M8.55 7.11L8.51 7l-.05.02.09.09z"/><path fill="#fff" d="M8.55 7.11l-.09-.07.03-.04.06.11z"/><path fill="#fff" d="M8.42 7.11l.09-.07L8.48 7l-.06.11z"/><path fill="#fff" d="M8.42 7.11L8.46 7l.05.02-.09.09zM8.4 7.21l-.03.1.04.02-.01-.12z"/><path fill="#fff" d="M8.4 7.21l.03.1-.05.02.02-.12z"/><path fill="#fff" d="M8.5 7.29h-.11v.05l.11-.05z"/><path fill="#fff" d="M8.5 7.29l-.09.06-.03-.05.12-.01z"/><path fill="#fff" d="M8.3 7.29l.08.06.03-.05-.11-.01z"/><path fill="#fff" d="M8.3 7.29h.1v.05l-.1-.05z"/><path fill="#fff" d="M8.46 7.41l-.03-.11-.05.02.08.09z"/><path fill="#fff" d="M8.46 7.41l-.09-.07.03-.04.06.11z"/><path fill="#fff" d="M8.34 7.41l.08-.07-.03-.04-.05.11z"/><path fill="#fff" d="M8.34 7.41l.03-.11.05.02-.08.09zM10.9 4.94l-.03.12.06.02-.03-.14z"/><path fill="#fff" d="M10.9 4.94l.04.12-.06.02.02-.14z"/><path fill="#fff" d="M11.02 5.03h-.12v.06l.12-.06z"/><path fill="#fff" d="M11.02 5.03l-.1.08-.03-.06.13-.02z"/><path fill="#fff" d="M10.79 5.03l.1.08.03-.06-.13-.02z"/><path fill="#fff" d="M10.79 5.03h.12v.06l-.12-.06z"/><path fill="#fff" d="M10.98 5.17l-.04-.12-.06.02.1.1z"/><path fill="#fff" d="M10.98 5.17l-.1-.07.03-.05.07.12z"/><path fill="#fff" d="M10.83 5.17l.1-.07-.03-.05-.07.12z"/><path fill="#fff" d="M10.83 5.17l.04-.12.06.02-.1.1zM12.04 6.92l-.03.13.05.02-.02-.15z"/><path fill="#fff" d="M12.04 6.92l.04.13-.06.02.02-.15z"/><path fill="#fff" d="M12.16 7.01h-.12v.07l.12-.07z"/><path fill="#fff" d="M12.16 7.01l-.1.08-.03-.05.13-.03z"/><path fill="#fff" d="M11.93 7.01l.1.08.03-.05-.13-.03z"/><path fill="#fff" d="M11.93 7.01h.12v.07l-.12-.07z"/><path fill="#fff" d="M12.12 7.16l-.04-.12-.06.01.1.11z"/><path fill="#fff" d="M12.12 7.16l-.1-.08.03-.05.07.13z"/><path fill="#fff" d="M11.97 7.16l.1-.08-.03-.05-.07.13z"/><path fill="#fff" d="M11.97 7.16l.04-.12.06.01-.1.11zM12.45 7l-.03.08.04.01-.01-.09z"/><path fill="#fff" d="M12.45 7l.02.08-.03.01.01-.09z"/><path fill="#fff" d="M12.53 7.05h-.09v.05l.09-.05z"/><path fill="#fff" d="M12.53 7.05l-.07.06-.02-.04.09-.02z"/><path fill="#fff" d="M12.37 7.05l.07.06.02-.04-.09-.02z"/><path fill="#fff" d="M12.37 7.05h.08v.05l-.08-.05z"/><path fill="#fff" d="M12.5 7.15l-.03-.08-.04.01.07.07z"/><path fill="#fff" d="M12.5 7.15l-.07-.05.03-.03.04.08z"/><path fill="#fff" d="M12.4 7.15l.07-.05-.03-.03-.04.08z"/><path fill="#fff" d="M12.4 7.15l.03-.08.03.01-.06.07zM12.16 7.21l-.03.1.05.02-.02-.12z"/><path fill="#fff" d="M12.16 7.21l.04.1-.05.02.01-.12z"/><path fill="#fff" d="M12.26 7.29h-.1v.05l.1-.05z"/><path fill="#fff" d="M12.26 7.29l-.08.06-.03-.05.11-.01z"/><path fill="#fff" d="M12.06 7.29l.09.06.03-.05-.12-.01z"/><path fill="#fff" d="M12.06 7.29h.11v.05l-.11-.05z"/><path fill="#fff" d="M12.22 7.41l-.03-.11-.05.02.08.09z"/><path fill="#fff" d="M12.22 7.41l-.08-.07.03-.04.05.11z"/><path fill="#fff" d="M12.1 7.41l.09-.07-.04-.04-.05.11z"/><path fill="#fff" d="M12.1 7.41l.03-.11.05.02-.08.09zM11.46 7.84l-.03.1.05.02-.02-.12z"/><path fill="#fff" d="M11.46 7.84l.03.1-.05.02.02-.12z"/><path fill="#fff" d="M11.56 7.91h-.1v.06l.1-.06z"/><path fill="#fff" d="M11.56 7.91l-.08.07-.03-.05.11-.02z"/><path fill="#fff" d="M11.36 7.91l.09.07.03-.05-.12-.02z"/><path fill="#fff" d="M11.36 7.91h.1v.06l-.1-.06z"/><path fill="#fff" d="M11.52 8.03l-.03-.1-.05.02.08.08z"/><path fill="#fff" d="M11.52 8.03l-.08-.06.03-.04.05.1z"/><path fill="#fff" d="M11.4 8.03l.08-.06-.03-.04-.05.1z"/><path fill="#fff" d="M11.4 8.03l.03-.1.05.02-.08.08zM11.46 8.16l-.03.08.04.02-.01-.1z"/><path fill="#fff" d="M11.46 8.16l.02.08-.04.02.02-.1z"/><path fill="#fff" d="M11.54 8.22h-.09v.05l.09-.05z"/><path fill="#fff" d="M11.54 8.22l-.07.05-.03-.03.1-.02z"/><path fill="#fff" d="M11.38 8.22l.07.05.02-.03-.09-.02z"/><path fill="#fff" d="M11.38 8.22h.08v.05l-.08-.05z"/><path fill="#fff" d="M11.51 8.32l-.03-.08-.04.01.07.07z"/><path fill="#fff" d="M11.51 8.32l-.07-.05.02-.04.05.09z"/><path fill="#fff" d="M11.41 8.32l.06-.05-.02-.04-.04.09z"/><path fill="#fff" d="M11.41 8.32l.02-.08.04.01-.06.07zM11.75 7.62l-.03.09.04.01-.01-.1z"/><path fill="#fff" d="M11.75 7.62l.03.09-.04.01.01-.1z"/><path fill="#fff" d="M11.83 7.68h-.08v.05l.08-.05z"/><path fill="#fff" d="M11.83 7.68l-.07.05-.02-.03.09-.02z"/><path fill="#fff" d="M11.67 7.68l.07.05.02-.03-.09-.02z"/><path fill="#fff" d="M11.67 7.68h.08v.05l-.08-.05z"/><path fill="#fff" d="M11.8 7.78l-.03-.08-.04.01.07.07z"/><path fill="#fff" d="M11.8 7.78l-.07-.05.03-.03.04.08z"/><path fill="#fff" d="M11.7 7.78l.07-.05-.03-.03-.04.08z"/><path fill="#fff" d="M11.7 7.78l.03-.08.04.01-.07.07zM11.98 7.45l-.03.1.05.02-.02-.12z"/><path fill="#fff" d="M11.98 7.45l.04.1-.05.02.01-.12z"/><path fill="#fff" d="M12.08 7.53h-.1v.05l.1-.05z"/><path fill="#fff" d="M12.08 7.53l-.08.06-.03-.04.11-.02z"/><path fill="#fff" d="M11.88 7.53l.09.06.03-.04-.12-.02z"/><path fill="#fff" d="M11.88 7.53h.11v.05l-.11-.05z"/><path fill="#fff" d="M12.04 7.64l-.03-.1-.05.02.08.08z"/><path fill="#fff" d="M12.04 7.64l-.08-.06.03-.04.05.1z"/><path fill="#fff" d="M11.92 7.64l.09-.06-.03-.04-.06.1z"/><path fill="#fff" d="M11.92 7.64l.04-.1.05.02-.09.08zM11.45 7.57l-.03.08.04.01-.01-.09z"/><path fill="#fff" d="M11.45 7.57l.02.08-.03.01.01-.09z"/><path fill="#fff" d="M11.53 7.63h-.08v.04l.08-.04z"/><path fill="#fff" d="M11.53 7.63l-.07.05-.02-.04.09-.01z"/><path fill="#fff" d="M11.37 7.63l.07.05.02-.04-.09-.01z"/><path fill="#fff" d="M11.37 7.63h.08v.04l-.08-.04z"/><path fill="#fff" d="M11.5 7.72l-.03-.08-.04.01.07.07z"/><path fill="#fff" d="M11.5 7.72l-.07-.05.02-.03.05.08z"/><path fill="#fff" d="M11.4 7.72l.07-.05-.03-.03-.04.08z"/><path fill="#fff" d="M11.4 7.72l.03-.08.03.01-.06.07zM8.89 6.01l-.03.11.05.01-.02-.12z"/><path fill="#fff" d="M8.89 6.01l.03.11-.05.01.02-.12z"/><path fill="#fff" d="M8.99 6.09h-.11v.05l.11-.05z"/><path fill="#fff" d="M8.99 6.09l-.09.06-.03-.04.12-.02z"/><path fill="#fff" d="M8.79 6.09l.08.06.03-.04-.11-.02z"/><path fill="#fff" d="M8.79 6.09h.1v.05l-.1-.05z"/><path fill="#fff" d="M8.95 6.21l-.03-.1-.05.01.08.09z"/><path fill="#fff" d="M8.95 6.21l-.08-.06.03-.05.05.11z"/><path fill="#fff" d="M8.83 6.21l.08-.06-.03-.05-.05.11z"/><path fill="#fff" d="M8.83 6.21l.03-.1.05.01-.08.09zM10.79 5.76l-.02.08.04.02-.02-.1z"/><path fill="#fff" d="M10.79 5.76l.03.08-.04.02.01-.1z"/><path fill="#fff" d="M10.87 5.82h-.08v.05l.08-.05z"/><path fill="#fff" d="M10.87 5.82l-.06.05-.03-.03.09-.02z"/><path fill="#fff" d="M10.71 5.82l.07.05.03-.03-.1-.02z"/><path fill="#fff" d="M10.71 5.82h.09v.05l-.09-.05z"/><path fill="#fff" d="M10.84 5.92l-.02-.08-.04.01.06.07z"/><path fill="#fff" d="M10.84 5.92l-.06-.05.02-.04.04.09z"/><path fill="#fff" d="M10.74 5.92l.07-.05-.02-.04-.05.09z"/><path fill="#fff" d="M10.74 5.92l.03-.08.04.01-.07.07zM10 7.22l-.04.12.06.02-.02-.14z"/><path fill="#fff" d="M10 7.22l.04.12-.06.02.02-.14z"/><path fill="#fff" d="M10.12 7.31h-.13v.06l.13-.06z"/><path fill="#fff" d="M10.12 7.31l-.1.07-.04-.05.14-.02z"/><path fill="#fff" d="M9.88 7.31l.1.07.04-.05-.14-.02z"/><path fill="#fff" d="M9.88 7.31h.13v.06l-.13-.06z"/><path fill="#fff" d="M10.07 7.45l-.03-.12-.07.02.1.1z"/><path fill="#fff" d="M10.07 7.45l-.1-.07.04-.06.06.13z"/><path fill="#fff" d="M9.93 7.45l.1-.07-.04-.06-.06.13z"/><path fill="#fff" d="M9.93 7.45l.03-.12.07.02-.1.1zM10.34 6.64l-.04.11.06.01-.02-.12z"/><path fill="#fff" d="M10.34 6.64l.03.11-.05.01.02-.12z"/><path fill="#fff" d="M10.44 6.72h-.11v.05l.11-.05z"/><path fill="#fff" d="M10.44 6.72l-.09.06-.03-.04.12-.02z"/><path fill="#fff" d="M10.24 6.72l.08.06.03-.04-.11-.02z"/><path fill="#fff" d="M10.24 6.72h.1v.05l-.1-.05z"/><path fill="#fff" d="M10.4 6.84l-.03-.1-.05.01.08.09z"/><path fill="#fff" d="M10.4 6.84l-.09-.07.04-.04.05.11z"/><path fill="#fff" d="M10.28 6.84l.08-.07-.03-.04-.05.11z"/><path fill="#fff" d="M10.28 6.84l.03-.1.05.01-.08.09zM10 6.38l-.03.1.05.01-.02-.11z"/><path fill="#fff" d="M10 6.38l.03.1-.05.01.02-.11z"/><path fill="#fff" d="M10.1 6.45h-.11v.05l.11-.05z"/><path fill="#fff" d="M10.1 6.45l-.08.06-.04-.04.12-.02z"/><path fill="#fff" d="M9.9 6.45l.08.06.04-.04-.12-.02z"/><path fill="#fff" d="M9.9 6.45h.11v.05l-.11-.05z"/><path fill="#fff" d="M10.06 6.57l-.03-.1-.05.01.08.09z"/><path fill="#fff" d="M10.06 6.57l-.08-.07.03-.04.05.11z"/><path fill="#fff" d="M9.94 6.57l.08-.07-.03-.04-.05.11z"/><path fill="#fff" d="M9.94 6.57l.03-.1.05.01-.08.09zM9.71 6.67l-.03.08.04.01-.01-.09z"/><path fill="#fff" d="M9.71 6.67l.02.08-.04.01.02-.09z"/><path fill="#fff" d="M9.79 6.72H9.7v.05l.09-.05z"/><path fill="#fff" d="M9.79 6.72l-.07.06-.03-.04.1-.02z"/><path fill="#fff" d="M9.63 6.72l.07.06.02-.04-.09-.02z"/><path fill="#fff" d="M9.63 6.72h.08v.05l-.08-.05z"/><path fill="#fff" d="M9.76 6.82l-.03-.08-.04.01.07.07z"/><path fill="#fff" d="M9.76 6.82l-.07-.05.02-.03.05.08z"/><path fill="#fff" d="M9.66 6.82l.06-.05-.02-.03-.04.08z"/><path fill="#fff" d="M9.66 6.82l.02-.08.04.01-.06.07zM9.85 6.9l-.01.06h.02l-.01-.06z"/><path fill="#fff" d="M9.85 6.9l.02.06h-.03l.01-.06z"/><path fill="#fff" d="M9.91 6.94h-.06v.03l.06-.03z"/><path fill="#fff" d="M9.91 6.94l-.05.04-.01-.03.06-.01z"/><path fill="#fff" d="M9.8 6.94l.05.04.01-.03-.06-.01z"/><path fill="#fff" d="M9.8 6.94h.06v.03l-.06-.03z"/><path fill="#fff" d="M9.89 7.01l-.02-.06-.03.01.05.05z"/><path fill="#fff" d="M9.89 7.01l-.05-.04.02-.02.03.06z"/><path fill="#fff" d="M9.82 7.01l.05-.04-.02-.02-.03.06z"/><path fill="#fff" d="M9.82 7.01l.02-.06.03.01-.05.05zM10.87 7.91l-.03.11.05.01-.02-.12z"/><path fill="#fff" d="M10.87 7.91l.04.11-.05.01.01-.12z"/><path fill="#fff" d="M10.97 7.99h-.1v.05l.1-.05z"/><path fill="#fff" d="M10.97 7.99l-.08.06-.03-.04.11-.02z"/><path fill="#fff" d="M10.77 7.99l.09.06.03-.04-.12-.02z"/><path fill="#fff" d="M10.77 7.99h.11v.05l-.11-.05z"/><path fill="#fff" d="M10.94 8.11l-.04-.1-.05.01.09.09z"/><path fill="#fff" d="M10.94 8.11l-.09-.07.03-.04.06.11z"/><path fill="#fff" d="M10.81 8.11l.09-.07-.03-.04-.06.11z"/><path fill="#fff" d="M10.81 8.11l.03-.1.05.01-.08.09zM11.12 7.67l-.02.08.04.01-.02-.09z"/><path fill="#fff" d="M11.12 7.67l.03.08-.04.01.01-.09z"/><path fill="#fff" d="M11.2 7.73h-.08v.04l.08-.04z"/><path fill="#fff" d="M11.2 7.73l-.07.05-.02-.04.09-.01z"/><path fill="#fff" d="M11.04 7.73l.07.05.03-.04-.1-.01z"/><path fill="#fff" d="M11.04 7.73h.09v.04l-.09-.04z"/><path fill="#fff" d="M11.17 7.82l-.02-.08-.04.02.06.06z"/><path fill="#fff" d="M11.17 7.82l-.06-.05.02-.03.04.08z"/><path fill="#fff" d="M11.07 7.82l.07-.05-.02-.03-.05.08z"/><path fill="#fff" d="M11.07 7.82l.03-.08.04.02-.07.06zM10.64 7.6l-.02.08.04.01-.02-.09z"/><path fill="#fff" d="M10.64 7.6l.03.08-.04.01.01-.09z"/><path fill="#fff" d="M10.72 7.66h-.08v.04l.08-.04z"/><path fill="#fff" d="M10.72 7.66l-.07.05-.02-.04.09-.01z"/><path fill="#fff" d="M10.56 7.66l.07.05.02-.04-.09-.01z"/><path fill="#fff" d="M10.56 7.66h.09v.04l-.09-.04z"/><path fill="#fff" d="M10.69 7.75l-.02-.08-.04.01.06.07z"/><path fill="#fff" d="M10.69 7.75l-.07-.05.03-.03.04.08z"/><path fill="#fff" d="M10.59 7.75l.07-.05-.02-.03-.05.08z"/><path fill="#fff" d="M10.59 7.75l.03-.08.04.01-.07.07zM8.83 7.46l-.04.12.06.03-.02-.15z"/><path fill="#fff" d="M8.83 7.46l.04.12-.06.03.02-.15z"/><path fill="#fff" d="M8.95 7.55h-.13v.07l.13-.07z"/><path fill="#fff" d="M8.95 7.55l-.1.08-.04-.05.14-.03z"/><path fill="#fff" d="M8.71 7.55l.1.08.04-.05-.14-.03z"/><path fill="#fff" d="M8.71 7.55h.13v.07l-.13-.07z"/><path fill="#fff" d="M8.9 7.7l-.03-.13-.07.02.1.11z"/><path fill="#fff" d="M8.9 7.7l-.1-.08.04-.05.06.13z"/><path fill="#fff" d="M8.76 7.7l.1-.08-.04-.05-.06.13z"/><path fill="#fff" d="M8.76 7.7l.03-.13.06.02-.09.11zM10 8.3l-.01.04.02.01L10 8.3z"/><path fill="#fff" d="M10 8.3l.01.04-.02.01.01-.05z"/><path fill="#fff" d="M10.04 8.33H10v.03l.04-.03z"/><path fill="#fff" d="M10.04 8.33l-.03.03-.02-.02.05-.01z"/><path fill="#fff" d="M9.96 8.33l.03.03.02-.02-.05-.01z"/><path fill="#fff" d="M9.96 8.33H10v.03l-.04-.03z"/><path fill="#fff" d="M10.02 8.38l-.01-.04-.02.01.03.03z"/><path fill="#fff" d="M10.02 8.38l-.03-.02.01-.02.02.04z"/><path fill="#fff" d="M9.98 8.38l.03-.02-.01-.02-.02.04z"/><path fill="#fff" d="M9.98 8.38l.01-.04.02.01-.03.03z"/></symbol><symbol viewBox="0 0 20 12" id="country-flags-ca" xmlns="http://www.w3.org/2000/svg"><path fill="#e91e26" d="M0 0h4.7v12H0zM15.3 0H20v12h-4.7z"/><path fill="#fff" d="M4.7 0h10.6v12H4.7z"/><path d="M10 1.6l-.7 1.3c-.1.2-.2.2-.4.1l-.5-.3.4 2.1c.1.4-.2.4-.3.2l-.9-1-.1.5c0 .1-.1.1-.2.1l-1.1-.2.3 1.1c0 .3.1.4-.1.5l-.4.2 1.9 1.7c.1 0 .2.1.1.2l-.1.6a12.25 12.25 0 011.9-.2.35.35 0 01.2.1l-.1 2.2h.3l-.1-2.1a.1.1 0 01.1-.1 12.25 12.25 0 001.9.2l-.1-.7a.37.37 0 01.1-.3L14 6.2l-.4-.2c-.2-.1-.1-.2-.1-.4l.3-1.1-1.1.2a.35.35 0 01-.2-.1l-.1-.6-.9 1.1c-.1.2-.4.2-.3-.2l.4-2.1-.5.2a.25.25 0 01-.4-.1z" fill="#e91e26"/></symbol><symbol viewBox="0 0 20 12" id="country-flags-ch" xmlns="http://www.w3.org/2000/svg"><path fill="#c6001e" d="M0 0h20v12H0z"/><path fill="#fff" d="M6.35 4.88h2.56V2.25h2.18v2.63h2.56v2.25h-2.56v2.62H8.91V7.13H6.35V4.88z"/></symbol><symbol viewBox="0 0 20 12" id="country-flags-cl" xmlns="http://www.w3.org/2000/svg"><path fill="#fff" d="M0 0h20v12H0z"/><path fill="#2530a9" d="M0 0h5.8v12H0z"/><path fill="#c22623" d="M0 6h20v6H0z"/><path fill="#fff" d="M2.9 1.5l-.4 1.4.7.3-.3-1.7z"/><path fill="#fff" d="M2.9 1.5l.5 1.4-.7.3.2-1.7z"/><path fill="#fff" d="M4.3 2.5H2.8v.8l1.5-.8z"/><path fill="#fff" d="M4.3 2.5l-1.2.9-.4-.6 1.6-.3z"/><path fill="#fff" d="M1.5 2.5l1.2.9.4-.6-1.6-.3z"/><path fill="#fff" d="M1.5 2.5H3v.8l-1.5-.8z"/><path fill="#fff" d="M3.8 4.2l-.5-1.4-.7.2 1.2 1.2z"/><path fill="#fff" d="M3.8 4.2l-1.2-.9.4-.6.8 1.5z"/><path fill="#fff" d="M2.1 4.2l1.1-.9-.4-.6-.7 1.5z"/><path fill="#fff" d="M2.1 4.2l.4-1.4.7.2-1.1 1.2z"/></symbol><symbol viewBox="0 0 20 12" id="country-flags-cz" xmlns="http://www.w3.org/2000/svg"><g fill="none" fill-rule="evenodd"><path fill="#C40028" d="M0 12h19.975V0H0z"/><path fill="#FFF" d="M0 6h19.975V0H0z"/><path fill="#29457C" d="M0 0v12l8.739-6z"/></g></symbol><symbol viewBox="0 0 20 12" id="country-flags-de" xmlns="http://www.w3.org/2000/svg"><path d="M0 0h20v4H0z"/><path fill="#e1001f" d="M0 4h20v4H0z"/><path fill="#f6d928" d="M0 8h20v4H0z"/></symbol><symbol viewBox="0 0 20 12" id="country-flags-fr" xmlns="http://www.w3.org/2000/svg"><path fill="#323e95" d="M0 0h6.7v12H0z"/><path fill="#f4f4f4" d="M6.7 0h6.7v12H6.7z"/><path fill="#d80031" d="M13.3 0H20v12h-6.7z"/></symbol><symbol viewBox="0 0 20 12" id="country-flags-gb" xmlns="http://www.w3.org/2000/svg"><path fill="#fff" d="M0 0h20v12H0z"/><path fill="#bd0034" d="M13.4 4.3L20 .5V0h-.5L12 4.3h1.4zM13.1 7.9l6.9 4v-.8l-5.5-3.2h-1.4zM0 .9l5.9 3.4h1.4L0 .1v.8zM7 7.9l-7 4v.1h1.3l7.1-4.1H7z"/><path fill="#1a237b" d="M18.6 0h-7v4l7-4zM8.5 0H1.6l6.9 4V0zM20 4.3V1.6l-4.7 2.7H20zM20 10.6V7.9h-4.7l4.7 2.7zM2 12h6.5V8.2L2 12zM11.6 12h6.6l-6.6-3.8V12zM0 7.9v2.8l4.9-2.8H0zM0 4.3h4.9L0 1.5v2.8z"/><path fill="#bd0034" d="M9.2 0v5.1H0v2.1h9.2V12H11V7.2h9V5.1h-9V0H9.2z"/></symbol><symbol viewBox="0 0 20 12" id="country-flags-hk" xmlns="http://www.w3.org/2000/svg"><path fill="#cb1d23" d="M0 0h20v12H0z"/><path d="M10 6a1.84 1.84 0 01-1-2.37 1.77 1.77 0 011.82-1.13.58.58 0 00-.24.87 1 1 0 01-.39 1.32A.79.79 0 0010 6" fill="#fff"/><path fill="#cb1d23" d="M9.84 4.1l.22-.52-.48.29.56.05-.42-.37.12.55zM10 6a1.37 1.37 0 01-.36-1.85A1.42 1.42 0 0010 6z"/><path d="M10 6a1.76 1.76 0 013.49-.28.55.55 0 00-.87 0 .9.9 0 01-1.34 0A.75.75 0 0010 6" fill="#fff"/><path fill="#cb1d23" d="M11.71 5.26l.55.05-.42-.38.12.56.22-.52-.47.29zM10 6a1.3 1.3 0 011.6-.92V5A1.35 1.35 0 0010 6z"/><path d="M10 6a1.74 1.74 0 01-2.49.23A1.85 1.85 0 017 4.12a.56.56 0 00.73.5.92.92 0 011.1.79A.76.76 0 0010 6" fill="#fff"/><path fill="#cb1d23" d="M8.2 5.57l-.42-.38.12.56.22-.52-.48.29.56.05zM10 6a1.28 1.28 0 01-1.82-.22A1.33 1.33 0 0010 6z"/><path d="M10 6a1.77 1.77 0 012.15 1.32 1.84 1.84 0 01-.8 2 .58.58 0 00-.35-.84 1 1 0 01-.44-1.31A.78.78 0 0010 6" fill="#fff"/><path fill="#cb1d23" d="M11.21 7.44l.12.56.22-.53-.47.29.55.06-.42-.38zM10 6a1.33 1.33 0 011.35 1.28h.05A1.38 1.38 0 0010 6z"/><path d="M10 6a1.85 1.85 0 01-.56 2.51 1.73 1.73 0 01-2.1-.17.56.56 0 00.66-.56.93.93 0 011.1-.83A.77.77 0 0010 6" fill="#fff"/><path fill="#cb1d23" d="M9.04 7.63l-.47.29.55.06-.42-.38.12.55.22-.52zM10 6a1.36 1.36 0 01-.77 1.71A1.41 1.41 0 0010 6z"/><path d="M10 5.92a.08.08 0 11-.08.08.08.08 0 01.08-.08" fill="#cb1d23"/></symbol><symbol viewBox="0 0 20 12" id="country-flags-ie" xmlns="http://www.w3.org/2000/svg"><path fill="#409a63" d="M0 0h6.7v12H0z"/><path fill="#fff" d="M6.7 0h6.7v12H6.7z"/><path fill="#ee7e46" d="M13.3 0H20v12h-6.7z"/></symbol><symbol viewBox="0 0 20 12" id="country-flags-in" xmlns="http://www.w3.org/2000/svg"><path fill="#fff" d="M0 0h20v12H0z"/><path fill="#f0953e" d="M0 0h20v4H0z"/><path fill="#3b8916" d="M0 8h20v4H0z"/><path d="M10 4.2A1.8 1.8 0 1011.75 6 1.78 1.78 0 0010 4.2m0 .18V5.8 4.38h.13a.07.07 0 00.14 0h.13l-.27.86-.09.51.18-.49.18-.89h.13a.07.07 0 00.07.07.07.07 0 00.07 0l.12.06-.48.76-.21.47.29-.42.4-.81.11.07a.07.07 0 00.07.07.07.07 0 00.06 0l.1.09-.65.61-.32.4.39-.33.59-.67.09.1a.07.07 0 000 .13l.07.11-.78.41-.41.3.46-.22.74-.49.06.13a.08.08 0 000 .07.07.07 0 00.07.07v.12l-.86.19-.47.18.5-.09.84-.28v.13a.07.07 0 000 .15v.14L10.7 6h-.5 1.38v.14a.07.07 0 000 .15v.13l-.3-.1-.54-.18-.5-.09.47.18.86.19v.13a.07.07 0 00-.07.07l-.06.12-.74-.49-.46-.22.24.17.17.12.78.41-.07.12a.07.07 0 00-.07.07.07.07 0 000 .06l-.09.1-.59-.67-.39-.33.32.4.65.61-.1.09a.07.07 0 00-.07.07l-.12.08-.4-.8-.29-.42.21.47.48.76-.12.06a.07.07 0 00-.07 0 .07.07 0 00-.07.07h-.13l-.18-.89-.18-.48.09.51.27.86h-.13a.07.07 0 00-.14 0H10V6.05v1.42h-.14a.07.07 0 00-.14 0h-.13l.27-.86.08-.51-.17.48-.18.89h-.13a.07.07 0 00-.14 0l-.12-.06.48-.76.21-.47-.29.42-.4.81-.1-.08a.07.07 0 00-.1-.12.07.07 0 00-.06 0l-.1-.09.65-.61.32-.4-.39.33-.59.67L8.79 7a.08.08 0 000-.06.07.07 0 00-.07-.07l-.07-.12.78-.41.41-.3-.46.22-.74.49-.06-.12a.07.07 0 000-.14v-.13l.86-.19.47-.18-.5.09-.84.28v-.13a.07.07 0 000-.15v-.14L9.3 6h.5-1.38v-.14a.07.07 0 000-.15v-.13l.84.28.5.09-.47-.18-.86-.19v-.13a.07.07 0 00.07-.07.08.08 0 000-.07l.06-.12.74.49.46.22-.41-.3-.78-.41.07-.12A.07.07 0 008.82 5a.07.07 0 000-.06l.09-.1.59.67.39.33-.32-.4-.65-.61.08-.07a.07.07 0 00.11-.09l.11-.07.4.81.29.42-.21-.47-.48-.76.12-.06a.07.07 0 00.07 0 .07.07 0 00.07-.07h.13l.18.88.17.49-.08-.51-.27-.86h.13a.07.07 0 00.14 0H10" fill="#16007e"/><path d="M10 5.73a.27.27 0 11-.26.27.27.27 0 01.26-.27" fill="#fff"/><path d="M10 5.79a.21.21 0 11-.2.21.21.21 0 01.2-.21" fill="#16007e"/></symbol><symbol viewBox="0 0 20 12" id="country-flags-it" xmlns="http://www.w3.org/2000/svg"><path fill="#3d9448" d="M0 0h6.67v12H0z"/><path fill="#f4f4f4" d="M6.67 0h6.67v12H6.67z"/><path fill="#d81e34" d="M13.33 0H20v12h-6.67z"/></symbol><symbol viewBox="0 0 20 12" id="country-flags-jp" xmlns="http://www.w3.org/2000/svg"><path fill="#fff" d="M0 0h20v12H0z"/><path d="M10 2.4A3.55 3.55 0 0113.5 6 3.55 3.55 0 0110 9.6 3.55 3.55 0 016.5 6 3.55 3.55 0 0110 2.4" fill="#ad0018"/></symbol><symbol viewBox="0 0 20 12" id="country-flags-nz" xmlns="http://www.w3.org/2000/svg"><path fill="#2c3077" d="M10 0v.6L7.8 1.7H10v1.7H7.8L10 4.6v.6H8.9L5.8 3.6v1.6H4.2V3.6L1.1 5.2H0V12h20V0H10zM0 3.4v1.2l2.2-1.2H0zM5.8 0v1.6L8.9 0H5.8zM4.2 0H1.1l3.1 1.6V0zM0 1.7h2.2L0 .6v1.1z"/><path fill="#fff" d="M10 0L6.7 1.7h-.8L9.3 0h-.4L5.8 1.6V0h-.3v2.1H10v-.4H7.8L10 .6V0zM4.2 0v1.6L1.1 0H0l3.3 1.7h-.7L0 .4v.2l2.2 1.1H0v.4h4.5V0h-.3zM6.7 3.1H5.5v2.1h.3V3.6l3.1 1.6H10v-.1L6.7 3.4h.7L10 4.8v-.2L7.8 3.4H10v-.3H6.7zM4 3.1H0v.3h2.2L0 4.6v.5l3.3-1.7h.8L.7 5.2h.4l3.1-1.6v1.6h.3V3.1H4z"/><path fill="#bd1f38" d="M3.3 3.4L0 5.1v.1h.7l3.4-1.8h-.8zM0 .4l2.6 1.3h.7L0 0v.4zM10 0h-.7L5.9 1.7h.8L10 0zM6.7 3.4L10 5.1v-.3L7.4 3.4h-.7z"/><path fill="#bd1f38" d="M4.5 0v2.1H0v1h4.5v2.1h1V3.1H10v-1H5.5V0h-1z"/><path fill="#fff" d="M13.9 3.5h.5l.2-.5.2.5h.5l-.4.3.1.6-.4-.4-.4.4.1-.6-.4-.3z"/><path fill="#bd1f38" d="M14.1 3.6h.4l.1-.4.1.4h.4l-.3.2.1.4-.3-.3-.3.3.1-.4-.3-.2z"/><path fill="#fff" d="M11.7 5.8h.6l.1-.6.2.6h.5l-.4.3.2.5-.5-.3-.4.3.1-.5-.4-.3z"/><path fill="#bd1f38" d="M11.9 5.8h.4l.1-.3.1.3h.4l-.3.3.1.3-.3-.2-.3.2.1-.3-.3-.3z"/><path fill="#fff" d="M15.8 5.2h.5l.2-.5.1.5h.5l-.4.3.1.5-.3-.3-.4.3.1-.5-.4-.3z"/><path fill="#bd1f38" d="M16 5.3h.4l.1-.3.1.3h.3l-.3.2.1.3-.2-.2-.3.2.1-.3-.3-.2z"/><path fill="#fff" d="M13.8 9.3h.6l.2-.6.2.6h.6l-.5.3.2.6-.5-.3-.5.3.2-.6-.5-.3z"/><path fill="#bd1f38" d="M14.1 9.4h.4l.1-.4.1.4h.4l-.3.2.1.4-.3-.2-.3.2.1-.4-.3-.2z"/></symbol><symbol viewBox="0 0 20 12" id="country-flags-qa" xmlns="http://www.w3.org/2000/svg"><path fill="#681840" d="M6 0l2.1.7-2.1.6 2.1.7-2.1.7 2.1.6L6 4l2.1.7-2.1.6 2.1.7-2.1.7 2.1.6L6 8l2.1.7-2.1.6 2.1.7-2.1.7 2.1.6L6 12h14V0H6z"/><path fill="#fff" d="M0 0v12h6l2.1-.7-2.1-.6 2.1-.7L6 9.3l2.1-.6L6 8l2.1-.7L6 6.7 8.1 6 6 5.3l2.1-.6L6 4l2.1-.7L6 2.7 8.1 2 6 1.3 8.1.7 6 0H0z"/></symbol><symbol viewBox="0 0 20 12" id="country-flags-se" xmlns="http://www.w3.org/2000/svg"><g fill="none" fill-rule="evenodd"><path fill="#2D5A95" d="M0 12h20V0H0z"/><path fill="#F3D02F" d="M5.826 7.07V12h2.33V7.07H20V4.716H8.156V0h-2.33v4.715H0V7.07h5.826z"/></g></symbol><symbol viewBox="0 0 20 12" id="country-flags-sg" xmlns="http://www.w3.org/2000/svg"><path fill="#da1841" d="M0 0h20v6H0z"/><path fill="#fff" d="M0 6h20v6H0zM6 3a2.16 2.16 0 01-2.2 2.2A2.22 2.22 0 011.6 3 2.22 2.22 0 013.8.8 2.16 2.16 0 016 3"/><path d="M6.7 3A2.1 2.1 0 114.6.9 2.05 2.05 0 016.7 3" fill="#da1841"/><path fill="#fff" d="M4.1 3.1l-.3-.3-.3.3.1-.4-.3-.2h.4l.1-.4.1.4h.4l-.3.2.1.4zM6.4 3.1l-.3-.3-.2.3v-.4l-.3-.2H6l.1-.4.1.4h.4l-.3.2.1.4zM5.3 2.2L5 1.9l-.3.3v-.4l-.3-.2h.4l.2-.4v.4h.4l-.3.2.2.4zM4.5 4.5l-.3-.2-.3.2.1-.4-.3-.2h.4l.1-.4.1.4h.4l-.3.2.1.4zM6 4.5l-.3-.2-.3.2.1-.4-.3-.2h.4l.1-.4.1.4h.3l-.2.2.1.4z"/></symbol><symbol viewBox="0 0 20 12" id="country-flags-tr" xmlns="http://www.w3.org/2000/svg"><g fill="none" fill-rule="evenodd"><path fill="#D00027" d="M0 12h20V0H0z"/><path fill="#FFF" d="M5.826 2.946c1.609 0 2.913 1.319 2.913 2.946 0 1.627-1.304 2.946-2.913 2.946-1.61 0-2.913-1.32-2.913-2.946 0-1.627 1.304-2.946 2.913-2.946"/><path fill="#D00027" d="M6.554 3.534c1.287 0 2.33 1.056 2.33 2.358 0 1.301-1.043 2.357-2.33 2.357-1.287 0-2.33-1.056-2.33-2.357 0-1.302 1.043-2.358 2.33-2.358"/><path fill="#FFF" d="M8.287 5.892l1.385.455.225-.701z"/><path fill="#FFF" d="M8.287 5.892l1.385-.455.225.7z"/><path fill="#FFF" d="M9.294 4.491v1.473h.728z"/><path fill="#FFF" d="M9.294 4.491l.855 1.192-.589.433z"/><path fill="#FFF" d="M9.294 7.293l.855-1.192-.589-.432z"/><path fill="#FFF" d="M9.294 7.293V5.82h.728z"/><path fill="#FFF" d="M10.922 5.026l-1.385.455.225.7z"/><path fill="#FFF" d="M10.922 5.026l-.856 1.192-.59-.433z"/><path fill="#FFF" d="M10.922 6.757l-.856-1.191-.59.433z"/><path fill="#FFF" d="M10.922 6.757l-1.385-.454.225-.701z"/></g></symbol><symbol viewBox="0 0 20 12" id="country-flags-us" xmlns="http://www.w3.org/2000/svg"><path fill="#cb001c" d="M0 11.1h20v.9H0z"/><path fill="#fff" d="M0 10.2h20v.9H0z"/><path fill="#cb001c" d="M0 9.2h20v.9H0z"/><path fill="#fff" d="M0 8.3h20v.9H0z"/><path fill="#cb001c" d="M0 7.4h20v.9H0z"/><path fill="#fff" d="M0 6.5h20v.9H0z"/><path fill="#cb001c" d="M0 5.5h20v.9H0z"/><path fill="#fff" d="M0 4.6h20v.9H0z"/><path fill="#cb001c" d="M0 3.7h20v.9H0z"/><path fill="#fff" d="M0 2.8h20v.9H0z"/><path fill="#cb001c" d="M0 1.8h20v.9H0z"/><path fill="#fff" d="M0 .9h20v.9H0z"/><path fill="#cb001c" d="M0 0h20v.9H0z"/><path fill="#2a3560" d="M0 0h9.1v6.5H0z"/><path fill="#fff" d="M.8.7l.1.3h.3l-.3.1.1.3-.2-.2-.2.2.1-.3L.5 1h.2L.8.7zM.8 1.8l.1.2h.3l-.3.2.1.2-.2-.1-.2.1.1-.2L.5 2h.2l.1-.2zM.8 2.9l.1.2h.3l-.3.2.1.2-.2-.1-.2.1.1-.2-.2-.2h.2l.1-.2zM.8 3.9l.1.3h.3l-.3.1.1.3-.2-.2-.2.2.1-.3-.2-.1h.2l.1-.3zM.8 5l.1.3h.3l-.3.1.1.3-.2-.2-.2.2.1-.3-.2-.1h.2L.8 5zM1.6 1.3v.2h.3l-.2.2.1.2-.2-.1-.2.1v-.2l-.2-.2h.3l.1-.2zM1.6 2.4v.2h.3l-.2.2.1.2-.2-.2-.2.2v-.2l-.2-.2h.3l.1-.2zM1.6 3.4v.3h.3l-.2.1.1.3-.2-.2-.2.2v-.3l-.2-.1h.3l.1-.3zM1.6 4.5v.3h.3l-.2.1.1.3-.2-.2-.2.2v-.3l-.2-.1h.3l.1-.3zM2.3.7l.1.3h.2l-.2.1.1.3-.2-.2-.2.2.1-.3L2 1h.2l.1-.3zM2.3 1.8l.1.2h.2l-.2.2.1.2-.2-.1-.2.1.1-.2L2 2h.2l.1-.2zM2.3 2.9l.1.2h.2l-.2.2.1.2-.2-.1-.2.1.1-.2-.2-.2h.2l.1-.2zM2.3 3.9l.1.3h.2l-.2.1.1.3-.2-.2-.2.2.1-.3-.2-.1h.2l.1-.3zM2.3 5l.1.3h.2l-.2.1.1.3-.2-.2-.2.2.1-.3-.2-.1h.2l.1-.3zM3 1.3l.1.2h.3l-.3.2.1.2-.2-.1-.2.1.1-.2-.2-.2h.2l.1-.2zM3 2.4l.1.2h.3l-.3.2.1.2-.2-.2-.2.2.1-.2-.2-.2h.2l.1-.2zM3 3.4l.1.3h.3l-.3.1.1.3-.2-.2-.2.2.1-.3-.2-.1h.2l.1-.3zM3 4.5l.1.3h.3l-.3.1.1.3L3 5l-.2.2.1-.3-.2-.1h.2l.1-.3zM3.8.7V1h.3l-.2.1.1.3-.2-.2-.2.2v-.3L3.4 1h.3l.1-.3zM3.8 1.8V2h.3l-.2.2.1.2-.2-.1-.2.1v-.2L3.4 2h.3l.1-.2zM3.8 2.9v.2h.3l-.2.2.1.2-.2-.1-.2.1v-.2l-.2-.2h.3l.1-.2zM3.8 3.9v.3h.3l-.2.1.1.3-.2-.2-.2.2v-.3l-.2-.1h.3l.1-.3zM3.8 5v.3h.3l-.2.1.1.3-.2-.2-.2.2v-.3l-.2-.1h.3l.1-.3zM4.5 1.3l.1.2h.2l-.2.2.1.2-.2-.1-.2.1.1-.2-.2-.2h.2l.1-.2zM4.5 2.4l.1.2h.2l-.2.2.1.2-.2-.2-.2.2.1-.2-.2-.2h.2l.1-.2zM4.5 3.4l.1.3h.2l-.2.1.1.3-.2-.2-.2.2.1-.3-.2-.1h.2l.1-.3zM4.5 4.5l.1.3h.2l-.2.1.1.3-.2-.2-.2.2.1-.3-.2-.1h.2l.1-.3zM5.2.7l.1.3h.3l-.2.1v.3l-.2-.2-.2.2.1-.3-.2-.1h.3V.7zM5.2 1.8l.1.2h.3l-.2.2v.2l-.2-.1-.2.1.1-.2-.2-.2h.3v-.2zM5.2 2.9l.1.2h.3l-.2.2v.2l-.2-.1-.2.1.1-.2-.2-.2h.3v-.2zM5.2 3.9l.1.3h.3l-.2.1v.3l-.2-.2-.2.2.1-.3-.2-.1h.3v-.3zM5.2 5l.1.3h.3l-.2.1v.3l-.2-.2-.2.2.1-.3-.2-.1h.3V5zM6 1.3v.2h.3l-.2.2.1.2-.2-.1-.2.1v-.2l-.2-.2h.3l.1-.2zM6 2.4v.2h.3l-.2.2.1.2-.2-.2-.2.2v-.2l-.2-.2h.3l.1-.2zM6 3.4v.3h.3l-.2.1.1.3-.2-.2-.2.2v-.3l-.2-.1h.3l.1-.3zM6 4.5v.3h.3l-.2.1.1.3L6 5l-.2.2v-.3l-.2-.1h.3l.1-.3zM6.7.7l.1.3H7l-.2.1.1.3-.2-.2-.2.2.1-.3-.2-.1h.2l.1-.3zM6.7 1.8l.1.2H7l-.2.2.1.2-.2-.1-.2.1.1-.2-.2-.2h.2l.1-.2zM6.7 2.9l.1.2H7l-.2.2.1.2-.2-.1-.2.1.1-.2-.2-.2h.2l.1-.2zM6.7 3.9l.1.3H7l-.2.1.1.3-.2-.2-.2.2.1-.3-.2-.1h.2l.1-.3zM6.7 5l.1.3H7l-.2.1.1.3-.2-.2-.2.2.1-.3-.2-.1h.2l.1-.3zM7.4 1.3l.1.2h.3l-.2.2v.2l-.2-.1-.2.1.1-.2-.2-.2h.3v-.2zM7.4 2.4l.1.2h.3l-.2.2V3l-.2-.2-.2.2.1-.2-.2-.2h.3v-.2zM7.4 3.4l.1.3h.3l-.2.1v.3l-.2-.2-.2.2.1-.3-.2-.1h.3v-.3zM7.4 4.5l.1.3h.3l-.2.1v.3L7.4 5l-.2.2.1-.3-.2-.1h.3v-.3zM8.2.7l.1.3h.2l-.2.1.1.3-.2-.2-.2.2v-.3L7.8 1h.3l.1-.3zM8.2 1.8l.1.2h.2l-.2.2.1.2-.2-.1-.2.1v-.2L7.8 2h.3l.1-.2zM8.2 2.9l.1.2h.2l-.2.2.1.2-.2-.1-.2.1v-.2l-.2-.2h.3l.1-.2zM8.2 3.9l.1.3h.2l-.2.1.1.3-.2-.2-.2.2v-.3l-.2-.1h.3l.1-.3zM8.2 5l.1.3h.2l-.2.1.1.3-.2-.2-.2.2v-.3l-.2-.1h.3l.1-.3z"/></symbol><symbol viewBox="0 0 20 12" id="country-flags-uy" xmlns="http://www.w3.org/2000/svg"><path fill="#fff" d="M0 0h20v12H0z"/><path d="M0 10.67h20V9.33H0v1.33zM0 8h20V6.67H0V8zm6.48-2.67H20V4H6.48v1.33zm0-2.67H20V1.33H6.48v1.34z" fill="#3e73b7"/><path d="M3.25 3.34l.06 1c-.88.66-.34 1-1 1.26.43-.44-.13-.44.36-1.45" fill="#eac126" fill-rule="evenodd"/><path d="M3.27 3.34l.06 1-.08-1h.02zm.06 1zm0 0a1.31 1.31 0 00-.58.81h-.06a1.36 1.36 0 01.6-.85zm-.58.81a.5.5 0 01-.39.44.45.45 0 00.36-.41h.02zm-.4.45h-.09l.06-.06zm0 0a.45.45 0 00.11-.5h.06a.5.5 0 01-.17.5zm.11-.5a1.49 1.49 0 01.21-1 1.38 1.38 0 00-.19.95h-.02z" fill="#292c2f"/><path d="M3 4.1a2.23 2.23 0 00-.3 1L2.59 5a2.73 2.73 0 01.32-1zm-.3 1a.58.58 0 01-.3.54.56.56 0 00.19-.64z" fill="#292c2f"/><path d="M3.25 3.34l-.08-1c.88-.66.34-1 1-1.26-.41.46.13.46-.36 1.45" fill="#eac126" fill-rule="evenodd"/><path d="M3.21 3.34l-.06-1 .08 1h-.02zm-.06-1zm0 0a1.21 1.21 0 00.58-.83h.06a1.34 1.34 0 01-.6.83zm.58-.83a.52.52 0 01.39-.45.46.46 0 00-.36.43zm.39-.45L4.23 1l-.06.1zm0 0a.43.43 0 00-.12.51v.01a.54.54 0 01.17-.52zM4 1.57a1.55 1.55 0 01-.21 1A1.4 1.4 0 004 1.58z" fill="#292c2f"/><path d="M3.53 2.57a2.66 2.66 0 00.32-.95 2.62 2.62 0 01-.32 1zm.32-.95a.6.6 0 01.28-.56.56.56 0 00-.26.52z" fill="#292c2f"/><path d="M3.25 3.34l-1 .06c-.64-.91-1-.35-1.22-1 .45.44.43-.12 1.41.37" fill="#eac126" fill-rule="evenodd"/><path d="M3.25 3.36l-1 .08v-.06l1-.06zm-1 .08zm0 0a1.18 1.18 0 00-.79-.6 1.21 1.21 0 01.83.62zm-.79-.6A.51.51 0 011 2.42a.5.5 0 00.39.39zM1 2.42v-.08l.07.06zm0 0a.44.44 0 00.45.15.5.5 0 01-.45-.15zm.52.13a1.28 1.28 0 011 .19 1.36 1.36 0 00-.9-.19z" fill="#292c2f"/><path d="M2.5 3.05a2.18 2.18 0 00-.92-.33v-.05a2.25 2.25 0 01.94.33zm-.92-.33a.58.58 0 01-.58-.3.5.5 0 00.51.27v.03z" fill="#292c2f"/><path d="M3.25 3.34l1-.08c.64.91 1 .37 1.22 1C5 3.85 5 4.41 4 3.9" fill="#eac126" fill-rule="evenodd"/><path d="M3.23 3.32l1-.08-1 .08zm1-.08zm0 0a1.24 1.24 0 00.77.62 1.28 1.28 0 01-.83-.62zm.77.62a.47.47 0 01.43.41A.45.45 0 005 3.9zm.45.41v.08l-.04-.06zm0 0A.43.43 0 005 4.13a.45.45 0 01.51.15zM5 4.13a1.38 1.38 0 01-1-.21 1.3 1.3 0 00.9.21z" fill="#292c2f"/><path d="M4 3.63a2.44 2.44 0 00.92.37A2.24 2.24 0 014 3.67zm.92.37a.54.54 0 01.53.31.51.51 0 00-.54-.31z" fill="#292c2f"/><path d="M3.25 3.34l-.64.76c-1.09-.19-1 .48-1.56.17.62 0 .23-.41 1.24-.77" fill="#eac126" fill-rule="evenodd"/><path d="M3.25 3.34l-.62.76.64-.75zm-.62.76zm0 0a1.17 1.17 0 00-1 .15 1.25 1.25 0 011-.17v.04zm-1 .15a.51.51 0 01-.6 0 .45.45 0 00.54 0zM1 4.29v-.04h.05zm0 0A.44.44 0 001.48 4a.46.46 0 01-.47.23zM1.48 4a1.43 1.43 0 01.81-.54A1.29 1.29 0 001.5 4z" fill="#292c2f"/><path d="M2.52 3.67a2.36 2.36 0 00-.88.44 2.37 2.37 0 01.86-.48zm-.88.44a.54.54 0 01-.58.17.55.55 0 00.56-.17z" fill="#292c2f"/><path d="M3.25 3.34l.62-.75c1.09.17 1-.5 1.56-.19-.62 0-.23.43-1.24.77" fill="#eac126" fill-rule="evenodd"/><path d="M3.23 3.32l.62-.75-.64.73zm.62-.75zm0 0a1.25 1.25 0 001-.15 1.27 1.27 0 01-1 .15zm1-.15a.51.51 0 01.6 0 .45.45 0 00-.54 0zm.6 0h.08-.09zm0 .06a.44.44 0 00-.45.17.52.52 0 01.47-.25v.03zM5 2.65a1.43 1.43 0 01-.81.54A1.29 1.29 0 005 2.63z" fill="#292c2f"/><path d="M4 3a1.9 1.9 0 00.88-.44 2.1 2.1 0 01-.88.49zm.88-.44a.58.58 0 01.58-.17.59.59 0 00-.56.17z" fill="#292c2f"/><path d="M3.25 3.34l-.73-.65c.17-1.12-.49-1-.19-1.6 0 .64.41.23.75 1.28" fill="#eac126" fill-rule="evenodd"/><path d="M3.23 3.36l-.73-.65.75.61zm-.73-.65zm0 0a1.45 1.45 0 00-.15-1 1.4 1.4 0 01.15 1zm-.15-1a.49.49 0 010-.6.49.49 0 000 .56zm0-.6v-.08.05zm0 0a.46.46 0 00.23.44.52.52 0 01-.24-.48zm.22.42a1.47 1.47 0 01.53.83 1.5 1.5 0 00-.51-.81z" fill="#292c2f"/><path d="M2.91 2.59a2 2 0 00-.43-.91 2.17 2.17 0 01.52.91h-.09zm-.43-.91a.61.61 0 01-.17-.6.59.59 0 00.17.58z" fill="#292c2f"/><path d="M3.25 3.34L4 4c-.17 1.12.49 1 .19 1.6-.06-.6-.45-.23-.79-1.29" fill="#eac126" fill-rule="evenodd"/><path d="M3.25 3.32L4 4l-.77-.64zM4 4zm0 0a1.47 1.47 0 00.15 1A1.46 1.46 0 014 4zm.13 1a.49.49 0 010 .6.49.49 0 00-.03-.6zm0 .6v.08-.1zm0 0a.49.49 0 00-.23-.44.48.48 0 01.24.46zm-.22-.46a1.32 1.32 0 01-.53-.83 1.6 1.6 0 00.51.81z" fill="#292c2f"/><path d="M3.57 4.08A2.22 2.22 0 004 5a2.2 2.2 0 01-.47-.9zM4 5a.64.64 0 01.17.62A.55.55 0 004 5z" fill="#292c2f"/><path fill="#eac126" fill-rule="evenodd" d="M3.25 3.34h.42l-.42 2.44-.43-2.44h.43v2.44"/><path d="M3.25 3.32h.41-.41zm.41 0zm0 0l-.39 2.46h-.06l.44-2.44h.05zm-.39 2.46v.12-.12zm-.06 0l-.43-2.44h.06l.43 2.44h-.06zm-.43-2.46zm0 0h.47-.43zm.43 0zm0 2.45V3.34h.06v2.44z" fill="#292c2f"/><path fill="#eac126" fill-rule="evenodd" d="M3.25 3.34h-.43L3.25.89l.42 2.45h-.42V.89"/><path d="M3.25 3.36h-.43.43zm-.43 0zm0 0L3.21.89h.06l-.43 2.45h-.06zM3.21.89V.77v.12zm.06 0l.43 2.45h-.05L3.21.91zm.43 2.47zm0 0h-.45.41zm-.41 0zm0-2.47h-.02v2.45h-.06V.89z" fill="#292c2f"/><path fill="#eac126" fill-rule="evenodd" d="M3.25 3.34v.45L.86 3.34l2.39-.44v.44H.86"/><path d="M3.27 3.79h-.06v-.45h.06v.45zm0 0zm0 0L.86 3.36l2.39.41zM.86 3.36H.75h.11zm0 0l2.37-.44-2.37.44zm2.37-.44zm0 .46h-.02V2.9h.06v.44zm0 0zm0 0H.86h2.39z" fill="#292c2f"/><path fill="#eac126" fill-rule="evenodd" d="M3.25 3.34V2.9l2.37.44-2.37.45v-.45h2.37"/><path d="M3.21 2.9h.06v.44h-.06V2.9zm0 0zm0 0l2.41.42-2.39-.4zm2.41.42h.11-.11zm0 0l-2.37.44 2.35-.44zm-2.37.44zm0-.46h.02v.49h-.06v-.45zm0 0zm0 0h2.37-2.37z" fill="#292c2f"/><path fill="#eac126" fill-rule="evenodd" d="M3.25 3.34l.3.31-1.99 1.41 1.37-2.04.32.32-1.69 1.72"/><path d="M3.25 3.32l.32.31-.3-.31zm.32.31zm0 0l-2 1.41 2-1.41zm-2 1.41l-.09.08.06-.12zm0 0L2.91 3H3L1.63 5zM2.91 3H3zM3 3l.3.31L2.91 3zm.3.31zm0 0L1.58 5.08l1.65-1.76z" fill="#292c2f"/><path fill="#eac126" fill-rule="evenodd" d="M3.25 3.34l-.32-.32L4.92 1.6 3.55 3.65l-.3-.31L4.92 1.6"/><path d="M3.23 3.36L2.91 3H3l.3.31zM2.91 3zm0 0l2-1.43L3 3zm2-1.43L5 1.53l-.06.1zm0 0l-1.37 2 1.37-2zm-1.37 2zm0 0l-.3-.31.33.37zm-.3-.31zm0 0L4.91 1.6 3.25 3.36z" fill="#292c2f"/><path fill="#eac126" fill-rule="evenodd" d="M3.25 3.34l-.32.31L1.56 1.6l1.99 1.42-.3.32L1.56 1.6"/><path d="M3.25 3.36L3 3.67l.32-.31zM3 3.67zm0 0l-1.37-2L3 3.63zm-1.37-2l-.06-.1.01.01zm0 0L3.55 3l-2-1.41zM3.55 3zm0 0l-.32.33.3-.33zm-.32.33zm0 0L1.56 1.62l1.69 1.7z" fill="#292c2f"/><path fill="#eac126" fill-rule="evenodd" d="M3.25 3.34l.3-.32 1.37 2.04-1.99-1.41.32-.31 1.67 1.72"/><path d="M3.23 3.32l.3-.32-.32.33zm.3-.32zm0 0l1.41 2-1.41-2zm1.41 2l.06.16-.09-.08zm0 0l-2-1.41L4.92 5zm-2-1.41zm0 0l.32-.31-.26.39zm.32-.31zm0 0L4.94 5 3.23 3.36z" fill="#292c2f"/><path d="M4 3.34a.8.8 0 10-1.6 0 .8.8 0 101.6 0" fill="#eac126" fill-rule="evenodd"/><path d="M4 3.34a.72.72 0 00-.23-.56.86.86 0 01.24.6H4zm-.22-.56a.67.67 0 00-.53-.23v-.06a.81.81 0 01.56.25zm-.53-.23a.69.69 0 00-.54.23.82.82 0 01.58-.25v.02zm-.54.23a.72.72 0 00-.23.56h-.06a.86.86 0 01.24-.6zm-.23.56a.78.78 0 00.23.56.81.81 0 01-.24-.58h.01zm.23.56a.75.75 0 00.54.23.82.82 0 01-.58-.25zm.54.23a.74.74 0 00.53-.23.81.81 0 01-.56.25zm.53-.23A.78.78 0 004 3.34h.06a.81.81 0 01-.24.58z" fill="#292c2f"/><path d="M3.81 3a.47.47 0 01-.24 0 .66.66 0 00-.24.08.37.37 0 01.2-.18.36.36 0 01.28.1M3.61 3.07a.09.09 0 010 .15c-.06 0-.15-.1-.09-.15" fill="#292c2f" fill-rule="evenodd"/><path d="M3.38 3.15c0-.1.08-.12.19-.12a.35.35 0 01.21.12.59.59 0 00-.21-.08.18.18 0 00-.19.08" fill="#292c2f" fill-rule="evenodd"/><path d="M3.4 3.17a.36.36 0 01.15 0 .26.26 0 00.17-.06.29.29 0 01-.15.1.2.2 0 01-.17-.04" fill="#292c2f" fill-rule="evenodd"/><path d="M3.65 3.21c.09 0 0-.12 0-.14s.08.1 0 .14M3.25 3.65h.11a.59.59 0 00.26.06.56.56 0 01-.38 0M3.66 3.77a.94.94 0 00-.09-.14.2.2 0 01.09.14" fill="#292c2f" fill-rule="evenodd"/><path d="M3.25 3.83a.74.74 0 00.38-.14 2.62 2.62 0 01-.38.08M3.25 3.56a.77.77 0 01.11 0 .26.26 0 01.17.06s0-.06-.08-.06 0-.12-.09-.14 0 0 0 .08-.06 0-.08 0 0 .06-.06.06M2.67 3a.47.47 0 00.24 0 .65.65 0 01.24.08A.37.37 0 003 2.9a.36.36 0 00-.33.1M2.88 3.07a.09.09 0 000 .15c.06 0 .15-.1.09-.15" fill="#292c2f" fill-rule="evenodd"/><path d="M3.1 3.15c0-.1-.1-.15-.19-.15a.35.35 0 00-.21.12.8.8 0 01.21-.08.18.18 0 01.19.08" fill="#292c2f" fill-rule="evenodd"/><path d="M3.08 3.17a.36.36 0 00-.15 0 .26.26 0 01-.17-.06.29.29 0 00.15.1.17.17 0 00.17-.08" fill="#292c2f" fill-rule="evenodd"/><path d="M2.84 3.21c-.09 0 0-.12 0-.14s-.08.1 0 .14M3.25 3.65h-.13a.59.59 0 01-.26.06.6.6 0 00.39 0" fill="#292c2f" fill-rule="evenodd"/><path d="M2.82 3.77a1.36 1.36 0 00.09-.14.3.3 0 00-.09.14" fill="#292c2f" fill-rule="evenodd"/><path d="M3.25 3.83a.79.79 0 01-.39-.14 2.42 2.42 0 00.39.08M3.25 3.56h-.13a.26.26 0 00-.12.01v-.05s0-.12.09-.14 0 0 0 .08.06 0 .08 0 0 .06.08.06M3.25 3.9s-.13 0 0 0" fill="#292c2f" fill-rule="evenodd"/></symbol><symbol viewBox="0 0 20 12" id="country-flags-za" xmlns="http://www.w3.org/2000/svg"><path fill="#fff" d="M0 0h20v12H0z"/><path fill="#d03033" d="M3.5 0l5.8 4H20V0H3.5z"/><path fill="#fff" d="M10.5 4.8H20V4H9.3l1.2.8zM9.3 8H20v-.8h-9.5L9.3 8z"/><path fill="#1f189b" d="M9.3 8l-5.8 4H20V8H9.3z"/><path d="M0 4h2.3L0 2.4V4zM0 4v4h2.3l2.9-2-2.9-2H0zM0 8v1.6L2.3 8H0z"/><path fill="#f2b126" d="M0 2.4L5.2 6 0 9.6v1L6.6 6 0 1.4v1z"/><path fill="#32784c" d="M0 0v1.4L6.6 6 0 10.6V12h2.1l7-4.8H20V4.8H9.1L2.1 0H0z"/></symbol><symbol viewBox="0 0 100 50" id="icons-arrow" xmlns="http://www.w3.org/2000/svg"><path d="M100 0L50 50 0 0h100z"/></symbol><symbol viewBox="0 0 8 8" id="icons-inplay" xmlns="http://www.w3.org/2000/svg"><circle cx="4" cy="4" r="4" fill="#fff"/><circle cx="4" cy="4" r="3" fill="#090"/></symbol><symbol viewBox="0 0 100 100" id="icons-live-video" xmlns="http://www.w3.org/2000/svg"><path d="M0 0v75h100V0H0zm38.1 55.9V19.1l30 18.7-30 18.1z"/></symbol><symbol viewBox="0 0 10.08 15.96" id="icons-lolipop" xmlns="http://www.w3.org/2000/svg"><path d="M5 10.08A4.22 4.22 0 014 10v6h2v-6a4.22 4.22 0 01-1 .08z" fill="#e5e5e4"/><circle cx="5.04" cy="5.04" r="4.04" fill="#fff" stroke="#e53636" stroke-miterlimit="10" stroke-width="2"/></symbol></svg>