<svg xmlns="http://www.w3.org/2000/svg" width="260" height="170" viewBox="0 0 260 170" style="&#10;"><title>ssc-sprite</title><path d="M37,134h5.3v9H37Z" fill="#009a49"/><path d="M42.3,134h5.3v9H42.3Z" fill="#fff"/><path d="M47.7,134H53v9H47.7Z" fill="#ff7900"/><path d="M89,153h5.3v9H89Z" fill="#002b7f"/><path d="M94.3,153h5.3v9H94.3Z" fill="#fcd116"/><path d="M99.7,153H105v9H99.7Z" fill="#ce1126"/><path d="M193,134h5.3v9H193Z" fill="#009a49"/><path d="M198.3,134h5.3v9h-5.3Z" fill="#fff"/><path d="M203.7,134H209v9h-5.3Z" fill="#ce1126"/><path d="M37,153H53v3H37Z" fill="#fff"/><path d="M37,156H53v3H37Z" fill="#002b7f"/><path d="M37,159H53v3H37Z" fill="#ce1126"/><path d="M63,134H79v3H63Z" fill="#fff"/><path d="M63,137H79v3H63Z" fill="#009a49"/><path d="M63,140H79v3H63Z" fill="#ce1126"/><path d="M115,134h16v3H115Z"/><path d="M115,137h16v3H115Z" fill="#ce1126"/><path d="M115,140h16v3H115Z" fill="#fcd116"/><path d="M141,134h16v9H141Z" fill="#fff"/><path d="M146,134h11v1H146Zm0,2h11v1H146Zm0,2h11v1H146Zm-5,2h16v1H141Zm0,2h16v1H141Zm0-8h2v2h-2Zm3,0h2v2h-2Zm-3,3h2v2h-2Zm3,0h2v2h-2Z" fill="#0d5eaf"/><path d="M89,134h16v9H89Z" fill="#ce1126"/><path d="M94,134h2v9H94Zm-5,3h16v2H89Z" fill="#fff"/><path d="M63,153H79v9H63Z" fill="#002b7f"/><path d="M68,153h2v9H68Zm-5,3H79v2H63Z" fill="#fcd116"/><path d="M11,153h6v9H11Z" fill="#060"/><path d="M17,153H27v9H17Z" fill="red"/><circle cx="17.5" cy="157.5" r="2.5" fill="#fcd116"/><path d="M16.4,158.6a1.658,1.658,0,0,0,2.1,0,.975.975,0,0,0,.4-.9V156h-3v1.7" fill="red"/><path d="M167,134h16v2H167Zm0,7h16v2H167Z" fill="#ce1126"/><path d="M167,136h16v5H167Z" fill="#fcd116"/><path d="M170.4,139.6a1.658,1.658,0,0,0,2.1,0,.975.975,0,0,0,.4-.9V137h-3v1.7" fill="#ce1126"/><path d="M11,134H27v9H11Z" fill="#002b7f"/><path d="M17.7,134h2.7v9H17.7ZM11,136.9H27V140H11Z" fill="#fff"/><path d="M11,134.8V134h1.6l6.4,3.7,6.5-3.7H27v.8l-6.5,3.7,6.5,3.7v.8H25.5L19,139.3,12.6,143H11v-.8l6.5-3.7Z" fill="#fff"/><path d="M18.2,134h1.7v9H18.2ZM11,137.5H26.8v1.9H11Zm0-3.5v.5l4.5,2.5h1.7L12,134Zm9.8,2.9,5.3-3H27v.5l-4.5,2.5Zm.1,3.1h1.7l4.5,2.5v.5h-1Zm-3.8,0L12,143H11v-.5l4.5-2.5Z" fill="#ce1126"/><path d="M137,30h13V43H137Z" fill="#303030"/><path d="M149,29H138a2,2,0,0,0-2,2V42a2.006,2.006,0,0,0,2,2h11a2,2,0,0,0,2-2V31A2,2,0,0,0,149,29Zm0,11.6L147.7,42l-4.2-4.2L139.3,42,138,40.6l4.2-4.1L138,32.4l1.3-1.4,4.2,4.2,4.2-4.2,1.3,1.4-4.2,4.1Z" fill="#fff"/><path d="M213.3,9.4l-2.2-.1a5.353,5.353,0,0,0-4.2-5.2c-4.3-1-8.2,3.3-6.4,7.2a5.435,5.435,0,0,0,5.1,3.4V13.2a3.859,3.859,0,0,1-3.7-2.2c-1.1-2.4.2-6.2,4.6-5.5,2.9.7,3.1,3.9,3.1,3.9h-2.1l2.9,3.6,2.9-3.6Z" fill="#303030"/><path d="M213.3,27.4h-2.2a5.353,5.353,0,0,0-4.2-5.2c-4.3-1-8.2,3.3-6.4,7.2a5.435,5.435,0,0,0,5.1,3.4V31.3a3.859,3.859,0,0,1-3.7-2.2c-1.1-2.4.2-6.2,4.6-5.5,2.9.7,3.1,3.9,3.1,3.9h-2.1l2.9,3.6,2.9-3.7Z" fill="#7f7f7f"/><path d="M200,38h12a2,2,0,0,1,2,2V52a2,2,0,0,1-2,2H200a2,2,0,0,1-2-2V40A2.006,2.006,0,0,1,200,38Z" fill="#dcdcdc"/><path d="M213.3,45.4h-2.2a5.353,5.353,0,0,0-4.2-5.2c-4.3-1-8.2,3.3-6.4,7.2a5.435,5.435,0,0,0,5.1,3.4V49.3a3.859,3.859,0,0,1-3.7-2.2c-1.1-2.4.2-6.2,4.6-5.5,2.9.7,3.1,3.9,3.1,3.9h-2.1l2.9,3.6,2.9-3.7Z" fill="#303030"/><circle cx="142" cy="68" r="9" fill="#fff"/><circle cx="142" cy="68" r="8" fill="#303030"/><path d="M138.9,72l-.9-1,3-2.9L138,65l.9-1,4,4.1Zm6.2,0-4-3.9,4-4.1.9,1-3.1,3.1,3,2.9-.8,1Z" fill="#fff"/><path d="M104,109H97l-3,4.1V118h13v-4.9Zm-3.4-1.7a3.585,3.585,0,0,0,3.6-3.57q0-.015,0-.03v-.1a3.65,3.65,0,1,0-7.3,0v.1A3.81,3.81,0,0,0,100.6,107.3Z" fill="#85adcc"/><path d="M125,109h-7l-3,4.1V118h13v-4.9Zm-3.4-1.7a3.585,3.585,0,0,0,3.6-3.57q0-.015,0-.03v-.1a3.65,3.65,0,1,0-7.3,0v.1A3.81,3.81,0,0,0,121.6,107.3Z" fill="#303030"/><path d="M145,109h-7l-3,4.1V118h13v-4.9Zm-3.4-1.7a3.585,3.585,0,0,0,3.6-3.57q0-.015,0-.03v-.1a3.65,3.65,0,1,0-7.3,0v.1A3.81,3.81,0,0,0,141.6,107.3Z" fill="#fff"/><path d="M61,72.3a9.612,9.612,0,0,1-2.9.8,4.921,4.921,0,0,0,2.3-2.8,9.333,9.333,0,0,1-3.3,1.2,5.233,5.233,0,0,0-3.7-1.6,5.04,5.04,0,0,0-5,6.1,14.767,14.767,0,0,1-10.6-5.3,4.514,4.514,0,0,0-.7,2.5,5.043,5.043,0,0,0,2.3,4.2,4.645,4.645,0,0,1-2.3-.6v.1a4.941,4.941,0,0,0,4.1,4.9,5.951,5.951,0,0,1-2.3.1,5.042,5.042,0,0,0,4.8,3.5,10.549,10.549,0,0,1-6.4,2.2,4.869,4.869,0,0,1-1.2-.1A14.831,14.831,0,0,0,44,89.8,14.385,14.385,0,0,0,58.6,75.7v-.9A11.506,11.506,0,0,0,61,72.3Z" fill="#7f7f7f"/><path d="M25.9,70H8.1A1.11,1.11,0,0,0,7,71.1V88.8A1.135,1.135,0,0,0,8.068,90H25.8a1.11,1.11,0,0,0,1.1-1.1V71.1a.972.972,0,0,0-1-1.1ZM24,81.2H21.3v7.4H18.5V81.2H16.6V78.6h1.9V76.3c0-1.8,1.1-3.4,3.8-3.4a12.751,12.751,0,0,1,1.9.1L24,75.4H22.3a.921.921,0,0,0-1.1.7v2.3h2.9Z" fill="#7f7f7f"/><path d="M116.7,85.6a5.7,5.7,0,0,1-1.1,2.8,4,4,0,0,1-2.9,1.2c-4,.3-10,.3-10,.3s-7.4-.1-9.7-.3a4.717,4.717,0,0,1-3.2-1.2,5.7,5.7,0,0,1-1.1-2.8,35.53,35.53,0,0,1-.3-4.6V78.8a35.527,35.527,0,0,1,.3-4.6,5.7,5.7,0,0,1,1.1-2.8,4,4,0,0,1,2.9-1.2c4-.3,10-.3,10-.3s6,0,10,.3a4,4,0,0,1,2.9,1.2,5.7,5.7,0,0,1,1.1,2.8,35.53,35.53,0,0,1,.3,4.6V81A34.4,34.4,0,0,1,116.7,85.6ZM96.8,73.3h-6v1.8h2v11h1.9v-11h2.1Zm4.8,3.3H99.8v7.3a1.589,1.589,0,0,1-1,.8c-.2,0-.4-.1-.4-.3V76.5H96.6v7.6a3.178,3.178,0,0,0,.2,1.4.973.973,0,0,0,1.1.7A2.47,2.47,0,0,0,99.8,85v1.1h1.8Zm6.6,2.9a12.253,12.253,0,0,0-.2-1.9,1.32,1.32,0,0,0-1.4-1.1,2.653,2.653,0,0,0-1.8,1.1V73.4H103V86.2h1.7v-1a2.653,2.653,0,0,0,1.8,1.1,1.32,1.32,0,0,0,1.4-1.1,12.253,12.253,0,0,0,.2-1.9Zm6.4.2a3.222,3.222,0,0,0-.6-2.3,2.334,2.334,0,0,0-2-1,2.512,2.512,0,0,0-2.1,1,4.645,4.645,0,0,0-.6,2.3V83a4.032,4.032,0,0,0,.6,2.2,2.512,2.512,0,0,0,2.1,1,2.814,2.814,0,0,0,2.1-1,2.112,2.112,0,0,0,.4-1c0-.4.1-.8.1-1.1v-.3h-1.8V84a.773.773,0,0,1-.8.7c-.6,0-.8-.4-.8-1.3V81.7h3.4Zm-3.5-.5c0-.9.2-1.1.8-1.1s.8.3.8,1.2v1h-1.6Zm-5.5,5.5a1.489,1.489,0,0,1-.9-.4V78.5a1.086,1.086,0,0,1,.9-.4c.5,0,.7.3.7,1.2v4.1C106.4,84.3,106.1,84.7,105.6,84.7Zm-20.5.4a2.47,2.47,0,0,1-1.9,1.2,1.126,1.126,0,0,1-1.1-.7,3.4,3.4,0,0,1-.2-1.4V76.5h1.8v7.8c0,.2.1.4.3.4h.1a1.375,1.375,0,0,0,1-.8V76.5h1.8v9.7H85.1Zm-7.2,1.2a2.462,2.462,0,0,1-2-1,4.282,4.282,0,0,1-.6-2.2V79.7a3.222,3.222,0,0,1,.6-2.3,2.248,2.248,0,0,1,2-.9,2.518,2.518,0,0,1,2,.9,4.645,4.645,0,0,1,.6,2.3v3.4a3.287,3.287,0,0,1-.5,2.2A2.512,2.512,0,0,1,77.9,86.3Zm0-8.2c-.6,0-.9.4-.8,1.4v3.8c-.1,1,.2,1.4.8,1.4s.9-.5.8-1.4V79.5C78.8,78.5,78.5,78.1,77.9,78.1Zm-4.6,8.1H71.4V80.9s-2-6.5-2.4-7.7h2l1.3,5,1.3-5h2l-2.4,7.7Z" fill="#7f7f7f"/><path d="M189.7,84l-2.3-2.2a5.029,5.029,0,0,0,.8-2.7A5.1,5.1,0,0,0,178,79v.1a5.121,5.121,0,0,0,5.1,5.1,5.3,5.3,0,0,0,2.7-.8l2.2,2.2a1.151,1.151,0,0,0,1.626.074q.039-.035.074-.074A1.217,1.217,0,0,0,189.7,84Zm-10.4-4.9a3.8,3.8,0,1,1,3.8,3.8A3.933,3.933,0,0,1,179.3,79.1Z" fill="#85adcc"/><path d="M189.7,22l-2.3-2.2a5.029,5.029,0,0,0,.8-2.7A5.1,5.1,0,0,0,178,17h0v.1a5.121,5.121,0,0,0,5.1,5.1,5.3,5.3,0,0,0,2.7-.8l2.2,2.2a1.151,1.151,0,0,0,1.626.074q.039-.035.074-.074A1.217,1.217,0,0,0,189.7,22Zm-10.4-4.9a3.8,3.8,0,1,1,3.8,3.8A3.933,3.933,0,0,1,179.3,17.1Z" fill="#303030"/><path d="M189.7,54l-2.3-2.2a5.029,5.029,0,0,0,.8-2.7A5.1,5.1,0,0,0,178,49h0v.1a5.121,5.121,0,0,0,5.1,5.1,5.3,5.3,0,0,0,2.7-.8l2.2,2.2a1.151,1.151,0,0,0,1.626.074q.039-.035.074-.074A1.217,1.217,0,0,0,189.7,54Zm-10.4-4.9a3.8,3.8,0,1,1,3.8,3.8A3.933,3.933,0,0,1,179.3,49.1Z" fill="#fff"/><path d="M167.7,7.6h-1.1V5.1A3.65,3.65,0,0,0,163,2a3.477,3.477,0,0,0-3.5,3.1V7.6h-1a.52.52,0,0,0-.4.2v6.6a.481.481,0,0,0,.2.6h9.3a.664.664,0,0,0,.5-.4V8.1C168,7.8,167.9,7.6,167.7,7.6Zm-2.5,0h-4.5V5.3a2.266,2.266,0,0,1,4.5,0Z" fill="#303030"/><path d="M167.7,31.6h-1.1V29.1A3.65,3.65,0,0,0,163,26a3.477,3.477,0,0,0-3.5,3.1v2.5h-1a.52.52,0,0,0-.4.2v6.6a.481.481,0,0,0,.2.6h9.3a.664.664,0,0,0,.5-.4V32.1C168,31.8,167.9,31.6,167.7,31.6Zm-2.5,0h-4.5V29.3a2.266,2.266,0,0,1,4.5,0Z" fill="#ffb80c"/><path d="M159,49l4,4,4-4Z" fill="#fff"/><path d="M159,69l4,4,4-4Z" fill="#303030"/><path d="M159,89l4-4,4,4Z" fill="#303030"/><path d="M200,93l1.2-1.1,4.3,3.8,4.3-3.8L211,93l-5.5,4.9Z" fill="#fff"/><path d="M200,79.9l1.2,1.1,4.3-3.8,4.3,3.8,1.2-1.1L205.5,75Z" fill="#fff"/><path d="M200,59l1.2-1.1,4.3,3.8,4.3-3.8L211,59l-5.5,4.9Z" fill="#303030"/><path d="M29.1,47c0-2.9,1.9-3,4.4-3h.3c2.5,0,3.8.4,3.8,3.2v2c0,2.4-.6,3.4-3.9,3.4H33c-3.1,0-4-.9-4-3.2V47Zm0,6.3a4.629,4.629,0,0,0,4,1.5H34c3.6,0,6.3-.9,6.3-5.1V47.1c0-3.9-1.7-5.3-6.2-5.3H32.7a4.345,4.345,0,0,0-3.6,1.4V37H26.4V54.5h2.7ZM73.5,42.1H69.8V41a1.985,1.985,0,0,1,1.9-2h3V37H71.1a3.686,3.686,0,0,0-4,3.3v1.8H65.6v2.2h1.5V54.8h2.7V44.3h3.7ZM57.7,50.8A3.843,3.843,0,0,0,61,54.9h4.1V52.7H62.4c-1.5,0-2-.8-2-1.8V44.4h3.7V42.2H60.4V37H57.7v5.2H56.2v2.2h1.5Zm31.6-11H92V37H89.2Zm0,15H92v-13H89.3Zm-44.9-8c0-2.5,1.2-2.7,4-2.7H49c3.2,0,3.6.8,3.6,2.4v.7H44.5Zm3,8h2.5c3.3,0,4.8-1.1,5.2-2.9l-2.4-.7c-.4,1.1-1.4,1.4-3.5,1.4h-.6c-3.5,0-4.1-.4-4.1-3.2H55.4V47c0-4.4-2.3-5.2-5.9-5.2H48.2c-2.9,0-6.3.5-6.3,4.9v3.1c-.2,4.3,2.8,5,5.5,5m36.7-3.9c0,1.2-.8,1.7-4.1,1.7h-.7c-2.8,0-3.1-.5-3.1-1.6v-.7c0-1.2.7-1.7,3-1.7h1.2c2.1,0,3.7.4,3.7,1.8Zm-3.4-9.1h-1c-3.7,0-5.3,1.1-5.4,2.9l2.6.9c.1-1.2,1.5-1.5,3.5-1.5,3,0,3.7.2,3.7,2.4v1.2c-.7-.9-1.6-1.2-4-1.2H79c-3.5,0-5.5.9-5.5,3.7V51c0,2.3.9,3.9,4.5,3.9h2.7c2.6,0,2.9-.4,3.4-1.2v1.2h2.7V46.5c0-3.7-2.4-4.7-6.1-4.7m19.7,0a3.515,3.515,0,0,0-3.2,1.7H97V41.8H94.4v13h2.7V47a2.8,2.8,0,0,1,2.586-3h.514c1.5,0,2.3.4,2.4.8l1.7-1.2c-.4-1.1-1.5-1.8-3.9-1.8M21.3,37H14.2v3.6H10.4l7.3,8.6L25,40.6H21.2ZM1,51.2H4.8v3.6h7.1V51.2h3.8L8.4,42.6Z" fill="#fff"/><path d="M29.1,12c0-2.9,1.9-3,4.4-3h.3c2.5,0,3.8.4,3.8,3.2v2c0,2.4-.6,3.4-3.9,3.4H33c-3.1,0-4-.9-4-3.2V12Zm0,6.3a4.629,4.629,0,0,0,4,1.5H34c3.6,0,6.3-.9,6.3-5.1V12.1c0-3.9-1.7-5.3-6.2-5.3H32.7a4.345,4.345,0,0,0-3.6,1.4V2H26.4V19.5h2.7ZM73.5,7.1H69.8V6a1.985,1.985,0,0,1,1.9-2h3V2H71.1a3.686,3.686,0,0,0-4,3.3V7.1H65.6V9.3h1.5V19.8h2.7V9.3h3.7ZM57.7,15.8A3.843,3.843,0,0,0,61,19.9h4.1V17.7H62.4c-1.5,0-2-.8-2-1.8V9.3h3.7V7.1H60.4V2H57.7V7.2H56.2V9.4h1.5Zm31.5-11H92V2H89.3V4.8Zm0,15H92V6.8H89.3v13Zm-44.8-8c0-2.5,1.2-2.7,4-2.7H49c3.2,0,3.6.8,3.6,2.4v.7H44.5Zm3,8h2.5c3.3,0,4.8-1.1,5.2-2.9l-2.4-.7c-.4,1.1-1.4,1.4-3.5,1.4h-.6c-3.5,0-4.1-.4-4.1-3.2H55.4V12c0-4.4-2.3-5.2-5.9-5.2H48.2c-2.9,0-6.3.5-6.3,4.9v3.1c-.2,4.3,2.8,5,5.5,5m36.7-3.9c0,1.2-.8,1.7-4.1,1.7h-.7c-2.8,0-3.1-.5-3.1-1.6v-.7c0-1.2.7-1.7,3-1.7h1.2c2.1,0,3.7.4,3.7,1.8ZM80.7,6.8h-1c-3.7,0-5.3,1.1-5.4,2.9l2.6.9c0-1.2,1.4-1.6,3.4-1.6,3,0,3.7.2,3.7,2.4v1.2c-.7-.9-1.6-1.2-4-1.2H78.9c-3.5,0-5.5.9-5.5,3.7v.8c0,2.3.9,3.9,4.5,3.9h2.7c2.6,0,2.9-.4,3.4-1.2v1.2h2.7V11.4c.1-3.6-2.3-4.6-6-4.6m19.7,0a3.515,3.515,0,0,0-3.2,1.7H97V6.8H94.4v13h2.7V12a2.8,2.8,0,0,1,2.586-3h.514c1.5,0,2.3.4,2.4.8l1.7-1.2c-.4-1.1-1.5-1.8-3.9-1.8M21.3,2H14.2V5.6H10.4l7.3,8.6,7.4-8.6H21.3ZM1,16.2H4.8v3.6h7.1V16.2h3.8L8.4,7.6Z" fill="#303030"/><path d="M65,123H55a2,2,0,0,1-2-2V101.9a2.051,2.051,0,0,1,1.3-1.9H65.8a1.83,1.83,0,0,1,1.2,1.9V121A2.07,2.07,0,0,1,65,123Zm-4.9-1.5a1,1,0,1,0-1-1,.945.945,0,0,0,1,1Zm1.4-19.8H58.7v.4h2.8Zm4.2,2H54.4v14.5H65.7Z" fill="#85adcc"/><path d="M85,123H75a2,2,0,0,1-2-2V101.9a2.051,2.051,0,0,1,1.3-1.9H85.8a1.83,1.83,0,0,1,1.2,1.9V121A2.07,2.07,0,0,1,85,123Zm-4.9-1.5a1,1,0,1,0-1-1,.945.945,0,0,0,1,1Zm1.4-19.8H78.7v.4h2.8Zm4.2,2H74.4v14.5H85.7Z" fill="#303030"/><path d="M7,116v-8l3,5Z" fill="#fff"/><path d="M20,100H9a2,2,0,0,0-2,2v9a2.006,2.006,0,0,0,2,2H20a2,2,0,0,0,2-2v-9A2,2,0,0,0,20,100Zm-7.8,4.2a2.774,2.774,0,0,1,2.2-2.2,2.586,2.586,0,0,1,2.235,2.895q-.013.1-.035.205a2.774,2.774,0,0,1-2.2,2.2A2.726,2.726,0,0,1,12.2,104.2ZM10,111a4.177,4.177,0,0,1,2.8-3.9,2.477,2.477,0,0,0,3.4,0A4.083,4.083,0,0,1,19,111Z" fill="#fff"/><path d="M30,116v-8l3,5Z" fill="#303030"/><path d="M43,100H32a2,2,0,0,0-2,2v9a2.006,2.006,0,0,0,2,2H43a2,2,0,0,0,2-2v-9A2,2,0,0,0,43,100Zm-7.8,4.2a2.774,2.774,0,0,1,2.2-2.2,2.586,2.586,0,0,1,2.235,2.895q-.013.1-.035.205a2.774,2.774,0,0,1-2.2,2.2A2.726,2.726,0,0,1,35.2,104.2ZM33,111a4.177,4.177,0,0,1,2.8-3.9,2.477,2.477,0,0,0,3.4,0A4.083,4.083,0,0,1,42,111Z" fill="#303030"/><path d="M149,5.3,147.7,4l-4.2,4.1L139.3,4,138,5.3l4.2,4.2L138,13.6l1.3,1.4,4.2-4.2,4.2,4.2,1.3-1.4-4.2-4.1Z" fill="#fff"/><path d="M165.4,105.1c-4.9,0-7.9,4.9-7.9,4.9s3,4.9,7.9,4.9c4.6,0,8.1-4.9,8.1-4.9s-3.5-4.9-8.1-4.9m.1,7.7a2.8,2.8,0,1,1,0-5.6h0a2.8,2.8,0,1,1,0,5.6h0m0-4.1a1.2,1.2,0,1,0,1.2,1.2h0a1.29,1.29,0,0,0-1.2-1.2m8,1.2s-3.5,4.9-8.1,4.9c-4.9,0-7.9-4.9-7.9-4.9m16,0h-9.2a1.2,1.2,0,1,1,1.2,1.2h0a1.155,1.155,0,0,1-1.2-1.108q0-.046,0-.092m1.2-2.8a2.8,2.8,0,1,0,0,5.6h0a2.8,2.8,0,1,0,0-5.6h0m-8,2.8s3.1-4.9,7.9-4.9c4.6,0,8.1,4.9,8.1,4.9m-10.8,0a2.818,2.818,0,0,1,2.835-2.8h.065a2.85,2.85,0,1,1-2.9,2.9v-.1m2.7-4.8c-4.9,0-7.9,4.9-7.9,4.9s3,4.9,7.9,4.9c4.6,0,8.1-4.9,8.1-4.9s-3.5-4.9-8.1-4.9m.1,3.6a1.2,1.2,0,1,0,1.2,1.2h0a1.29,1.29,0,0,0-1.2-1.2" fill="#303030"/><path d="M200.2,102.9l1.4,1.4L188.9,117l-1.4-1.4,2.3-2.3,2.1-2.1,8.3-8.3m2.3,7s-3.5,4.9-8.1,4.9a7.772,7.772,0,0,1-1.6-.2l1.8-1.8a2.826,2.826,0,0,0,2.7-2.7l2.7-2.7a11.849,11.849,0,0,1,2.5,2.5m-16,0s3.1-4.9,7.9-4.9a6.929,6.929,0,0,1,2,.3l-1.8,1.8h-.1a2.8,2.8,0,0,0-2.8,2.8h0v.1l-2.6,2.6a9.579,9.579,0,0,1-2.6-2.7m1,5.8,2.3-2.3,2.1-2.1,8.3-8.3,1.4,1.4-12.7,12.7-1.4-1.4m-1-5.8s3.1-4.9,7.9-4.9a6.929,6.929,0,0,1,2,.3l-1.8,1.8h-.1a2.8,2.8,0,0,0-2.8,2.8h0v.1l-2.6,2.6a9.579,9.579,0,0,1-2.6-2.7m16,0s-3.5,4.9-8.1,4.9a7.772,7.772,0,0,1-1.6-.2l1.8-1.8a2.826,2.826,0,0,0,2.7-2.7l2.7-2.7a11.849,11.849,0,0,1,2.5,2.5m-2.3-7-8.3,8.3-2.1,2.1-2.3,2.3,1.4,1.4,12.7-12.7-1.4-1.4m-5.8,2.2c-4.9,0-7.9,4.9-7.9,4.9a16.685,16.685,0,0,0,2.5,2.8l2.6-2.6v-.1a2.8,2.8,0,0,1,2.8-2.8h.1l1.8-1.8a3.807,3.807,0,0,0-1.9-.4m5.6,2.3-2.7,2.7a2.826,2.826,0,0,1-2.7,2.7l-1.8,1.8a8.753,8.753,0,0,0,1.6.2c4.6,0,8.1-4.9,8.1-4.9a11.849,11.849,0,0,0-2.5-2.5" fill="#303030"/><path d="M223.138,20,221,17.75l6.75-6.637L221,4.25,223.138,2l9,9.113Zm13.725,0-9-8.887,9-9.113L239,4.25l-6.863,6.863,6.75,6.637Z" fill="#fff"/><path d="M231,34h-2V31h-3V29h3V26h2v3h3v2h-3Z" fill="#1e1e1e"/><path d="M226,43V41h8v2Z" fill="#1e1e1e"/></svg>