<svg width="29" height="25" viewBox="0 0 29 25" fill="none" xmlns="http://www.w3.org/2000/svg">
<path d="M23.7083 0.833344C25.3192 0.833344 26.625 2.13918 26.625 3.75001V7.05687C27.4968 7.56117 28.0833 8.50377 28.0833 9.58334V15.4167C28.0833 16.4963 27.4968 17.4388 26.625 17.9431V21.25C26.625 22.8609 25.3192 24.1667 23.7083 24.1667H3.29167C1.68084 24.1667 0.375 22.8609 0.375 21.25V3.75001C0.375 2.13918 1.68084 0.833344 3.29167 0.833344H23.7083ZM23.7083 3.75001H3.29167V21.25H23.7083V18.3333H17.875C14.6534 18.3333 12.0417 15.7216 12.0417 12.5C12.0417 9.37597 14.4975 6.82552 17.5839 6.67382L17.875 6.66668H23.7083V3.75001ZM25.1667 9.58334H17.875C16.2641 9.58334 14.9583 10.8891 14.9583 12.5C14.9583 14.1109 16.2641 15.4167 17.875 15.4167H25.1667V9.58334ZM19.3333 11.0417C20.1388 11.0417 20.7917 11.6946 20.7917 12.5C20.7917 13.3054 20.1388 13.9583 19.3333 13.9583C18.5279 13.9583 17.875 13.3054 17.875 12.5C17.875 11.6946 18.5279 11.0417 19.3333 11.0417Z" fill="#2C2E35"/>
</svg>
