<?xml version="1.0" encoding="UTF-8"?>
<svg width="32px" height="32px" viewBox="0 0 32 32" version="1.1" xmlns="http://www.w3.org/2000/svg" xmlns:xlink="http://www.w3.org/1999/xlink">
    <title>Icons/System/warning-icon</title>
    <defs>
        <path d="M32,0 L32,32 L0,32 L0,0 L32,0 Z M16.0191738,20 C14.9106078,20 14,20.9019608 14,22 C14,23.0980392 14.9106078,24 16.0191738,24 C17.0881481,24 18.0383475,23.0980392 17.9987559,22.0392157 L17.9985932,21.8922673 C17.95879,20.8252344 17.0795412,20 16.0191738,20 Z M17.8040121,8.94376741 C17.4120362,8.23286861 16.4320964,7.86196488 15.4913543,8.04741674 C14.5506121,8.26377725 13.9626483,8.94376741 14.0018458,9.7164835 C14.0410434,10.2419304 14.080241,10.7364687 14.1194386,11.231007 C14.2370314,13.1164343 14.3938217,15.0018616 14.5114145,16.8872888 C14.5506121,17.5363703 15.1777735,18 16.0009229,18 C16.8240723,18 17.4512337,17.5054617 17.4904313,16.8563802 C17.4904313,16.4545678 17.4904313,16.1145727 17.5296289,15.7127604 C17.6080241,14.5073233 17.7256169,13.2709775 17.8040121,12.0655404 C17.8824072,11.2928243 17.9608024,10.4891996 18,9.7164835 C18,9.43830571 17.9216048,9.19103656 17.8040121,8.94376741 Z" id="path-1"></path>
    </defs>
    <g id="Symbols" stroke="none" stroke-width="1" fill="none" fill-rule="evenodd">
        <g id="Search-Results-Field-/-Error" transform="translate(-643.000000, -40.000000)">
            <g id="Icons/System/warning-icon" transform="translate(643.000000, 40.000000)">
                <rect id="Combined-Shape" x="0" y="0" width="32" height="32" rx="2"></rect>
                <mask id="mask-2" fill="white">
                    <use xlink:href="#path-1"></use>
                </mask>
                <use id="Combined-Shape" fill="#525252" xlink:href="#path-1"></use>
                <g id="Group" mask="url(#mask-2)" fill="#525252">
                    <g id="Colors/carbon-300">
                        <rect id="Rectangle" x="0" y="0" width="32" height="32"></rect>
                    </g>
                </g>
            </g>
        </g>
    </g>
</svg>