<svg width="20" height="23" viewBox="0 0 20 23" fill="none" xmlns="http://www.w3.org/2000/svg">
<path d="M19.5497 10.4345L18.962 9.65162C18.962 9.65162 17.3947 5.22284 15.9989 3.9367C15.9989 3.9367 15.5091 1.72231 15.9989 0.693396C15.9989 0.693396 15.1418 1.14075 14.8724 1.57692C14.8724 1.57692 14.9826 0.246044 15.252 0C15.252 0 12.8032 0.615109 12.4481 2.31505C12.4481 2.31505 7.428 2.57228 4.70979 4.59654C2.87317 5.96097 1.62426 7.23592 0.693704 9.57334C-0.0776789 11.5081 -0.775597 14.4495 1.93036 17.5586C5.54239 21.6966 12.6073 22.2222 12.6073 22.2222C12.6073 22.2222 13.8807 18.9006 12.142 16.854C10.8564 15.333 9.21564 11.4746 11.7747 9.83057C10.9788 8.62271 10.9298 7.28066 11.2359 5.42415C11.0278 8.0076 12.4481 9.92004 12.4481 9.92004C13.0113 10.5687 14.4439 12.0226 16.2316 12.2127C16.2316 12.2127 16.5009 14.7291 19.3048 13.3423C20.0272 12.9732 20.3089 11.4298 19.5497 10.4345Z" fill="white"/>
</svg>
