<svg width="20" height="20" viewBox="0 0 20 20" fill="none" xmlns="http://www.w3.org/2000/svg">
<path d="M9.43671 8.90395C5.87855 8.90395 5.70152 16.1059 6.25748 20C6.25748 20 4.03381 19.4435 2.36555 18.3309C0.697292 17.2183 0.14207 15.5494 0.14207 15.5494C-0.747471 11.0991 2.76515 6.49335 4.43304 4.45361L6.30662 6.32907C5.08263 4.93769 3.77234 1.77694 4.98901 0.559553C6.32332 -0.775551 8.88075 0.559553 9.0373 1.64232C10.5486 1.11585 12.5501 1.89466 13.8844 2.78473C15.5523 3.89731 16.6642 3.89731 20 5.0099C17.2202 8.90395 13.8844 8.90395 9.43671 8.90395Z" fill="white"/>
</svg>
