<svg xmlns="http://www.w3.org/2000/svg" xmlns:xlink="http://www.w3.org/1999/xlink" class="ldi-23tqnq" width="174px" height="174px" viewBox="0 0 100 100" preserveAspectRatio="xMidYMid" style="background: none;"><!--?xml version="1.0" encoding="utf-8"?--><!--Generator: Adobe Illustrator 21.0.0, SVG Export Plug-In . SVG Version: 6.00 Build 0)--><svg xmlns="http://www.w3.org/2000/svg" xmlns:xlink="http://www.w3.org/1999/xlink" version="1.1" id="Layer_1" x="0px" y="0px" viewBox="0 0 100 100" style="transform-origin: 50px 50px 0px;" xml:space="preserve"><g style="transform-origin: 50px 50px 0px;"><g style="transform-origin: 50px 50px 0px; transform: scale(0.39);"><g style="transform-origin: 50px 50px 0px; animation-duration: 1.5s; animation-delay: -1.5s; animation-direction: normal;" class=""><g><g style="transform-origin: 50px 50px 0px; animation-duration: 1.5s; animation-delay: -1.5s; animation-direction: normal;" class="ld ld-coin-h"><circle style="fill:#ffce56" cx="50" cy="50" r="40" fill="rgb(245, 225, 105)"/></g><g style="transform-origin: 50px 50px 0px; animation-duration: 1.5s; animation-delay: -1.42105s; animation-direction: normal;" class="ld ld-coin-h"><circle style="fill:none;stroke:#595959;stroke-width:3;stroke-linecap:round;stroke-linejoin:round;stroke-miterlimit:10" cx="50" cy="50" r="30" stroke="rgb(247, 178, 106)"/></g><g style="transform-origin: 50px 50px 0px; animation-duration: 1.5s; animation-delay: -1.34211s; animation-direction: normal;" class="ld ld-coin-h"><path style="opacity: 0.1; fill: rgb(0, 0, 0);" d="M21.716,78.284C28.954,85.523,38.954,90,50,90c22.091,0,40-17.909,40-40 c0-11.046-4.477-21.046-11.716-28.284L21.716,78.284z" fill="rgb(0, 0, 0)"/></g><g style="transform-origin: 50px 50px 0px; animation-duration: 1.5s; animation-delay: -0.857143s; animation-direction: normal;" class=""><g><g style="transform-origin: 50px 50px 0px; animation-duration: 1.5s; animation-delay: -1.26316s; animation-direction: normal;" class="ld ld-coin-h">
  <path style="fill:none;stroke:#595959;stroke-width:6;stroke-linecap:round;stroke-linejoin:round;stroke-miterlimit:10" d=" M57.263,38.525H46.262c-3.169,0-5.738,2.569-5.738,5.738v0c0,3.169,2.569,5.738,5.738,5.738h7.475c3.169,0,5.738,2.569,5.738,5.738 v0c0,3.169-2.569,5.738-5.738,5.738H40.525" stroke="rgb(244, 126, 95)"/></g><g style="transform-origin: 50px 50px 0px; animation-duration: 1.5s; animation-delay: -1.18421s; animation-direction: normal;" class="ld ld-coin-h"><line style="fill:none;stroke:#595959;stroke-width:6;stroke-linecap:round;stroke-linejoin:round;stroke-miterlimit:10" x1="50" y1="61.476" x2="50" y2="67.5" stroke="rgb(244, 126, 95)"/></g><g style="transform-origin: 50px 50px 0px; animation-duration: 1.5s; animation-delay: -1.10526s; animation-direction: normal;" class="ld ld-coin-h"><line style="fill:none;stroke:#595959;stroke-width:6;stroke-linecap:round;stroke-linejoin:round;stroke-miterlimit:10" x1="50" y1="32.5" x2="50" y2="38.524" stroke="rgb(244, 126, 95)"/></g></g></g><g style="transform-origin: 50px 50px 0px; animation-duration: 1.5s; animation-delay: -1.02632s; animation-direction: normal;" class="ld ld-coin-h"><path style="fill:#fff" d="M42.395,19.487l-3.801-0.271c-2.94-0.21-5.27-2.564-5.45-5.506l-0.267-4.38 c-0.017-0.27-0.241-0.481-0.512-0.481H32.25c-0.271,0-0.495,0.211-0.512,0.481l-0.267,4.38c-0.18,2.942-2.51,5.296-5.45,5.506 l-3.801,0.271c-0.24,0.017-0.456,0.186-0.496,0.424c-0.052,0.307,0.171,0.579,0.469,0.601l3.829,0.273 c2.94,0.21,5.27,2.564,5.45,5.506l0.267,4.38c0.017,0.27,0.241,0.481,0.512,0.481h0.115c0.271,0,0.495-0.211,0.512-0.481l0.267-4.38 c0.18-2.942,2.51-5.296,5.45-5.506l3.828-0.273c0.298-0.021,0.521-0.293,0.469-0.601C42.85,19.673,42.635,19.504,42.395,19.487z" fill="rgb(255, 255, 255)"/></g><g style="transform-origin: 50px 50px 0px; animation-duration: 1.5s; animation-delay: -0.947368s; animation-direction: normal;" class="ld ld-coin-h"><path style="fill:#fff" d="M26.138,59.809l-2.313-0.165c-1.789-0.128-3.207-1.56-3.316-3.35l-0.163-2.665 c-0.01-0.165-0.146-0.293-0.311-0.293h-0.07c-0.165,0-0.301,0.128-0.311,0.293l-0.163,2.665c-0.109,1.79-1.527,3.223-3.316,3.35 l-2.313,0.165c-0.146,0.01-0.277,0.113-0.302,0.258c-0.032,0.187,0.104,0.353,0.285,0.365l2.329,0.166 c1.789,0.128,3.207,1.56,3.316,3.35l0.163,2.665c0.01,0.165,0.146,0.293,0.311,0.293h0.07c0.165,0,0.301-0.128,0.311-0.293 l0.163-2.665c0.109-1.79,1.527-3.223,3.316-3.35l2.329-0.166c0.181-0.013,0.317-0.179,0.285-0.365 C26.415,59.923,26.284,59.82,26.138,59.809z" fill="rgb(255, 255, 255)"/></g><g style="transform-origin: 50px 50px 0px; animation-duration: 1.5s; animation-delay: -0.868421s; animation-direction: normal;" class="ld ld-coin-h"><path style="fill:#fff" d="M93.406,37.919l-4.485-0.32c-3.469-0.247-6.218-3.025-6.43-6.496l-0.316-5.168 c-0.019-0.319-0.284-0.568-0.604-0.568h-0.135c-0.32,0-0.584,0.249-0.604,0.568l-0.316,5.168c-0.212,3.471-2.962,6.249-6.43,6.496 l-4.485,0.32c-0.283,0.02-0.537,0.22-0.585,0.5c-0.062,0.362,0.202,0.684,0.553,0.709l4.517,0.322 c3.469,0.247,6.218,3.025,6.43,6.496l0.316,5.168c0.019,0.319,0.284,0.568,0.604,0.568h0.135c0.32,0,0.584-0.249,0.604-0.568 l0.316-5.168c0.212-3.471,2.962-6.249,6.43-6.496l4.517-0.322c0.351-0.025,0.614-0.346,0.553-0.709 C93.943,38.139,93.689,37.939,93.406,37.919z" fill="rgb(255, 255, 255)"/></g>
</g></g></g></g><style type="text/css" style="transform-origin: 50px 50px 0px; animation-duration: 1.5s; animation-delay: -0.394737s; animation-direction: normal;" class="ld ld-coin-h">@keyframes ld-coin-h {
  0%, 100% {
    animation-timing-function: cubic-bezier(0.5, 0, 1, 0.5);
  }
  50% {
    animation-timing-function: cubic-bezier(0, 0.5, 0.5, 1);
  }
  0% {
    -webkit-transform: rotateY(0deg);
    transform: rotateY(0deg);
  }
  50% {
    -webkit-transform: rotateY(1800deg);
    transform: rotateY(1800deg);
  }
  100% {
    -webkit-transform: rotateY(3600deg);
    transform: rotateY(3600deg);
  }
}
@-webkit-keyframes ld-coin-h {
  0%, 100% {
    animation-timing-function: cubic-bezier(0.5, 0, 1, 0.5);
  }
  50% {
    animation-timing-function: cubic-bezier(0, 0.5, 0.5, 1);
  }
  0% {
    -webkit-transform: rotateY(0deg);
    transform: rotateY(0deg);
  }
  50% {
    -webkit-transform: rotateY(1800deg);
    transform: rotateY(1800deg);
  }
  100% {
    -webkit-transform: rotateY(3600deg);
    transform: rotateY(3600deg);
  }
}
.ld.ld-coin-h {
  -webkit-animation: ld-coin-h 2s infinite;
  animation: ld-coin-h 2s infinite;
}
</style></svg></svg>