<svg width="20" height="20" viewBox="0 0 20 20" fill="none" xmlns="http://www.w3.org/2000/svg">
<path d="M4.84119 18.5745C4.82794 18.5666 4.81734 18.5587 4.8041 18.5508C4.30873 18.2376 3.82925 17.9034 3.39215 17.5138C3.23056 17.3691 3.07957 17.2164 2.92062 17.0691C2.88089 17.0348 2.90473 17.0138 2.92327 16.9875C3.12195 16.7322 3.32328 16.4742 3.52196 16.219C4.35111 15.1557 5.18291 14.0898 6.01207 13.0265C6.96308 11.8079 7.91144 10.5894 8.86245 9.37082C9.77902 8.19437 10.6982 7.01529 11.6148 5.83885C12.5817 4.6045 13.546 3.36752 14.5102 2.13317C14.693 1.89893 14.8785 1.66206 15.0586 1.42519C15.0824 1.39361 15.0957 1.38572 15.1354 1.40677C15.4904 1.61469 15.8242 1.85682 16.1421 2.11474C16.2931 2.23581 16.452 2.34635 16.6003 2.47005C16.7513 2.60164 16.897 2.7385 17.0427 2.87536C17.0798 2.90957 17.0533 2.92536 17.0348 2.94905C16.7725 3.28593 16.5076 3.62544 16.2454 3.96232C15.4665 4.96243 14.6851 5.96254 13.9063 6.96266C13.0321 8.08384 12.1579 9.20501 11.281 10.3262C10.4678 11.3684 9.65717 12.4106 8.84391 13.4529C7.90614 14.653 6.97103 15.8558 6.03326 17.0559C5.64915 17.5481 5.26768 18.0376 4.88357 18.5297C4.87297 18.5455 4.86503 18.5666 4.84119 18.5745Z" fill="white"/>
<path d="M19.986 9.44471C19.9674 9.07624 19.933 8.71041 19.8747 8.34721C19.8032 7.90769 19.6946 7.47606 19.5648 7.04707C19.3025 6.17065 18.9078 5.3574 18.4177 4.58363C18.2535 4.32571 18.0787 4.07831 17.8853 3.83618C17.8694 3.8546 17.8535 3.8704 17.8403 3.88882C17.4641 4.37308 17.0906 4.85735 16.7144 5.33898C15.819 6.49437 14.9237 7.64977 14.0283 8.80516C13.1038 9.9974 12.1819 11.1896 11.2574 12.3792C10.3806 13.511 9.50107 14.6453 8.62424 15.777C7.76065 16.8929 6.89442 18.0088 6.03083 19.1221C5.99904 19.1616 6.00169 19.1747 6.04937 19.1958C7.14078 19.659 8.27722 19.9196 9.46134 19.9854C10.0547 20.0169 10.6481 19.9985 11.2388 19.9248C11.7395 19.8617 12.2322 19.7643 12.7144 19.6195C13.6018 19.3537 14.4442 18.9905 15.2336 18.5063C16.0627 17.9983 16.7992 17.3824 17.4508 16.6613C17.8826 16.1823 18.2667 15.6691 18.5952 15.1164C19.0959 14.2742 19.4535 13.3767 19.6999 12.4319C19.8535 11.8397 19.9489 11.237 19.9807 10.6264C20.0045 10.2343 20.0072 9.83949 19.986 9.44471ZM10.1925 17.6272C9.92227 17.9641 9.66266 18.3089 9.40041 18.6536C9.24941 18.8537 9.05603 18.9484 8.80437 18.8905C8.54477 18.83 8.37788 18.6115 8.38053 18.3457C8.37788 18.2088 8.42556 18.0904 8.51033 17.9825C8.77259 17.6483 9.03484 17.3114 9.2971 16.9771C9.46928 16.7613 9.75008 16.6797 9.98055 16.7982C10.3488 16.985 10.3673 17.4061 10.1925 17.6272ZM12.3329 14.74C12.3223 14.8506 12.2773 14.9427 12.211 15.0295C11.9461 15.3691 11.6865 15.7112 11.4243 16.0507C11.2865 16.2297 11.1064 16.3165 10.8812 16.2771C10.6402 16.2349 10.4892 16.0823 10.4309 15.8454C10.4203 15.8059 10.4203 15.7638 10.4176 15.7217C10.4176 15.5901 10.4627 15.4717 10.5421 15.3691C10.8123 15.0243 11.0825 14.6769 11.3554 14.3321C11.5037 14.1452 11.7845 14.0742 12.0018 14.1637C12.2137 14.2531 12.3567 14.5005 12.3329 14.74ZM14.2614 12.3871C13.9859 12.7345 13.7183 13.0872 13.4375 13.4294C13.3051 13.5899 13.1197 13.6794 12.9024 13.632C12.6693 13.5794 12.5157 13.4294 12.4653 13.1925C12.4309 13.0346 12.468 12.8846 12.5687 12.753C12.8256 12.4161 13.0879 12.0845 13.3422 11.745C13.6044 11.3923 14.1607 11.4265 14.3382 11.8555C14.3674 11.9239 14.3753 11.995 14.3753 12.0661C14.3753 12.1871 14.3382 12.2924 14.2614 12.3871ZM16.2879 9.75527C16.0151 10.1053 15.7449 10.4606 15.4747 10.8133C15.3263 11.0054 15.0694 11.087 14.8362 11.0133C14.6164 10.9449 14.4601 10.7396 14.4521 10.5001C14.4468 10.3553 14.5025 10.2237 14.5899 10.1132C14.8548 9.77106 15.1276 9.43681 15.3978 9.09993C15.5515 8.91044 15.7978 8.83674 16.0204 8.9157C16.2429 8.99466 16.3912 9.20257 16.3939 9.44734C16.3859 9.55261 16.3621 9.66052 16.2879 9.75527ZM18.3383 7.1155C18.0681 7.46554 17.7979 7.81821 17.5303 8.16825C17.3555 8.39722 17.1144 8.47354 16.8601 8.3788C16.6482 8.29984 16.5051 8.08403 16.5104 7.82347C16.5078 7.7182 16.5581 7.59976 16.6402 7.49186C16.8998 7.16024 17.1568 6.82862 17.4191 6.49701C17.6204 6.23908 17.9171 6.18908 18.1979 6.36278C18.431 6.51017 18.5052 6.89968 18.3383 7.1155Z" fill="white"/>
<path d="M13.9036 0.789086C12.7857 0.304821 11.6148 0.0521609 10.3962 0.00741904C9.53793 -0.0241635 8.68758 0.0442653 7.84783 0.228496C7.03722 0.404832 6.2584 0.673283 5.51931 1.04964C4.21067 1.71287 3.09542 2.61297 2.1815 3.7631C1.65169 4.4316 1.20929 5.1501 0.864917 5.92914C0.515242 6.7187 0.26623 7.54248 0.123181 8.39257C0.0596038 8.76103 0.0278151 9.13213 0.0119208 9.50322C-0.00397358 9.83747 -0.00397358 10.1691 0.0119208 10.5033C0.025166 10.8139 0.0516566 11.1271 0.0940415 11.435C0.152321 11.864 0.252985 12.2851 0.369543 12.7009C0.501996 13.18 0.663589 13.6511 0.872864 14.1037C1.08214 14.5538 1.32585 14.9854 1.59076 15.4065C1.74705 15.6539 1.91394 15.8908 2.09408 16.1276C6.04647 11.0218 9.99357 5.91598 13.9407 0.815404C13.9327 0.796981 13.9168 0.794349 13.9036 0.789086ZM3.38682 12.3799C3.11661 12.7273 2.84641 13.0773 2.57091 13.4195C2.40667 13.6247 2.12322 13.6905 1.89275 13.5695C1.61195 13.4194 1.43976 13.0536 1.69142 12.7536C1.78414 12.643 1.86626 12.5246 1.95368 12.4088C2.13117 12.1746 2.30335 11.9351 2.48349 11.7035C2.63184 11.5113 2.83052 11.4298 3.07158 11.485C3.31264 11.5403 3.4504 11.6982 3.50073 11.9377C3.50338 11.9456 3.50338 11.9561 3.50603 11.964C3.50603 11.9877 3.50603 12.0114 3.50603 12.0351C3.50867 12.1614 3.46629 12.2772 3.38682 12.3799ZM5.41864 9.76378C5.19612 10.048 4.9736 10.3349 4.75108 10.6191C4.71135 10.6718 4.67161 10.7244 4.62923 10.7744C4.51002 10.9244 4.34578 11.0034 4.08087 11.0008C3.91398 10.9955 3.75769 10.8613 3.65967 10.6612C3.56431 10.4718 3.60139 10.2928 3.7312 10.1243C3.99875 9.77694 4.25836 9.42427 4.52326 9.07423C4.66366 8.88999 4.8544 8.81104 5.07957 8.85052C5.30738 8.88999 5.45838 9.02422 5.52196 9.25056C5.57759 9.44006 5.53785 9.61113 5.41864 9.76378ZM7.43458 7.14769C7.17232 7.48457 6.91006 7.81882 6.64781 8.15307C6.49681 8.3452 6.29283 8.40047 6.06501 8.3452C5.85044 8.29256 5.71269 8.14517 5.65706 7.93199C5.61468 7.76355 5.65971 7.60564 5.76037 7.47405C6.03587 7.11611 6.31932 6.76607 6.60542 6.4134C6.74052 6.24759 6.92331 6.19232 7.12729 6.23707C7.34716 6.28444 7.48491 6.42919 7.54584 6.64764C7.55908 6.69238 7.56173 6.73712 7.55908 6.79766C7.56703 6.92135 7.51935 7.03979 7.43458 7.14769ZM9.54323 4.39212C9.4664 4.5553 9.3419 4.68426 9.23594 4.82375C9.0505 5.06588 8.86242 5.30801 8.67169 5.54488C8.52864 5.72385 8.33261 5.79228 8.11273 5.74754C7.87962 5.70016 7.72862 5.55278 7.67564 5.31854C7.66769 5.2817 7.66769 5.23959 7.6624 5.20011C7.66504 5.06325 7.72067 4.95008 7.80015 4.8448C8.05711 4.50529 8.31671 4.16841 8.57897 3.83153C8.75116 3.61046 9.02931 3.5315 9.26772 3.6473C9.58031 3.80521 9.67303 4.11577 9.54323 4.39212ZM11.5141 1.8971C11.2492 2.24978 10.979 2.59718 10.7088 2.94722C10.5658 3.13145 10.3062 3.20515 10.0836 3.13409C9.86111 3.06303 9.70747 2.85774 9.69952 2.61824C9.69687 2.47349 9.7525 2.34189 9.83462 2.22872C10.0942 1.88395 10.3591 1.5418 10.624 1.19966C10.7327 1.06017 10.881 0.983844 11.077 0.975949C11.2943 0.994372 11.4664 1.11017 11.5751 1.30756C11.6916 1.51285 11.6492 1.71814 11.5141 1.8971Z" fill="white"/>
</svg>
